<svg xmlns="http://www.w3.org/2000/svg" xmlns:xlink="http://www.w3.org/1999/xlink" width="448pt" height="332pt" viewBox="0 0 448 332"><g id="graph1" class="graph" transform="scale(1 1) rotate(0) translate(4 328)"><title>AWS CloudFormation Sample Template auto_scaling_with_instance_profile: Create an Auto Scaling group with an associated instance profile. **WARNING** This template creates one or more Amazon EC2 instances and an Amazon SQS queue. You will be billed for the AWS resources used if you create a stack from this template.</title><polygon fill="#fff" stroke="#fff" points="-4 5 -4 -328 445 -328 445 5 -4 5"/><g id="node1" class="node"><title>RootRole</title><polygon fill="none" stroke="#000" points="155 -252 79 -252 79 -216 155 -216 155 -252"/><text x="117" y="-230.4" font-family="Times Roman,serif" font-size="14" text-anchor="middle">RootRole</text></g><g id="node2" class="node"><title>RolePolicies</title><polygon fill="none" stroke="#000" points="94 -180 0 -180 0 -144 94 -144 94 -180"/><text x="47" y="-158.4" font-family="Times Roman,serif" font-size="14" text-anchor="middle">RolePolicies</text></g><g id="edge3" class="edge"><title>RootRole-&gt;RolePolicies</title><path fill="none" stroke="#000" d="M99.336,-215.831C91.0268,-207.285 80.9736,-196.944 71.9082,-187.62"/><polygon fill="#000" stroke="#000" points="74.382 -185.143 64.902 -180.413 69.363 -190.023 74.382 -185.143"/></g><g id="node5" class="node"><title>RootInstanceProfile</title><polygon fill="none" stroke="#000" points="262 -180 112 -180 112 -144 262 -144 262 -180"/><text x="187" y="-158.4" font-family="Times Roman,serif" font-size="14" text-anchor="middle">RootInstanceProfile</text></g><g id="edge15" class="edge"><title>RootRole-&gt;RootInstanceProfile</title><path fill="none" stroke="#000" d="M134.664,-215.831C142.973,-207.285 153.026,-196.944 162.092,-187.62"/><polygon fill="#000" stroke="#000" points="164.637 -190.023 169.098 -180.413 159.618 -185.143 164.637 -190.023"/></g><g id="node3" class="node"><title>myASGrpOne</title><polygon fill="none" stroke="#000" points="354 -36 244 -36 244 0 354 0 354 -36"/><text x="299" y="-14.4" font-family="Times Roman,serif" font-size="14" text-anchor="middle">myASGrpOne</text></g><g id="node4" class="node"><title>myLCOne</title><polygon fill="none" stroke="#000" points="341 -108 257 -108 257 -72 341 -72 341 -108"/><text x="299" y="-86.4" font-family="Times Roman,serif" font-size="14" text-anchor="middle">myLCOne</text></g><g id="edge5" class="edge"><title>myLCOne-&gt;myASGrpOne</title><path fill="none" stroke="#000" d="M299,-71.8314C299,-64.131 299,-54.9743 299,-46.4166"/><polygon fill="#000" stroke="#000" points="302.5 -46.413 299 -36.413 295.5 -46.413 302.5 -46.413"/></g><g id="edge7" class="edge"><title>RootInstanceProfile-&gt;myLCOne</title><path fill="none" stroke="#000" d="M215.262,-143.831C229.455,-134.707 246.828,-123.539 262.064,-113.745"/><polygon fill="#000" stroke="#000" points="264.228 -116.515 270.747 -108.163 260.442 -110.626 264.228 -116.515"/></g><g id="node7" class="node"><title>InstanceType</title><polygon fill="#d3d3d3" stroke="#d3d3d3" points="340 -324 258 -324 246 -312 246 -300 258 -288 340 -288 352 -300 352 -312 340 -324"/><path fill="#d3d3d3" stroke="#d3d3d3" d="M258,-324C252,-324 246,-318 246,-312"/><path fill="#d3d3d3" stroke="#d3d3d3" d="M246,-300C246,-294 252,-288 258,-288"/><path fill="#d3d3d3" stroke="#d3d3d3" d="M340,-288C346,-288 352,-294 352,-300"/><path fill="#d3d3d3" stroke="#d3d3d3" d="M352,-312C352,-318 346,-324 340,-324"/><polyline fill="none" stroke="#000" points="340 -324 258 -324"/><path fill="none" stroke="#000" d="M258,-324C252,-324 246,-318 246,-312"/><polyline fill="none" stroke="#000" points="246 -312 246 -300"/><path fill="none" stroke="#000" d="M246,-300C246,-294 252,-288 258,-288"/><polyline fill="none" stroke="#000" points="258 -288 340 -288"/><path fill="none" stroke="#000" d="M340,-288C346,-288 352,-294 352,-300"/><polyline fill="none" stroke="#000" points="352 -300 352 -312"/><path fill="none" stroke="#000" d="M352,-312C352,-318 346,-324 340,-324"/><text x="299" y="-302.4" font-family="Times Roman,serif" font-size="14" text-anchor="middle">InstanceType</text></g><g id="edge9" class="edge"><title>InstanceType-&gt;myLCOne</title><path fill="none" stroke="#000" d="M295.054,-287.955C291.596,-250.314 291.336,-163.187 294.276,-118.125"/><polygon fill="#000" stroke="#000" points="297.766 -118.384 295.045 -108.145 290.787 -117.847 297.766 -118.384"/></g><g id="edge13" class="edge"><title>InstanceType-&gt;myLCOne</title><path fill="none" stroke="#000" d="M302.946,-287.955C306.404,-250.314 306.664,-163.187 303.724,-118.125"/><polygon fill="#000" stroke="#000" points="307.213 -117.847 302.955 -108.145 300.234 -118.384 307.213 -117.847"/></g><g id="node12" class="node"><title>AWS::Region</title><polygon fill="none" stroke="#000" points="440 -252 336 -252 336 -216 440 -216 440 -252"/><text x="388" y="-230.4" font-family="Times Roman,serif" font-size="14" text-anchor="middle">AWS::Region</text></g><g id="edge11" class="edge"><title>AWS::Region-&gt;myLCOne</title><path fill="none" stroke="#000" d="M376.728,-215.762C361.28,-190.768 333.421,-145.692 315.589,-116.841"/><polygon fill="#000" stroke="#000" points="318.415 -114.756 310.18 -108.09 312.461 -118.436 318.415 -114.756"/></g></g></svg>