<svg xmlns="http://www.w3.org/2000/svg" xmlns:xlink="http://www.w3.org/1999/xlink" width="550pt" height="332pt" viewBox="0 0 550 332"><g id="graph1" class="graph" transform="scale(1 1) rotate(0) translate(4 328)"><title>AWS CloudFormation Sample Template AutoScalingRollingUpdates: Create a load balanced, Auto Scaled sample website. This example creates an Auto Scaling group behind a load balancer with a simple health check using a basic getting start AMI that has a simple Apache Web Server-based PHP page. The autoscaling launch configuration includes an update policy that will keep 2 instances running while doing an autoscaling rolling upgrade. **WARNING** This template creates one or more Amazon EC2 instances and an Elastic Load Balancer. You will be billed for the AWS resources used if you create a stack from this template.</title><polygon fill="#fff" stroke="#fff" points="-4 5 -4 -328 547 -328 547 5 -4 5"/><g id="node1" class="node"><title>ElasticLoadBalancer</title><polygon fill="none" stroke="#000" points="154 -180 0 -180 0 -144 154 -144 154 -180"/><text x="77" y="-158.4" font-family="Times Roman,serif" font-size="14" text-anchor="middle">ElasticLoadBalancer</text></g><g id="node3" class="node"><title>WebServerGroup</title><polygon fill="none" stroke="#000" points="331 -108 195 -108 195 -72 331 -72 331 -108"/><text x="263" y="-86.4" font-family="Times Roman,serif" font-size="14" text-anchor="middle">WebServerGroup</text></g><g id="edge14" class="edge"><title>ElasticLoadBalancer-&gt;WebServerGroup</title><path fill="none" stroke="#000" d="M123.936,-143.831C149.144,-134.073 180.393,-121.977 206.879,-111.724"/><polygon fill="#000" stroke="#000" points="208.34 -114.912 216.402 -108.038 205.813 -108.384 208.34 -114.912"/></g><g id="node10" class="node"><title>URL</title><polygon fill="#d3d3d3" stroke="#d3d3d3" points="92 -36 62 -36 50 -24 50 -12 62 0 92 0 104 -12 104 -24 92 -36"/><path fill="#d3d3d3" stroke="#d3d3d3" d="M62,-36C56,-36 50,-30 50,-24"/><path fill="#d3d3d3" stroke="#d3d3d3" d="M50,-12C50,-6 56,-1.61846e-14 62,-1.46056e-14"/><path fill="#d3d3d3" stroke="#d3d3d3" d="M92,-6.71068e-15C98,-5.1317e-15 104,-6 104,-12"/><path fill="#d3d3d3" stroke="#d3d3d3" d="M104,-24C104,-30 98,-36 92,-36"/><polyline fill="none" stroke="#000" points="92 -36 62 -36"/><path fill="none" stroke="#000" d="M62,-36C56,-36 50,-30 50,-24"/><polyline fill="none" stroke="#000" points="50 -24 50 -12"/><path fill="none" stroke="#000" d="M50,-12C50,-6 56,-1.61846e-14 62,-1.46056e-14"/><polyline fill="none" stroke="#000" points="62 0 92 0"/><path fill="none" stroke="#000" d="M92,-6.71068e-15C98,-5.1317e-15 104,-6 104,-12"/><polyline fill="none" stroke="#000" points="104 -12 104 -24"/><path fill="none" stroke="#000" d="M104,-24C104,-30 98,-36 92,-36"/><text x="77" y="-14.4" font-family="Times Roman,serif" font-size="14" text-anchor="middle">URL</text></g><g id="edge28" class="edge"><title>ElasticLoadBalancer-&gt;URL</title><path fill="none" stroke="#000" d="M77,-143.762C77,-119.201 77,-75.2474 77,-46.3541"/><polygon fill="#000" stroke="#000" points="80.5 -46.09 77 -36.09 73.5 -46.09 80.5 -46.09"/></g><g id="node2" class="node"><title>InstanceSecurityGroup</title><polygon fill="none" stroke="#000" points="288 -252 114 -252 114 -216 288 -216 288 -252"/><text x="201" y="-230.4" font-family="Times Roman,serif" font-size="14" text-anchor="middle">InstanceSecurityGroup</text></g><g id="node4" class="node"><title>LaunchConfig</title><polygon fill="none" stroke="#000" points="409 -180 299 -180 299 -144 409 -144 409 -180"/><text x="354" y="-158.4" font-family="Times Roman,serif" font-size="14" text-anchor="middle">LaunchConfig</text></g><g id="edge20" class="edge"><title>InstanceSecurityGroup-&gt;LaunchConfig</title><path fill="none" stroke="#000" d="M239.608,-215.831C259.889,-206.287 284.924,-194.506 306.397,-184.401"/><polygon fill="#000" stroke="#000" points="308.111 -187.463 315.669 -180.038 305.131 -181.129 308.111 -187.463"/></g><g id="edge12" class="edge"><title>LaunchConfig-&gt;WebServerGroup</title><path fill="none" stroke="#000" d="M331.037,-143.831C319.828,-134.963 306.179,-124.164 294.056,-114.572"/><polygon fill="#000" stroke="#000" points="295.97 -111.623 285.956 -108.163 291.626 -117.112 295.97 -111.623"/></g><g id="node6" class="node"><title>KeyName</title><polygon fill="#d3d3d3" stroke="#d3d3d3" points="365 -324 309 -324 297 -312 297 -300 309 -288 365 -288 377 -300 377 -312 365 -324"/><path fill="#d3d3d3" stroke="#d3d3d3" d="M309,-324C303,-324 297,-318 297,-312"/><path fill="#d3d3d3" stroke="#d3d3d3" d="M297,-300C297,-294 303,-288 309,-288"/><path fill="#d3d3d3" stroke="#d3d3d3" d="M365,-288C371,-288 377,-294 377,-300"/><path fill="#d3d3d3" stroke="#d3d3d3" d="M377,-312C377,-318 371,-324 365,-324"/><polyline fill="none" stroke="#000" points="365 -324 309 -324"/><path fill="none" stroke="#000" d="M309,-324C303,-324 297,-318 297,-312"/><polyline fill="none" stroke="#000" points="297 -312 297 -300"/><path fill="none" stroke="#000" d="M297,-300C297,-294 303,-288 309,-288"/><polyline fill="none" stroke="#000" points="309 -288 365 -288"/><path fill="none" stroke="#000" d="M365,-288C371,-288 377,-294 377,-300"/><polyline fill="none" stroke="#000" points="377 -300 377 -312"/><path fill="none" stroke="#000" d="M377,-312C377,-318 371,-324 365,-324"/><text x="337" y="-302.4" font-family="Times Roman,serif" font-size="14" text-anchor="middle">KeyName</text></g><g id="edge18" class="edge"><title>KeyName-&gt;LaunchConfig</title><path fill="none" stroke="#000" d="M339.153,-287.762C342.053,-263.201 347.242,-219.247 350.653,-190.354"/><polygon fill="#000" stroke="#000" points="354.168 -190.431 351.864 -180.09 347.216 -189.61 354.168 -190.431"/></g><g id="node7" class="node"><title>WebServerPort</title><polygon fill="#d3d3d3" stroke="#d3d3d3" points="250 -324 152 -324 140 -312 140 -300 152 -288 250 -288 262 -300 262 -312 250 -324"/><path fill="#d3d3d3" stroke="#d3d3d3" d="M152,-324C146,-324 140,-318 140,-312"/><path fill="#d3d3d3" stroke="#d3d3d3" d="M140,-300C140,-294 146,-288 152,-288"/><path fill="#d3d3d3" stroke="#d3d3d3" d="M250,-288C256,-288 262,-294 262,-300"/><path fill="#d3d3d3" stroke="#d3d3d3" d="M262,-312C262,-318 256,-324 250,-324"/><polyline fill="none" stroke="#000" points="250 -324 152 -324"/><path fill="none" stroke="#000" d="M152,-324C146,-324 140,-318 140,-312"/><polyline fill="none" stroke="#000" points="140 -312 140 -300"/><path fill="none" stroke="#000" d="M140,-300C140,-294 146,-288 152,-288"/><polyline fill="none" stroke="#000" points="152 -288 250 -288"/><path fill="none" stroke="#000" d="M250,-288C256,-288 262,-294 262,-300"/><polyline fill="none" stroke="#000" points="262 -300 262 -312"/><path fill="none" stroke="#000" d="M262,-312C262,-318 256,-324 250,-324"/><text x="201" y="-302.4" font-family="Times Roman,serif" font-size="14" text-anchor="middle">WebServerPort</text></g><g id="edge4" class="edge"><title>WebServerPort-&gt;ElasticLoadBalancer</title><path fill="none" stroke="#000" d="M144.744,-287.973C126.869,-279.389 108.565,-267.538 96,-252 81.7413,-234.368 74.7149,-209.454 72.6965,-190.307"/><polygon fill="#000" stroke="#000" points="76.175 -189.842 72.073 -180.073 69.188 -190.268 76.175 -189.842"/></g><g id="edge6" class="edge"><title>WebServerPort-&gt;ElasticLoadBalancer</title><path fill="none" stroke="#000" d="M161.281,-287.85C144.694,-279.275 126.505,-267.464 114,-252 99.6087,-234.204 92.5848,-208.989 87.7061,-189.774"/><polygon fill="#000" stroke="#000" points="91.098 -188.91 85.253 -180.073 84.311 -190.626 91.098 -188.91"/></g><g id="edge8" class="edge"><title>WebServerPort-&gt;InstanceSecurityGroup</title><path fill="none" stroke="#000" d="M195.048,-287.831C194.297,-280.131 194.076,-270.974 194.385,-262.417"/><polygon fill="#000" stroke="#000" points="197.879 -262.616 195.024 -252.413 190.893 -262.17 197.879 -262.616"/></g><g id="edge10" class="edge"><title>WebServerPort-&gt;InstanceSecurityGroup</title><path fill="none" stroke="#000" d="M206.952,-287.831C207.703,-280.131 207.924,-270.974 207.615,-262.417"/><polygon fill="#000" stroke="#000" points="211.107 -262.17 206.976 -252.413 204.121 -262.616 211.107 -262.17"/></g><g id="edge16" class="edge"><title>WebServerPort-&gt;LaunchConfig</title><path fill="none" stroke="#000" d="M243.208,-287.959C261.149,-278.923 281.466,-266.744 297,-252 315.935,-234.028 331.318,-208.513 341.31,-189.237"/><polygon fill="#000" stroke="#000" points="344.554 -190.576 345.904 -180.068 338.295 -187.441 344.554 -190.576"/></g><g id="node8" class="node"><title>InstanceType</title><polygon fill="#d3d3d3" stroke="#d3d3d3" points="489 -324 407 -324 395 -312 395 -300 407 -288 489 -288 501 -300 501 -312 489 -324"/><path fill="#d3d3d3" stroke="#d3d3d3" d="M407,-324C401,-324 395,-318 395,-312"/><path fill="#d3d3d3" stroke="#d3d3d3" d="M395,-300C395,-294 401,-288 407,-288"/><path fill="#d3d3d3" stroke="#d3d3d3" d="M489,-288C495,-288 501,-294 501,-300"/><path fill="#d3d3d3" stroke="#d3d3d3" d="M501,-312C501,-318 495,-324 489,-324"/><polyline fill="none" stroke="#000" points="489 -324 407 -324"/><path fill="none" stroke="#000" d="M407,-324C401,-324 395,-318 395,-312"/><polyline fill="none" stroke="#000" points="395 -312 395 -300"/><path fill="none" stroke="#000" d="M395,-300C395,-294 401,-288 407,-288"/><polyline fill="none" stroke="#000" points="407 -288 489 -288"/><path fill="none" stroke="#000" d="M489,-288C495,-288 501,-294 501,-300"/><polyline fill="none" stroke="#000" points="501 -300 501 -312"/><path fill="none" stroke="#000" d="M501,-312C501,-318 495,-324 489,-324"/><text x="448" y="-302.4" font-family="Times Roman,serif" font-size="14" text-anchor="middle">InstanceType</text></g><g id="edge26" class="edge"><title>InstanceType-&gt;LaunchConfig</title><path fill="none" stroke="#000" d="M431.422,-287.762C412.603,-262.768 382.938,-217.692 366.127,-188.841"/><polygon fill="#000" stroke="#000" points="369.136 -187.052 361.15 -180.09 363.051 -190.513 369.136 -187.052"/></g><g id="edge22" class="edge"><title>InstanceType-&gt;LaunchConfig</title><path fill="none" stroke="#000" d="M440.768,-287.762C426.896,-262.66 397.519,-217.302 376.645,-188.467"/><polygon fill="#000" stroke="#000" points="379.219 -186.06 370.467 -180.09 373.585 -190.215 379.219 -186.06"/></g><g id="node21" class="node"><title>AWS::Region</title><polygon fill="none" stroke="#000" points="542 -252 438 -252 438 -216 542 -216 542 -252"/><text x="490" y="-230.4" font-family="Times Roman,serif" font-size="14" text-anchor="middle">AWS::Region</text></g><g id="edge24" class="edge"><title>AWS::Region-&gt;LaunchConfig</title><path fill="none" stroke="#000" d="M455.681,-215.831C437.964,-206.452 416.166,-194.911 397.302,-184.924"/><polygon fill="#000" stroke="#000" points="398.783 -181.748 388.308 -180.163 395.508 -187.935 398.783 -181.748"/></g></g></svg>