<svg xmlns="http://www.w3.org/2000/svg" xmlns:xlink="http://www.w3.org/1999/xlink" width="2248pt" height="404pt" viewBox="0 0 2248 404"><g id="graph1" class="graph" transform="scale(1 1) rotate(0) translate(4 400)"><title>Create a spot-priced AutoScaling group and a Bees With Machine Guns controller; execute the load test against the AutoScaling group and store the results in S3. Run /home/ec2-user/run-bees to execute load tests manually.</title><polygon fill="#fff" stroke="#fff" points="-4 5 -4 -400 2245 -400 2245 5 -4 5"/><g id="node1" class="node"><title>BeeController</title><polygon fill="none" stroke="#000" points="1152 -180 1040 -180 1040 -144 1152 -144 1152 -180"/><text x="1096" y="-158.4" font-family="Times Roman,serif" font-size="14" text-anchor="middle">BeeController</text></g><g id="node29" class="node"><title>BeeControllerAddress</title><polygon fill="#d3d3d3" stroke="#d3d3d3" points="1167 -36 1025 -36 1013 -24 1013 -12 1025 0 1167 0 1179 -12 1179 -24 1167 -36"/><path fill="#d3d3d3" stroke="#d3d3d3" d="M1025,-36C1019,-36 1013,-30 1013,-24"/><path fill="#d3d3d3" stroke="#d3d3d3" d="M1013,-12C1013,-6 1019,-1.72499e-14 1025,-1.67363e-14"/><path fill="#d3d3d3" stroke="#d3d3d3" d="M1167,-4.58e-15C1173,-4.06636e-15 1179,-6 1179,-12"/><path fill="#d3d3d3" stroke="#d3d3d3" d="M1179,-24C1179,-30 1173,-36 1167,-36"/><polyline fill="none" stroke="#000" points="1167 -36 1025 -36"/><path fill="none" stroke="#000" d="M1025,-36C1019,-36 1013,-30 1013,-24"/><polyline fill="none" stroke="#000" points="1013 -24 1013 -12"/><path fill="none" stroke="#000" d="M1013,-12C1013,-6 1019,-1.72499e-14 1025,-1.67363e-14"/><polyline fill="none" stroke="#000" points="1025 0 1167 0"/><path fill="none" stroke="#000" d="M1167,-4.58e-15C1173,-4.06636e-15 1179,-6 1179,-12"/><polyline fill="none" stroke="#000" points="1179 -12 1179 -24"/><path fill="none" stroke="#000" d="M1179,-24C1179,-30 1173,-36 1167,-36"/><text x="1096" y="-14.4" font-family="Times Roman,serif" font-size="14" text-anchor="middle">BeeControllerAddress</text></g><g id="edge118" class="edge"><title>BeeController-&gt;BeeControllerAddress</title><path fill="none" stroke="#000" d="M1096,-143.762C1096,-119.201 1096,-75.2474 1096,-46.3541"/><polygon fill="#000" stroke="#000" points="1099.5 -46.09 1096 -36.09 1092.5 -46.09 1099.5 -46.09"/></g><g id="node2" class="node"><title>CfnKeys</title><polygon fill="none" stroke="#000" points="1236 -252 1166 -252 1166 -216 1236 -216 1236 -252"/><text x="1201" y="-230.4" font-family="Times Roman,serif" font-size="14" text-anchor="middle">CfnKeys</text></g><g id="edge4" class="edge"><title>CfnKeys-&gt;BeeController</title><path fill="none" stroke="#000" d="M1165.86,-228.35C1135.44,-219.599 1103.95,-202.233 1087.73,-187.463"/><polygon fill="#000" stroke="#000" points="1090.13 -184.909 1080.73 -180.035 1085.04 -189.712 1090.13 -184.909"/></g><g id="edge6" class="edge"><title>CfnKeys-&gt;BeeController</title><path fill="none" stroke="#000" d="M1165.77,-225.458C1142.22,-216.092 1116.45,-200.621 1100.51,-187.3"/><polygon fill="#000" stroke="#000" points="1102.47 -184.354 1092.74 -180.173 1097.74 -189.512 1102.47 -184.354"/></g><g id="edge42" class="edge"><title>CfnKeys-&gt;BeeController</title><path fill="none" stroke="#000" d="M1180.46,-215.831C1168.04,-206.707 1151.9,-195.539 1137.02,-185.745"/><polygon fill="#000" stroke="#000" points="1138.73 -182.683 1128.44 -180.163 1134.91 -188.551 1138.73 -182.683"/></g><g id="edge44" class="edge"><title>CfnKeys-&gt;BeeController</title><path fill="none" stroke="#000" d="M1192.36,-215.831C1181.62,-206.622 1165.58,-195.33 1149.35,-185.471"/><polygon fill="#000" stroke="#000" points="1150.73 -182.226 1140.34 -180.163 1147.18 -188.257 1150.73 -182.226"/></g><g id="edge52" class="edge"><title>CfnKeys-&gt;BeeController</title><path fill="none" stroke="#000" d="M1204.27,-215.831C1195.16,-206.452 1178.97,-194.911 1161.12,-184.924"/><polygon fill="#000" stroke="#000" points="1162.71 -181.807 1152.25 -180.163 1159.4 -187.975 1162.71 -181.807"/></g><g id="edge54" class="edge"><title>CfnKeys-&gt;BeeController</title><path fill="none" stroke="#000" d="M1216.17,-215.831C1207.4,-204.528 1186.06,-190.086 1161.64,-179.008"/><polygon fill="#000" stroke="#000" points="1162.72 -175.662 1152.15 -174.94 1159.96 -182.096 1162.72 -175.662"/></g><g id="edge16" class="edge"><title>CfnKeys-&gt;BeeController</title><path fill="none" stroke="#000" d="M1165.97,-220.961C1147.89,-211.408 1127.46,-198.153 1112.59,-186.63"/><polygon fill="#000" stroke="#000" points="1114.51 -183.677 1104.54 -180.087 1110.1 -189.11 1114.51 -183.677"/></g><g id="edge18" class="edge"><title>CfnKeys-&gt;BeeController</title><path fill="none" stroke="#000" d="M1168.55,-215.831C1154.62,-206.878 1138.54,-195.956 1125.01,-186.295"/><polygon fill="#000" stroke="#000" points="1126.69 -183.191 1116.54 -180.163 1122.58 -188.861 1126.69 -183.191"/></g><g id="node4" class="node"><title>LaunchConfig</title><polygon fill="none" stroke="#000" points="1455 -180 1345 -180 1345 -144 1455 -144 1455 -180"/><text x="1400" y="-158.4" font-family="Times Roman,serif" font-size="14" text-anchor="middle">LaunchConfig</text></g><g id="edge72" class="edge"><title>CfnKeys-&gt;LaunchConfig</title><path fill="none" stroke="#000" d="M1235.54,-216.176C1235.69,-216.117 1235.85,-216.058 1236,-216 1268.35,-203.759 1304.86,-190.988 1335.28,-180.941"/><polygon fill="#000" stroke="#000" points="1336.51 -184.219 1344.93 -177.778 1334.33 -177.567 1336.51 -184.219"/></g><g id="edge74" class="edge"><title>CfnKeys-&gt;LaunchConfig</title><path fill="none" stroke="#000" d="M1236.22,-222.92C1242.2,-220.578 1248.29,-218.162 1254,-216 1283.67,-204.772 1316.85,-193.097 1344.13,-183.487"/><polygon fill="#000" stroke="#000" points="1345.63 -186.67 1353.9 -180.045 1343.3 -180.068 1345.63 -186.67"/></g><g id="node3" class="node"><title>CfnUser</title><polygon fill="none" stroke="#000" points="1481 -324 1411 -324 1411 -288 1481 -288 1481 -324"/><text x="1446" y="-302.4" font-family="Times Roman,serif" font-size="14" text-anchor="middle">CfnUser</text></g><g id="edge68" class="edge"><title>CfnUser-&gt;CfnKeys</title><path fill="none" stroke="#000" d="M1410.64,-290.956C1407.74,-289.899 1404.83,-288.898 1402,-288 1336.69,-267.305 1315.1,-273.055 1245.97,-252.041"/><polygon fill="#000" stroke="#000" points="1246.95 -248.681 1236.36 -249.044 1244.86 -255.363 1246.95 -248.681"/></g><g id="node11" class="node"><title>BucketPolicy</title><polygon fill="none" stroke="#000" points="1864 -180 1762 -180 1762 -144 1864 -144 1864 -180"/><text x="1813" y="-158.4" font-family="Times Roman,serif" font-size="14" text-anchor="middle">BucketPolicy</text></g><g id="edge100" class="edge"><title>CfnUser-&gt;BucketPolicy</title><path fill="none" stroke="#000" d="M1481.08,-303.724C1572.37,-297.447 1811.86,-278.578 1835,-252 1850.14,-234.616 1841.43,-208.493 1830.84,-188.861"/><polygon fill="#000" stroke="#000" points="1833.79 -186.978 1825.75 -180.083 1827.74 -190.49 1833.79 -186.978"/></g><g id="node13" class="node"><title>AppGroup</title><polygon fill="none" stroke="#000" points="1973 -108 1887 -108 1887 -72 1973 -72 1973 -108"/><text x="1930" y="-86.4" font-family="Times Roman,serif" font-size="14" text-anchor="middle">AppGroup</text></g><g id="edge108" class="edge"><title>LaunchConfig-&gt;AppGroup</title><path fill="none" stroke="#000" d="M1455.22,-154.498C1557.62,-140.587 1775.71,-110.96 1876.67,-97.2449"/><polygon fill="#000" stroke="#000" points="1877.21 -100.704 1886.65 -95.889 1876.27 -93.767 1877.21 -100.704"/></g><g id="node5" class="node"><title>AppSecurityGroup</title><polygon fill="none" stroke="#000" points="1550 -252 1408 -252 1408 -216 1550 -216 1550 -252"/><text x="1479" y="-230.4" font-family="Times Roman,serif" font-size="14" text-anchor="middle">AppSecurityGroup</text></g><g id="edge82" class="edge"><title>AppSecurityGroup-&gt;LaunchConfig</title><path fill="none" stroke="#000" d="M1459.06,-215.831C1449.52,-207.134 1437.94,-196.578 1427.57,-187.127"/><polygon fill="#000" stroke="#000" points="1429.68 -184.312 1419.93 -180.163 1424.96 -189.486 1429.68 -184.312"/></g><g id="node6" class="node"><title>ControllerSecurityGroup</title><polygon fill="none" stroke="#000" points="936 -324 752 -324 752 -288 936 -288 936 -324"/><text x="844" y="-302.4" font-family="Times Roman,serif" font-size="14" text-anchor="middle">ControllerSecurityGroup</text></g><g id="edge64" class="edge"><title>ControllerSecurityGroup-&gt;BeeController</title><path fill="none" stroke="#000" d="M816.234,-287.715C791.227,-269.021 761.206,-239.476 781,-216 796.869,-197.179 942.125,-178.501 1029.75,-168.813"/><polygon fill="#000" stroke="#000" points="1030.31 -172.272 1039.87 -167.705 1029.55 -165.314 1030.31 -172.272"/></g><g id="node9" class="node"><title>BeeSecurityGroup</title><polygon fill="none" stroke="#000" points="932 -252 790 -252 790 -216 932 -216 932 -252"/><text x="861" y="-230.4" font-family="Times Roman,serif" font-size="14" text-anchor="middle">BeeSecurityGroup</text></g><g id="edge98" class="edge"><title>ControllerSecurityGroup-&gt;BeeSecurityGroup</title><path fill="none" stroke="#000" d="M848.29,-287.831C850.108,-280.131 852.27,-270.974 854.291,-262.417"/><polygon fill="#000" stroke="#000" points="857.761 -262.95 856.652 -252.413 850.948 -261.341 857.761 -262.95"/></g><g id="node7" class="node"><title>ElasticLoadBalancer</title><polygon fill="none" stroke="#000" points="1393 -324 1239 -324 1239 -288 1393 -288 1393 -324"/><text x="1316" y="-302.4" font-family="Times Roman,serif" font-size="14" text-anchor="middle">ElasticLoadBalancer</text></g><g id="edge32" class="edge"><title>ElasticLoadBalancer-&gt;BeeController</title><path fill="none" stroke="#000" d="M1238.72,-302.408C1161.95,-296.976 1052.18,-283.692 1026,-252 1008.61,-230.95 1030.35,-204.955 1054.17,-186.323"/><polygon fill="#000" stroke="#000" points="1056.33 -189.076 1062.28 -180.304 1052.16 -183.455 1056.33 -189.076"/></g><g id="edge20" class="edge"><title>ElasticLoadBalancer-&gt;BeeController</title><path fill="none" stroke="#000" d="M1238.78,-301.364C1167.31,-295.347 1068.64,-281.825 1044,-252 1026.84,-231.225 1047.79,-205.632 1068.12,-187.055"/><polygon fill="#000" stroke="#000" points="1070.6 -189.535 1075.8 -180.304 1065.98 -184.277 1070.6 -189.535"/></g><g id="edge88" class="edge"><title>ElasticLoadBalancer-&gt;AppSecurityGroup</title><path fill="none" stroke="#000" d="M1351.18,-287.831C1372.13,-278.159 1399.13,-266.189 1422.93,-255.994"/><polygon fill="#000" stroke="#000" points="1424.4 -259.176 1432.22 -252.038 1421.65 -252.736 1424.4 -259.176"/></g><g id="edge90" class="edge"><title>ElasticLoadBalancer-&gt;AppSecurityGroup</title><path fill="none" stroke="#000" d="M1363.08,-287.831C1385.72,-278.245 1412.65,-266.401 1434.89,-256.266"/><polygon fill="#000" stroke="#000" points="1436.47 -259.388 1444.1 -252.038 1433.55 -253.026 1436.47 -259.388"/></g><g id="edge114" class="edge"><title>ElasticLoadBalancer-&gt;AppGroup</title><path fill="none" stroke="#000" d="M1393.27,-289.357C1396.22,-288.873 1399.13,-288.418 1402,-288 1497.55,-274.083 1753.28,-303.426 1835,-252 1883.81,-221.285 1910.52,-155.682 1922.37,-118.061"/><polygon fill="#000" stroke="#000" points="1925.8 -118.829 1925.33 -108.244 1919.09 -116.812 1925.8 -118.829"/></g><g id="node28" class="node"><title>WebsiteURL</title><polygon fill="#d3d3d3" stroke="#d3d3d3" points="1686 -36 1610 -36 1598 -24 1598 -12 1610 0 1686 0 1698 -12 1698 -24 1686 -36"/><path fill="#d3d3d3" stroke="#d3d3d3" d="M1610,-36C1604,-36 1598,-30 1598,-24"/><path fill="#d3d3d3" stroke="#d3d3d3" d="M1598,-12C1598,-6 1604,-1.69109e-14 1610,-1.60583e-14"/><path fill="#d3d3d3" stroke="#d3d3d3" d="M1686,-5.25802e-15C1692,-4.40536e-15 1698,-6 1698,-12"/><path fill="#d3d3d3" stroke="#d3d3d3" d="M1698,-24C1698,-30 1692,-36 1686,-36"/><polyline fill="none" stroke="#000" points="1686 -36 1610 -36"/><path fill="none" stroke="#000" d="M1610,-36C1604,-36 1598,-30 1598,-24"/><polyline fill="none" stroke="#000" points="1598 -24 1598 -12"/><path fill="none" stroke="#000" d="M1598,-12C1598,-6 1604,-1.69109e-14 1610,-1.60583e-14"/><polyline fill="none" stroke="#000" points="1610 0 1686 0"/><path fill="none" stroke="#000" d="M1686,-5.25802e-15C1692,-4.40536e-15 1698,-6 1698,-12"/><polyline fill="none" stroke="#000" points="1698 -12 1698 -24"/><path fill="none" stroke="#000" d="M1698,-24C1698,-30 1692,-36 1686,-36"/><text x="1648" y="-14.4" font-family="Times Roman,serif" font-size="14" text-anchor="middle">WebsiteURL</text></g><g id="edge116" class="edge"><title>ElasticLoadBalancer-&gt;WebsiteURL</title><path fill="none" stroke="#000" d="M1393.16,-289.757C1463.09,-274.896 1555.76,-254.805 1559,-252 1621.33,-198.099 1640.15,-95.6943 1645.72,-46.1904"/><polygon fill="#000" stroke="#000" points="1649.21 -46.492 1646.75 -36.188 1642.25 -45.779 1649.21 -46.492"/></g><g id="node8" class="node"><title>ControllerCondition</title><polygon fill="none" stroke="#000" points="152 -108 0 -108 0 -72 152 -72 152 -108"/><text x="76" y="-86.4" font-family="Times Roman,serif" font-size="14" text-anchor="middle">ControllerCondition</text></g><g id="edge28" class="edge"><title>BeeSecurityGroup-&gt;BeeController</title><path fill="none" stroke="#000" d="M919.997,-215.924C953.408,-205.688 995.292,-192.855 1029.82,-182.277"/><polygon fill="#000" stroke="#000" points="1031.28 -185.491 1039.81 -179.215 1029.23 -178.798 1031.28 -185.491"/></g><g id="node10" class="node"><title>ControllerHandle</title><polygon fill="none" stroke="#000" points="143 -252 9 -252 9 -216 143 -216 143 -252"/><text x="76" y="-230.4" font-family="Times Roman,serif" font-size="14" text-anchor="middle">ControllerHandle</text></g><g id="edge58" class="edge"><title>ControllerHandle-&gt;BeeController</title><path fill="none" stroke="#000" d="M143.032,-218.231C147.744,-217.391 152.434,-216.634 157,-216 325.954,-192.525 844.55,-171.4 1029.56,-164.425"/><polygon fill="#000" stroke="#000" points="1029.83 -167.917 1039.69 -164.045 1029.57 -160.922 1029.83 -167.917"/></g><g id="edge96" class="edge"><title>ControllerHandle-&gt;ControllerCondition</title><path fill="none" stroke="#000" d="M76,-215.762C76,-191.201 76,-147.247 76,-118.354"/><polygon fill="#000" stroke="#000" points="79.5 -118.09 76 -108.09 72.5 -118.09 79.5 -118.09"/></g><g id="node12" class="node"><title>ResultBucket</title><polygon fill="none" stroke="#000" points="1826 -252 1720 -252 1720 -216 1826 -216 1826 -252"/><text x="1773" y="-230.4" font-family="Times Roman,serif" font-size="14" text-anchor="middle">ResultBucket</text></g><g id="edge38" class="edge"><title>ResultBucket-&gt;BeeController</title><path fill="none" stroke="#000" d="M1719.88,-228.35C1597.6,-215.346 1296.46,-183.32 1162.32,-169.054"/><polygon fill="#000" stroke="#000" points="1162.5 -165.553 1152.19 -167.975 1161.76 -172.513 1162.5 -165.553"/></g><g id="edge102" class="edge"><title>ResultBucket-&gt;BucketPolicy</title><path fill="none" stroke="#000" d="M1777.14,-215.831C1780.86,-207.708 1786.07,-197.964 1791.43,-189.012"/><polygon fill="#000" stroke="#000" points="1794.47 -190.751 1796.79 -180.413 1788.53 -187.048 1794.47 -190.751"/></g><g id="edge104" class="edge"><title>ResultBucket-&gt;BucketPolicy</title><path fill="none" stroke="#000" d="M1789.05,-215.831C1794.24,-207.877 1799.73,-198.369 1804.26,-189.572"/><polygon fill="#000" stroke="#000" points="1807.5 -190.934 1808.75 -180.413 1801.21 -187.857 1807.5 -190.934"/></g><g id="node30" class="node"><title>TestResultsURL</title><polygon fill="#d3d3d3" stroke="#d3d3d3" points="1826 -36 1728 -36 1716 -24 1716 -12 1728 0 1826 0 1838 -12 1838 -24 1826 -36"/><path fill="#d3d3d3" stroke="#d3d3d3" d="M1728,-36C1722,-36 1716,-30 1716,-24"/><path fill="#d3d3d3" stroke="#d3d3d3" d="M1716,-12C1716,-6 1722,-1.70647e-14 1728,-1.63658e-14"/><path fill="#d3d3d3" stroke="#d3d3d3" d="M1826,-4.9505e-15C1832,-4.25161e-15 1838,-6 1838,-12"/><path fill="#d3d3d3" stroke="#d3d3d3" d="M1838,-24C1838,-30 1832,-36 1826,-36"/><polyline fill="none" stroke="#000" points="1826 -36 1728 -36"/><path fill="none" stroke="#000" d="M1728,-36C1722,-36 1716,-30 1716,-24"/><polyline fill="none" stroke="#000" points="1716 -24 1716 -12"/><path fill="none" stroke="#000" d="M1716,-12C1716,-6 1722,-1.70647e-14 1728,-1.63658e-14"/><polyline fill="none" stroke="#000" points="1728 0 1826 0"/><path fill="none" stroke="#000" d="M1826,-4.9505e-15C1832,-4.25161e-15 1838,-6 1838,-12"/><polyline fill="none" stroke="#000" points="1838 -12 1838 -24"/><path fill="none" stroke="#000" d="M1838,-24C1838,-30 1832,-36 1826,-36"/><text x="1777" y="-14.4" font-family="Times Roman,serif" font-size="14" text-anchor="middle">TestResultsURL</text></g><g id="edge120" class="edge"><title>ResultBucket-&gt;TestResultsURL</title><path fill="none" stroke="#000" d="M1764.48,-215.959C1760.1,-205.674 1755.22,-192.399 1753,-180 1744.58,-133.029 1757.52,-78.0162 1767.43,-45.695"/><polygon fill="#000" stroke="#000" points="1770.8 -46.628 1770.51 -36.037 1764.13 -44.501 1770.8 -46.628"/></g><g id="node15" class="node"><title>BeesControllerInstanceType</title><polygon fill="#d3d3d3" stroke="#d3d3d3" points="362 -396 178 -396 166 -384 166 -372 178 -360 362 -360 374 -372 374 -384 362 -396"/><path fill="#d3d3d3" stroke="#d3d3d3" d="M178,-396C172,-396 166,-390 166,-384"/><path fill="#d3d3d3" stroke="#d3d3d3" d="M166,-372C166,-366 172,-360 178,-360"/><path fill="#d3d3d3" stroke="#d3d3d3" d="M362,-360C368,-360 374,-366 374,-372"/><path fill="#d3d3d3" stroke="#d3d3d3" d="M374,-384C374,-390 368,-396 362,-396"/><polyline fill="none" stroke="#000" points="362 -396 178 -396"/><path fill="none" stroke="#000" d="M178,-396C172,-396 166,-390 166,-384"/><polyline fill="none" stroke="#000" points="166 -384 166 -372"/><path fill="none" stroke="#000" d="M166,-372C166,-366 172,-360 178,-360"/><polyline fill="none" stroke="#000" points="178 -360 362 -360"/><path fill="none" stroke="#000" d="M362,-360C368,-360 374,-366 374,-372"/><polyline fill="none" stroke="#000" points="374 -372 374 -384"/><path fill="none" stroke="#000" d="M374,-384C374,-390 368,-396 362,-396"/><text x="270" y="-374.4" font-family="Times Roman,serif" font-size="14" text-anchor="middle">BeesControllerInstanceType</text></g><g id="edge66" class="edge"><title>BeesControllerInstanceType-&gt;BeeController</title><path fill="none" stroke="#000" d="M300.646,-359.737C360.104,-325.254 496.259,-250.9 621,-216 696.279,-194.939 917.953,-175.635 1029.82,-166.905"/><polygon fill="#000" stroke="#000" points="1030.27 -170.381 1039.97 -166.119 1029.73 -163.402 1030.27 -170.381"/></g><g id="node16" class="node"><title>BeeCount</title><polygon fill="#d3d3d3" stroke="#d3d3d3" points="660 -396 600 -396 588 -384 588 -372 600 -360 660 -360 672 -372 672 -384 660 -396"/><path fill="#d3d3d3" stroke="#d3d3d3" d="M600,-396C594,-396 588,-390 588,-384"/><path fill="#d3d3d3" stroke="#d3d3d3" d="M588,-372C588,-366 594,-360 600,-360"/><path fill="#d3d3d3" stroke="#d3d3d3" d="M660,-360C666,-360 672,-366 672,-372"/><path fill="#d3d3d3" stroke="#d3d3d3" d="M672,-384C672,-390 666,-396 660,-396"/><polyline fill="none" stroke="#000" points="660 -396 600 -396"/><path fill="none" stroke="#000" d="M600,-396C594,-396 588,-390 588,-384"/><polyline fill="none" stroke="#000" points="588 -384 588 -372"/><path fill="none" stroke="#000" d="M588,-372C588,-366 594,-360 600,-360"/><polyline fill="none" stroke="#000" points="600 -360 660 -360"/><path fill="none" stroke="#000" d="M660,-360C666,-360 672,-366 672,-372"/><polyline fill="none" stroke="#000" points="672 -372 672 -384"/><path fill="none" stroke="#000" d="M672,-384C672,-390 666,-396 660,-396"/><text x="630" y="-374.4" font-family="Times Roman,serif" font-size="14" text-anchor="middle">BeeCount</text></g><g id="edge26" class="edge"><title>BeeCount-&gt;BeeController</title><path fill="none" stroke="#000" d="M635.619,-359.766C647.261,-325.333 677.498,-251.06 731,-216 778.963,-184.57 938.366,-170.69 1029.87,-165.185"/><polygon fill="#000" stroke="#000" points="1030.09 -168.678 1039.87 -164.601 1029.68 -161.69 1030.09 -168.678"/></g><g id="node17" class="node"><title>AppInstanceCountMax</title><polygon fill="#d3d3d3" stroke="#d3d3d3" points="2042 -396 1894 -396 1882 -384 1882 -372 1894 -360 2042 -360 2054 -372 2054 -384 2042 -396"/><path fill="#d3d3d3" stroke="#d3d3d3" d="M1894,-396C1888,-396 1882,-390 1882,-384"/><path fill="#d3d3d3" stroke="#d3d3d3" d="M1882,-372C1882,-366 1888,-360 1894,-360"/><path fill="#d3d3d3" stroke="#d3d3d3" d="M2042,-360C2048,-360 2054,-366 2054,-372"/><path fill="#d3d3d3" stroke="#d3d3d3" d="M2054,-384C2054,-390 2048,-396 2042,-396"/><polyline fill="none" stroke="#000" points="2042 -396 1894 -396"/><path fill="none" stroke="#000" d="M1894,-396C1888,-396 1882,-390 1882,-384"/><polyline fill="none" stroke="#000" points="1882 -384 1882 -372"/><path fill="none" stroke="#000" d="M1882,-372C1882,-366 1888,-360 1894,-360"/><polyline fill="none" stroke="#000" points="1894 -360 2042 -360"/><path fill="none" stroke="#000" d="M2042,-360C2048,-360 2054,-366 2054,-372"/><polyline fill="none" stroke="#000" points="2054 -372 2054 -384"/><path fill="none" stroke="#000" d="M2054,-384C2054,-390 2048,-396 2042,-396"/><text x="1968" y="-374.4" font-family="Times Roman,serif" font-size="14" text-anchor="middle">AppInstanceCountMax</text></g><g id="edge112" class="edge"><title>AppInstanceCountMax-&gt;AppGroup</title><path fill="none" stroke="#000" d="M1967.08,-359.963C1964.88,-320.528 1958.35,-223.784 1944,-144 1942.48,-135.555 1940.34,-126.488 1938.18,-118.241"/><polygon fill="#000" stroke="#000" points="1941.49 -117.074 1935.49 -108.341 1934.74 -118.909 1941.49 -117.074"/></g><g id="node18" class="node"><title>AppInstanceCountMin</title><polygon fill="#d3d3d3" stroke="#d3d3d3" points="2228 -396 2084 -396 2072 -384 2072 -372 2084 -360 2228 -360 2240 -372 2240 -384 2228 -396"/><path fill="#d3d3d3" stroke="#d3d3d3" d="M2084,-396C2078,-396 2072,-390 2072,-384"/><path fill="#d3d3d3" stroke="#d3d3d3" d="M2072,-372C2072,-366 2078,-360 2084,-360"/><path fill="#d3d3d3" stroke="#d3d3d3" d="M2228,-360C2234,-360 2240,-366 2240,-372"/><path fill="#d3d3d3" stroke="#d3d3d3" d="M2240,-384C2240,-390 2234,-396 2228,-396"/><polyline fill="none" stroke="#000" points="2228 -396 2084 -396"/><path fill="none" stroke="#000" d="M2084,-396C2078,-396 2072,-390 2072,-384"/><polyline fill="none" stroke="#000" points="2072 -384 2072 -372"/><path fill="none" stroke="#000" d="M2072,-372C2072,-366 2078,-360 2084,-360"/><polyline fill="none" stroke="#000" points="2084 -360 2228 -360"/><path fill="none" stroke="#000" d="M2228,-360C2234,-360 2240,-366 2240,-372"/><polyline fill="none" stroke="#000" points="2240 -372 2240 -384"/><path fill="none" stroke="#000" d="M2240,-384C2240,-390 2234,-396 2228,-396"/><text x="2156" y="-374.4" font-family="Times Roman,serif" font-size="14" text-anchor="middle">AppInstanceCountMin</text></g><g id="edge110" class="edge"><title>AppInstanceCountMin-&gt;AppGroup</title><path fill="none" stroke="#000" d="M2141.86,-359.984C2103.18,-310.688 1995.47,-173.434 1950.32,-115.899"/><polygon fill="#000" stroke="#000" points="1953.06 -113.715 1944.13 -108.009 1947.55 -118.037 1953.06 -113.715"/></g><g id="node19" class="node"><title>TotalConnections</title><polygon fill="#d3d3d3" stroke="#d3d3d3" points="1026 -396 916 -396 904 -384 904 -372 916 -360 1026 -360 1038 -372 1038 -384 1026 -396"/><path fill="#d3d3d3" stroke="#d3d3d3" d="M916,-396C910,-396 904,-390 904,-384"/><path fill="#d3d3d3" stroke="#d3d3d3" d="M904,-372C904,-366 910,-360 916,-360"/><path fill="#d3d3d3" stroke="#d3d3d3" d="M1026,-360C1032,-360 1038,-366 1038,-372"/><path fill="#d3d3d3" stroke="#d3d3d3" d="M1038,-384C1038,-390 1032,-396 1026,-396"/><polyline fill="none" stroke="#000" points="1026 -396 916 -396"/><path fill="none" stroke="#000" d="M916,-396C910,-396 904,-390 904,-384"/><polyline fill="none" stroke="#000" points="904 -384 904 -372"/><path fill="none" stroke="#000" d="M904,-372C904,-366 910,-360 916,-360"/><polyline fill="none" stroke="#000" points="916 -360 1026 -360"/><path fill="none" stroke="#000" d="M1026,-360C1032,-360 1038,-366 1038,-372"/><polyline fill="none" stroke="#000" points="1038 -372 1038 -384"/><path fill="none" stroke="#000" d="M1038,-384C1038,-390 1032,-396 1026,-396"/><text x="971" y="-374.4" font-family="Times Roman,serif" font-size="14" text-anchor="middle">TotalConnections</text></g><g id="edge34" class="edge"><title>TotalConnections-&gt;BeeController</title><path fill="none" stroke="#000" d="M903.826,-362.09C836.571,-346.162 743,-324 743,-324 733.075,-311.45 740.145,-303.743 743,-288 749.098,-254.372 743.6,-237.704 770,-216 808.659,-184.218 946.047,-170.674 1029.63,-165.272"/><polygon fill="#000" stroke="#000" points="1030.04 -168.753 1039.8 -164.637 1029.6 -161.767 1030.04 -168.753"/></g><g id="node20" class="node"><title>SSHLocation</title><polygon fill="#d3d3d3" stroke="#d3d3d3" points="1206 -396 1126 -396 1114 -384 1114 -372 1126 -360 1206 -360 1218 -372 1218 -384 1206 -396"/><path fill="#d3d3d3" stroke="#d3d3d3" d="M1126,-396C1120,-396 1114,-390 1114,-384"/><path fill="#d3d3d3" stroke="#d3d3d3" d="M1114,-372C1114,-366 1120,-360 1126,-360"/><path fill="#d3d3d3" stroke="#d3d3d3" d="M1206,-360C1212,-360 1218,-366 1218,-372"/><path fill="#d3d3d3" stroke="#d3d3d3" d="M1218,-384C1218,-390 1212,-396 1206,-396"/><polyline fill="none" stroke="#000" points="1206 -396 1126 -396"/><path fill="none" stroke="#000" d="M1126,-396C1120,-396 1114,-390 1114,-384"/><polyline fill="none" stroke="#000" points="1114 -384 1114 -372"/><path fill="none" stroke="#000" d="M1114,-372C1114,-366 1120,-360 1126,-360"/><polyline fill="none" stroke="#000" points="1126 -360 1206 -360"/><path fill="none" stroke="#000" d="M1206,-360C1212,-360 1218,-366 1218,-372"/><polyline fill="none" stroke="#000" points="1218 -372 1218 -384"/><path fill="none" stroke="#000" d="M1218,-384C1218,-390 1212,-396 1206,-396"/><text x="1166" y="-374.4" font-family="Times Roman,serif" font-size="14" text-anchor="middle">SSHLocation</text></g><g id="edge92" class="edge"><title>SSHLocation-&gt;AppSecurityGroup</title><path fill="none" stroke="#000" d="M1218.07,-372.994C1305.17,-364.091 1472.63,-344.505 1490,-324 1504.45,-306.944 1499.48,-281.116 1492.2,-261.497"/><polygon fill="#000" stroke="#000" points="1495.4 -260.094 1488.39 -252.157 1488.92 -262.738 1495.4 -260.094"/></g><g id="edge94" class="edge"><title>SSHLocation-&gt;ControllerSecurityGroup</title><path fill="none" stroke="#000" d="M1113.91,-366.352C1065.53,-355.535 992.464,-339.197 934.547,-326.246"/><polygon fill="#000" stroke="#000" points="935.178 -322.801 924.655 -324.035 933.65 -329.633 935.178 -322.801"/></g><g id="node21" class="node"><title>KeyName</title><polygon fill="#d3d3d3" stroke="#d3d3d3" points="1419 -396 1363 -396 1351 -384 1351 -372 1363 -360 1419 -360 1431 -372 1431 -384 1419 -396"/><path fill="#d3d3d3" stroke="#d3d3d3" d="M1363,-396C1357,-396 1351,-390 1351,-384"/><path fill="#d3d3d3" stroke="#d3d3d3" d="M1351,-372C1351,-366 1357,-360 1363,-360"/><path fill="#d3d3d3" stroke="#d3d3d3" d="M1419,-360C1425,-360 1431,-366 1431,-372"/><path fill="#d3d3d3" stroke="#d3d3d3" d="M1431,-384C1431,-390 1425,-396 1419,-396"/><polyline fill="none" stroke="#000" points="1419 -396 1363 -396"/><path fill="none" stroke="#000" d="M1363,-396C1357,-396 1351,-390 1351,-384"/><polyline fill="none" stroke="#000" points="1351 -384 1351 -372"/><path fill="none" stroke="#000" d="M1351,-372C1351,-366 1357,-360 1363,-360"/><polyline fill="none" stroke="#000" points="1363 -360 1419 -360"/><path fill="none" stroke="#000" d="M1419,-360C1425,-360 1431,-366 1431,-372"/><polyline fill="none" stroke="#000" points="1431 -372 1431 -384"/><path fill="none" stroke="#000" d="M1431,-384C1431,-390 1425,-396 1419,-396"/><text x="1391" y="-374.4" font-family="Times Roman,serif" font-size="14" text-anchor="middle">KeyName</text></g><g id="edge62" class="edge"><title>KeyName-&gt;BeeController</title><path fill="none" stroke="#000" d="M1350.94,-370.304C1264.05,-352.708 1062.89,-306.797 1024,-252 1014.74,-238.953 1016.84,-230.311 1024,-216 1030.01,-203.972 1040.12,-193.929 1050.89,-185.894"/><polygon fill="#000" stroke="#000" points="1052.97 -188.713 1059.2 -180.143 1048.98 -182.957 1052.97 -188.713"/></g><g id="edge80" class="edge"><title>KeyName-&gt;LaunchConfig</title><path fill="none" stroke="#000" d="M1431.05,-365.45C1455.12,-356.539 1485.38,-342.804 1508,-324 1538.16,-298.934 1547.11,-289.367 1559,-252 1563.85,-236.754 1568.32,-229.006 1559,-216 1547.5,-199.943 1503.62,-185.754 1464.86,-175.955"/><polygon fill="#000" stroke="#000" points="1465.69 -172.554 1455.14 -173.559 1464.01 -179.35 1465.69 -172.554"/></g><g id="node22" class="node"><title>RunTests</title><polygon fill="#d3d3d3" stroke="#d3d3d3" points="136 -396 82 -396 70 -384 70 -372 82 -360 136 -360 148 -372 148 -384 136 -396"/><path fill="#d3d3d3" stroke="#d3d3d3" d="M82,-396C76,-396 70,-390 70,-384"/><path fill="#d3d3d3" stroke="#d3d3d3" d="M70,-372C70,-366 76,-360 82,-360"/><path fill="#d3d3d3" stroke="#d3d3d3" d="M136,-360C142,-360 148,-366 148,-372"/><path fill="#d3d3d3" stroke="#d3d3d3" d="M148,-384C148,-390 142,-396 136,-396"/><polyline fill="none" stroke="#000" points="136 -396 82 -396"/><path fill="none" stroke="#000" d="M82,-396C76,-396 70,-390 70,-384"/><polyline fill="none" stroke="#000" points="70 -384 70 -372"/><path fill="none" stroke="#000" d="M70,-372C70,-366 76,-360 82,-360"/><polyline fill="none" stroke="#000" points="82 -360 136 -360"/><path fill="none" stroke="#000" d="M136,-360C142,-360 148,-366 148,-372"/><polyline fill="none" stroke="#000" points="148 -372 148 -384"/><path fill="none" stroke="#000" d="M148,-384C148,-390 142,-396 136,-396"/><text x="109" y="-374.4" font-family="Times Roman,serif" font-size="14" text-anchor="middle">RunTests</text></g><g id="edge48" class="edge"><title>RunTests-&gt;BeeController</title><path fill="none" stroke="#000" d="M144.346,-359.895C213.605,-325.343 372.914,-250.383 516,-216 611.978,-192.937 898.841,-173.647 1029.66,-165.787"/><polygon fill="#000" stroke="#000" points="1030.16 -169.263 1039.94 -165.174 1029.75 -162.276 1030.16 -169.263"/></g><g id="node23" class="node"><title>AppInstanceCountDesired</title><polygon fill="#d3d3d3" stroke="#d3d3d3" points="874 -396 702 -396 690 -384 690 -372 702 -360 874 -360 886 -372 886 -384 874 -396"/><path fill="#d3d3d3" stroke="#d3d3d3" d="M702,-396C696,-396 690,-390 690,-384"/><path fill="#d3d3d3" stroke="#d3d3d3" d="M690,-372C690,-366 696,-360 702,-360"/><path fill="#d3d3d3" stroke="#d3d3d3" d="M874,-360C880,-360 886,-366 886,-372"/><path fill="#d3d3d3" stroke="#d3d3d3" d="M886,-384C886,-390 880,-396 874,-396"/><polyline fill="none" stroke="#000" points="874 -396 702 -396"/><path fill="none" stroke="#000" d="M702,-396C696,-396 690,-390 690,-384"/><polyline fill="none" stroke="#000" points="690 -384 690 -372"/><path fill="none" stroke="#000" d="M690,-372C690,-366 696,-360 702,-360"/><polyline fill="none" stroke="#000" points="702 -360 874 -360"/><path fill="none" stroke="#000" d="M874,-360C880,-360 886,-366 886,-372"/><polyline fill="none" stroke="#000" points="886 -372 886 -384"/><path fill="none" stroke="#000" d="M886,-384C886,-390 880,-396 874,-396"/><text x="788" y="-374.4" font-family="Times Roman,serif" font-size="14" text-anchor="middle">AppInstanceCountDesired</text></g><g id="edge24" class="edge"><title>AppInstanceCountDesired-&gt;BeeController</title><path fill="none" stroke="#000" d="M753.56,-359.815C741.658,-350.529 729.954,-338.19 724,-324 714.084,-300.369 732.022,-218.98 735,-216 755.261,-195.727 930.865,-176.49 1029.55,-167.425"/><polygon fill="#000" stroke="#000" points="1030.09 -170.891 1039.73 -166.502 1029.45 -163.92 1030.09 -170.891"/></g><g id="edge22" class="edge"><title>AppInstanceCountDesired-&gt;BeeController</title><path fill="none" stroke="#000" d="M769.928,-359.815C759.658,-350.529 747.954,-338.19 742,-324 732.084,-300.369 750.022,-218.98 753,-216 772.476,-196.512 935.495,-177.982 1029.68,-168.524"/><polygon fill="#000" stroke="#000" points="1030.08 -172.001 1039.69 -167.527 1029.39 -165.035 1030.08 -172.001"/></g><g id="edge106" class="edge"><title>AppInstanceCountDesired-&gt;AppGroup</title><path fill="none" stroke="#000" d="M886.19,-361.066C889.157,-360.688 892.099,-360.331 895,-360 1110.93,-335.376 1685.33,-371.279 1867,-252 1911.54,-222.756 1924.61,-156.785 1928.43,-118.663"/><polygon fill="#000" stroke="#000" points="1931.96 -118.51 1929.32 -108.25 1924.98 -117.918 1931.96 -118.51"/></g><g id="node24" class="node"><title>ConcurrentConnections</title><polygon fill="#d3d3d3" stroke="#d3d3d3" points="558 -396 404 -396 392 -384 392 -372 404 -360 558 -360 570 -372 570 -384 558 -396"/><path fill="#d3d3d3" stroke="#d3d3d3" d="M404,-396C398,-396 392,-390 392,-384"/><path fill="#d3d3d3" stroke="#d3d3d3" d="M392,-372C392,-366 398,-360 404,-360"/><path fill="#d3d3d3" stroke="#d3d3d3" d="M558,-360C564,-360 570,-366 570,-372"/><path fill="#d3d3d3" stroke="#d3d3d3" d="M570,-384C570,-390 564,-396 558,-396"/><polyline fill="none" stroke="#000" points="558 -396 404 -396"/><path fill="none" stroke="#000" d="M404,-396C398,-396 392,-390 392,-384"/><polyline fill="none" stroke="#000" points="392 -384 392 -372"/><path fill="none" stroke="#000" d="M392,-372C392,-366 398,-360 404,-360"/><polyline fill="none" stroke="#000" points="404 -360 558 -360"/><path fill="none" stroke="#000" d="M558,-360C564,-360 570,-366 570,-372"/><polyline fill="none" stroke="#000" points="570 -372 570 -384"/><path fill="none" stroke="#000" d="M570,-384C570,-390 564,-396 558,-396"/><text x="481" y="-374.4" font-family="Times Roman,serif" font-size="14" text-anchor="middle">ConcurrentConnections</text></g><g id="edge36" class="edge"><title>ConcurrentConnections-&gt;BeeController</title><path fill="none" stroke="#000" d="M497.533,-359.868C530.279,-325.268 607.314,-250.229 689,-216 749.001,-190.857 930.369,-174.115 1029.52,-166.577"/><polygon fill="#000" stroke="#000" points="1030.01 -170.049 1039.72 -165.811 1029.49 -163.069 1030.01 -170.049"/></g><g id="node25" class="node"><title>SpotPrice</title><polygon fill="#d3d3d3" stroke="#d3d3d3" points="1727 -396 1669 -396 1657 -384 1657 -372 1669 -360 1727 -360 1739 -372 1739 -384 1727 -396"/><path fill="#d3d3d3" stroke="#d3d3d3" d="M1669,-396C1663,-396 1657,-390 1657,-384"/><path fill="#d3d3d3" stroke="#d3d3d3" d="M1657,-372C1657,-366 1663,-360 1669,-360"/><path fill="#d3d3d3" stroke="#d3d3d3" d="M1727,-360C1733,-360 1739,-366 1739,-372"/><path fill="#d3d3d3" stroke="#d3d3d3" d="M1739,-384C1739,-390 1733,-396 1727,-396"/><polyline fill="none" stroke="#000" points="1727 -396 1669 -396"/><path fill="none" stroke="#000" d="M1669,-396C1663,-396 1657,-390 1657,-384"/><polyline fill="none" stroke="#000" points="1657 -384 1657 -372"/><path fill="none" stroke="#000" d="M1657,-372C1657,-366 1663,-360 1669,-360"/><polyline fill="none" stroke="#000" points="1669 -360 1727 -360"/><path fill="none" stroke="#000" d="M1727,-360C1733,-360 1739,-366 1739,-372"/><polyline fill="none" stroke="#000" points="1739 -372 1739 -384"/><path fill="none" stroke="#000" d="M1739,-384C1739,-390 1733,-396 1727,-396"/><text x="1698" y="-374.4" font-family="Times Roman,serif" font-size="14" text-anchor="middle">SpotPrice</text></g><g id="edge86" class="edge"><title>SpotPrice-&gt;LaunchConfig</title><path fill="none" stroke="#000" d="M1691.67,-359.822C1678.99,-326.15 1647.23,-254.05 1596,-216 1558.12,-187.867 1506.36,-174.391 1465.55,-167.936"/><polygon fill="#000" stroke="#000" points="1465.82 -164.439 1455.42 -166.441 1464.8 -171.364 1465.82 -164.439"/></g><g id="node26" class="node"><title>AppInstanceType</title><polygon fill="#d3d3d3" stroke="#d3d3d3" points="1627 -396 1519 -396 1507 -384 1507 -372 1519 -360 1627 -360 1639 -372 1639 -384 1627 -396"/><path fill="#d3d3d3" stroke="#d3d3d3" d="M1519,-396C1513,-396 1507,-390 1507,-384"/><path fill="#d3d3d3" stroke="#d3d3d3" d="M1507,-372C1507,-366 1513,-360 1519,-360"/><path fill="#d3d3d3" stroke="#d3d3d3" d="M1627,-360C1633,-360 1639,-366 1639,-372"/><path fill="#d3d3d3" stroke="#d3d3d3" d="M1639,-384C1639,-390 1633,-396 1627,-396"/><polyline fill="none" stroke="#000" points="1627 -396 1519 -396"/><path fill="none" stroke="#000" d="M1519,-396C1513,-396 1507,-390 1507,-384"/><polyline fill="none" stroke="#000" points="1507 -384 1507 -372"/><path fill="none" stroke="#000" d="M1507,-372C1507,-366 1513,-360 1519,-360"/><polyline fill="none" stroke="#000" points="1519 -360 1627 -360"/><path fill="none" stroke="#000" d="M1627,-360C1633,-360 1639,-366 1639,-372"/><polyline fill="none" stroke="#000" points="1639 -372 1639 -384"/><path fill="none" stroke="#000" d="M1639,-384C1639,-390 1633,-396 1627,-396"/><text x="1573" y="-374.4" font-family="Times Roman,serif" font-size="14" text-anchor="middle">AppInstanceType</text></g><g id="edge84" class="edge"><title>AppInstanceType-&gt;LaunchConfig</title><path fill="none" stroke="#000" d="M1579.66,-359.823C1590.26,-327.409 1606.73,-259.001 1575,-216 1561.57,-197.805 1509.04,-183.158 1465,-173.734"/><polygon fill="#000" stroke="#000" points="1465.68 -170.3 1455.18 -171.686 1464.25 -177.153 1465.68 -170.3"/></g><g id="node33" class="node"><title>AWS::Region</title><polygon fill="none" stroke="#000" points="1148 -252 1044 -252 1044 -216 1148 -216 1148 -252"/><text x="1096" y="-230.4" font-family="Times Roman,serif" font-size="14" text-anchor="middle">AWS::Region</text></g><g id="edge30" class="edge"><title>AWS::Region-&gt;BeeController</title><path fill="none" stroke="#000" d="M1048.38,-215.831C1042.11,-207.792 1040.46,-198.167 1043.43,-189.292"/><polygon fill="#000" stroke="#000" points="1046.55 -190.88 1048.19 -180.413 1040.38 -187.571 1046.55 -190.88"/></g><g id="edge40" class="edge"><title>AWS::Region-&gt;BeeController</title><path fill="none" stroke="#000" d="M1107.9,-215.831C1109.41,-208.131 1109.85,-198.974 1109.23,-190.417"/><polygon fill="#000" stroke="#000" points="1112.69 -189.889 1107.95 -180.413 1105.75 -190.776 1112.69 -189.889"/></g><g id="edge8" class="edge"><title>AWS::Region-&gt;BeeController</title><path fill="none" stroke="#000" d="M1060.29,-215.831C1055.68,-207.962 1054.4,-198.571 1056.44,-189.853"/><polygon fill="#000" stroke="#000" points="1059.75 -191.001 1060.14 -180.413 1053.23 -188.441 1059.75 -191.001"/></g><g id="edge46" class="edge"><title>AWS::Region-&gt;BeeController</title><path fill="none" stroke="#000" d="M1119.81,-215.831C1122.84,-208.046 1123.71,-198.773 1122.42,-190.135"/><polygon fill="#000" stroke="#000" points="1125.8 -189.218 1119.9 -180.413 1119.02 -190.971 1125.8 -189.218"/></g><g id="edge56" class="edge"><title>AWS::Region-&gt;BeeController</title><path fill="none" stroke="#000" d="M1131.71,-215.831C1136.32,-207.962 1137.6,-198.571 1135.56,-189.853"/><polygon fill="#000" stroke="#000" points="1138.77 -188.441 1131.86 -180.413 1132.25 -191.001 1138.77 -188.441"/></g><g id="edge60" class="edge"><title>AWS::Region-&gt;BeeController</title><path fill="none" stroke="#000" d="M1143.62,-215.831C1149.89,-207.792 1151.54,-198.167 1148.57,-189.292"/><polygon fill="#000" stroke="#000" points="1151.62 -187.571 1143.81 -180.413 1145.45 -190.88 1151.62 -187.571"/></g><g id="edge10" class="edge"><title>AWS::Region-&gt;BeeController</title><path fill="none" stroke="#000" d="M1072.19,-215.831C1069.16,-208.046 1068.29,-198.773 1069.58,-190.135"/><polygon fill="#000" stroke="#000" points="1072.98 -190.971 1072.1 -180.413 1066.2 -189.218 1072.98 -190.971"/></g><g id="edge12" class="edge"><title>AWS::Region-&gt;BeeController</title><path fill="none" stroke="#000" d="M1084.1,-215.831C1082.59,-208.131 1082.15,-198.974 1082.77,-190.417"/><polygon fill="#000" stroke="#000" points="1086.25 -190.776 1084.05 -180.413 1079.31 -189.889 1086.25 -190.776"/></g><g id="edge14" class="edge"><title>AWS::Region-&gt;BeeController</title><path fill="none" stroke="#000" d="M1096,-215.831C1096,-208.131 1096,-198.974 1096,-190.417"/><polygon fill="#000" stroke="#000" points="1099.5 -190.413 1096 -180.413 1092.5 -190.413 1099.5 -190.413"/></g><g id="edge76" class="edge"><title>AWS::Region-&gt;LaunchConfig</title><path fill="none" stroke="#000" d="M1147.68,-216.083C1147.79,-216.055 1147.89,-216.028 1148,-216 1210.76,-199.786 1283.4,-184.033 1334.61,-173.768"/><polygon fill="#000" stroke="#000" points="1335.43 -177.173 1344.55 -171.79 1334.06 -170.308 1335.43 -177.173"/></g><g id="edge78" class="edge"><title>AWS::Region-&gt;LaunchConfig</title><path fill="none" stroke="#000" d="M1148.13,-220.85C1154.18,-219.154 1160.23,-217.491 1166,-216 1222.72,-201.348 1287.5,-187.072 1334.57,-176.882"/><polygon fill="#000" stroke="#000" points="1335.6 -180.24 1344.64 -174.707 1334.12 -173.398 1335.6 -180.24"/></g><g id="node55" class="node"><title>AWS::StackName</title><polygon fill="none" stroke="#000" points="1390 -252 1254 -252 1254 -216 1390 -216 1390 -252"/><text x="1322" y="-230.4" font-family="Times Roman,serif" font-size="14" text-anchor="middle">AWS::StackName</text></g><g id="edge50" class="edge"><title>AWS::StackName-&gt;BeeController</title><path fill="none" stroke="#000" d="M1265.26,-215.924C1233.98,-205.958 1194.97,-193.531 1162.29,-183.12"/><polygon fill="#000" stroke="#000" points="1162.96 -179.659 1152.37 -179.958 1160.83 -186.329 1162.96 -179.659"/></g><g id="edge70" class="edge"><title>AWS::StackName-&gt;LaunchConfig</title><path fill="none" stroke="#000" d="M1341.68,-215.831C1351.11,-207.134 1362.54,-196.578 1372.78,-187.127"/><polygon fill="#000" stroke="#000" points="1375.35 -189.517 1380.32 -180.163 1370.6 -184.374 1375.35 -189.517"/></g></g></svg>