<svg xmlns="http://www.w3.org/2000/svg" xmlns:xlink="http://www.w3.org/1999/xlink" width="448" height="404pt" viewBox="0 0 336 404"><g id="graph1" class="graph" transform="scale(1 1) rotate(0) translate(4 400)"><title>A sample template to create a CloudFront distribution with multiple origins (2 origins) --- 1) a custom origin - Sample PHP application created using Elastic Beanstalk, 2) a s3 origin - S3 bucket to store image files in jpeg format. The cache behavior is set such that any requests of the form &lt;DistributionName&gt;/*.jpg are routed to the s3 origin, while all other requests are routed to the custom origin. **WARNING** This template creates one or more AWS resources. You will be billed for the AWS resources used if you create a stack from this template.</title><polygon fill="#fff" stroke="#fff" points="-4 5 -4 -400 333 -400 333 5 -4 5"/><g id="node1" class="node"><title>sampleApplication</title><polygon fill="none" stroke="#000" points="266 -252 126 -252 126 -216 266 -216 266 -252"/><text x="196" y="-230.4" font-family="Times Roman,serif" font-size="14" text-anchor="middle">sampleApplication</text></g><g id="node3" class="node"><title>sampleEnvironment</title><polygon fill="none" stroke="#000" points="270 -180 116 -180 116 -144 270 -144 270 -180"/><text x="193" y="-158.4" font-family="Times Roman,serif" font-size="14" text-anchor="middle">sampleEnvironment</text></g><g id="edge12" class="edge"><title>sampleApplication-&gt;sampleEnvironment</title><path fill="none" stroke="#000" d="M195.243,-215.831C194.922,-208.131 194.541,-198.974 194.184,-190.417"/><polygon fill="#000" stroke="#000" points="197.681 -190.259 193.767 -180.413 190.687 -190.55 197.681 -190.259"/></g><g id="node2" class="node"><title>sampleDistribution</title><polygon fill="none" stroke="#000" points="213 -108 67 -108 67 -72 213 -72 213 -108"/><text x="140" y="-86.4" font-family="Times Roman,serif" font-size="14" text-anchor="middle">sampleDistribution</text></g><g id="node8" class="node"><title>DistributionName</title><polygon fill="#d3d3d3" stroke="#d3d3d3" points="126 -36 12 -36 0 -24 0 -12 12 0 126 0 138 -12 138 -24 126 -36"/><path fill="#d3d3d3" stroke="#d3d3d3" d="M12,-36C6,-36 5.92119e-14,-30 4.73695e-14,-24"/><path fill="#d3d3d3" stroke="#d3d3d3" d="M2.36848e-14,-12C1.18424e-14,-6 6,-1.71457e-14 12,-1.65278e-14"/><path fill="#d3d3d3" stroke="#d3d3d3" d="M126,-4.78844e-15C132,-4.17058e-15 138,-6 138,-12"/><path fill="#d3d3d3" stroke="#d3d3d3" d="M138,-24C138,-30 132,-36 126,-36"/><polyline fill="none" stroke="#000" points="126 -36 12 -36"/><path fill="none" stroke="#000" d="M12,-36C6,-36 5.92119e-14,-30 4.73695e-14,-24"/><polyline fill="none" stroke="#000" points="0 -24 0 -12"/><path fill="none" stroke="#000" d="M2.36848e-14,-12C1.18424e-14,-6 6,-1.71457e-14 12,-1.65278e-14"/><polyline fill="none" stroke="#000" points="12 0 126 0"/><path fill="none" stroke="#000" d="M126,-4.78844e-15C132,-4.17058e-15 138,-6 138,-12"/><polyline fill="none" stroke="#000" points="138 -12 138 -24"/><path fill="none" stroke="#000" d="M138,-24C138,-30 132,-36 126,-36"/><text x="69" y="-14.4" font-family="Times Roman,serif" font-size="14" text-anchor="middle">DistributionName</text></g><g id="edge14" class="edge"><title>sampleDistribution-&gt;DistributionName</title><path fill="none" stroke="#000" d="M122.084,-71.8314C113.656,-63.2848 103.459,-52.9443 94.264,-43.6198"/><polygon fill="#000" stroke="#000" points="96.671 -41.076 87.157 -36.413 91.687 -45.991 96.671 -41.076"/></g><g id="node9" class="node"><title>DistributionId</title><polygon fill="#d3d3d3" stroke="#d3d3d3" points="254 -36 168 -36 156 -24 156 -12 168 0 254 0 266 -12 266 -24 254 -36"/><path fill="#d3d3d3" stroke="#d3d3d3" d="M168,-36C162,-36 156,-30 156,-24"/><path fill="#d3d3d3" stroke="#d3d3d3" d="M156,-12C156,-6 162,-1.69884e-14 168,-1.62133e-14"/><path fill="#d3d3d3" stroke="#d3d3d3" d="M254,-5.10299e-15C260,-4.32785e-15 266,-6 266,-12"/><path fill="#d3d3d3" stroke="#d3d3d3" d="M266,-24C266,-30 260,-36 254,-36"/><polyline fill="none" stroke="#000" points="254 -36 168 -36"/><path fill="none" stroke="#000" d="M168,-36C162,-36 156,-30 156,-24"/><polyline fill="none" stroke="#000" points="156 -24 156 -12"/><path fill="none" stroke="#000" d="M156,-12C156,-6 162,-1.69884e-14 168,-1.62133e-14"/><polyline fill="none" stroke="#000" points="168 0 254 0"/><path fill="none" stroke="#000" d="M254,-5.10299e-15C260,-4.32785e-15 266,-6 266,-12"/><polyline fill="none" stroke="#000" points="266 -12 266 -24"/><path fill="none" stroke="#000" d="M266,-24C266,-30 260,-36 254,-36"/><text x="211" y="-14.4" font-family="Times Roman,serif" font-size="14" text-anchor="middle">DistributionId</text></g><g id="edge16" class="edge"><title>sampleDistribution-&gt;DistributionId</title><path fill="none" stroke="#000" d="M157.916,-71.8314C166.344,-63.2848 176.541,-52.9443 185.736,-43.6198"/><polygon fill="#000" stroke="#000" points="188.313 -45.991 192.842 -36.413 183.329 -41.076 188.313 -45.991"/></g><g id="edge10" class="edge"><title>sampleEnvironment-&gt;sampleDistribution</title><path fill="none" stroke="#000" d="M179.626,-143.831C173.584,-135.623 166.324,-125.761 159.678,-116.732"/><polygon fill="#000" stroke="#000" points="162.301 -114.392 153.554 -108.413 156.664 -118.542 162.301 -114.392"/></g><g id="node5" class="node"><title>KeyName</title><polygon fill="#d3d3d3" stroke="#d3d3d3" points="224 -396 168 -396 156 -384 156 -372 168 -360 224 -360 236 -372 236 -384 224 -396"/><path fill="#d3d3d3" stroke="#d3d3d3" d="M168,-396C162,-396 156,-390 156,-384"/><path fill="#d3d3d3" stroke="#d3d3d3" d="M156,-372C156,-366 162,-360 168,-360"/><path fill="#d3d3d3" stroke="#d3d3d3" d="M224,-360C230,-360 236,-366 236,-372"/><path fill="#d3d3d3" stroke="#d3d3d3" d="M236,-384C236,-390 230,-396 224,-396"/><polyline fill="none" stroke="#000" points="224 -396 168 -396"/><path fill="none" stroke="#000" d="M168,-396C162,-396 156,-390 156,-384"/><polyline fill="none" stroke="#000" points="156 -384 156 -372"/><path fill="none" stroke="#000" d="M156,-372C156,-366 162,-360 168,-360"/><polyline fill="none" stroke="#000" points="168 -360 224 -360"/><path fill="none" stroke="#000" d="M224,-360C230,-360 236,-366 236,-372"/><polyline fill="none" stroke="#000" points="236 -372 236 -384"/><path fill="none" stroke="#000" d="M236,-384C236,-390 230,-396 224,-396"/><text x="196" y="-374.4" font-family="Times Roman,serif" font-size="14" text-anchor="middle">KeyName</text></g><g id="edge4" class="edge"><title>KeyName-&gt;sampleApplication</title><path fill="none" stroke="#000" d="M196,-359.762C196,-335.201 196,-291.247 196,-262.354"/><polygon fill="#000" stroke="#000" points="199.5 -262.09 196 -252.09 192.5 -262.09 199.5 -262.09"/></g><g id="node6" class="node"><title>S3OriginDNS</title><polygon fill="#d3d3d3" stroke="#d3d3d3" points="126 -396 44 -396 32 -384 32 -372 44 -360 126 -360 138 -372 138 -384 126 -396"/><path fill="#d3d3d3" stroke="#d3d3d3" d="M44,-396C38,-396 32,-390 32,-384"/><path fill="#d3d3d3" stroke="#d3d3d3" d="M32,-372C32,-366 38,-360 44,-360"/><path fill="#d3d3d3" stroke="#d3d3d3" d="M126,-360C132,-360 138,-366 138,-372"/><path fill="#d3d3d3" stroke="#d3d3d3" d="M138,-384C138,-390 132,-396 126,-396"/><polyline fill="none" stroke="#000" points="126 -396 44 -396"/><path fill="none" stroke="#000" d="M44,-396C38,-396 32,-390 32,-384"/><polyline fill="none" stroke="#000" points="32 -384 32 -372"/><path fill="none" stroke="#000" d="M32,-372C32,-366 38,-360 44,-360"/><polyline fill="none" stroke="#000" points="44 -360 126 -360"/><path fill="none" stroke="#000" d="M126,-360C132,-360 138,-366 138,-372"/><polyline fill="none" stroke="#000" points="138 -372 138 -384"/><path fill="none" stroke="#000" d="M138,-384C138,-390 132,-396 126,-396"/><text x="85" y="-374.4" font-family="Times Roman,serif" font-size="14" text-anchor="middle">S3OriginDNS</text></g><g id="edge8" class="edge"><title>S3OriginDNS-&gt;sampleDistribution</title><path fill="none" stroke="#000" d="M83.9743,-359.823C82.2923,-319.708 81.3688,-221.049 107,-144 110.107,-134.66 115.081,-125.243 120.235,-116.947"/><polygon fill="#000" stroke="#000" points="123.256 -118.723 125.818 -108.443 117.405 -114.882 123.256 -118.723"/></g><g id="node11" class="node"><title>AWS::Region</title><polygon fill="none" stroke="#000" points="328 -324 224 -324 224 -288 328 -288 328 -324"/><text x="276" y="-302.4" font-family="Times Roman,serif" font-size="14" text-anchor="middle">AWS::Region</text></g><g id="edge6" class="edge"><title>AWS::Region-&gt;sampleApplication</title><path fill="none" stroke="#000" d="M255.813,-287.831C246.149,-279.134 234.42,-268.578 223.918,-259.127"/><polygon fill="#000" stroke="#000" points="225.955 -256.251 216.181 -252.163 221.272 -261.454 225.955 -256.251"/></g></g></svg>