<svg xmlns="http://www.w3.org/2000/svg" xmlns:xlink="http://www.w3.org/1999/xlink" width="274pt" height="188pt" viewBox="0 0 274 188"><g id="graph1" class="graph" transform="scale(1 1) rotate(0) translate(4 184)"><title>AWS CloudFormation Sample Template CloudFront_S3: Sample template showing how to create an Amazon CloudFront distribution using an S3 origin. **WARNING** This template creates one or more AWS resources. You will be billed for the AWS resources used if you create a stack from this template.</title><polygon fill="#fff" stroke="#fff" points="-4 5 -4 -184 271 -184 271 5 -4 5"/><g id="node1" class="node"><title>myDistribution</title><polygon fill="none" stroke="#000" points="199 -108 81 -108 81 -72 199 -72 199 -108"/><text x="140" y="-86.4" font-family="Times Roman,serif" font-size="14" text-anchor="middle">myDistribution</text></g><g id="node5" class="node"><title>DistributionName</title><polygon fill="#d3d3d3" stroke="#d3d3d3" points="126 -36 12 -36 0 -24 0 -12 12 0 126 0 138 -12 138 -24 126 -36"/><path fill="#d3d3d3" stroke="#d3d3d3" d="M12,-36C6,-36 5.92119e-14,-30 4.73695e-14,-24"/><path fill="#d3d3d3" stroke="#d3d3d3" d="M2.36848e-14,-12C1.18424e-14,-6 6,-1.71457e-14 12,-1.65278e-14"/><path fill="#d3d3d3" stroke="#d3d3d3" d="M126,-4.78844e-15C132,-4.17058e-15 138,-6 138,-12"/><path fill="#d3d3d3" stroke="#d3d3d3" d="M138,-24C138,-30 132,-36 126,-36"/><polyline fill="none" stroke="#000" points="126 -36 12 -36"/><path fill="none" stroke="#000" d="M12,-36C6,-36 5.92119e-14,-30 4.73695e-14,-24"/><polyline fill="none" stroke="#000" points="0 -24 0 -12"/><path fill="none" stroke="#000" d="M2.36848e-14,-12C1.18424e-14,-6 6,-1.71457e-14 12,-1.65278e-14"/><polyline fill="none" stroke="#000" points="12 0 126 0"/><path fill="none" stroke="#000" d="M126,-4.78844e-15C132,-4.17058e-15 138,-6 138,-12"/><polyline fill="none" stroke="#000" points="138 -12 138 -24"/><path fill="none" stroke="#000" d="M138,-24C138,-30 132,-36 126,-36"/><text x="69" y="-14.4" font-family="Times Roman,serif" font-size="14" text-anchor="middle">DistributionName</text></g><g id="edge6" class="edge"><title>myDistribution-&gt;DistributionName</title><path fill="none" stroke="#000" d="M122.084,-71.8314C113.656,-63.2848 103.459,-52.9443 94.264,-43.6198"/><polygon fill="#000" stroke="#000" points="96.671 -41.076 87.157 -36.413 91.687 -45.991 96.671 -41.076"/></g><g id="node6" class="node"><title>DistributionId</title><polygon fill="#d3d3d3" stroke="#d3d3d3" points="254 -36 168 -36 156 -24 156 -12 168 0 254 0 266 -12 266 -24 254 -36"/><path fill="#d3d3d3" stroke="#d3d3d3" d="M168,-36C162,-36 156,-30 156,-24"/><path fill="#d3d3d3" stroke="#d3d3d3" d="M156,-12C156,-6 162,-1.69884e-14 168,-1.62133e-14"/><path fill="#d3d3d3" stroke="#d3d3d3" d="M254,-5.10299e-15C260,-4.32785e-15 266,-6 266,-12"/><path fill="#d3d3d3" stroke="#d3d3d3" d="M266,-24C266,-30 260,-36 254,-36"/><polyline fill="none" stroke="#000" points="254 -36 168 -36"/><path fill="none" stroke="#000" d="M168,-36C162,-36 156,-30 156,-24"/><polyline fill="none" stroke="#000" points="156 -24 156 -12"/><path fill="none" stroke="#000" d="M156,-12C156,-6 162,-1.69884e-14 168,-1.62133e-14"/><polyline fill="none" stroke="#000" points="168 0 254 0"/><path fill="none" stroke="#000" d="M254,-5.10299e-15C260,-4.32785e-15 266,-6 266,-12"/><polyline fill="none" stroke="#000" points="266 -12 266 -24"/><path fill="none" stroke="#000" d="M266,-24C266,-30 260,-36 254,-36"/><text x="211" y="-14.4" font-family="Times Roman,serif" font-size="14" text-anchor="middle">DistributionId</text></g><g id="edge8" class="edge"><title>myDistribution-&gt;DistributionId</title><path fill="none" stroke="#000" d="M157.916,-71.8314C166.344,-63.2848 176.541,-52.9443 185.736,-43.6198"/><polygon fill="#000" stroke="#000" points="188.313 -45.991 192.842 -36.413 183.329 -41.076 188.313 -45.991"/></g><g id="node3" class="node"><title>S3DNSName</title><polygon fill="#d3d3d3" stroke="#d3d3d3" points="180 -180 100 -180 88 -168 88 -156 100 -144 180 -144 192 -156 192 -168 180 -180"/><path fill="#d3d3d3" stroke="#d3d3d3" d="M100,-180C94,-180 88,-174 88,-168"/><path fill="#d3d3d3" stroke="#d3d3d3" d="M88,-156C88,-150 94,-144 100,-144"/><path fill="#d3d3d3" stroke="#d3d3d3" d="M180,-144C186,-144 192,-150 192,-156"/><path fill="#d3d3d3" stroke="#d3d3d3" d="M192,-168C192,-174 186,-180 180,-180"/><polyline fill="none" stroke="#000" points="180 -180 100 -180"/><path fill="none" stroke="#000" d="M100,-180C94,-180 88,-174 88,-168"/><polyline fill="none" stroke="#000" points="88 -168 88 -156"/><path fill="none" stroke="#000" d="M88,-156C88,-150 94,-144 100,-144"/><polyline fill="none" stroke="#000" points="100 -144 180 -144"/><path fill="none" stroke="#000" d="M180,-144C186,-144 192,-150 192,-156"/><polyline fill="none" stroke="#000" points="192 -156 192 -168"/><path fill="none" stroke="#000" d="M192,-168C192,-174 186,-180 180,-180"/><text x="140" y="-158.4" font-family="Times Roman,serif" font-size="14" text-anchor="middle">S3DNSName</text></g><g id="edge4" class="edge"><title>S3DNSName-&gt;myDistribution</title><path fill="none" stroke="#000" d="M140,-143.831C140,-136.131 140,-126.974 140,-118.417"/><polygon fill="#000" stroke="#000" points="143.5 -118.413 140 -108.413 136.5 -118.413 143.5 -118.413"/></g></g></svg>