<svg xmlns="http://www.w3.org/2000/svg" xmlns:xlink="http://www.w3.org/1999/xlink" width="694pt" height="188pt" viewBox="0 0 694 188"><g id="graph1" class="graph" transform="scale(1 1) rotate(0) translate(4 184)"><title>AWS CloudFormation Sample Template: This template demonstrates the creation of a DynamoDB table.</title><polygon fill="#fff" stroke="#fff" points="-4 5 -4 -184 691 -184 691 5 -4 5"/><g id="node1" class="node"><title>myDynamoDBTable</title><polygon fill="none" stroke="#000" points="419 -108 267 -108 267 -72 419 -72 419 -108"/><text x="343" y="-86.4" font-family="Times Roman,serif" font-size="14" text-anchor="middle">myDynamoDBTable</text></g><g id="node8" class="node"><title>TableName</title><polygon fill="#d3d3d3" stroke="#d3d3d3" points="377 -36 309 -36 297 -24 297 -12 309 0 377 0 389 -12 389 -24 377 -36"/><path fill="#d3d3d3" stroke="#d3d3d3" d="M309,-36C303,-36 297,-30 297,-24"/><path fill="#d3d3d3" stroke="#d3d3d3" d="M297,-12C297,-6 303,-1.68368e-14 309,-1.591e-14"/><path fill="#d3d3d3" stroke="#d3d3d3" d="M377,-5.4063e-15C383,-4.47951e-15 389,-6 389,-12"/><path fill="#d3d3d3" stroke="#d3d3d3" d="M389,-24C389,-30 383,-36 377,-36"/><polyline fill="none" stroke="#000" points="377 -36 309 -36"/><path fill="none" stroke="#000" d="M309,-36C303,-36 297,-30 297,-24"/><polyline fill="none" stroke="#000" points="297 -24 297 -12"/><path fill="none" stroke="#000" d="M297,-12C297,-6 303,-1.68368e-14 309,-1.591e-14"/><polyline fill="none" stroke="#000" points="309 0 377 0"/><path fill="none" stroke="#000" d="M377,-5.4063e-15C383,-4.47951e-15 389,-6 389,-12"/><polyline fill="none" stroke="#000" points="389 -12 389 -24"/><path fill="none" stroke="#000" d="M389,-24C389,-30 383,-36 377,-36"/><text x="343" y="-14.4" font-family="Times Roman,serif" font-size="14" text-anchor="middle">TableName</text></g><g id="edge12" class="edge"><title>myDynamoDBTable-&gt;TableName</title><path fill="none" stroke="#000" d="M343,-71.8314C343,-64.131 343,-54.9743 343,-46.4166"/><polygon fill="#000" stroke="#000" points="346.5 -46.413 343 -36.413 339.5 -46.413 346.5 -46.413"/></g><g id="node3" class="node"><title>WriteCapacityUnits</title><polygon fill="#d3d3d3" stroke="#d3d3d3" points="138 -180 12 -180 0 -168 0 -156 12 -144 138 -144 150 -156 150 -168 138 -180"/><path fill="#d3d3d3" stroke="#d3d3d3" d="M12,-180C6,-180 5.92119e-14,-174 4.73695e-14,-168"/><path fill="#d3d3d3" stroke="#d3d3d3" d="M2.36848e-14,-156C1.18424e-14,-150 6,-144 12,-144"/><path fill="#d3d3d3" stroke="#d3d3d3" d="M138,-144C144,-144 150,-150 150,-156"/><path fill="#d3d3d3" stroke="#d3d3d3" d="M150,-168C150,-174 144,-180 138,-180"/><polyline fill="none" stroke="#000" points="138 -180 12 -180"/><path fill="none" stroke="#000" d="M12,-180C6,-180 5.92119e-14,-174 4.73695e-14,-168"/><polyline fill="none" stroke="#000" points="0 -168 0 -156"/><path fill="none" stroke="#000" d="M2.36848e-14,-156C1.18424e-14,-150 6,-144 12,-144"/><polyline fill="none" stroke="#000" points="12 -144 138 -144"/><path fill="none" stroke="#000" d="M138,-144C144,-144 150,-150 150,-156"/><polyline fill="none" stroke="#000" points="150 -156 150 -168"/><path fill="none" stroke="#000" d="M150,-168C150,-174 144,-180 138,-180"/><text x="75" y="-158.4" font-family="Times Roman,serif" font-size="14" text-anchor="middle">WriteCapacityUnits</text></g><g id="edge8" class="edge"><title>WriteCapacityUnits-&gt;myDynamoDBTable</title><path fill="none" stroke="#000" d="M142.282,-143.924C179.875,-133.825 226.873,-121.198 265.94,-110.703"/><polygon fill="#000" stroke="#000" points="266.941 -114.058 275.691 -108.083 265.125 -107.298 266.941 -114.058"/></g><g id="node4" class="node"><title>HaskKeyElementType</title><polygon fill="#d3d3d3" stroke="#d3d3d3" points="320 -180 180 -180 168 -168 168 -156 180 -144 320 -144 332 -156 332 -168 320 -180"/><path fill="#d3d3d3" stroke="#d3d3d3" d="M180,-180C174,-180 168,-174 168,-168"/><path fill="#d3d3d3" stroke="#d3d3d3" d="M168,-156C168,-150 174,-144 180,-144"/><path fill="#d3d3d3" stroke="#d3d3d3" d="M320,-144C326,-144 332,-150 332,-156"/><path fill="#d3d3d3" stroke="#d3d3d3" d="M332,-168C332,-174 326,-180 320,-180"/><polyline fill="none" stroke="#000" points="320 -180 180 -180"/><path fill="none" stroke="#000" d="M180,-180C174,-180 168,-174 168,-168"/><polyline fill="none" stroke="#000" points="168 -168 168 -156"/><path fill="none" stroke="#000" d="M168,-156C168,-150 174,-144 180,-144"/><polyline fill="none" stroke="#000" points="180 -144 320 -144"/><path fill="none" stroke="#000" d="M320,-144C326,-144 332,-150 332,-156"/><polyline fill="none" stroke="#000" points="332 -156 332 -168"/><path fill="none" stroke="#000" d="M332,-168C332,-174 326,-180 320,-180"/><text x="250" y="-158.4" font-family="Times Roman,serif" font-size="14" text-anchor="middle">HaskKeyElementType</text></g><g id="edge6" class="edge"><title>HaskKeyElementType-&gt;myDynamoDBTable</title><path fill="none" stroke="#000" d="M273.468,-143.831C285.033,-134.878 299.14,-123.956 311.618,-114.295"/><polygon fill="#000" stroke="#000" points="313.775 -117.052 319.54 -108.163 309.49 -111.517 313.775 -117.052"/></g><g id="node5" class="node"><title>HaskKeyElementName</title><polygon fill="#d3d3d3" stroke="#d3d3d3" points="510 -180 362 -180 350 -168 350 -156 362 -144 510 -144 522 -156 522 -168 510 -180"/><path fill="#d3d3d3" stroke="#d3d3d3" d="M362,-180C356,-180 350,-174 350,-168"/><path fill="#d3d3d3" stroke="#d3d3d3" d="M350,-156C350,-150 356,-144 362,-144"/><path fill="#d3d3d3" stroke="#d3d3d3" d="M510,-144C516,-144 522,-150 522,-156"/><path fill="#d3d3d3" stroke="#d3d3d3" d="M522,-168C522,-174 516,-180 510,-180"/><polyline fill="none" stroke="#000" points="510 -180 362 -180"/><path fill="none" stroke="#000" d="M362,-180C356,-180 350,-174 350,-168"/><polyline fill="none" stroke="#000" points="350 -168 350 -156"/><path fill="none" stroke="#000" d="M350,-156C350,-150 356,-144 362,-144"/><polyline fill="none" stroke="#000" points="362 -144 510 -144"/><path fill="none" stroke="#000" d="M510,-144C516,-144 522,-150 522,-156"/><polyline fill="none" stroke="#000" points="522 -156 522 -168"/><path fill="none" stroke="#000" d="M522,-168C522,-174 516,-180 510,-180"/><text x="436" y="-158.4" font-family="Times Roman,serif" font-size="14" text-anchor="middle">HaskKeyElementName</text></g><g id="edge4" class="edge"><title>HaskKeyElementName-&gt;myDynamoDBTable</title><path fill="none" stroke="#000" d="M412.532,-143.831C400.967,-134.878 386.86,-123.956 374.382,-114.295"/><polygon fill="#000" stroke="#000" points="376.51 -111.517 366.46 -108.163 372.225 -117.052 376.51 -111.517"/></g><g id="node6" class="node"><title>ReadCapacityUnits</title><polygon fill="#d3d3d3" stroke="#d3d3d3" points="674 -180 552 -180 540 -168 540 -156 552 -144 674 -144 686 -156 686 -168 674 -180"/><path fill="#d3d3d3" stroke="#d3d3d3" d="M552,-180C546,-180 540,-174 540,-168"/><path fill="#d3d3d3" stroke="#d3d3d3" d="M540,-156C540,-150 546,-144 552,-144"/><path fill="#d3d3d3" stroke="#d3d3d3" d="M674,-144C680,-144 686,-150 686,-156"/><path fill="#d3d3d3" stroke="#d3d3d3" d="M686,-168C686,-174 680,-180 674,-180"/><polyline fill="none" stroke="#000" points="674 -180 552 -180"/><path fill="none" stroke="#000" d="M552,-180C546,-180 540,-174 540,-168"/><polyline fill="none" stroke="#000" points="540 -168 540 -156"/><path fill="none" stroke="#000" d="M540,-156C540,-150 546,-144 552,-144"/><polyline fill="none" stroke="#000" points="552 -144 674 -144"/><path fill="none" stroke="#000" d="M674,-144C680,-144 686,-150 686,-156"/><polyline fill="none" stroke="#000" points="686 -156 686 -168"/><path fill="none" stroke="#000" d="M686,-168C686,-174 680,-180 674,-180"/><text x="613" y="-158.4" font-family="Times Roman,serif" font-size="14" text-anchor="middle">ReadCapacityUnits</text></g><g id="edge10" class="edge"><title>ReadCapacityUnits-&gt;myDynamoDBTable</title><path fill="none" stroke="#000" d="M545.216,-143.924C507.343,-133.825 459.993,-121.198 420.635,-110.703"/><polygon fill="#000" stroke="#000" points="421.376 -107.278 410.812 -108.083 419.572 -114.042 421.376 -107.278"/></g></g></svg>