<svg xmlns="http://www.w3.org/2000/svg" xmlns:xlink="http://www.w3.org/1999/xlink" width="392pt" height="188pt" viewBox="0 0 392 188"><g id="graph1" class="graph" transform="scale(1 1) rotate(0) translate(4 184)"><title>AWS CloudFormation Sample Template ec2_instance_with_instance_profile: Create an EC2 instance with an associated instance profile. **WARNING** This template creates one or more Amazon EC2 instances and an Amazon SQS queue. You will be billed for the AWS resources used if you create a stack from this template.</title><polygon fill="#fff" stroke="#fff" points="-4 5 -4 -184 389 -184 389 5 -4 5"/><g id="node1" class="node"><title>RootRole</title><polygon fill="none" stroke="#000" points="155 -180 79 -180 79 -144 155 -144 155 -180"/><text x="117" y="-158.4" font-family="Times Roman,serif" font-size="14" text-anchor="middle">RootRole</text></g><g id="node2" class="node"><title>RolePolicies</title><polygon fill="none" stroke="#000" points="94 -108 0 -108 0 -72 94 -72 94 -108"/><text x="47" y="-86.4" font-family="Times Roman,serif" font-size="14" text-anchor="middle">RolePolicies</text></g><g id="edge2" class="edge"><title>RootRole-&gt;RolePolicies</title><path fill="none" stroke="#000" d="M99.336,-143.831C91.0268,-135.285 80.9736,-124.944 71.9082,-115.62"/><polygon fill="#000" stroke="#000" points="74.382 -113.143 64.902 -108.413 69.363 -118.023 74.382 -113.143"/></g><g id="node4" class="node"><title>RootInstanceProfile</title><polygon fill="none" stroke="#000" points="262 -108 112 -108 112 -72 262 -72 262 -108"/><text x="187" y="-86.4" font-family="Times Roman,serif" font-size="14" text-anchor="middle">RootInstanceProfile</text></g><g id="edge8" class="edge"><title>RootRole-&gt;RootInstanceProfile</title><path fill="none" stroke="#000" d="M134.664,-143.831C142.973,-135.285 153.026,-124.944 162.092,-115.62"/><polygon fill="#000" stroke="#000" points="164.637 -118.023 169.098 -108.413 159.618 -113.143 164.637 -118.023"/></g><g id="node3" class="node"><title>myEC2Instance</title><polygon fill="none" stroke="#000" points="321 -36 197 -36 197 0 321 0 321 -36"/><text x="259" y="-14.4" font-family="Times Roman,serif" font-size="14" text-anchor="middle">myEC2Instance</text></g><g id="edge4" class="edge"><title>RootInstanceProfile-&gt;myEC2Instance</title><path fill="none" stroke="#000" d="M205.169,-71.8314C213.715,-63.2848 224.056,-52.9443 233.38,-43.6198"/><polygon fill="#000" stroke="#000" points="235.991 -45.959 240.587 -36.413 231.041 -41.01 235.991 -45.959"/></g><g id="node7" class="node"><title>AWS::Region</title><polygon fill="none" stroke="#000" points="384 -108 280 -108 280 -72 384 -72 384 -108"/><text x="332" y="-86.4" font-family="Times Roman,serif" font-size="14" text-anchor="middle">AWS::Region</text></g><g id="edge6" class="edge"><title>AWS::Region-&gt;myEC2Instance</title><path fill="none" stroke="#000" d="M313.579,-71.8314C304.847,-63.219 294.268,-52.7851 284.758,-43.4048"/><polygon fill="#000" stroke="#000" points="286.993 -40.693 277.415 -36.163 282.077 -45.677 286.993 -40.693"/></g></g></svg>