<svg xmlns="http://www.w3.org/2000/svg" xmlns:xlink="http://www.w3.org/1999/xlink" width="410pt" height="404pt" viewBox="0 0 410 404"><g id="graph1" class="graph" transform="scale(1 1) rotate(0) translate(4 400)"><title>AWS CloudFormation Sample Template EC2_Untargeted_Launch_with_EBS_Volume: Create an Amazon EC2 instance running the Amazon Linux AMI with a new EBS volume attached. The samples shows how to do an untargeted EC2 launch and create an EBS volume in the same availability zone as the EC2 instance. The AMI is chosen based on the region in which the stack is run. **WARNING** This template creates one or more Amazon EC2 instances. You will be billed for the AWS resources used if you create a stack from this template.</title><polygon fill="#fff" stroke="#fff" points="-4 5 -4 -400 407 -400 407 5 -4 5"/><g id="node1" class="node"><title>MountPoint</title><polygon fill="none" stroke="#000" points="96 -108 0 -108 0 -72 96 -72 96 -108"/><text x="48" y="-86.4" font-family="Times Roman,serif" font-size="14" text-anchor="middle">MountPoint</text></g><g id="node2" class="node"><title>InstanceSecurityGroup</title><polygon fill="none" stroke="#000" points="178 -324 4 -324 4 -288 178 -288 178 -324"/><text x="91" y="-302.4" font-family="Times Roman,serif" font-size="14" text-anchor="middle">InstanceSecurityGroup</text></g><g id="node3" class="node"><title>Ec2Instance</title><polygon fill="none" stroke="#000" points="219 -252 119 -252 119 -216 219 -216 219 -252"/><text x="169" y="-230.4" font-family="Times Roman,serif" font-size="14" text-anchor="middle">Ec2Instance</text></g><g id="edge10" class="edge"><title>InstanceSecurityGroup-&gt;Ec2Instance</title><path fill="none" stroke="#000" d="M110.683,-287.831C120.105,-279.134 131.54,-268.578 141.78,-259.127"/><polygon fill="#000" stroke="#000" points="144.35 -261.517 149.324 -252.163 139.602 -256.374 144.35 -261.517"/></g><g id="edge4" class="edge"><title>Ec2Instance-&gt;MountPoint</title><path fill="none" stroke="#000" d="M118.942,-217.932C100.029,-209.476 79.9664,-197.2 67,-180 53.6785,-162.329 49.2118,-137.418 47.9169,-118.283"/><polygon fill="#000" stroke="#000" points="51.404 -117.898 47.483 -108.056 44.41 -118.195 51.404 -117.898"/></g><g id="node4" class="node"><title>NewVolume</title><polygon fill="none" stroke="#000" points="174 -180 76 -180 76 -144 174 -144 174 -180"/><text x="125" y="-158.4" font-family="Times Roman,serif" font-size="14" text-anchor="middle">NewVolume</text></g><g id="edge14" class="edge"><title>Ec2Instance-&gt;NewVolume</title><path fill="none" stroke="#000" d="M157.897,-215.831C152.933,-207.708 146.978,-197.964 141.507,-189.012"/><polygon fill="#000" stroke="#000" points="144.454 -187.121 136.253 -180.413 138.481 -190.771 144.454 -187.121"/></g><g id="node8" class="node"><title>InstanceId</title><polygon fill="#d3d3d3" stroke="#d3d3d3" points="246 -36 182 -36 170 -24 170 -12 182 0 246 0 258 -12 258 -24 246 -36"/><path fill="#d3d3d3" stroke="#d3d3d3" d="M182,-36C176,-36 170,-30 170,-24"/><path fill="#d3d3d3" stroke="#d3d3d3" d="M170,-12C170,-6 176,-1.67946e-14 182,-1.58257e-14"/><path fill="#d3d3d3" stroke="#d3d3d3" d="M246,-5.49056e-15C252,-4.52164e-15 258,-6 258,-12"/><path fill="#d3d3d3" stroke="#d3d3d3" d="M258,-24C258,-30 252,-36 246,-36"/><polyline fill="none" stroke="#000" points="246 -36 182 -36"/><path fill="none" stroke="#000" d="M182,-36C176,-36 170,-30 170,-24"/><polyline fill="none" stroke="#000" points="170 -24 170 -12"/><path fill="none" stroke="#000" d="M170,-12C170,-6 176,-1.67946e-14 182,-1.58257e-14"/><polyline fill="none" stroke="#000" points="182 0 246 0"/><path fill="none" stroke="#000" d="M246,-5.49056e-15C252,-4.52164e-15 258,-6 258,-12"/><polyline fill="none" stroke="#000" points="258 -12 258 -24"/><path fill="none" stroke="#000" d="M258,-24C258,-30 252,-36 246,-36"/><text x="214" y="-14.4" font-family="Times Roman,serif" font-size="14" text-anchor="middle">InstanceId</text></g><g id="edge16" class="edge"><title>Ec2Instance-&gt;InstanceId</title><path fill="none" stroke="#000" d="M174.091,-215.577C176.887,-205.173 180.321,-191.905 183,-180 193.507,-133.315 203.506,-78.5497 209.183,-46.1459"/><polygon fill="#000" stroke="#000" points="212.672 -46.51 210.937 -36.058 205.776 -45.311 212.672 -46.51"/></g><g id="node9" class="node"><title>AvailabilityZone</title><polygon fill="#d3d3d3" stroke="#d3d3d3" points="390 -36 288 -36 276 -24 276 -12 288 0 390 0 402 -12 402 -24 390 -36"/><path fill="#d3d3d3" stroke="#d3d3d3" d="M288,-36C282,-36 276,-30 276,-24"/><path fill="#d3d3d3" stroke="#d3d3d3" d="M276,-12C276,-6 282,-1.70869e-14 288,-1.64102e-14"/><path fill="#d3d3d3" stroke="#d3d3d3" d="M390,-4.90613e-15C396,-4.22942e-15 402,-6 402,-12"/><path fill="#d3d3d3" stroke="#d3d3d3" d="M402,-24C402,-30 396,-36 390,-36"/><polyline fill="none" stroke="#000" points="390 -36 288 -36"/><path fill="none" stroke="#000" d="M288,-36C282,-36 276,-30 276,-24"/><polyline fill="none" stroke="#000" points="276 -24 276 -12"/><path fill="none" stroke="#000" d="M276,-12C276,-6 282,-1.70869e-14 288,-1.64102e-14"/><polyline fill="none" stroke="#000" points="288 0 390 0"/><path fill="none" stroke="#000" d="M390,-4.90613e-15C396,-4.22942e-15 402,-6 402,-12"/><polyline fill="none" stroke="#000" points="402 -12 402 -24"/><path fill="none" stroke="#000" d="M402,-24C402,-30 396,-36 390,-36"/><text x="339" y="-14.4" font-family="Times Roman,serif" font-size="14" text-anchor="middle">AvailabilityZone</text></g><g id="edge18" class="edge"><title>Ec2Instance-&gt;AvailabilityZone</title><path fill="none" stroke="#000" d="M183.202,-215.955C213.264,-177.759 283.433,-88.6025 318.414,-44.1559"/><polygon fill="#000" stroke="#000" points="321.285 -46.168 324.719 -36.145 315.784 -41.839 321.285 -46.168"/></g><g id="edge6" class="edge"><title>NewVolume-&gt;MountPoint</title><path fill="none" stroke="#000" d="M105.57,-143.831C96.268,-135.134 84.9796,-124.578 74.8714,-115.127"/><polygon fill="#000" stroke="#000" points="77.119 -112.436 67.424 -108.163 72.338 -117.549 77.119 -112.436"/></g><g id="node10" class="node"><title>VolumeId</title><polygon fill="#d3d3d3" stroke="#d3d3d3" points="140 -36 84 -36 72 -24 72 -12 84 0 140 0 152 -12 152 -24 140 -36"/><path fill="#d3d3d3" stroke="#d3d3d3" d="M84,-36C78,-36 72,-30 72,-24"/><path fill="#d3d3d3" stroke="#d3d3d3" d="M72,-12C72,-6 78,-1.66978e-14 84,-1.56319e-14"/><path fill="#d3d3d3" stroke="#d3d3d3" d="M140,-5.68434e-15C146,-4.61853e-15 152,-6 152,-12"/><path fill="#d3d3d3" stroke="#d3d3d3" d="M152,-24C152,-30 146,-36 140,-36"/><polyline fill="none" stroke="#000" points="140 -36 84 -36"/><path fill="none" stroke="#000" d="M84,-36C78,-36 72,-30 72,-24"/><polyline fill="none" stroke="#000" points="72 -24 72 -12"/><path fill="none" stroke="#000" d="M72,-12C72,-6 78,-1.66978e-14 84,-1.56319e-14"/><polyline fill="none" stroke="#000" points="84 0 140 0"/><path fill="none" stroke="#000" d="M140,-5.68434e-15C146,-4.61853e-15 152,-6 152,-12"/><polyline fill="none" stroke="#000" points="152 -12 152 -24"/><path fill="none" stroke="#000" d="M152,-24C152,-30 146,-36 140,-36"/><text x="112" y="-14.4" font-family="Times Roman,serif" font-size="14" text-anchor="middle">VolumeId</text></g><g id="edge20" class="edge"><title>NewVolume-&gt;VolumeId</title><path fill="none" stroke="#000" d="M123.354,-143.762C121.136,-119.201 117.168,-75.2474 114.56,-46.3541"/><polygon fill="#000" stroke="#000" points="118.018 -45.734 113.633 -36.09 111.046 -46.364 118.018 -45.734"/></g><g id="node6" class="node"><title>SSHLocation</title><polygon fill="#d3d3d3" stroke="#d3d3d3" points="131 -396 51 -396 39 -384 39 -372 51 -360 131 -360 143 -372 143 -384 131 -396"/><path fill="#d3d3d3" stroke="#d3d3d3" d="M51,-396C45,-396 39,-390 39,-384"/><path fill="#d3d3d3" stroke="#d3d3d3" d="M39,-372C39,-366 45,-360 51,-360"/><path fill="#d3d3d3" stroke="#d3d3d3" d="M131,-360C137,-360 143,-366 143,-372"/><path fill="#d3d3d3" stroke="#d3d3d3" d="M143,-384C143,-390 137,-396 131,-396"/><polyline fill="none" stroke="#000" points="131 -396 51 -396"/><path fill="none" stroke="#000" d="M51,-396C45,-396 39,-390 39,-384"/><polyline fill="none" stroke="#000" points="39 -384 39 -372"/><path fill="none" stroke="#000" d="M39,-372C39,-366 45,-360 51,-360"/><polyline fill="none" stroke="#000" points="51 -360 131 -360"/><path fill="none" stroke="#000" d="M131,-360C137,-360 143,-366 143,-372"/><polyline fill="none" stroke="#000" points="143 -372 143 -384"/><path fill="none" stroke="#000" d="M143,-384C143,-390 137,-396 131,-396"/><text x="91" y="-374.4" font-family="Times Roman,serif" font-size="14" text-anchor="middle">SSHLocation</text></g><g id="edge8" class="edge"><title>SSHLocation-&gt;InstanceSecurityGroup</title><path fill="none" stroke="#000" d="M91,-359.831C91,-352.131 91,-342.974 91,-334.417"/><polygon fill="#000" stroke="#000" points="94.5 -334.413 91 -324.413 87.5 -334.413 94.5 -334.413"/></g><g id="node15" class="node"><title>AWS::Region</title><polygon fill="none" stroke="#000" points="300 -324 196 -324 196 -288 300 -288 300 -324"/><text x="248" y="-302.4" font-family="Times Roman,serif" font-size="14" text-anchor="middle">AWS::Region</text></g><g id="edge12" class="edge"><title>AWS::Region-&gt;Ec2Instance</title><path fill="none" stroke="#000" d="M228.065,-287.831C218.522,-279.134 206.94,-268.578 196.569,-259.127"/><polygon fill="#000" stroke="#000" points="198.677 -256.312 188.929 -252.163 193.962 -261.486 198.677 -256.312"/></g></g></svg>