<svg xmlns="http://www.w3.org/2000/svg" xmlns:xlink="http://www.w3.org/1999/xlink" width="446pt" height="260pt" viewBox="0 0 446 260"><g id="graph1" class="graph" transform="scale(1 1) rotate(0) translate(4 256)"><title>AWS CloudFormation Sample Template EC2InstanceWithSecurityGroupSample: Create an Amazon EC2 instance running the Amazon Linux AMI. The AMI is chosen based on the region in which the stack is run. This example creates an EC2 security group for the instance to give you SSH access. **WARNING** This template creates an Amazon EC2 instance. You will be billed for the AWS resources used if you create a stack from this template.</title><polygon fill="#fff" stroke="#fff" points="-4 5 -4 -256 443 -256 443 5 -4 5"/><g id="node1" class="node"><title>InstanceSecurityGroup</title><polygon fill="none" stroke="#000" points="438 -180 264 -180 264 -144 438 -144 438 -180"/><text x="351" y="-158.4" font-family="Times Roman,serif" font-size="14" text-anchor="middle">InstanceSecurityGroup</text></g><g id="node2" class="node"><title>Ec2Instance</title><polygon fill="none" stroke="#000" points="244 -108 144 -108 144 -72 244 -72 244 -108"/><text x="194" y="-86.4" font-family="Times Roman,serif" font-size="14" text-anchor="middle">Ec2Instance</text></g><g id="edge8" class="edge"><title>InstanceSecurityGroup-&gt;Ec2Instance</title><path fill="none" stroke="#000" d="M311.382,-143.831C290.478,-134.245 264.652,-122.401 242.551,-112.266"/><polygon fill="#000" stroke="#000" points="243.882 -109.025 233.333 -108.038 240.964 -115.388 243.882 -109.025"/></g><g id="node7" class="node"><title>InstanceId</title><polygon fill="#d3d3d3" stroke="#d3d3d3" points="76 -36 12 -36 0 -24 0 -12 12 0 76 0 88 -12 88 -24 76 -36"/><path fill="#d3d3d3" stroke="#d3d3d3" d="M12,-36C6,-36 3.55271e-14,-30 2.84217e-14,-24"/><path fill="#d3d3d3" stroke="#d3d3d3" d="M1.42109e-14,-12C7.10543e-15,-6 6,-1.67946e-14 12,-1.58257e-14"/><path fill="#d3d3d3" stroke="#d3d3d3" d="M76,-5.49056e-15C82,-4.52164e-15 88,-6 88,-12"/><path fill="#d3d3d3" stroke="#d3d3d3" d="M88,-24C88,-30 82,-36 76,-36"/><polyline fill="none" stroke="#000" points="76 -36 12 -36"/><path fill="none" stroke="#000" d="M12,-36C6,-36 3.55271e-14,-30 2.84217e-14,-24"/><polyline fill="none" stroke="#000" points="0 -24 0 -12"/><path fill="none" stroke="#000" d="M1.42109e-14,-12C7.10543e-15,-6 6,-1.67946e-14 12,-1.58257e-14"/><polyline fill="none" stroke="#000" points="12 0 76 0"/><path fill="none" stroke="#000" d="M76,-5.49056e-15C82,-4.52164e-15 88,-6 88,-12"/><polyline fill="none" stroke="#000" points="88 -12 88 -24"/><path fill="none" stroke="#000" d="M88,-24C88,-30 82,-36 76,-36"/><text x="44" y="-14.4" font-family="Times Roman,serif" font-size="14" text-anchor="middle">InstanceId</text></g><g id="edge12" class="edge"><title>Ec2Instance-&gt;InstanceId</title><path fill="none" stroke="#000" d="M156.149,-71.8314C136.265,-62.2874 111.722,-50.5065 90.6695,-40.4013"/><polygon fill="#000" stroke="#000" points="92.109 -37.21 81.579 -36.038 89.08 -43.521 92.109 -37.21"/></g><g id="node8" class="node"><title>PublicDNS</title><polygon fill="#d3d3d3" stroke="#d3d3d3" points="182 -36 118 -36 106 -24 106 -12 118 0 182 0 194 -12 194 -24 182 -36"/><path fill="#d3d3d3" stroke="#d3d3d3" d="M118,-36C112,-36 106,-30 106,-24"/><path fill="#d3d3d3" stroke="#d3d3d3" d="M106,-12C106,-6 112,-1.67946e-14 118,-1.58257e-14"/><path fill="#d3d3d3" stroke="#d3d3d3" d="M182,-5.49056e-15C188,-4.52164e-15 194,-6 194,-12"/><path fill="#d3d3d3" stroke="#d3d3d3" d="M194,-24C194,-30 188,-36 182,-36"/><polyline fill="none" stroke="#000" points="182 -36 118 -36"/><path fill="none" stroke="#000" d="M118,-36C112,-36 106,-30 106,-24"/><polyline fill="none" stroke="#000" points="106 -24 106 -12"/><path fill="none" stroke="#000" d="M106,-12C106,-6 112,-1.67946e-14 118,-1.58257e-14"/><polyline fill="none" stroke="#000" points="118 0 182 0"/><path fill="none" stroke="#000" d="M182,-5.49056e-15C188,-4.52164e-15 194,-6 194,-12"/><polyline fill="none" stroke="#000" points="194 -12 194 -24"/><path fill="none" stroke="#000" d="M194,-24C194,-30 188,-36 182,-36"/><text x="150" y="-14.4" font-family="Times Roman,serif" font-size="14" text-anchor="middle">PublicDNS</text></g><g id="edge14" class="edge"><title>Ec2Instance-&gt;PublicDNS</title><path fill="none" stroke="#000" d="M182.897,-71.8314C177.933,-63.7079 171.978,-53.9637 166.507,-45.0118"/><polygon fill="#000" stroke="#000" points="169.454 -43.121 161.253 -36.413 163.481 -46.771 169.454 -43.121"/></g><g id="node9" class="node"><title>AZ</title><polygon fill="#d3d3d3" stroke="#d3d3d3" points="254 -36 224 -36 212 -24 212 -12 224 0 254 0 266 -12 266 -24 254 -36"/><path fill="#d3d3d3" stroke="#d3d3d3" d="M224,-36C218,-36 212,-30 212,-24"/><path fill="#d3d3d3" stroke="#d3d3d3" d="M212,-12C212,-6 218,-1.61846e-14 224,-1.46056e-14"/><path fill="#d3d3d3" stroke="#d3d3d3" d="M254,-6.71068e-15C260,-5.1317e-15 266,-6 266,-12"/><path fill="#d3d3d3" stroke="#d3d3d3" d="M266,-24C266,-30 260,-36 254,-36"/><polyline fill="none" stroke="#000" points="254 -36 224 -36"/><path fill="none" stroke="#000" d="M224,-36C218,-36 212,-30 212,-24"/><polyline fill="none" stroke="#000" points="212 -24 212 -12"/><path fill="none" stroke="#000" d="M212,-12C212,-6 218,-1.61846e-14 224,-1.46056e-14"/><polyline fill="none" stroke="#000" points="224 0 254 0"/><path fill="none" stroke="#000" d="M254,-6.71068e-15C260,-5.1317e-15 266,-6 266,-12"/><polyline fill="none" stroke="#000" points="266 -12 266 -24"/><path fill="none" stroke="#000" d="M266,-24C266,-30 260,-36 254,-36"/><text x="239" y="-14.4" font-family="Times Roman,serif" font-size="14" text-anchor="middle">AZ</text></g><g id="edge16" class="edge"><title>Ec2Instance-&gt;AZ</title><path fill="none" stroke="#000" d="M205.355,-71.8314C210.433,-63.7079 216.523,-53.9637 222.118,-45.0118"/><polygon fill="#000" stroke="#000" points="225.16 -46.748 227.492 -36.413 219.224 -43.038 225.16 -46.748"/></g><g id="node10" class="node"><title>PublicIP</title><polygon fill="#d3d3d3" stroke="#d3d3d3" points="342 -36 296 -36 284 -24 284 -12 296 0 342 0 354 -12 354 -24 342 -36"/><path fill="#d3d3d3" stroke="#d3d3d3" d="M296,-36C290,-36 284,-30 284,-24"/><path fill="#d3d3d3" stroke="#d3d3d3" d="M284,-12C284,-6 290,-1.65455e-14 296,-1.53274e-14"/><path fill="#d3d3d3" stroke="#d3d3d3" d="M342,-5.98886e-15C348,-4.77079e-15 354,-6 354,-12"/><path fill="#d3d3d3" stroke="#d3d3d3" d="M354,-24C354,-30 348,-36 342,-36"/><polyline fill="none" stroke="#000" points="342 -36 296 -36"/><path fill="none" stroke="#000" d="M296,-36C290,-36 284,-30 284,-24"/><polyline fill="none" stroke="#000" points="284 -24 284 -12"/><path fill="none" stroke="#000" d="M284,-12C284,-6 290,-1.65455e-14 296,-1.53274e-14"/><polyline fill="none" stroke="#000" points="296 0 342 0"/><path fill="none" stroke="#000" d="M342,-5.98886e-15C348,-4.77079e-15 354,-6 354,-12"/><polyline fill="none" stroke="#000" points="354 -12 354 -24"/><path fill="none" stroke="#000" d="M354,-24C354,-30 348,-36 342,-36"/><text x="319" y="-14.4" font-family="Times Roman,serif" font-size="14" text-anchor="middle">PublicIP</text></g><g id="edge18" class="edge"><title>Ec2Instance-&gt;PublicIP</title><path fill="none" stroke="#000" d="M225.543,-71.8314C241.679,-62.5368 261.499,-51.1208 278.727,-41.1971"/><polygon fill="#000" stroke="#000" points="280.549 -44.187 287.467 -36.163 277.055 -38.121 280.549 -44.187"/></g><g id="node4" class="node"><title>SSHLocation</title><polygon fill="#d3d3d3" stroke="#d3d3d3" points="391 -252 311 -252 299 -240 299 -228 311 -216 391 -216 403 -228 403 -240 391 -252"/><path fill="#d3d3d3" stroke="#d3d3d3" d="M311,-252C305,-252 299,-246 299,-240"/><path fill="#d3d3d3" stroke="#d3d3d3" d="M299,-228C299,-222 305,-216 311,-216"/><path fill="#d3d3d3" stroke="#d3d3d3" d="M391,-216C397,-216 403,-222 403,-228"/><path fill="#d3d3d3" stroke="#d3d3d3" d="M403,-240C403,-246 397,-252 391,-252"/><polyline fill="none" stroke="#000" points="391 -252 311 -252"/><path fill="none" stroke="#000" d="M311,-252C305,-252 299,-246 299,-240"/><polyline fill="none" stroke="#000" points="299 -240 299 -228"/><path fill="none" stroke="#000" d="M299,-228C299,-222 305,-216 311,-216"/><polyline fill="none" stroke="#000" points="311 -216 391 -216"/><path fill="none" stroke="#000" d="M391,-216C397,-216 403,-222 403,-228"/><polyline fill="none" stroke="#000" points="403 -228 403 -240"/><path fill="none" stroke="#000" d="M403,-240C403,-246 397,-252 391,-252"/><text x="351" y="-230.4" font-family="Times Roman,serif" font-size="14" text-anchor="middle">SSHLocation</text></g><g id="edge4" class="edge"><title>SSHLocation-&gt;InstanceSecurityGroup</title><path fill="none" stroke="#000" d="M351,-215.831C351,-208.131 351,-198.974 351,-190.417"/><polygon fill="#000" stroke="#000" points="354.5 -190.413 351 -180.413 347.5 -190.413 354.5 -190.413"/></g><g id="node5" class="node"><title>KeyName</title><polygon fill="#d3d3d3" stroke="#d3d3d3" points="142 -252 86 -252 74 -240 74 -228 86 -216 142 -216 154 -228 154 -240 142 -252"/><path fill="#d3d3d3" stroke="#d3d3d3" d="M86,-252C80,-252 74,-246 74,-240"/><path fill="#d3d3d3" stroke="#d3d3d3" d="M74,-228C74,-222 80,-216 86,-216"/><path fill="#d3d3d3" stroke="#d3d3d3" d="M142,-216C148,-216 154,-222 154,-228"/><path fill="#d3d3d3" stroke="#d3d3d3" d="M154,-240C154,-246 148,-252 142,-252"/><polyline fill="none" stroke="#000" points="142 -252 86 -252"/><path fill="none" stroke="#000" d="M86,-252C80,-252 74,-246 74,-240"/><polyline fill="none" stroke="#000" points="74 -240 74 -228"/><path fill="none" stroke="#000" d="M74,-228C74,-222 80,-216 86,-216"/><polyline fill="none" stroke="#000" points="86 -216 142 -216"/><path fill="none" stroke="#000" d="M142,-216C148,-216 154,-222 154,-228"/><polyline fill="none" stroke="#000" points="154 -228 154 -240"/><path fill="none" stroke="#000" d="M154,-240C154,-246 148,-252 142,-252"/><text x="114" y="-230.4" font-family="Times Roman,serif" font-size="14" text-anchor="middle">KeyName</text></g><g id="edge6" class="edge"><title>KeyName-&gt;Ec2Instance</title><path fill="none" stroke="#000" d="M114.516,-215.904C115.783,-196.832 119.906,-166.497 133,-144 139.448,-132.922 148.975,-122.92 158.593,-114.621"/><polygon fill="#000" stroke="#000" points="161.094 -117.098 166.629 -108.064 156.668 -111.675 161.094 -117.098"/></g><g id="node14" class="node"><title>AWS::Region</title><polygon fill="none" stroke="#000" points="246 -180 142 -180 142 -144 246 -144 246 -180"/><text x="194" y="-158.4" font-family="Times Roman,serif" font-size="14" text-anchor="middle">AWS::Region</text></g><g id="edge10" class="edge"><title>AWS::Region-&gt;Ec2Instance</title><path fill="none" stroke="#000" d="M194,-143.831C194,-136.131 194,-126.974 194,-118.417"/><polygon fill="#000" stroke="#000" points="197.5 -118.413 194 -108.413 190.5 -118.413 197.5 -118.413"/></g></g></svg>