<svg xmlns="http://www.w3.org/2000/svg" xmlns:xlink="http://www.w3.org/1999/xlink" width="574pt" height="260pt" viewBox="0 0 574 260"><g id="graph1" class="graph" transform="scale(1 1) rotate(0) translate(4 256)"><title>AWS CloudFormation Sample Template EC2InstanceSample: Create an Amazon EC2 instance running the Amazon Linux AMI. The AMI is chosen based on the region in which the stack is run. This example uses the default security group, so to SSH to the new instance using the KeyPair you enter, you will need to have port 22 open in your default security group. **WARNING** This template an Amazon EC2 instances. You will be billed for the AWS resources used if you create a stack from this template.</title><polygon fill="#fff" stroke="#fff" points="-4 5 -4 -256 571 -256 571 5 -4 5"/><g id="node1" class="node"><title>Ec2Instance</title><polygon fill="none" stroke="#000" points="365 -108 265 -108 265 -72 365 -72 365 -108"/><text x="315" y="-86.4" font-family="Times Roman,serif" font-size="14" text-anchor="middle">Ec2Instance</text></g><g id="node5" class="node"><title>PrivateDNS</title><polygon fill="#d3d3d3" stroke="#d3d3d3" points="84 -36 12 -36 0 -24 0 -12 12 0 84 0 96 -12 96 -24 84 -36"/><path fill="#d3d3d3" stroke="#d3d3d3" d="M12,-36C6,-36 2.36848e-14,-30 1.89478e-14,-24"/><path fill="#d3d3d3" stroke="#d3d3d3" d="M9.4739e-15,-12C4.73695e-15,-6 6,-1.68754e-14 12,-1.59872e-14"/><path fill="#d3d3d3" stroke="#d3d3d3" d="M84,-5.32907e-15C90,-4.44089e-15 96,-6 96,-12"/><path fill="#d3d3d3" stroke="#d3d3d3" d="M96,-24C96,-30 90,-36 84,-36"/><polyline fill="none" stroke="#000" points="84 -36 12 -36"/><path fill="none" stroke="#000" d="M12,-36C6,-36 2.36848e-14,-30 1.89478e-14,-24"/><polyline fill="none" stroke="#000" points="0 -24 0 -12"/><path fill="none" stroke="#000" d="M9.4739e-15,-12C4.73695e-15,-6 6,-1.68754e-14 12,-1.59872e-14"/><polyline fill="none" stroke="#000" points="12 0 84 0"/><path fill="none" stroke="#000" d="M84,-5.32907e-15C90,-4.44089e-15 96,-6 96,-12"/><polyline fill="none" stroke="#000" points="96 -12 96 -24"/><path fill="none" stroke="#000" d="M96,-24C96,-30 90,-36 84,-36"/><text x="48" y="-14.4" font-family="Times Roman,serif" font-size="14" text-anchor="middle">PrivateDNS</text></g><g id="edge8" class="edge"><title>Ec2Instance-&gt;PrivateDNS</title><path fill="none" stroke="#000" d="M264.726,-77.8847C224.304,-67.9601 165.851,-53.1975 106.13,-36.2552"/><polygon fill="#000" stroke="#000" points="106.723 -32.785 96.147 -33.406 104.802 -39.516 106.723 -32.785"/></g><g id="node6" class="node"><title>InstanceId</title><polygon fill="#d3d3d3" stroke="#d3d3d3" points="190 -36 126 -36 114 -24 114 -12 126 0 190 0 202 -12 202 -24 190 -36"/><path fill="#d3d3d3" stroke="#d3d3d3" d="M126,-36C120,-36 114,-30 114,-24"/><path fill="#d3d3d3" stroke="#d3d3d3" d="M114,-12C114,-6 120,-1.67946e-14 126,-1.58257e-14"/><path fill="#d3d3d3" stroke="#d3d3d3" d="M190,-5.49056e-15C196,-4.52164e-15 202,-6 202,-12"/><path fill="#d3d3d3" stroke="#d3d3d3" d="M202,-24C202,-30 196,-36 190,-36"/><polyline fill="none" stroke="#000" points="190 -36 126 -36"/><path fill="none" stroke="#000" d="M126,-36C120,-36 114,-30 114,-24"/><polyline fill="none" stroke="#000" points="114 -24 114 -12"/><path fill="none" stroke="#000" d="M114,-12C114,-6 120,-1.67946e-14 126,-1.58257e-14"/><polyline fill="none" stroke="#000" points="126 0 190 0"/><path fill="none" stroke="#000" d="M190,-5.49056e-15C196,-4.52164e-15 202,-6 202,-12"/><polyline fill="none" stroke="#000" points="202 -12 202 -24"/><path fill="none" stroke="#000" d="M202,-24C202,-30 196,-36 190,-36"/><text x="158" y="-14.4" font-family="Times Roman,serif" font-size="14" text-anchor="middle">InstanceId</text></g><g id="edge10" class="edge"><title>Ec2Instance-&gt;InstanceId</title><path fill="none" stroke="#000" d="M275.382,-71.8314C254.478,-62.2446 228.652,-50.4008 206.551,-40.2655"/><polygon fill="#000" stroke="#000" points="207.882 -37.025 197.333 -36.038 204.964 -43.388 207.882 -37.025"/></g><g id="node7" class="node"><title>PublicDNS</title><polygon fill="#d3d3d3" stroke="#d3d3d3" points="296 -36 232 -36 220 -24 220 -12 232 0 296 0 308 -12 308 -24 296 -36"/><path fill="#d3d3d3" stroke="#d3d3d3" d="M232,-36C226,-36 220,-30 220,-24"/><path fill="#d3d3d3" stroke="#d3d3d3" d="M220,-12C220,-6 226,-1.67946e-14 232,-1.58257e-14"/><path fill="#d3d3d3" stroke="#d3d3d3" d="M296,-5.49056e-15C302,-4.52164e-15 308,-6 308,-12"/><path fill="#d3d3d3" stroke="#d3d3d3" d="M308,-24C308,-30 302,-36 296,-36"/><polyline fill="none" stroke="#000" points="296 -36 232 -36"/><path fill="none" stroke="#000" d="M232,-36C226,-36 220,-30 220,-24"/><polyline fill="none" stroke="#000" points="220 -24 220 -12"/><path fill="none" stroke="#000" d="M220,-12C220,-6 226,-1.67946e-14 232,-1.58257e-14"/><polyline fill="none" stroke="#000" points="232 0 296 0"/><path fill="none" stroke="#000" d="M296,-5.49056e-15C302,-4.52164e-15 308,-6 308,-12"/><polyline fill="none" stroke="#000" points="308 -12 308 -24"/><path fill="none" stroke="#000" d="M308,-24C308,-30 302,-36 296,-36"/><text x="264" y="-14.4" font-family="Times Roman,serif" font-size="14" text-anchor="middle">PublicDNS</text></g><g id="edge12" class="edge"><title>Ec2Instance-&gt;PublicDNS</title><path fill="none" stroke="#000" d="M302.131,-71.8314C296.316,-63.6232 289.33,-53.7606 282.935,-44.7323"/><polygon fill="#000" stroke="#000" points="285.679 -42.55 277.043 -36.413 279.967 -46.597 285.679 -42.55"/></g><g id="node8" class="node"><title>PrivateIP</title><polygon fill="#d3d3d3" stroke="#d3d3d3" points="394 -36 338 -36 326 -24 326 -12 338 0 394 0 406 -12 406 -24 394 -36"/><path fill="#d3d3d3" stroke="#d3d3d3" d="M338,-36C332,-36 326,-30 326,-24"/><path fill="#d3d3d3" stroke="#d3d3d3" d="M326,-12C326,-6 332,-1.66978e-14 338,-1.56319e-14"/><path fill="#d3d3d3" stroke="#d3d3d3" d="M394,-5.68434e-15C400,-4.61853e-15 406,-6 406,-12"/><path fill="#d3d3d3" stroke="#d3d3d3" d="M406,-24C406,-30 400,-36 394,-36"/><polyline fill="none" stroke="#000" points="394 -36 338 -36"/><path fill="none" stroke="#000" d="M338,-36C332,-36 326,-30 326,-24"/><polyline fill="none" stroke="#000" points="326 -24 326 -12"/><path fill="none" stroke="#000" d="M326,-12C326,-6 332,-1.66978e-14 338,-1.56319e-14"/><polyline fill="none" stroke="#000" points="338 0 394 0"/><path fill="none" stroke="#000" d="M394,-5.68434e-15C400,-4.61853e-15 406,-6 406,-12"/><polyline fill="none" stroke="#000" points="406 -12 406 -24"/><path fill="none" stroke="#000" d="M406,-24C406,-30 400,-36 394,-36"/><text x="366" y="-14.4" font-family="Times Roman,serif" font-size="14" text-anchor="middle">PrivateIP</text></g><g id="edge14" class="edge"><title>Ec2Instance-&gt;PrivateIP</title><path fill="none" stroke="#000" d="M327.869,-71.8314C333.684,-63.6232 340.67,-53.7606 347.065,-44.7323"/><polygon fill="#000" stroke="#000" points="350.033 -46.597 352.957 -36.413 344.321 -42.55 350.033 -46.597"/></g><g id="node9" class="node"><title>PublicIP</title><polygon fill="#d3d3d3" stroke="#d3d3d3" points="482 -36 436 -36 424 -24 424 -12 436 0 482 0 494 -12 494 -24 482 -36"/><path fill="#d3d3d3" stroke="#d3d3d3" d="M436,-36C430,-36 424,-30 424,-24"/><path fill="#d3d3d3" stroke="#d3d3d3" d="M424,-12C424,-6 430,-1.65455e-14 436,-1.53274e-14"/><path fill="#d3d3d3" stroke="#d3d3d3" d="M482,-5.98886e-15C488,-4.77079e-15 494,-6 494,-12"/><path fill="#d3d3d3" stroke="#d3d3d3" d="M494,-24C494,-30 488,-36 482,-36"/><polyline fill="none" stroke="#000" points="482 -36 436 -36"/><path fill="none" stroke="#000" d="M436,-36C430,-36 424,-30 424,-24"/><polyline fill="none" stroke="#000" points="424 -24 424 -12"/><path fill="none" stroke="#000" d="M424,-12C424,-6 430,-1.65455e-14 436,-1.53274e-14"/><polyline fill="none" stroke="#000" points="436 0 482 0"/><path fill="none" stroke="#000" d="M482,-5.98886e-15C488,-4.77079e-15 494,-6 494,-12"/><polyline fill="none" stroke="#000" points="494 -12 494 -24"/><path fill="none" stroke="#000" d="M494,-24C494,-30 488,-36 482,-36"/><text x="459" y="-14.4" font-family="Times Roman,serif" font-size="14" text-anchor="middle">PublicIP</text></g><g id="edge16" class="edge"><title>Ec2Instance-&gt;PublicIP</title><path fill="none" stroke="#000" d="M351.337,-71.8314C370.556,-62.2218 394.311,-50.3445 414.613,-40.1933"/><polygon fill="#000" stroke="#000" points="416.291 -43.268 423.67 -35.665 413.16 -37.007 416.291 -43.268"/></g><g id="node10" class="node"><title>AZ</title><polygon fill="#d3d3d3" stroke="#d3d3d3" points="554 -36 524 -36 512 -24 512 -12 524 0 554 0 566 -12 566 -24 554 -36"/><path fill="#d3d3d3" stroke="#d3d3d3" d="M524,-36C518,-36 512,-30 512,-24"/><path fill="#d3d3d3" stroke="#d3d3d3" d="M512,-12C512,-6 518,-1.61846e-14 524,-1.46056e-14"/><path fill="#d3d3d3" stroke="#d3d3d3" d="M554,-6.71068e-15C560,-5.1317e-15 566,-6 566,-12"/><path fill="#d3d3d3" stroke="#d3d3d3" d="M566,-24C566,-30 560,-36 554,-36"/><polyline fill="none" stroke="#000" points="554 -36 524 -36"/><path fill="none" stroke="#000" d="M524,-36C518,-36 512,-30 512,-24"/><polyline fill="none" stroke="#000" points="512 -24 512 -12"/><path fill="none" stroke="#000" d="M512,-12C512,-6 518,-1.61846e-14 524,-1.46056e-14"/><polyline fill="none" stroke="#000" points="524 0 554 0"/><path fill="none" stroke="#000" d="M554,-6.71068e-15C560,-5.1317e-15 566,-6 566,-12"/><polyline fill="none" stroke="#000" points="566 -12 566 -24"/><path fill="none" stroke="#000" d="M566,-24C566,-30 560,-36 554,-36"/><text x="539" y="-14.4" font-family="Times Roman,serif" font-size="14" text-anchor="middle">AZ</text></g><g id="edge18" class="edge"><title>Ec2Instance-&gt;AZ</title><path fill="none" stroke="#000" d="M365.305,-78.234C401.403,-69.1885 451.188,-55.4836 502.185,-35.9964"/><polygon fill="#000" stroke="#000" points="503.666 -39.176 511.719 -32.29 501.13 -32.652 503.666 -39.176"/></g><g id="node3" class="node"><title>KeyName</title><polygon fill="#d3d3d3" stroke="#d3d3d3" points="303 -252 247 -252 235 -240 235 -228 247 -216 303 -216 315 -228 315 -240 303 -252"/><path fill="#d3d3d3" stroke="#d3d3d3" d="M247,-252C241,-252 235,-246 235,-240"/><path fill="#d3d3d3" stroke="#d3d3d3" d="M235,-228C235,-222 241,-216 247,-216"/><path fill="#d3d3d3" stroke="#d3d3d3" d="M303,-216C309,-216 315,-222 315,-228"/><path fill="#d3d3d3" stroke="#d3d3d3" d="M315,-240C315,-246 309,-252 303,-252"/><polyline fill="none" stroke="#000" points="303 -252 247 -252"/><path fill="none" stroke="#000" d="M247,-252C241,-252 235,-246 235,-240"/><polyline fill="none" stroke="#000" points="235 -240 235 -228"/><path fill="none" stroke="#000" d="M235,-228C235,-222 241,-216 247,-216"/><polyline fill="none" stroke="#000" points="247 -216 303 -216"/><path fill="none" stroke="#000" d="M303,-216C309,-216 315,-222 315,-228"/><polyline fill="none" stroke="#000" points="315 -228 315 -240"/><path fill="none" stroke="#000" d="M315,-240C315,-246 309,-252 303,-252"/><text x="275" y="-230.4" font-family="Times Roman,serif" font-size="14" text-anchor="middle">KeyName</text></g><g id="edge4" class="edge"><title>KeyName-&gt;Ec2Instance</title><path fill="none" stroke="#000" d="M277.935,-215.854C281.108,-197.522 286.707,-168.488 294,-144 296.6,-135.269 299.989,-125.958 303.283,-117.569"/><polygon fill="#000" stroke="#000" points="306.553 -118.819 307.053 -108.236 300.062 -116.197 306.553 -118.819"/></g><g id="node12" class="node"><title>AWS::Region</title><polygon fill="none" stroke="#000" points="407 -180 303 -180 303 -144 407 -144 407 -180"/><text x="355" y="-158.4" font-family="Times Roman,serif" font-size="14" text-anchor="middle">AWS::Region</text></g><g id="edge6" class="edge"><title>AWS::Region-&gt;Ec2Instance</title><path fill="none" stroke="#000" d="M344.906,-143.831C340.44,-135.792 335.093,-126.167 330.162,-117.292"/><polygon fill="#000" stroke="#000" points="333.146 -115.455 325.23 -108.413 327.027 -118.855 333.146 -115.455"/></g></g></svg>