<svg xmlns="http://www.w3.org/2000/svg" xmlns:xlink="http://www.w3.org/1999/xlink" width="456" height="404pt" viewBox="0 0 342 404"><g id="graph1" class="graph" transform="scale(1 1) rotate(0) translate(4 400)"><title>AWS CloudFormation Sample Template EC2WithEBSPIOPs: Create an Amazon EC2 instance running the Amazon Linux AMI with a new EBS volume attached that has provisioned IOPs. The instance and the volume are pinned to the same availability zone. We recommend that you do untargeted launches rather than pinning instances this way.The AMI is chosen based on the region in which the stack is run. **WARNING** This template creates an Amazon EC2 instance and an EBS Volume. You will be billed for the AWS resources used if you create a stack from this template.</title><polygon fill="#fff" stroke="#fff" points="-4 5 -4 -400 339 -400 339 5 -4 5"/><g id="node1" class="node"><title>NewVolume</title><polygon fill="none" stroke="#000" points="174 -180 76 -180 76 -144 174 -144 174 -180"/><text x="125" y="-158.4" font-family="Times Roman,serif" font-size="14" text-anchor="middle">NewVolume</text></g><g id="node4" class="node"><title>MountPoint</title><polygon fill="none" stroke="#000" points="193 -108 97 -108 97 -72 193 -72 193 -108"/><text x="145" y="-86.4" font-family="Times Roman,serif" font-size="14" text-anchor="middle">MountPoint</text></g><g id="edge16" class="edge"><title>NewVolume-&gt;MountPoint</title><path fill="none" stroke="#000" d="M130.047,-143.831C132.209,-136.046 134.785,-126.773 137.185,-118.135"/><polygon fill="#000" stroke="#000" points="140.581 -118.985 139.885 -108.413 133.836 -117.112 140.581 -118.985"/></g><g id="node2" class="node"><title>InstanceSecurityGroup</title><polygon fill="none" stroke="#000" points="174 -324 0 -324 0 -288 174 -288 174 -324"/><text x="87" y="-302.4" font-family="Times Roman,serif" font-size="14" text-anchor="middle">InstanceSecurityGroup</text></g><g id="node3" class="node"><title>EC2Instance</title><polygon fill="none" stroke="#000" points="253 -252 151 -252 151 -216 253 -216 253 -252"/><text x="202" y="-230.4" font-family="Times Roman,serif" font-size="14" text-anchor="middle">EC2Instance</text></g><g id="edge10" class="edge"><title>InstanceSecurityGroup-&gt;EC2Instance</title><path fill="none" stroke="#000" d="M116.019,-287.831C130.729,-278.622 148.764,-267.33 164.512,-257.471"/><polygon fill="#000" stroke="#000" points="166.371 -260.436 172.99 -252.163 162.657 -254.503 166.371 -260.436"/></g><g id="edge4" class="edge"><title>EC2Instance-&gt;NewVolume</title><path fill="none" stroke="#000" d="M182.57,-215.831C173.268,-207.134 161.98,-196.578 151.871,-187.127"/><polygon fill="#000" stroke="#000" points="154.119 -184.436 144.424 -180.163 149.338 -189.549 154.119 -184.436"/></g><g id="edge14" class="edge"><title>EC2Instance-&gt;MountPoint</title><path fill="none" stroke="#000" d="M200.333,-215.756C198.132,-197.093 193.263,-167.573 183,-144 178.856,-134.483 172.89,-124.943 166.909,-116.586"/><polygon fill="#000" stroke="#000" points="169.542 -114.263 160.746 -108.357 163.939 -118.459 169.542 -114.263"/></g><g id="node9" class="node"><title>InstanceId</title><polygon fill="#d3d3d3" stroke="#d3d3d3" points="272 -36 208 -36 196 -24 196 -12 208 0 272 0 284 -12 284 -24 272 -36"/><path fill="#d3d3d3" stroke="#d3d3d3" d="M208,-36C202,-36 196,-30 196,-24"/><path fill="#d3d3d3" stroke="#d3d3d3" d="M196,-12C196,-6 202,-1.67946e-14 208,-1.58257e-14"/><path fill="#d3d3d3" stroke="#d3d3d3" d="M272,-5.49056e-15C278,-4.52164e-15 284,-6 284,-12"/><path fill="#d3d3d3" stroke="#d3d3d3" d="M284,-24C284,-30 278,-36 272,-36"/><polyline fill="none" stroke="#000" points="272 -36 208 -36"/><path fill="none" stroke="#000" d="M208,-36C202,-36 196,-30 196,-24"/><polyline fill="none" stroke="#000" points="196 -24 196 -12"/><path fill="none" stroke="#000" d="M196,-12C196,-6 202,-1.67946e-14 208,-1.58257e-14"/><polyline fill="none" stroke="#000" points="208 0 272 0"/><path fill="none" stroke="#000" d="M272,-5.49056e-15C278,-4.52164e-15 284,-6 284,-12"/><polyline fill="none" stroke="#000" points="284 -12 284 -24"/><path fill="none" stroke="#000" d="M284,-24C284,-30 278,-36 272,-36"/><text x="240" y="-14.4" font-family="Times Roman,serif" font-size="14" text-anchor="middle">InstanceId</text></g><g id="edge18" class="edge"><title>EC2Instance-&gt;InstanceId</title><path fill="none" stroke="#000" d="M205.174,-215.955C211.797,-178.314 227.125,-91.1867 235.052,-46.1246"/><polygon fill="#000" stroke="#000" points="238.522 -46.6 236.808 -36.145 231.628 -45.387 238.522 -46.6"/></g><g id="node6" class="node"><title>KeyName</title><polygon fill="#d3d3d3" stroke="#d3d3d3" points="230 -396 174 -396 162 -384 162 -372 174 -360 230 -360 242 -372 242 -384 230 -396"/><path fill="#d3d3d3" stroke="#d3d3d3" d="M174,-396C168,-396 162,-390 162,-384"/><path fill="#d3d3d3" stroke="#d3d3d3" d="M162,-372C162,-366 168,-360 174,-360"/><path fill="#d3d3d3" stroke="#d3d3d3" d="M230,-360C236,-360 242,-366 242,-372"/><path fill="#d3d3d3" stroke="#d3d3d3" d="M242,-384C242,-390 236,-396 230,-396"/><polyline fill="none" stroke="#000" points="230 -396 174 -396"/><path fill="none" stroke="#000" d="M174,-396C168,-396 162,-390 162,-384"/><polyline fill="none" stroke="#000" points="162 -384 162 -372"/><path fill="none" stroke="#000" d="M162,-372C162,-366 168,-360 174,-360"/><polyline fill="none" stroke="#000" points="174 -360 230 -360"/><path fill="none" stroke="#000" d="M230,-360C236,-360 242,-366 242,-372"/><polyline fill="none" stroke="#000" points="242 -372 242 -384"/><path fill="none" stroke="#000" d="M242,-384C242,-390 236,-396 230,-396"/><text x="202" y="-374.4" font-family="Times Roman,serif" font-size="14" text-anchor="middle">KeyName</text></g><g id="edge8" class="edge"><title>KeyName-&gt;EC2Instance</title><path fill="none" stroke="#000" d="M202,-359.762C202,-335.201 202,-291.247 202,-262.354"/><polygon fill="#000" stroke="#000" points="205.5 -262.09 202 -252.09 198.5 -262.09 205.5 -262.09"/></g><g id="node7" class="node"><title>SSHFrom</title><polygon fill="#d3d3d3" stroke="#d3d3d3" points="115 -396 59 -396 47 -384 47 -372 59 -360 115 -360 127 -372 127 -384 115 -396"/><path fill="#d3d3d3" stroke="#d3d3d3" d="M59,-396C53,-396 47,-390 47,-384"/><path fill="#d3d3d3" stroke="#d3d3d3" d="M47,-372C47,-366 53,-360 59,-360"/><path fill="#d3d3d3" stroke="#d3d3d3" d="M115,-360C121,-360 127,-366 127,-372"/><path fill="#d3d3d3" stroke="#d3d3d3" d="M127,-384C127,-390 121,-396 115,-396"/><polyline fill="none" stroke="#000" points="115 -396 59 -396"/><path fill="none" stroke="#000" d="M59,-396C53,-396 47,-390 47,-384"/><polyline fill="none" stroke="#000" points="47 -384 47 -372"/><path fill="none" stroke="#000" d="M47,-372C47,-366 53,-360 59,-360"/><polyline fill="none" stroke="#000" points="59 -360 115 -360"/><path fill="none" stroke="#000" d="M115,-360C121,-360 127,-366 127,-372"/><polyline fill="none" stroke="#000" points="127 -372 127 -384"/><path fill="none" stroke="#000" d="M127,-384C127,-390 121,-396 115,-396"/><text x="87" y="-374.4" font-family="Times Roman,serif" font-size="14" text-anchor="middle">SSHFrom</text></g><g id="edge6" class="edge"><title>SSHFrom-&gt;InstanceSecurityGroup</title><path fill="none" stroke="#000" d="M87,-359.831C87,-352.131 87,-342.974 87,-334.417"/><polygon fill="#000" stroke="#000" points="90.5 -334.413 87 -324.413 83.5 -334.413 90.5 -334.413"/></g><g id="node14" class="node"><title>AWS::Region</title><polygon fill="none" stroke="#000" points="334 -324 230 -324 230 -288 334 -288 334 -324"/><text x="282" y="-302.4" font-family="Times Roman,serif" font-size="14" text-anchor="middle">AWS::Region</text></g><g id="edge12" class="edge"><title>AWS::Region-&gt;EC2Instance</title><path fill="none" stroke="#000" d="M261.813,-287.831C252.149,-279.134 240.42,-268.578 229.918,-259.127"/><polygon fill="#000" stroke="#000" points="231.955 -256.251 222.181 -252.163 227.272 -261.454 231.955 -256.251"/></g></g></svg>