<svg xmlns="http://www.w3.org/2000/svg" xmlns:xlink="http://www.w3.org/1999/xlink" width="395pt" height="188pt" viewBox="0 0 395 188"><g id="graph1" class="graph" transform="scale(1 1) rotate(0) translate(4 184)"><title>AWS CloudFormation Sample Template EC2WithMetadata: Create an Amazon EC2 instance running the Amazon Linux AMI. The Amazon EC2 instance has metadata attached, illustrating that meta data can be used to tag and instance with additonal information that can be accessed via the AWS CloudFormation command line or API. This example used the default security group, so to SSH to the new instance you will need to have port 22 open in your default security group. **WARNING** This template creates one or more Amazon EC2 instances. You will be billed for the AWS resources used if you create a stack from this template.</title><polygon fill="#fff" stroke="#fff" points="-4 5 -4 -184 392 -184 392 5 -4 5"/><g id="node1" class="node"><title>Ec2Instance</title><polygon fill="none" stroke="#000" points="231 -108 131 -108 131 -72 231 -72 231 -108"/><text x="181" y="-86.4" font-family="Times Roman,serif" font-size="14" text-anchor="middle">Ec2Instance</text></g><g id="node3" class="node"><title>InstanceId</title><polygon fill="#d3d3d3" stroke="#d3d3d3" points="76 -36 12 -36 0 -24 0 -12 12 0 76 0 88 -12 88 -24 76 -36"/><path fill="#d3d3d3" stroke="#d3d3d3" d="M12,-36C6,-36 3.55271e-14,-30 2.84217e-14,-24"/><path fill="#d3d3d3" stroke="#d3d3d3" d="M1.42109e-14,-12C7.10543e-15,-6 6,-1.67946e-14 12,-1.58257e-14"/><path fill="#d3d3d3" stroke="#d3d3d3" d="M76,-5.49056e-15C82,-4.52164e-15 88,-6 88,-12"/><path fill="#d3d3d3" stroke="#d3d3d3" d="M88,-24C88,-30 82,-36 76,-36"/><polyline fill="none" stroke="#000" points="76 -36 12 -36"/><path fill="none" stroke="#000" d="M12,-36C6,-36 3.55271e-14,-30 2.84217e-14,-24"/><polyline fill="none" stroke="#000" points="0 -24 0 -12"/><path fill="none" stroke="#000" d="M1.42109e-14,-12C7.10543e-15,-6 6,-1.67946e-14 12,-1.58257e-14"/><polyline fill="none" stroke="#000" points="12 0 76 0"/><path fill="none" stroke="#000" d="M76,-5.49056e-15C82,-4.52164e-15 88,-6 88,-12"/><polyline fill="none" stroke="#000" points="88 -12 88 -24"/><path fill="none" stroke="#000" d="M88,-24C88,-30 82,-36 76,-36"/><text x="44" y="-14.4" font-family="Times Roman,serif" font-size="14" text-anchor="middle">InstanceId</text></g><g id="edge11" class="edge"><title>Ec2Instance-&gt;InstanceId</title><path fill="none" stroke="#000" d="M146.429,-71.8314C128.581,-62.4516 106.623,-50.9112 87.62,-40.9244"/><polygon fill="#000" stroke="#000" points="89.04 -37.717 78.56 -36.163 85.784 -43.913 89.04 -37.717"/></g><g id="node4" class="node"><title>PublicIP</title><polygon fill="#d3d3d3" stroke="#d3d3d3" points="164 -36 118 -36 106 -24 106 -12 118 0 164 0 176 -12 176 -24 164 -36"/><path fill="#d3d3d3" stroke="#d3d3d3" d="M118,-36C112,-36 106,-30 106,-24"/><path fill="#d3d3d3" stroke="#d3d3d3" d="M106,-12C106,-6 112,-1.65455e-14 118,-1.53274e-14"/><path fill="#d3d3d3" stroke="#d3d3d3" d="M164,-5.98886e-15C170,-4.77079e-15 176,-6 176,-12"/><path fill="#d3d3d3" stroke="#d3d3d3" d="M176,-24C176,-30 170,-36 164,-36"/><polyline fill="none" stroke="#000" points="164 -36 118 -36"/><path fill="none" stroke="#000" d="M118,-36C112,-36 106,-30 106,-24"/><polyline fill="none" stroke="#000" points="106 -24 106 -12"/><path fill="none" stroke="#000" d="M106,-12C106,-6 112,-1.65455e-14 118,-1.53274e-14"/><polyline fill="none" stroke="#000" points="118 0 164 0"/><path fill="none" stroke="#000" d="M164,-5.98886e-15C170,-4.77079e-15 176,-6 176,-12"/><polyline fill="none" stroke="#000" points="176 -12 176 -24"/><path fill="none" stroke="#000" d="M176,-24C176,-30 170,-36 164,-36"/><text x="141" y="-14.4" font-family="Times Roman,serif" font-size="14" text-anchor="middle">PublicIP</text></g><g id="edge13" class="edge"><title>Ec2Instance-&gt;PublicIP</title><path fill="none" stroke="#000" d="M170.906,-71.8314C166.44,-63.7925 161.093,-54.1666 156.162,-45.2918"/><polygon fill="#000" stroke="#000" points="159.146 -43.455 151.23 -36.413 153.027 -46.855 159.146 -43.455"/></g><g id="node5" class="node"><title>AZ</title><polygon fill="#d3d3d3" stroke="#d3d3d3" points="236 -36 206 -36 194 -24 194 -12 206 0 236 0 248 -12 248 -24 236 -36"/><path fill="#d3d3d3" stroke="#d3d3d3" d="M206,-36C200,-36 194,-30 194,-24"/><path fill="#d3d3d3" stroke="#d3d3d3" d="M194,-12C194,-6 200,-1.61846e-14 206,-1.46056e-14"/><path fill="#d3d3d3" stroke="#d3d3d3" d="M236,-6.71068e-15C242,-5.1317e-15 248,-6 248,-12"/><path fill="#d3d3d3" stroke="#d3d3d3" d="M248,-24C248,-30 242,-36 236,-36"/><polyline fill="none" stroke="#000" points="236 -36 206 -36"/><path fill="none" stroke="#000" d="M206,-36C200,-36 194,-30 194,-24"/><polyline fill="none" stroke="#000" points="194 -24 194 -12"/><path fill="none" stroke="#000" d="M194,-12C194,-6 200,-1.61846e-14 206,-1.46056e-14"/><polyline fill="none" stroke="#000" points="206 0 236 0"/><path fill="none" stroke="#000" d="M236,-6.71068e-15C242,-5.1317e-15 248,-6 248,-12"/><polyline fill="none" stroke="#000" points="248 -12 248 -24"/><path fill="none" stroke="#000" d="M248,-24C248,-30 242,-36 236,-36"/><text x="221" y="-14.4" font-family="Times Roman,serif" font-size="14" text-anchor="middle">AZ</text></g><g id="edge15" class="edge"><title>Ec2Instance-&gt;AZ</title><path fill="none" stroke="#000" d="M191.094,-71.8314C195.56,-63.7925 200.907,-54.1666 205.838,-45.2918"/><polygon fill="#000" stroke="#000" points="208.973 -46.855 210.77 -36.413 202.854 -43.455 208.973 -46.855"/></g><g id="node6" class="node"><title>PrivateIP</title><polygon fill="#d3d3d3" stroke="#d3d3d3" points="334 -36 278 -36 266 -24 266 -12 278 0 334 0 346 -12 346 -24 334 -36"/><path fill="#d3d3d3" stroke="#d3d3d3" d="M278,-36C272,-36 266,-30 266,-24"/><path fill="#d3d3d3" stroke="#d3d3d3" d="M266,-12C266,-6 272,-1.66978e-14 278,-1.56319e-14"/><path fill="#d3d3d3" stroke="#d3d3d3" d="M334,-5.68434e-15C340,-4.61853e-15 346,-6 346,-12"/><path fill="#d3d3d3" stroke="#d3d3d3" d="M346,-24C346,-30 340,-36 334,-36"/><polyline fill="none" stroke="#000" points="334 -36 278 -36"/><path fill="none" stroke="#000" d="M278,-36C272,-36 266,-30 266,-24"/><polyline fill="none" stroke="#000" points="266 -24 266 -12"/><path fill="none" stroke="#000" d="M266,-12C266,-6 272,-1.66978e-14 278,-1.56319e-14"/><polyline fill="none" stroke="#000" points="278 0 334 0"/><path fill="none" stroke="#000" d="M334,-5.68434e-15C340,-4.61853e-15 346,-6 346,-12"/><polyline fill="none" stroke="#000" points="346 -12 346 -24"/><path fill="none" stroke="#000" d="M346,-24C346,-30 340,-36 334,-36"/><text x="306" y="-14.4" font-family="Times Roman,serif" font-size="14" text-anchor="middle">PrivateIP</text></g><g id="edge17" class="edge"><title>Ec2Instance-&gt;PrivateIP</title><path fill="none" stroke="#000" d="M212.543,-71.8314C228.679,-62.5368 248.499,-51.1208 265.727,-41.1971"/><polygon fill="#000" stroke="#000" points="267.549 -44.187 274.467 -36.163 264.055 -38.121 267.549 -44.187"/></g><g id="node7" class="node"><title>AWS::Region</title><polygon fill="none" stroke="#000" points="233 -180 129 -180 129 -144 233 -144 233 -180"/><text x="181" y="-158.4" font-family="Times Roman,serif" font-size="14" text-anchor="middle">AWS::Region</text></g><g id="edge3" class="edge"><title>AWS::Region-&gt;Ec2Instance</title><path fill="none" stroke="#000" d="M169.095,-143.831C167.594,-136.131 167.153,-126.974 167.77,-118.417"/><polygon fill="#000" stroke="#000" points="171.252 -118.776 169.048 -108.413 164.309 -117.889 171.252 -118.776"/></g><g id="edge5" class="edge"><title>AWS::Region-&gt;Ec2Instance</title><path fill="none" stroke="#000" d="M181,-143.831C181,-136.131 181,-126.974 181,-118.417"/><polygon fill="#000" stroke="#000" points="184.5 -118.413 181 -108.413 177.5 -118.413 184.5 -118.413"/></g><g id="edge7" class="edge"><title>AWS::Region-&gt;Ec2Instance</title><path fill="none" stroke="#000" d="M192.905,-143.831C194.406,-136.131 194.847,-126.974 194.23,-118.417"/><polygon fill="#000" stroke="#000" points="197.691 -117.889 192.952 -108.413 190.748 -118.776 197.691 -117.889"/></g><g id="node11" class="node"><title>AWS::StackName</title><polygon fill="none" stroke="#000" points="387 -180 251 -180 251 -144 387 -144 387 -180"/><text x="319" y="-158.4" font-family="Times Roman,serif" font-size="14" text-anchor="middle">AWS::StackName</text></g><g id="edge9" class="edge"><title>AWS::StackName-&gt;Ec2Instance</title><path fill="none" stroke="#000" d="M284.177,-143.831C266.199,-134.452 244.08,-122.911 224.938,-112.924"/><polygon fill="#000" stroke="#000" points="226.297 -109.685 215.812 -108.163 223.059 -115.892 226.297 -109.685"/></g></g></svg>