<svg xmlns="http://www.w3.org/2000/svg" xmlns:xlink="http://www.w3.org/1999/xlink" width="665pt" height="332pt" viewBox="0 0 665 332"><g id="graph1" class="graph" transform="scale(1 1) rotate(0) translate(4 328)"><title>AWS CloudFormation Sample Template EC2WebSiteSample: Create an Amazon EC2 instance running a simple Apache webserver. The Apache web server is installed on the EC2 instance along with some simple content using the CloudFormation application bootstrap features of the Amazon Linux AMI. This example creates an EC2 security group for the instance to give you SSH access and an Elastic IP to access the instance. **WARNING** This template creates an Amazon EC2 instance. You will be billed for the AWS resources used if you create a stack from this template.</title><polygon fill="#fff" stroke="#fff" points="-4 5 -4 -328 662 -328 662 5 -4 5"/><g id="node1" class="node"><title>EIP</title><polygon fill="none" stroke="#000" points="312 -108 258 -108 258 -72 312 -72 312 -108"/><text x="285" y="-86.4" font-family="Times Roman,serif" font-size="14" text-anchor="middle">EIP</text></g><g id="node12" class="node"><title>URL</title><polygon fill="#d3d3d3" stroke="#d3d3d3" points="283 -36 253 -36 241 -24 241 -12 253 0 283 0 295 -12 295 -24 283 -36"/><path fill="#d3d3d3" stroke="#d3d3d3" d="M253,-36C247,-36 241,-30 241,-24"/><path fill="#d3d3d3" stroke="#d3d3d3" d="M241,-12C241,-6 247,-1.61846e-14 253,-1.46056e-14"/><path fill="#d3d3d3" stroke="#d3d3d3" d="M283,-6.71068e-15C289,-5.1317e-15 295,-6 295,-12"/><path fill="#d3d3d3" stroke="#d3d3d3" d="M295,-24C295,-30 289,-36 283,-36"/><polyline fill="none" stroke="#000" points="283 -36 253 -36"/><path fill="none" stroke="#000" d="M253,-36C247,-36 241,-30 241,-24"/><polyline fill="none" stroke="#000" points="241 -24 241 -12"/><path fill="none" stroke="#000" d="M241,-12C241,-6 247,-1.61846e-14 253,-1.46056e-14"/><polyline fill="none" stroke="#000" points="253 0 283 0"/><path fill="none" stroke="#000" d="M283,-6.71068e-15C289,-5.1317e-15 295,-6 295,-12"/><polyline fill="none" stroke="#000" points="295 -12 295 -24"/><path fill="none" stroke="#000" d="M295,-24C295,-30 289,-36 283,-36"/><text x="268" y="-14.4" font-family="Times Roman,serif" font-size="14" text-anchor="middle">URL</text></g><g id="edge26" class="edge"><title>EIP-&gt;URL</title><path fill="none" stroke="#000" d="M280.71,-71.8314C278.892,-64.131 276.73,-54.9743 274.709,-46.4166"/><polygon fill="#000" stroke="#000" points="278.052 -45.341 272.348 -36.413 271.239 -46.95 278.052 -45.341"/></g><g id="node2" class="node"><title>InstanceSecurityGroup</title><polygon fill="none" stroke="#000" points="174 -252 0 -252 0 -216 174 -216 174 -252"/><text x="87" y="-230.4" font-family="Times Roman,serif" font-size="14" text-anchor="middle">InstanceSecurityGroup</text></g><g id="node4" class="node"><title>Ec2Instance</title><polygon fill="none" stroke="#000" points="407 -180 307 -180 307 -144 407 -144 407 -180"/><text x="357" y="-158.4" font-family="Times Roman,serif" font-size="14" text-anchor="middle">Ec2Instance</text></g><g id="edge18" class="edge"><title>InstanceSecurityGroup-&gt;Ec2Instance</title><path fill="none" stroke="#000" d="M154.784,-215.924C198.458,-204.278 254.733,-189.271 296.823,-178.047"/><polygon fill="#000" stroke="#000" points="297.899 -181.383 306.659 -175.424 296.095 -174.619 297.899 -181.383"/></g><g id="node3" class="node"><title>WaitCondition</title><polygon fill="none" stroke="#000" points="657 -108 543 -108 543 -72 657 -72 657 -108"/><text x="600" y="-86.4" font-family="Times Roman,serif" font-size="14" text-anchor="middle">WaitCondition</text></g><g id="edge4" class="edge"><title>Ec2Instance-&gt;EIP</title><path fill="none" stroke="#000" d="M338.831,-143.831C330.285,-135.285 319.944,-124.944 310.62,-115.62"/><polygon fill="#000" stroke="#000" points="312.959 -113.009 303.413 -108.413 308.009 -117.959 312.959 -113.009"/></g><g id="node11" class="node"><title>InstanceId</title><polygon fill="#d3d3d3" stroke="#d3d3d3" points="389 -36 325 -36 313 -24 313 -12 325 0 389 0 401 -12 401 -24 389 -36"/><path fill="#d3d3d3" stroke="#d3d3d3" d="M325,-36C319,-36 313,-30 313,-24"/><path fill="#d3d3d3" stroke="#d3d3d3" d="M313,-12C313,-6 319,-1.67946e-14 325,-1.58257e-14"/><path fill="#d3d3d3" stroke="#d3d3d3" d="M389,-5.49056e-15C395,-4.52164e-15 401,-6 401,-12"/><path fill="#d3d3d3" stroke="#d3d3d3" d="M401,-24C401,-30 395,-36 389,-36"/><polyline fill="none" stroke="#000" points="389 -36 325 -36"/><path fill="none" stroke="#000" d="M325,-36C319,-36 313,-30 313,-24"/><polyline fill="none" stroke="#000" points="313 -24 313 -12"/><path fill="none" stroke="#000" d="M313,-12C313,-6 319,-1.67946e-14 325,-1.58257e-14"/><polyline fill="none" stroke="#000" points="325 0 389 0"/><path fill="none" stroke="#000" d="M389,-5.49056e-15C395,-4.52164e-15 401,-6 401,-12"/><polyline fill="none" stroke="#000" points="401 -12 401 -24"/><path fill="none" stroke="#000" d="M401,-24C401,-30 395,-36 389,-36"/><text x="357" y="-14.4" font-family="Times Roman,serif" font-size="14" text-anchor="middle">InstanceId</text></g><g id="edge24" class="edge"><title>Ec2Instance-&gt;InstanceId</title><path fill="none" stroke="#000" d="M357,-143.762C357,-119.201 357,-75.2474 357,-46.3541"/><polygon fill="#000" stroke="#000" points="360.5 -46.09 357 -36.09 353.5 -46.09 360.5 -46.09"/></g><g id="node13" class="node"><title>AZ</title><polygon fill="#d3d3d3" stroke="#d3d3d3" points="461 -36 431 -36 419 -24 419 -12 431 0 461 0 473 -12 473 -24 461 -36"/><path fill="#d3d3d3" stroke="#d3d3d3" d="M431,-36C425,-36 419,-30 419,-24"/><path fill="#d3d3d3" stroke="#d3d3d3" d="M419,-12C419,-6 425,-1.61846e-14 431,-1.46056e-14"/><path fill="#d3d3d3" stroke="#d3d3d3" d="M461,-6.71068e-15C467,-5.1317e-15 473,-6 473,-12"/><path fill="#d3d3d3" stroke="#d3d3d3" d="M473,-24C473,-30 467,-36 461,-36"/><polyline fill="none" stroke="#000" points="461 -36 431 -36"/><path fill="none" stroke="#000" d="M431,-36C425,-36 419,-30 419,-24"/><polyline fill="none" stroke="#000" points="419 -24 419 -12"/><path fill="none" stroke="#000" d="M419,-12C419,-6 425,-1.61846e-14 431,-1.46056e-14"/><polyline fill="none" stroke="#000" points="431 0 461 0"/><path fill="none" stroke="#000" d="M461,-6.71068e-15C467,-5.1317e-15 473,-6 473,-12"/><polyline fill="none" stroke="#000" points="473 -12 473 -24"/><path fill="none" stroke="#000" d="M473,-24C473,-30 467,-36 461,-36"/><text x="446" y="-14.4" font-family="Times Roman,serif" font-size="14" text-anchor="middle">AZ</text></g><g id="edge28" class="edge"><title>Ec2Instance-&gt;AZ</title><path fill="none" stroke="#000" d="M368.272,-143.762C383.72,-118.768 411.579,-73.6924 429.411,-44.8409"/><polygon fill="#000" stroke="#000" points="432.539 -46.436 434.82 -36.09 426.585 -42.756 432.539 -46.436"/></g><g id="node5" class="node"><title>WaitHandle</title><polygon fill="none" stroke="#000" points="648 -252 552 -252 552 -216 648 -216 648 -252"/><text x="600" y="-230.4" font-family="Times Roman,serif" font-size="14" text-anchor="middle">WaitHandle</text></g><g id="edge8" class="edge"><title>WaitHandle-&gt;WaitCondition</title><path fill="none" stroke="#000" d="M600,-215.762C600,-191.201 600,-147.247 600,-118.354"/><polygon fill="#000" stroke="#000" points="603.5 -118.09 600 -108.09 596.5 -118.09 603.5 -118.09"/></g><g id="edge14" class="edge"><title>WaitHandle-&gt;Ec2Instance</title><path fill="none" stroke="#000" d="M551.822,-218.699C548.839,-217.779 545.88,-216.873 543,-216 501.084,-203.299 453.67,-189.543 417.204,-179.094"/><polygon fill="#000" stroke="#000" points="417.8 -175.624 407.223 -176.238 415.874 -182.354 417.8 -175.624"/></g><g id="node7" class="node"><title>SSHLocation</title><polygon fill="#d3d3d3" stroke="#d3d3d3" points="127 -324 47 -324 35 -312 35 -300 47 -288 127 -288 139 -300 139 -312 127 -324"/><path fill="#d3d3d3" stroke="#d3d3d3" d="M47,-324C41,-324 35,-318 35,-312"/><path fill="#d3d3d3" stroke="#d3d3d3" d="M35,-300C35,-294 41,-288 47,-288"/><path fill="#d3d3d3" stroke="#d3d3d3" d="M127,-288C133,-288 139,-294 139,-300"/><path fill="#d3d3d3" stroke="#d3d3d3" d="M139,-312C139,-318 133,-324 127,-324"/><polyline fill="none" stroke="#000" points="127 -324 47 -324"/><path fill="none" stroke="#000" d="M47,-324C41,-324 35,-318 35,-312"/><polyline fill="none" stroke="#000" points="35 -312 35 -300"/><path fill="none" stroke="#000" d="M35,-300C35,-294 41,-288 47,-288"/><polyline fill="none" stroke="#000" points="47 -288 127 -288"/><path fill="none" stroke="#000" d="M127,-288C133,-288 139,-294 139,-300"/><polyline fill="none" stroke="#000" points="139 -300 139 -312"/><path fill="none" stroke="#000" d="M139,-312C139,-318 133,-324 127,-324"/><text x="87" y="-302.4" font-family="Times Roman,serif" font-size="14" text-anchor="middle">SSHLocation</text></g><g id="edge6" class="edge"><title>SSHLocation-&gt;InstanceSecurityGroup</title><path fill="none" stroke="#000" d="M87,-287.831C87,-280.131 87,-270.974 87,-262.417"/><polygon fill="#000" stroke="#000" points="90.5 -262.413 87 -252.413 83.5 -262.413 90.5 -262.413"/></g><g id="node8" class="node"><title>KeyName</title><polygon fill="#d3d3d3" stroke="#d3d3d3" points="227 -324 171 -324 159 -312 159 -300 171 -288 227 -288 239 -300 239 -312 227 -324"/><path fill="#d3d3d3" stroke="#d3d3d3" d="M171,-324C165,-324 159,-318 159,-312"/><path fill="#d3d3d3" stroke="#d3d3d3" d="M159,-300C159,-294 165,-288 171,-288"/><path fill="#d3d3d3" stroke="#d3d3d3" d="M227,-288C233,-288 239,-294 239,-300"/><path fill="#d3d3d3" stroke="#d3d3d3" d="M239,-312C239,-318 233,-324 227,-324"/><polyline fill="none" stroke="#000" points="227 -324 171 -324"/><path fill="none" stroke="#000" d="M171,-324C165,-324 159,-318 159,-312"/><polyline fill="none" stroke="#000" points="159 -312 159 -300"/><path fill="none" stroke="#000" d="M159,-300C159,-294 165,-288 171,-288"/><polyline fill="none" stroke="#000" points="171 -288 227 -288"/><path fill="none" stroke="#000" d="M227,-288C233,-288 239,-294 239,-300"/><polyline fill="none" stroke="#000" points="239 -300 239 -312"/><path fill="none" stroke="#000" d="M239,-312C239,-318 233,-324 227,-324"/><text x="199" y="-302.4" font-family="Times Roman,serif" font-size="14" text-anchor="middle">KeyName</text></g><g id="edge16" class="edge"><title>KeyName-&gt;Ec2Instance</title><path fill="none" stroke="#000" d="M214.678,-287.907C231.33,-269.106 258.813,-239.238 285,-216 296.775,-205.551 310.433,-194.963 322.669,-185.963"/><polygon fill="#000" stroke="#000" points="324.836 -188.715 330.872 -180.008 320.723 -183.051 324.836 -188.715"/></g><g id="node9" class="node"><title>InstanceType</title><polygon fill="#d3d3d3" stroke="#d3d3d3" points="351 -324 269 -324 257 -312 257 -300 269 -288 351 -288 363 -300 363 -312 351 -324"/><path fill="#d3d3d3" stroke="#d3d3d3" d="M269,-324C263,-324 257,-318 257,-312"/><path fill="#d3d3d3" stroke="#d3d3d3" d="M257,-300C257,-294 263,-288 269,-288"/><path fill="#d3d3d3" stroke="#d3d3d3" d="M351,-288C357,-288 363,-294 363,-300"/><path fill="#d3d3d3" stroke="#d3d3d3" d="M363,-312C363,-318 357,-324 351,-324"/><polyline fill="none" stroke="#000" points="351 -324 269 -324"/><path fill="none" stroke="#000" d="M269,-324C263,-324 257,-318 257,-312"/><polyline fill="none" stroke="#000" points="257 -312 257 -300"/><path fill="none" stroke="#000" d="M257,-300C257,-294 263,-288 269,-288"/><polyline fill="none" stroke="#000" points="269 -288 351 -288"/><path fill="none" stroke="#000" d="M351,-288C357,-288 363,-294 363,-300"/><polyline fill="none" stroke="#000" points="363 -300 363 -312"/><path fill="none" stroke="#000" d="M363,-312C363,-318 357,-324 351,-324"/><text x="310" y="-302.4" font-family="Times Roman,serif" font-size="14" text-anchor="middle">InstanceType</text></g><g id="edge22" class="edge"><title>InstanceType-&gt;Ec2Instance</title><path fill="none" stroke="#000" d="M300.416,-287.957C291.836,-269.197 282.145,-239.361 293,-216 298.414,-204.349 307.717,-194.306 317.579,-186.151"/><polygon fill="#000" stroke="#000" points="319.754 -188.893 325.544 -180.02 315.485 -183.346 319.754 -188.893"/></g><g id="node17" class="node"><title>AWS::StackId</title><polygon fill="none" stroke="#000" points="412 -252 302 -252 302 -216 412 -216 412 -252"/><text x="357" y="-230.4" font-family="Times Roman,serif" font-size="14" text-anchor="middle">AWS::StackId</text></g><g id="edge10" class="edge"><title>AWS::StackId-&gt;Ec2Instance</title><path fill="none" stroke="#000" d="M357,-215.831C357,-208.131 357,-198.974 357,-190.417"/><polygon fill="#000" stroke="#000" points="360.5 -190.413 357 -180.413 353.5 -190.413 360.5 -190.413"/></g><g id="node19" class="node"><title>AWS::Region</title><polygon fill="none" stroke="#000" points="534 -252 430 -252 430 -216 534 -216 534 -252"/><text x="482" y="-230.4" font-family="Times Roman,serif" font-size="14" text-anchor="middle">AWS::Region</text></g><g id="edge12" class="edge"><title>AWS::Region-&gt;Ec2Instance</title><path fill="none" stroke="#000" d="M444.505,-215.831C427.619,-206.622 407.875,-195.33 391.375,-185.471"/><polygon fill="#000" stroke="#000" points="392.951 -182.334 382.581 -180.163 389.334 -188.327 392.951 -182.334"/></g><g id="edge20" class="edge"><title>AWS::Region-&gt;Ec2Instance</title><path fill="none" stroke="#000" d="M456.41,-215.831C441.179,-206.537 421.494,-195.121 403.628,-185.197"/><polygon fill="#000" stroke="#000" points="404.933 -181.92 394.485 -180.163 401.556 -188.052 404.933 -181.92"/></g></g></svg>