<svg xmlns="http://www.w3.org/2000/svg" xmlns:xlink="http://www.w3.org/1999/xlink" width="271pt" height="260pt" viewBox="0 0 271 260"><g id="graph1" class="graph" transform="scale(1 1) rotate(0) translate(4 256)"><title>AWS CloudFormation Sample Template Sample template EIP_With_Association: This template shows how to associate an Elastic IP address with an Amazon EC2 instance - you can use this same technique to associate an EC2 instance with an Elastic IP Address that is not created inside the template by replacing the EIP reference in the AWS::EC2::EIPAssoication resource type with the IP address of the external EIP. **WARNING** This template creates an Amazon EC2 instance and an Elastic IP Address. You will be billed for the AWS resources used if you create a stack from this template.</title><polygon fill="#fff" stroke="#fff" points="-4 5 -4 -256 268 -256 268 5 -4 5"/><g id="node1" class="node"><title>IPAddress</title><polygon fill="none" stroke="#000" points="204 -252 122 -252 122 -216 204 -216 204 -252"/><text x="163" y="-230.4" font-family="Times Roman,serif" font-size="14" text-anchor="middle">IPAddress</text></g><g id="node2" class="node"><title>Ec2Instance</title><polygon fill="none" stroke="#000" points="114 -180 14 -180 14 -144 114 -144 114 -180"/><text x="64" y="-158.4" font-family="Times Roman,serif" font-size="14" text-anchor="middle">Ec2Instance</text></g><g id="edge3" class="edge"><title>IPAddress-&gt;Ec2Instance</title><path fill="none" stroke="#000" d="M138.018,-215.831C125.707,-206.878 110.689,-195.956 97.4063,-186.295"/><polygon fill="#000" stroke="#000" points="99.12 -183.214 88.974 -180.163 95.003 -188.875 99.12 -183.214"/></g><g id="node3" class="node"><title>IPAssoc</title><polygon fill="none" stroke="#000" points="159 -108 91 -108 91 -72 159 -72 159 -108"/><text x="125" y="-86.4" font-family="Times Roman,serif" font-size="14" text-anchor="middle">IPAssoc</text></g><g id="edge9" class="edge"><title>IPAddress-&gt;IPAssoc</title><path fill="none" stroke="#000" d="M158.187,-215.762C151.677,-191.093 140.005,-146.86 132.382,-117.973"/><polygon fill="#000" stroke="#000" points="135.709 -116.866 129.774 -108.09 128.941 -118.652 135.709 -116.866"/></g><g id="node6" class="node"><title>InstanceIPAddress</title><polygon fill="#d3d3d3" stroke="#d3d3d3" points="251 -36 133 -36 121 -24 121 -12 133 0 251 0 263 -12 263 -24 251 -36"/><path fill="#d3d3d3" stroke="#d3d3d3" d="M133,-36C127,-36 121,-30 121,-24"/><path fill="#d3d3d3" stroke="#d3d3d3" d="M121,-12C121,-6 127,-1.71631e-14 133,-1.65627e-14"/><path fill="#d3d3d3" stroke="#d3d3d3" d="M251,-4.75363e-15C257,-4.15317e-15 263,-6 263,-12"/><path fill="#d3d3d3" stroke="#d3d3d3" d="M263,-24C263,-30 257,-36 251,-36"/><polyline fill="none" stroke="#000" points="251 -36 133 -36"/><path fill="none" stroke="#000" d="M133,-36C127,-36 121,-30 121,-24"/><polyline fill="none" stroke="#000" points="121 -24 121 -12"/><path fill="none" stroke="#000" d="M121,-12C121,-6 127,-1.71631e-14 133,-1.65627e-14"/><polyline fill="none" stroke="#000" points="133 0 251 0"/><path fill="none" stroke="#000" d="M251,-4.75363e-15C257,-4.15317e-15 263,-6 263,-12"/><polyline fill="none" stroke="#000" points="263 -12 263 -24"/><path fill="none" stroke="#000" d="M263,-24C263,-30 257,-36 251,-36"/><text x="192" y="-14.4" font-family="Times Roman,serif" font-size="14" text-anchor="middle">InstanceIPAddress</text></g><g id="edge13" class="edge"><title>IPAddress-&gt;InstanceIPAddress</title><path fill="none" stroke="#000" d="M165.423,-215.955C170.476,-178.314 182.174,-91.1867 188.224,-46.1246"/><polygon fill="#000" stroke="#000" points="191.702 -46.522 189.564 -36.145 184.764 -45.59 191.702 -46.522"/></g><g id="edge7" class="edge"><title>Ec2Instance-&gt;IPAssoc</title><path fill="none" stroke="#000" d="M79.3929,-143.831C86.4904,-135.454 95.048,-125.353 102.824,-116.175"/><polygon fill="#000" stroke="#000" points="105.606 -118.306 109.4 -108.413 100.265 -113.781 105.606 -118.306"/></g><g id="node5" class="node"><title>InstanceId</title><polygon fill="#d3d3d3" stroke="#d3d3d3" points="91 -36 27 -36 15 -24 15 -12 27 0 91 0 103 -12 103 -24 91 -36"/><path fill="#d3d3d3" stroke="#d3d3d3" d="M27,-36C21,-36 15,-30 15,-24"/><path fill="#d3d3d3" stroke="#d3d3d3" d="M15,-12C15,-6 21,-1.67946e-14 27,-1.58257e-14"/><path fill="#d3d3d3" stroke="#d3d3d3" d="M91,-5.49056e-15C97,-4.52164e-15 103,-6 103,-12"/><path fill="#d3d3d3" stroke="#d3d3d3" d="M103,-24C103,-30 97,-36 91,-36"/><polyline fill="none" stroke="#000" points="91 -36 27 -36"/><path fill="none" stroke="#000" d="M27,-36C21,-36 15,-30 15,-24"/><polyline fill="none" stroke="#000" points="15 -24 15 -12"/><path fill="none" stroke="#000" d="M15,-12C15,-6 21,-1.67946e-14 27,-1.58257e-14"/><polyline fill="none" stroke="#000" points="27 0 91 0"/><path fill="none" stroke="#000" d="M91,-5.49056e-15C97,-4.52164e-15 103,-6 103,-12"/><polyline fill="none" stroke="#000" points="103 -12 103 -24"/><path fill="none" stroke="#000" d="M103,-24C103,-30 97,-36 91,-36"/><text x="59" y="-14.4" font-family="Times Roman,serif" font-size="14" text-anchor="middle">InstanceId</text></g><g id="edge11" class="edge"><title>Ec2Instance-&gt;InstanceId</title><path fill="none" stroke="#000" d="M63.3667,-143.762C62.5139,-119.201 60.9878,-75.2474 59.9845,-46.3541"/><polygon fill="#000" stroke="#000" points="63.473 -45.962 59.628 -36.09 56.477 -46.205 63.473 -45.962"/></g><g id="node8" class="node"><title>AWS::Region</title><polygon fill="none" stroke="#000" points="104 -252 0 -252 0 -216 104 -216 104 -252"/><text x="52" y="-230.4" font-family="Times Roman,serif" font-size="14" text-anchor="middle">AWS::Region</text></g><g id="edge5" class="edge"><title>AWS::Region-&gt;Ec2Instance</title><path fill="none" stroke="#000" d="M55.0281,-215.831C56.3115,-208.131 57.8376,-198.974 59.2639,-190.417"/><polygon fill="#000" stroke="#000" points="62.739 -190.853 60.931 -180.413 55.835 -189.702 62.739 -190.853"/></g></g></svg>