<svg xmlns="http://www.w3.org/2000/svg" xmlns:xlink="http://www.w3.org/1999/xlink" width="672" height="404pt" viewBox="0 0 504 404"><g id="graph1" class="graph" transform="scale(1 1) rotate(0) translate(4 400)"><title>AWS CloudFormation Sample Template ElasticBeanstalk_Simple: Configure and launch an AWS Elastic Beanstalk application that connects to an Amazon RDS database instance. Monitoring is setup on the database. **WARNING** This template creates one or more Amazon EC2 instances and an Amazon Relational Database Service database instance. You will be billed for the AWS resources used if you create a stack from this template.</title><polygon fill="#fff" stroke="#fff" points="-4 5 -4 -400 501 -400 501 5 -4 5"/><g id="node1" class="node"><title>SampleApplication</title><polygon fill="none" stroke="#000" points="279 -180 137 -180 137 -144 279 -144 279 -180"/><text x="208" y="-158.4" font-family="Times Roman,serif" font-size="14" text-anchor="middle">SampleApplication</text></g><g id="node3" class="node"><title>SampleEnvironment</title><polygon fill="none" stroke="#000" points="286 -108 130 -108 130 -72 286 -72 286 -108"/><text x="208" y="-86.4" font-family="Times Roman,serif" font-size="14" text-anchor="middle">SampleEnvironment</text></g><g id="edge14" class="edge"><title>SampleApplication-&gt;SampleEnvironment</title><path fill="none" stroke="#000" d="M208,-143.831C208,-136.131 208,-126.974 208,-118.417"/><polygon fill="#000" stroke="#000" points="211.5 -118.413 208 -108.413 204.5 -118.413 211.5 -118.413"/></g><g id="node2" class="node"><title>DBSecurityGroup</title><polygon fill="none" stroke="#000" points="372 -324 236 -324 236 -288 372 -288 372 -324"/><text x="304" y="-302.4" font-family="Times Roman,serif" font-size="14" text-anchor="middle">DBSecurityGroup</text></g><g id="node5" class="node"><title>SampleDB</title><polygon fill="none" stroke="#000" points="336 -252 248 -252 248 -216 336 -216 336 -252"/><text x="292" y="-230.4" font-family="Times Roman,serif" font-size="14" text-anchor="middle">SampleDB</text></g><g id="edge22" class="edge"><title>DBSecurityGroup-&gt;SampleDB</title><path fill="none" stroke="#000" d="M300.972,-287.831C299.688,-280.131 298.162,-270.974 296.736,-262.417"/><polygon fill="#000" stroke="#000" points="300.165 -261.702 295.069 -252.413 293.261 -262.853 300.165 -261.702"/></g><g id="node12" class="node"><title>URL</title><polygon fill="#d3d3d3" stroke="#d3d3d3" points="223 -36 193 -36 181 -24 181 -12 193 0 223 0 235 -12 235 -24 223 -36"/><path fill="#d3d3d3" stroke="#d3d3d3" d="M193,-36C187,-36 181,-30 181,-24"/><path fill="#d3d3d3" stroke="#d3d3d3" d="M181,-12C181,-6 187,-1.61846e-14 193,-1.46056e-14"/><path fill="#d3d3d3" stroke="#d3d3d3" d="M223,-6.71068e-15C229,-5.1317e-15 235,-6 235,-12"/><path fill="#d3d3d3" stroke="#d3d3d3" d="M235,-24C235,-30 229,-36 223,-36"/><polyline fill="none" stroke="#000" points="223 -36 193 -36"/><path fill="none" stroke="#000" d="M193,-36C187,-36 181,-30 181,-24"/><polyline fill="none" stroke="#000" points="181 -24 181 -12"/><path fill="none" stroke="#000" d="M181,-12C181,-6 187,-1.61846e-14 193,-1.46056e-14"/><polyline fill="none" stroke="#000" points="193 0 223 0"/><path fill="none" stroke="#000" d="M223,-6.71068e-15C229,-5.1317e-15 235,-6 235,-12"/><polyline fill="none" stroke="#000" points="235 -12 235 -24"/><path fill="none" stroke="#000" d="M235,-24C235,-30 229,-36 223,-36"/><text x="208" y="-14.4" font-family="Times Roman,serif" font-size="14" text-anchor="middle">URL</text></g><g id="edge30" class="edge"><title>SampleEnvironment-&gt;URL</title><path fill="none" stroke="#000" d="M208,-71.8314C208,-64.131 208,-54.9743 208,-46.4166"/><polygon fill="#000" stroke="#000" points="211.5 -46.413 208 -36.413 204.5 -46.413 211.5 -46.413"/></g><g id="node4" class="node"><title>CPUAlarmHigh</title><polygon fill="none" stroke="#000" points="477 -180 359 -180 359 -144 477 -144 477 -180"/><text x="418" y="-158.4" font-family="Times Roman,serif" font-size="14" text-anchor="middle">CPUAlarmHigh</text></g><g id="edge4" class="edge"><title>SampleDB-&gt;SampleApplication</title><path fill="none" stroke="#000" d="M264.851,-215.831C253.856,-207.134 241.369,-196.578 230.846,-187.127"/><polygon fill="#000" stroke="#000" points="232.978 -184.333 223.238 -180.163 228.251 -189.497 232.978 -184.333"/></g><g id="edge6" class="edge"><title>SampleDB-&gt;SampleApplication</title><path fill="none" stroke="#000" d="M276.756,-215.831C267.274,-206.963 254.836,-196.164 243.105,-186.572"/><polygon fill="#000" stroke="#000" points="245.127 -183.706 235.142 -180.163 240.738 -189.159 245.127 -183.706"/></g><g id="edge16" class="edge"><title>SampleDB-&gt;CPUAlarmHigh</title><path fill="none" stroke="#000" d="M323.795,-215.831C340.061,-206.537 360.039,-195.121 377.405,-185.197"/><polygon fill="#000" stroke="#000" points="379.269 -188.163 386.215 -180.163 375.796 -182.085 379.269 -188.163"/></g><g id="node6" class="node"><title>AlarmTopic</title><polygon fill="none" stroke="#000" points="463 -252 373 -252 373 -216 463 -216 463 -252"/><text x="418" y="-230.4" font-family="Times Roman,serif" font-size="14" text-anchor="middle">AlarmTopic</text></g><g id="edge18" class="edge"><title>AlarmTopic-&gt;CPUAlarmHigh</title><path fill="none" stroke="#000" d="M412.048,-215.831C411.297,-208.131 411.076,-198.974 411.385,-190.417"/><polygon fill="#000" stroke="#000" points="414.879 -190.616 412.024 -180.413 407.893 -190.17 414.879 -190.616"/></g><g id="edge20" class="edge"><title>AlarmTopic-&gt;CPUAlarmHigh</title><path fill="none" stroke="#000" d="M423.952,-215.831C424.703,-208.131 424.924,-198.974 424.615,-190.417"/><polygon fill="#000" stroke="#000" points="428.107 -190.17 423.976 -180.413 421.121 -190.616 428.107 -190.17"/></g><g id="node8" class="node"><title>DatabasePassword</title><polygon fill="#d3d3d3" stroke="#d3d3d3" points="347 -396 225 -396 213 -384 213 -372 225 -360 347 -360 359 -372 359 -384 347 -396"/><path fill="#d3d3d3" stroke="#d3d3d3" d="M225,-396C219,-396 213,-390 213,-384"/><path fill="#d3d3d3" stroke="#d3d3d3" d="M213,-372C213,-366 219,-360 225,-360"/><path fill="#d3d3d3" stroke="#d3d3d3" d="M347,-360C353,-360 359,-366 359,-372"/><path fill="#d3d3d3" stroke="#d3d3d3" d="M359,-384C359,-390 353,-396 347,-396"/><polyline fill="none" stroke="#000" points="347 -396 225 -396"/><path fill="none" stroke="#000" d="M225,-396C219,-396 213,-390 213,-384"/><polyline fill="none" stroke="#000" points="213 -384 213 -372"/><path fill="none" stroke="#000" d="M213,-372C213,-366 219,-360 225,-360"/><polyline fill="none" stroke="#000" points="225 -360 347 -360"/><path fill="none" stroke="#000" d="M347,-360C353,-360 359,-366 359,-372"/><polyline fill="none" stroke="#000" points="359 -372 359 -384"/><path fill="none" stroke="#000" d="M359,-384C359,-390 353,-396 347,-396"/><text x="286" y="-374.4" font-family="Times Roman,serif" font-size="14" text-anchor="middle">DatabasePassword</text></g><g id="edge10" class="edge"><title>DatabasePassword-&gt;SampleApplication</title><path fill="none" stroke="#000" d="M258.644,-359.837C246.922,-350.555 234.277,-338.214 227,-324 205.108,-281.24 203.886,-224.014 205.554,-190.27"/><polygon fill="#000" stroke="#000" points="209.053 -190.384 206.174 -180.188 202.067 -189.954 209.053 -190.384"/></g><g id="edge26" class="edge"><title>DatabasePassword-&gt;SampleDB</title><path fill="none" stroke="#000" d="M339.708,-359.79C355.865,-351.511 371.745,-339.906 381,-324 389.047,-310.171 388.849,-301.943 381,-288 372.924,-273.654 359.326,-262.68 345.159,-254.495"/><polygon fill="#000" stroke="#000" points="346.777 -251.39 336.309 -249.753 343.471 -257.561 346.777 -251.39"/></g><g id="node9" class="node"><title>DatabaseUser</title><polygon fill="#d3d3d3" stroke="#d3d3d3" points="178 -396 90 -396 78 -384 78 -372 90 -360 178 -360 190 -372 190 -384 178 -396"/><path fill="#d3d3d3" stroke="#d3d3d3" d="M90,-396C84,-396 78,-390 78,-384"/><path fill="#d3d3d3" stroke="#d3d3d3" d="M78,-372C78,-366 84,-360 90,-360"/><path fill="#d3d3d3" stroke="#d3d3d3" d="M178,-360C184,-360 190,-366 190,-372"/><path fill="#d3d3d3" stroke="#d3d3d3" d="M190,-384C190,-390 184,-396 178,-396"/><polyline fill="none" stroke="#000" points="178 -396 90 -396"/><path fill="none" stroke="#000" d="M90,-396C84,-396 78,-390 78,-384"/><polyline fill="none" stroke="#000" points="78 -384 78 -372"/><path fill="none" stroke="#000" d="M78,-372C78,-366 84,-360 90,-360"/><polyline fill="none" stroke="#000" points="90 -360 178 -360"/><path fill="none" stroke="#000" d="M178,-360C184,-360 190,-366 190,-372"/><polyline fill="none" stroke="#000" points="190 -372 190 -384"/><path fill="none" stroke="#000" d="M190,-384C190,-390 184,-396 178,-396"/><text x="134" y="-374.4" font-family="Times Roman,serif" font-size="14" text-anchor="middle">DatabaseUser</text></g><g id="edge8" class="edge"><title>DatabaseUser-&gt;SampleApplication</title><path fill="none" stroke="#000" d="M140.182,-359.955C153.105,-322.235 183.053,-234.819 198.462,-189.84"/><polygon fill="#000" stroke="#000" points="201.854 -190.74 201.784 -180.145 195.231 -188.471 201.854 -190.74"/></g><g id="edge24" class="edge"><title>DatabaseUser-&gt;SampleDB</title><path fill="none" stroke="#000" d="M151.791,-359.995C170.23,-341.523 200.071,-312.153 227,-288 238.073,-278.068 250.571,-267.533 261.628,-258.43"/><polygon fill="#000" stroke="#000" points="263.861 -261.126 269.384 -252.084 259.428 -255.708 263.861 -261.126"/></g><g id="node10" class="node"><title>OperatorEmail</title><polygon fill="#d3d3d3" stroke="#d3d3d3" points="484 -396 392 -396 380 -384 380 -372 392 -360 484 -360 496 -372 496 -384 484 -396"/><path fill="#d3d3d3" stroke="#d3d3d3" d="M392,-396C386,-396 380,-390 380,-384"/><path fill="#d3d3d3" stroke="#d3d3d3" d="M380,-372C380,-366 386,-360 392,-360"/><path fill="#d3d3d3" stroke="#d3d3d3" d="M484,-360C490,-360 496,-366 496,-372"/><path fill="#d3d3d3" stroke="#d3d3d3" d="M496,-384C496,-390 490,-396 484,-396"/><polyline fill="none" stroke="#000" points="484 -396 392 -396"/><path fill="none" stroke="#000" d="M392,-396C386,-396 380,-390 380,-384"/><polyline fill="none" stroke="#000" points="380 -384 380 -372"/><path fill="none" stroke="#000" d="M380,-372C380,-366 386,-360 392,-360"/><polyline fill="none" stroke="#000" points="392 -360 484 -360"/><path fill="none" stroke="#000" d="M484,-360C490,-360 496,-366 496,-372"/><polyline fill="none" stroke="#000" points="496 -372 496 -384"/><path fill="none" stroke="#000" d="M496,-384C496,-390 490,-396 484,-396"/><text x="438" y="-374.4" font-family="Times Roman,serif" font-size="14" text-anchor="middle">OperatorEmail</text></g><g id="edge28" class="edge"><title>OperatorEmail-&gt;AlarmTopic</title><path fill="none" stroke="#000" d="M435.467,-359.762C432.056,-335.201 425.951,-291.247 421.938,-262.354"/><polygon fill="#000" stroke="#000" points="425.355 -261.513 420.512 -252.09 418.421 -262.476 425.355 -261.513"/></g><g id="node17" class="node"><title>AWS::Region</title><polygon fill="none" stroke="#000" points="104 -324 0 -324 0 -288 104 -288 104 -324"/><text x="52" y="-302.4" font-family="Times Roman,serif" font-size="14" text-anchor="middle">AWS::Region</text></g><g id="edge12" class="edge"><title>AWS::Region-&gt;SampleApplication</title><path fill="none" stroke="#000" d="M62.3468,-287.779C74.0354,-268.324 94.5174,-237.409 118,-216 130.935,-204.207 146.836,-193.661 161.654,-185.086"/><polygon fill="#000" stroke="#000" points="163.696 -187.954 170.705 -180.009 160.271 -181.849 163.696 -187.954"/></g></g></svg>