<svg xmlns="http://www.w3.org/2000/svg" xmlns:xlink="http://www.w3.org/1999/xlink" width="288" height="332pt" viewBox="0 0 216 332"><g id="graph1" class="graph" transform="scale(1 1) rotate(0) translate(4 328)"><title>AWS CloudFormation Sample Template ElasticBeanstalk_Python_Sample: Configure and launch the AWS Elastic Beanstalk Python sample application. **WARNING** This template creates one or more Amazon EC2 instances. You will be billed for the AWS resources used if you create a stack from this template.</title><polygon fill="#fff" stroke="#fff" points="-4 5 -4 -328 213 -328 213 5 -4 5"/><g id="node1" class="node"><title>sampleApplication</title><polygon fill="none" stroke="#000" points="208 -180 68 -180 68 -144 208 -144 208 -180"/><text x="138" y="-158.4" font-family="Times Roman,serif" font-size="14" text-anchor="middle">sampleApplication</text></g><g id="node2" class="node"><title>sampleEnvironment</title><polygon fill="none" stroke="#000" points="166 -108 12 -108 12 -72 166 -72 166 -108"/><text x="89" y="-86.4" font-family="Times Roman,serif" font-size="14" text-anchor="middle">sampleEnvironment</text></g><g id="edge6" class="edge"><title>sampleApplication-&gt;sampleEnvironment</title><path fill="none" stroke="#000" d="M125.635,-143.831C120.049,-135.623 113.337,-125.761 107.193,-116.732"/><polygon fill="#000" stroke="#000" points="110.051 -114.711 101.531 -108.413 104.264 -118.65 110.051 -114.711"/></g><g id="node6" class="node"><title>URL</title><polygon fill="#d3d3d3" stroke="#d3d3d3" points="104 -36 74 -36 62 -24 62 -12 74 0 104 0 116 -12 116 -24 104 -36"/><path fill="#d3d3d3" stroke="#d3d3d3" d="M74,-36C68,-36 62,-30 62,-24"/><path fill="#d3d3d3" stroke="#d3d3d3" d="M62,-12C62,-6 68,-1.61846e-14 74,-1.46056e-14"/><path fill="#d3d3d3" stroke="#d3d3d3" d="M104,-6.71068e-15C110,-5.1317e-15 116,-6 116,-12"/><path fill="#d3d3d3" stroke="#d3d3d3" d="M116,-24C116,-30 110,-36 104,-36"/><polyline fill="none" stroke="#000" points="104 -36 74 -36"/><path fill="none" stroke="#000" d="M74,-36C68,-36 62,-30 62,-24"/><polyline fill="none" stroke="#000" points="62 -24 62 -12"/><path fill="none" stroke="#000" d="M62,-12C62,-6 68,-1.61846e-14 74,-1.46056e-14"/><polyline fill="none" stroke="#000" points="74 0 104 0"/><path fill="none" stroke="#000" d="M104,-6.71068e-15C110,-5.1317e-15 116,-6 116,-12"/><polyline fill="none" stroke="#000" points="116 -12 116 -24"/><path fill="none" stroke="#000" d="M116,-24C116,-30 110,-36 104,-36"/><text x="89" y="-14.4" font-family="Times Roman,serif" font-size="14" text-anchor="middle">URL</text></g><g id="edge10" class="edge"><title>sampleEnvironment-&gt;URL</title><path fill="none" stroke="#000" d="M89,-71.8314C89,-64.131 89,-54.9743 89,-46.4166"/><polygon fill="#000" stroke="#000" points="92.5 -46.413 89 -36.413 85.5 -46.413 92.5 -46.413"/></g><g id="node4" class="node"><title>KeyName</title><polygon fill="#d3d3d3" stroke="#d3d3d3" points="68 -324 12 -324 0 -312 0 -300 12 -288 68 -288 80 -300 80 -312 68 -324"/><path fill="#d3d3d3" stroke="#d3d3d3" d="M12,-324C6,-324 3.55271e-14,-318 2.84217e-14,-312"/><path fill="#d3d3d3" stroke="#d3d3d3" d="M1.42109e-14,-300C7.10543e-15,-294 6,-288 12,-288"/><path fill="#d3d3d3" stroke="#d3d3d3" d="M68,-288C74,-288 80,-294 80,-300"/><path fill="#d3d3d3" stroke="#d3d3d3" d="M80,-312C80,-318 74,-324 68,-324"/><polyline fill="none" stroke="#000" points="68 -324 12 -324"/><path fill="none" stroke="#000" d="M12,-324C6,-324 3.55271e-14,-318 2.84217e-14,-312"/><polyline fill="none" stroke="#000" points="0 -312 0 -300"/><path fill="none" stroke="#000" d="M1.42109e-14,-300C7.10543e-15,-294 6,-288 12,-288"/><polyline fill="none" stroke="#000" points="12 -288 68 -288"/><path fill="none" stroke="#000" d="M68,-288C74,-288 80,-294 80,-300"/><polyline fill="none" stroke="#000" points="80 -300 80 -312"/><path fill="none" stroke="#000" d="M80,-312C80,-318 74,-324 68,-324"/><text x="40" y="-302.4" font-family="Times Roman,serif" font-size="14" text-anchor="middle">KeyName</text></g><g id="edge8" class="edge"><title>KeyName-&gt;sampleEnvironment</title><path fill="none" stroke="#000" d="M39.8592,-287.531C40.1302,-256.933 42.8357,-194.129 59,-144 61.9971,-134.705 66.658,-125.19 71.4197,-116.788"/><polygon fill="#000" stroke="#000" points="74.442 -118.553 76.552 -108.17 68.428 -114.971 74.442 -118.553"/></g><g id="node7" class="node"><title>AWS::Region</title><polygon fill="none" stroke="#000" points="190 -252 86 -252 86 -216 190 -216 190 -252"/><text x="138" y="-230.4" font-family="Times Roman,serif" font-size="14" text-anchor="middle">AWS::Region</text></g><g id="edge4" class="edge"><title>AWS::Region-&gt;sampleApplication</title><path fill="none" stroke="#000" d="M138,-215.831C138,-208.131 138,-198.974 138,-190.417"/><polygon fill="#000" stroke="#000" points="141.5 -190.413 138 -180.413 134.5 -190.413 141.5 -190.413"/></g></g></svg>