<svg xmlns="http://www.w3.org/2000/svg" xmlns:xlink="http://www.w3.org/1999/xlink" width="240" height="332pt" viewBox="0 0 180 332"><g id="graph1" class="graph" transform="scale(1 1) rotate(0) translate(4 328)"><title>AWS CloudFormation Sample Template ElasticBeanstalk_PHP_Sample: Configure and launch the AWS Elastic Beanstalk PHP sample application. **WARNING** This template creates one or more Amazon EC2 instances. You will be billed for the AWS resources used if you create a stack from this template.</title><polygon fill="#fff" stroke="#fff" points="-4 5 -4 -328 177 -328 177 5 -4 5"/><g id="node1" class="node"><title>sampleApplication</title><polygon fill="none" stroke="#000" points="150 -180 10 -180 10 -144 150 -144 150 -180"/><text x="80" y="-158.4" font-family="Times Roman,serif" font-size="14" text-anchor="middle">sampleApplication</text></g><g id="node2" class="node"><title>sampleEnvironment</title><polygon fill="none" stroke="#000" points="157 -108 3 -108 3 -72 157 -72 157 -108"/><text x="80" y="-86.4" font-family="Times Roman,serif" font-size="14" text-anchor="middle">sampleEnvironment</text></g><g id="edge8" class="edge"><title>sampleApplication-&gt;sampleEnvironment</title><path fill="none" stroke="#000" d="M80,-143.831C80,-136.131 80,-126.974 80,-118.417"/><polygon fill="#000" stroke="#000" points="83.5 -118.413 80 -108.413 76.5 -118.413 83.5 -118.413"/></g><g id="node6" class="node"><title>URL</title><polygon fill="#d3d3d3" stroke="#d3d3d3" points="95 -36 65 -36 53 -24 53 -12 65 0 95 0 107 -12 107 -24 95 -36"/><path fill="#d3d3d3" stroke="#d3d3d3" d="M65,-36C59,-36 53,-30 53,-24"/><path fill="#d3d3d3" stroke="#d3d3d3" d="M53,-12C53,-6 59,-1.61846e-14 65,-1.46056e-14"/><path fill="#d3d3d3" stroke="#d3d3d3" d="M95,-6.71068e-15C101,-5.1317e-15 107,-6 107,-12"/><path fill="#d3d3d3" stroke="#d3d3d3" d="M107,-24C107,-30 101,-36 95,-36"/><polyline fill="none" stroke="#000" points="95 -36 65 -36"/><path fill="none" stroke="#000" d="M65,-36C59,-36 53,-30 53,-24"/><polyline fill="none" stroke="#000" points="53 -24 53 -12"/><path fill="none" stroke="#000" d="M53,-12C53,-6 59,-1.61846e-14 65,-1.46056e-14"/><polyline fill="none" stroke="#000" points="65 0 95 0"/><path fill="none" stroke="#000" d="M95,-6.71068e-15C101,-5.1317e-15 107,-6 107,-12"/><polyline fill="none" stroke="#000" points="107 -12 107 -24"/><path fill="none" stroke="#000" d="M107,-24C107,-30 101,-36 95,-36"/><text x="80" y="-14.4" font-family="Times Roman,serif" font-size="14" text-anchor="middle">URL</text></g><g id="edge10" class="edge"><title>sampleEnvironment-&gt;URL</title><path fill="none" stroke="#000" d="M80,-71.8314C80,-64.131 80,-54.9743 80,-46.4166"/><polygon fill="#000" stroke="#000" points="83.5 -46.413 80 -36.413 76.5 -46.413 83.5 -46.413"/></g><g id="node4" class="node"><title>KeyName</title><polygon fill="#d3d3d3" stroke="#d3d3d3" points="68 -324 12 -324 0 -312 0 -300 12 -288 68 -288 80 -300 80 -312 68 -324"/><path fill="#d3d3d3" stroke="#d3d3d3" d="M12,-324C6,-324 3.55271e-14,-318 2.84217e-14,-312"/><path fill="#d3d3d3" stroke="#d3d3d3" d="M1.42109e-14,-300C7.10543e-15,-294 6,-288 12,-288"/><path fill="#d3d3d3" stroke="#d3d3d3" d="M68,-288C74,-288 80,-294 80,-300"/><path fill="#d3d3d3" stroke="#d3d3d3" d="M80,-312C80,-318 74,-324 68,-324"/><polyline fill="none" stroke="#000" points="68 -324 12 -324"/><path fill="none" stroke="#000" d="M12,-324C6,-324 3.55271e-14,-318 2.84217e-14,-312"/><polyline fill="none" stroke="#000" points="0 -312 0 -300"/><path fill="none" stroke="#000" d="M1.42109e-14,-300C7.10543e-15,-294 6,-288 12,-288"/><polyline fill="none" stroke="#000" points="12 -288 68 -288"/><path fill="none" stroke="#000" d="M68,-288C74,-288 80,-294 80,-300"/><polyline fill="none" stroke="#000" points="80 -300 80 -312"/><path fill="none" stroke="#000" d="M80,-312C80,-318 74,-324 68,-324"/><text x="40" y="-302.4" font-family="Times Roman,serif" font-size="14" text-anchor="middle">KeyName</text></g><g id="edge4" class="edge"><title>KeyName-&gt;sampleApplication</title><path fill="none" stroke="#000" d="M42.9348,-287.854C46.108,-269.522 51.7065,-240.488 59,-216 61.6003,-207.269 64.9889,-197.958 68.2827,-189.569"/><polygon fill="#000" stroke="#000" points="71.553 -190.819 72.053 -180.236 65.062 -188.197 71.553 -190.819"/></g><g id="node8" class="node"><title>AWS::Region</title><polygon fill="none" stroke="#000" points="172 -252 68 -252 68 -216 172 -216 172 -252"/><text x="120" y="-230.4" font-family="Times Roman,serif" font-size="14" text-anchor="middle">AWS::Region</text></g><g id="edge6" class="edge"><title>AWS::Region-&gt;sampleApplication</title><path fill="none" stroke="#000" d="M109.906,-215.831C105.44,-207.792 100.093,-198.167 95.1621,-189.292"/><polygon fill="#000" stroke="#000" points="98.146 -187.455 90.23 -180.413 92.026 -190.855 98.146 -187.455"/></g></g></svg>