<svg xmlns="http://www.w3.org/2000/svg" xmlns:xlink="http://www.w3.org/1999/xlink" width="502pt" height="404pt" viewBox="0 0 502 404"><g id="graph1" class="graph" transform="scale(1 1) rotate(0) translate(4 400)"><title>AWS CloudFormation Sample Template ELBWithLockedDownEC2Instances: Create a load balanced, Auto Scaled sample website where the instances are locked down to only accept traffic from the load balancer. This example creates an Auto Scaling group behind a load balancer with a simple health check. The web site is available on port 80, however, the instances can be configured to listen on any port (8888 by default). **WARNING** This template creates one or more Amazon EC2 instances and an Elastic Load Balancer. You will be billed for the AWS resources used if you create a stack from this template.</title><polygon fill="#fff" stroke="#fff" points="-4 5 -4 -400 499 -400 499 5 -4 5"/><g id="node1" class="node"><title>ElasticLoadBalancer</title><polygon fill="none" stroke="#000" points="154 -324 0 -324 0 -288 154 -288 154 -324"/><text x="77" y="-302.4" font-family="Times Roman,serif" font-size="14" text-anchor="middle">ElasticLoadBalancer</text></g><g id="node2" class="node"><title>InstanceSecurityGroup</title><polygon fill="none" stroke="#000" points="278 -252 104 -252 104 -216 278 -216 278 -252"/><text x="191" y="-230.4" font-family="Times Roman,serif" font-size="14" text-anchor="middle">InstanceSecurityGroup</text></g><g id="edge10" class="edge"><title>ElasticLoadBalancer-&gt;InstanceSecurityGroup</title><path fill="none" stroke="#000" d="M99.8146,-287.831C113.498,-278.622 131.237,-267.33 147.466,-257.471"/><polygon fill="#000" stroke="#000" points="149.525 -260.316 156.29 -252.163 145.917 -254.318 149.525 -260.316"/></g><g id="edge12" class="edge"><title>ElasticLoadBalancer-&gt;InstanceSecurityGroup</title><path fill="none" stroke="#000" d="M111.719,-287.831C127.055,-278.707 144.884,-267.539 159.794,-257.745"/><polygon fill="#000" stroke="#000" points="161.802 -260.612 168.194 -252.163 157.928 -254.782 161.802 -260.612"/></g><g id="node3" class="node"><title>WebServerGroup</title><polygon fill="none" stroke="#000" points="288 -108 152 -108 152 -72 288 -72 288 -108"/><text x="220" y="-86.4" font-family="Times Roman,serif" font-size="14" text-anchor="middle">WebServerGroup</text></g><g id="edge16" class="edge"><title>ElasticLoadBalancer-&gt;WebServerGroup</title><path fill="none" stroke="#000" d="M77.59,-287.724C78.8802,-268.772 82.8649,-238.784 95,-216 117.215,-174.291 157.674,-137.336 186.545,-114.408"/><polygon fill="#000" stroke="#000" points="188.988 -116.942 194.728 -108.037 184.687 -111.419 188.988 -116.942"/></g><g id="node9" class="node"><title>URL</title><polygon fill="#d3d3d3" stroke="#d3d3d3" points="53 -36 23 -36 11 -24 11 -12 23 0 53 0 65 -12 65 -24 53 -36"/><path fill="#d3d3d3" stroke="#d3d3d3" d="M23,-36C17,-36 11,-30 11,-24"/><path fill="#d3d3d3" stroke="#d3d3d3" d="M11,-12C11,-6 17,-1.61846e-14 23,-1.46056e-14"/><path fill="#d3d3d3" stroke="#d3d3d3" d="M53,-6.71068e-15C59,-5.1317e-15 65,-6 65,-12"/><path fill="#d3d3d3" stroke="#d3d3d3" d="M65,-24C65,-30 59,-36 53,-36"/><polyline fill="none" stroke="#000" points="53 -36 23 -36"/><path fill="none" stroke="#000" d="M23,-36C17,-36 11,-30 11,-24"/><polyline fill="none" stroke="#000" points="11 -24 11 -12"/><path fill="none" stroke="#000" d="M11,-12C11,-6 17,-1.61846e-14 23,-1.46056e-14"/><polyline fill="none" stroke="#000" points="23 0 53 0"/><path fill="none" stroke="#000" d="M53,-6.71068e-15C59,-5.1317e-15 65,-6 65,-12"/><polyline fill="none" stroke="#000" points="65 -12 65 -24"/><path fill="none" stroke="#000" d="M65,-24C65,-30 59,-36 53,-36"/><text x="38" y="-14.4" font-family="Times Roman,serif" font-size="14" text-anchor="middle">URL</text></g><g id="edge30" class="edge"><title>ElasticLoadBalancer-&gt;URL</title><path fill="none" stroke="#000" d="M74.5604,-287.984C67.9669,-239.294 49.7536,-104.796 41.7994,-46.0573"/><polygon fill="#000" stroke="#000" points="45.249 -45.449 40.439 -36.009 38.312 -46.388 45.249 -45.449"/></g><g id="node4" class="node"><title>LaunchConfig</title><polygon fill="none" stroke="#000" points="384 -180 274 -180 274 -144 384 -144 384 -180"/><text x="329" y="-158.4" font-family="Times Roman,serif" font-size="14" text-anchor="middle">LaunchConfig</text></g><g id="edge22" class="edge"><title>InstanceSecurityGroup-&gt;LaunchConfig</title><path fill="none" stroke="#000" d="M225.823,-215.831C243.801,-206.452 265.92,-194.911 285.062,-184.924"/><polygon fill="#000" stroke="#000" points="286.941 -187.892 294.188 -180.163 283.703 -181.685 286.941 -187.892"/></g><g id="edge18" class="edge"><title>LaunchConfig-&gt;WebServerGroup</title><path fill="none" stroke="#000" d="M301.495,-143.831C287.682,-134.707 270.774,-123.539 255.947,-113.745"/><polygon fill="#000" stroke="#000" points="257.77 -110.754 247.497 -108.163 253.911 -116.595 257.77 -110.754"/></g><g id="node6" class="node"><title>WebServerPort</title><polygon fill="#d3d3d3" stroke="#d3d3d3" points="240 -396 142 -396 130 -384 130 -372 142 -360 240 -360 252 -372 252 -384 240 -396"/><path fill="#d3d3d3" stroke="#d3d3d3" d="M142,-396C136,-396 130,-390 130,-384"/><path fill="#d3d3d3" stroke="#d3d3d3" d="M130,-372C130,-366 136,-360 142,-360"/><path fill="#d3d3d3" stroke="#d3d3d3" d="M240,-360C246,-360 252,-366 252,-372"/><path fill="#d3d3d3" stroke="#d3d3d3" d="M252,-384C252,-390 246,-396 240,-396"/><polyline fill="none" stroke="#000" points="240 -396 142 -396"/><path fill="none" stroke="#000" d="M142,-396C136,-396 130,-390 130,-384"/><polyline fill="none" stroke="#000" points="130 -384 130 -372"/><path fill="none" stroke="#000" d="M130,-372C130,-366 136,-360 142,-360"/><polyline fill="none" stroke="#000" points="142 -360 240 -360"/><path fill="none" stroke="#000" d="M240,-360C246,-360 252,-366 252,-372"/><polyline fill="none" stroke="#000" points="252 -372 252 -384"/><path fill="none" stroke="#000" d="M252,-384C252,-390 246,-396 240,-396"/><text x="191" y="-374.4" font-family="Times Roman,serif" font-size="14" text-anchor="middle">WebServerPort</text></g><g id="edge4" class="edge"><title>WebServerPort-&gt;ElasticLoadBalancer</title><path fill="none" stroke="#000" d="M156.281,-359.831C140.945,-350.707 123.116,-339.539 108.206,-329.745"/><polygon fill="#000" stroke="#000" points="110.072 -326.782 99.806 -324.163 106.198 -332.612 110.072 -326.782"/></g><g id="edge6" class="edge"><title>WebServerPort-&gt;ElasticLoadBalancer</title><path fill="none" stroke="#000" d="M168.185,-359.831C154.502,-350.622 136.763,-339.33 120.534,-329.471"/><polygon fill="#000" stroke="#000" points="122.083 -326.318 111.71 -324.163 118.475 -332.316 122.083 -326.318"/></g><g id="edge8" class="edge"><title>WebServerPort-&gt;InstanceSecurityGroup</title><path fill="none" stroke="#000" d="M186.327,-359.762C183.867,-335.201 183.592,-291.247 185.503,-262.354"/><polygon fill="#000" stroke="#000" points="189.015 -262.342 186.342 -252.09 182.038 -261.771 189.015 -262.342"/></g><g id="edge14" class="edge"><title>WebServerPort-&gt;InstanceSecurityGroup</title><path fill="none" stroke="#000" d="M195.673,-359.762C198.133,-335.201 198.408,-291.247 196.497,-262.354"/><polygon fill="#000" stroke="#000" points="199.962 -261.771 195.658 -252.09 192.985 -262.342 199.962 -261.771"/></g><g id="edge20" class="edge"><title>WebServerPort-&gt;LaunchConfig</title><path fill="none" stroke="#000" d="M206.967,-359.693C227.196,-335.941 262.382,-292.712 287,-252 299.12,-231.956 310.204,-207.843 317.938,-189.622"/><polygon fill="#000" stroke="#000" points="321.261 -190.746 321.876 -180.169 314.799 -188.054 321.261 -190.746"/></g><g id="node7" class="node"><title>InstanceType</title><polygon fill="#d3d3d3" stroke="#d3d3d3" points="394 -396 312 -396 300 -384 300 -372 312 -360 394 -360 406 -372 406 -384 394 -396"/><path fill="#d3d3d3" stroke="#d3d3d3" d="M312,-396C306,-396 300,-390 300,-384"/><path fill="#d3d3d3" stroke="#d3d3d3" d="M300,-372C300,-366 306,-360 312,-360"/><path fill="#d3d3d3" stroke="#d3d3d3" d="M394,-360C400,-360 406,-366 406,-372"/><path fill="#d3d3d3" stroke="#d3d3d3" d="M406,-384C406,-390 400,-396 394,-396"/><polyline fill="none" stroke="#000" points="394 -396 312 -396"/><path fill="none" stroke="#000" d="M312,-396C306,-396 300,-390 300,-384"/><polyline fill="none" stroke="#000" points="300 -384 300 -372"/><path fill="none" stroke="#000" d="M300,-372C300,-366 306,-360 312,-360"/><polyline fill="none" stroke="#000" points="312 -360 394 -360"/><path fill="none" stroke="#000" d="M394,-360C400,-360 406,-366 406,-372"/><polyline fill="none" stroke="#000" points="406 -372 406 -384"/><path fill="none" stroke="#000" d="M406,-384C406,-390 400,-396 394,-396"/><text x="353" y="-374.4" font-family="Times Roman,serif" font-size="14" text-anchor="middle">InstanceType</text></g><g id="edge24" class="edge"><title>InstanceType-&gt;LaunchConfig</title><path fill="none" stroke="#000" d="M347.049,-359.955C339.424,-322.394 329.51,-235.554 327.414,-190.41"/><polygon fill="#000" stroke="#000" points="330.903 -190.019 327.061 -180.145 323.907 -190.26 330.903 -190.019"/></g><g id="edge28" class="edge"><title>InstanceType-&gt;LaunchConfig</title><path fill="none" stroke="#000" d="M354.941,-359.955C354.217,-322.314 344.796,-235.187 336.849,-190.125"/><polygon fill="#000" stroke="#000" points="340.26 -189.325 334.971 -180.145 333.381 -190.62 340.26 -189.325"/></g><g id="node21" class="node"><title>AWS::Region</title><polygon fill="none" stroke="#000" points="494 -252 390 -252 390 -216 494 -216 494 -252"/><text x="442" y="-230.4" font-family="Times Roman,serif" font-size="14" text-anchor="middle">AWS::Region</text></g><g id="edge26" class="edge"><title>AWS::Region-&gt;LaunchConfig</title><path fill="none" stroke="#000" d="M413.485,-215.831C399.166,-206.707 381.638,-195.539 366.266,-185.745"/><polygon fill="#000" stroke="#000" points="367.82 -182.585 357.506 -180.163 364.058 -188.488 367.82 -182.585"/></g></g></svg>