<svg xmlns="http://www.w3.org/2000/svg" xmlns:xlink="http://www.w3.org/1999/xlink" width="692pt" height="260pt" viewBox="0 0 692 260"><g id="graph1" class="graph" transform="scale(1 1) rotate(0) translate(4 256)"><title>AWS CloudFormation Sample Template Gollum_Single_Instance: Gollum is a simple wiki system built on top of Git that powers GitHub Wikis. This template installs a Gollum Wiki stack on a single EC2 instance and demonstrates using the AWS CloudFormation bootstrap scripts to install the packages and files necessary at instance launch time. **WARNING** This template creates an Amazon EC2 instance. You will be billed for the AWS resources used if you create a stack from this template.</title><polygon fill="#fff" stroke="#fff" points="-4 5 -4 -256 689 -256 689 5 -4 5"/><g id="node1" class="node"><title>WebServer</title><polygon fill="none" stroke="#000" points="430 -108 338 -108 338 -72 430 -72 430 -108"/><text x="384" y="-86.4" font-family="Times Roman,serif" font-size="14" text-anchor="middle">WebServer</text></g><g id="node10" class="node"><title>WebsiteURL</title><polygon fill="#d3d3d3" stroke="#d3d3d3" points="422 -36 346 -36 334 -24 334 -12 346 0 422 0 434 -12 434 -24 422 -36"/><path fill="#d3d3d3" stroke="#d3d3d3" d="M346,-36C340,-36 334,-30 334,-24"/><path fill="#d3d3d3" stroke="#d3d3d3" d="M334,-12C334,-6 340,-1.69109e-14 346,-1.60583e-14"/><path fill="#d3d3d3" stroke="#d3d3d3" d="M422,-5.25802e-15C428,-4.40536e-15 434,-6 434,-12"/><path fill="#d3d3d3" stroke="#d3d3d3" d="M434,-24C434,-30 428,-36 422,-36"/><polyline fill="none" stroke="#000" points="422 -36 346 -36"/><path fill="none" stroke="#000" d="M346,-36C340,-36 334,-30 334,-24"/><polyline fill="none" stroke="#000" points="334 -24 334 -12"/><path fill="none" stroke="#000" d="M334,-12C334,-6 340,-1.69109e-14 346,-1.60583e-14"/><polyline fill="none" stroke="#000" points="346 0 422 0"/><path fill="none" stroke="#000" d="M422,-5.25802e-15C428,-4.40536e-15 434,-6 434,-12"/><polyline fill="none" stroke="#000" points="434 -12 434 -24"/><path fill="none" stroke="#000" d="M434,-24C434,-30 428,-36 422,-36"/><text x="384" y="-14.4" font-family="Times Roman,serif" font-size="14" text-anchor="middle">WebsiteURL</text></g><g id="edge26" class="edge"><title>WebServer-&gt;WebsiteURL</title><path fill="none" stroke="#000" d="M384,-71.8314C384,-64.131 384,-54.9743 384,-46.4166"/><polygon fill="#000" stroke="#000" points="387.5 -46.413 384 -36.413 380.5 -46.413 387.5 -46.413"/></g><g id="node2" class="node"><title>WaitCondition</title><polygon fill="none" stroke="#000" points="684 -108 570 -108 570 -72 684 -72 684 -108"/><text x="627" y="-86.4" font-family="Times Roman,serif" font-size="14" text-anchor="middle">WaitCondition</text></g><g id="node3" class="node"><title>WebServerSecurityGroup</title><polygon fill="none" stroke="#000" points="192 -180 0 -180 0 -144 192 -144 192 -180"/><text x="96" y="-158.4" font-family="Times Roman,serif" font-size="14" text-anchor="middle">WebServerSecurityGroup</text></g><g id="edge14" class="edge"><title>WebServerSecurityGroup-&gt;WebServer</title><path fill="none" stroke="#000" d="M168.303,-143.924C217.822,-131.544 282.529,-115.368 328.107,-103.973"/><polygon fill="#000" stroke="#000" points="328.965 -107.367 337.817 -101.546 327.267 -100.576 328.965 -107.367"/></g><g id="node4" class="node"><title>WaitHandle</title><polygon fill="none" stroke="#000" points="675 -180 579 -180 579 -144 675 -144 675 -180"/><text x="627" y="-158.4" font-family="Times Roman,serif" font-size="14" text-anchor="middle">WaitHandle</text></g><g id="edge4" class="edge"><title>WaitHandle-&gt;WebServer</title><path fill="none" stroke="#000" d="M578.894,-149.486C572.836,-147.624 566.76,-145.745 561,-144 520.581,-131.753 475.05,-118.524 440.216,-108.226"/><polygon fill="#000" stroke="#000" points="440.81 -104.752 430.228 -105.265 438.821 -111.463 440.81 -104.752"/></g><g id="edge10" class="edge"><title>WaitHandle-&gt;WebServer</title><path fill="none" stroke="#000" d="M579.298,-144.09C579.199,-144.06 579.099,-144.03 579,-144 532.424,-129.887 479.06,-114.471 439.845,-103.737"/><polygon fill="#000" stroke="#000" points="440.76 -100.359 430.192 -101.113 438.923 -107.114 440.76 -100.359"/></g><g id="edge22" class="edge"><title>WaitHandle-&gt;WaitCondition</title><path fill="none" stroke="#000" d="M627,-143.831C627,-136.131 627,-126.974 627,-118.417"/><polygon fill="#000" stroke="#000" points="630.5 -118.413 627 -108.413 623.5 -118.413 630.5 -118.413"/></g><g id="node6" class="node"><title>SSHLocation</title><polygon fill="#d3d3d3" stroke="#d3d3d3" points="136 -252 56 -252 44 -240 44 -228 56 -216 136 -216 148 -228 148 -240 136 -252"/><path fill="#d3d3d3" stroke="#d3d3d3" d="M56,-252C50,-252 44,-246 44,-240"/><path fill="#d3d3d3" stroke="#d3d3d3" d="M44,-228C44,-222 50,-216 56,-216"/><path fill="#d3d3d3" stroke="#d3d3d3" d="M136,-216C142,-216 148,-222 148,-228"/><path fill="#d3d3d3" stroke="#d3d3d3" d="M148,-240C148,-246 142,-252 136,-252"/><polyline fill="none" stroke="#000" points="136 -252 56 -252"/><path fill="none" stroke="#000" d="M56,-252C50,-252 44,-246 44,-240"/><polyline fill="none" stroke="#000" points="44 -240 44 -228"/><path fill="none" stroke="#000" d="M44,-228C44,-222 50,-216 56,-216"/><polyline fill="none" stroke="#000" points="56 -216 136 -216"/><path fill="none" stroke="#000" d="M136,-216C142,-216 148,-222 148,-228"/><polyline fill="none" stroke="#000" points="148 -228 148 -240"/><path fill="none" stroke="#000" d="M148,-240C148,-246 142,-252 136,-252"/><text x="96" y="-230.4" font-family="Times Roman,serif" font-size="14" text-anchor="middle">SSHLocation</text></g><g id="edge24" class="edge"><title>SSHLocation-&gt;WebServerSecurityGroup</title><path fill="none" stroke="#000" d="M96,-215.831C96,-208.131 96,-198.974 96,-190.417"/><polygon fill="#000" stroke="#000" points="99.5 -190.413 96 -180.413 92.5 -190.413 99.5 -190.413"/></g><g id="node7" class="node"><title>KeyName</title><polygon fill="#d3d3d3" stroke="#d3d3d3" points="241 -252 185 -252 173 -240 173 -228 185 -216 241 -216 253 -228 253 -240 241 -252"/><path fill="#d3d3d3" stroke="#d3d3d3" d="M185,-252C179,-252 173,-246 173,-240"/><path fill="#d3d3d3" stroke="#d3d3d3" d="M173,-228C173,-222 179,-216 185,-216"/><path fill="#d3d3d3" stroke="#d3d3d3" d="M241,-216C247,-216 253,-222 253,-228"/><path fill="#d3d3d3" stroke="#d3d3d3" d="M253,-240C253,-246 247,-252 241,-252"/><polyline fill="none" stroke="#000" points="241 -252 185 -252"/><path fill="none" stroke="#000" d="M185,-252C179,-252 173,-246 173,-240"/><polyline fill="none" stroke="#000" points="173 -240 173 -228"/><path fill="none" stroke="#000" d="M173,-228C173,-222 179,-216 185,-216"/><polyline fill="none" stroke="#000" points="185 -216 241 -216"/><path fill="none" stroke="#000" d="M241,-216C247,-216 253,-222 253,-228"/><polyline fill="none" stroke="#000" points="253 -228 253 -240"/><path fill="none" stroke="#000" d="M253,-240C253,-246 247,-252 241,-252"/><text x="213" y="-230.4" font-family="Times Roman,serif" font-size="14" text-anchor="middle">KeyName</text></g><g id="edge12" class="edge"><title>KeyName-&gt;WebServer</title><path fill="none" stroke="#000" d="M231.367,-215.734C250.449,-197.053 281.456,-167.52 310,-144 322.466,-133.728 336.688,-123.108 349.31,-114.031"/><polygon fill="#000" stroke="#000" points="351.638 -116.67 357.752 -108.018 347.577 -110.969 351.638 -116.67"/></g><g id="node8" class="node"><title>InstanceType</title><polygon fill="#d3d3d3" stroke="#d3d3d3" points="365 -252 283 -252 271 -240 271 -228 283 -216 365 -216 377 -228 377 -240 365 -252"/><path fill="#d3d3d3" stroke="#d3d3d3" d="M283,-252C277,-252 271,-246 271,-240"/><path fill="#d3d3d3" stroke="#d3d3d3" d="M271,-228C271,-222 277,-216 283,-216"/><path fill="#d3d3d3" stroke="#d3d3d3" d="M365,-216C371,-216 377,-222 377,-228"/><path fill="#d3d3d3" stroke="#d3d3d3" d="M377,-240C377,-246 371,-252 365,-252"/><polyline fill="none" stroke="#000" points="365 -252 283 -252"/><path fill="none" stroke="#000" d="M283,-252C277,-252 271,-246 271,-240"/><polyline fill="none" stroke="#000" points="271 -240 271 -228"/><path fill="none" stroke="#000" d="M271,-228C271,-222 277,-216 283,-216"/><polyline fill="none" stroke="#000" points="283 -216 365 -216"/><path fill="none" stroke="#000" d="M365,-216C371,-216 377,-222 377,-228"/><polyline fill="none" stroke="#000" points="377 -228 377 -240"/><path fill="none" stroke="#000" d="M377,-240C377,-246 371,-252 365,-252"/><text x="324" y="-230.4" font-family="Times Roman,serif" font-size="14" text-anchor="middle">InstanceType</text></g><g id="edge16" class="edge"><title>InstanceType-&gt;WebServer</title><path fill="none" stroke="#000" d="M311.74,-215.802C304.761,-196.915 300.323,-166.978 311,-144 316.414,-132.349 325.717,-122.306 335.949,-114.151"/><polygon fill="#000" stroke="#000" points="338.309 -116.76 344.298 -108.02 334.166 -111.118 338.309 -116.76"/></g><g id="edge20" class="edge"><title>InstanceType-&gt;WebServer</title><path fill="none" stroke="#000" d="M325.179,-215.802C322.761,-196.915 318.323,-166.978 329,-144 334.36,-132.464 343.533,-122.505 352.927,-114.393"/><polygon fill="#000" stroke="#000" points="355.225 -117.036 360.79 -108.02 350.818 -111.597 355.225 -117.036"/></g><g id="node12" class="node"><title>AWS::StackId</title><polygon fill="none" stroke="#000" points="439 -180 329 -180 329 -144 439 -144 439 -180"/><text x="384" y="-158.4" font-family="Times Roman,serif" font-size="14" text-anchor="middle">AWS::StackId</text></g><g id="edge6" class="edge"><title>AWS::StackId-&gt;WebServer</title><path fill="none" stroke="#000" d="M384,-143.831C384,-136.131 384,-126.974 384,-118.417"/><polygon fill="#000" stroke="#000" points="387.5 -118.413 384 -108.413 380.5 -118.413 387.5 -118.413"/></g><g id="node14" class="node"><title>AWS::Region</title><polygon fill="none" stroke="#000" points="561 -180 457 -180 457 -144 561 -144 561 -180"/><text x="509" y="-158.4" font-family="Times Roman,serif" font-size="14" text-anchor="middle">AWS::Region</text></g><g id="edge8" class="edge"><title>AWS::Region-&gt;WebServer</title><path fill="none" stroke="#000" d="M471.505,-143.831C454.619,-134.622 434.875,-123.33 418.375,-113.471"/><polygon fill="#000" stroke="#000" points="419.951 -110.334 409.581 -108.163 416.334 -116.327 419.951 -110.334"/></g><g id="edge18" class="edge"><title>AWS::Region-&gt;WebServer</title><path fill="none" stroke="#000" d="M483.41,-143.831C468.179,-134.537 448.494,-123.121 430.628,-113.197"/><polygon fill="#000" stroke="#000" points="431.933 -109.92 421.485 -108.163 428.556 -116.052 431.933 -109.92"/></g></g></svg>