<svg xmlns="http://www.w3.org/2000/svg" xmlns:xlink="http://www.w3.org/1999/xlink" width="1840" height="548pt" viewBox="0 0 1380 548"><g id="graph1" class="graph" transform="scale(1 1) rotate(0) translate(4 544)"><title>AWS CloudFormation Sample Template Insoshi_Multi_AZ: Insoshi is an open source social networking platform in Ruby on Rails. This template installs a highly-available, scalable Insoshi deployment using a multi-az Amazon RDS database instance for storage and using an S3 bucket for photos and thumbnails. It demonstrates using the AWS CloudFormation bootstrap scripts to install the packages and files necessary to deploy Insoshi, Rails, MySQL and all dependent packages at instance launch time. **WARNING** This template creates one or more Amazon EC2 instances, an S3 bucket, and Amazon RDS database instance and other AWS resources. You will be billed for the AWS resources used if you create a stack from this template.</title><polygon fill="#fff" stroke="#fff" points="-4 5 -4 -544 1377 -544 1377 5 -4 5"/><g id="node1" class="node"><title>ElasticLoadBalancer</title><polygon fill="none" stroke="#000" points="165 -468 11 -468 11 -432 165 -432 165 -468"/><text x="88" y="-446.4" font-family="Times Roman,serif" font-size="14" text-anchor="middle">ElasticLoadBalancer</text></g><g id="node3" class="node"><title>WebServerSecurityGroup</title><polygon fill="none" stroke="#000" points="308 -396 116 -396 116 -360 308 -360 308 -396"/><text x="212" y="-374.4" font-family="Times Roman,serif" font-size="14" text-anchor="middle">WebServerSecurityGroup</text></g><g id="edge6" class="edge"><title>ElasticLoadBalancer-&gt;WebServerSecurityGroup</title><path fill="none" stroke="#000" d="M113.338,-431.831C128.439,-422.537 147.966,-411.121 165.694,-401.197"/><polygon fill="#000" stroke="#000" points="167.722 -404.075 174.768 -396.163 164.325 -397.954 167.722 -404.075"/></g><g id="edge8" class="edge"><title>ElasticLoadBalancer-&gt;WebServerSecurityGroup</title><path fill="none" stroke="#000" d="M125.243,-431.831C142.001,-422.622 161.588,-411.33 177.951,-401.471"/><polygon fill="#000" stroke="#000" points="179.949 -404.352 186.671 -396.163 176.31 -398.372 179.949 -404.352"/></g><g id="node4" class="node"><title>WebServerGroup</title><polygon fill="none" stroke="#000" points="924 -108 788 -108 788 -72 924 -72 924 -108"/><text x="856" y="-86.4" font-family="Times Roman,serif" font-size="14" text-anchor="middle">WebServerGroup</text></g><g id="edge16" class="edge"><title>ElasticLoadBalancer-&gt;WebServerGroup</title><path fill="none" stroke="#000" d="M88,-431.815C88,-404.498 88,-351.25 88,-306 88,-306 88,-306 88,-234 88,-164.365 582.049,-113.798 777.638,-96.5077"/><polygon fill="#000" stroke="#000" points="778.19 -99.973 787.845 -95.612 777.577 -93 778.19 -99.973"/></g><g id="node25" class="node"><title>WebsiteURL</title><polygon fill="#d3d3d3" stroke="#d3d3d3" points="88 -36 12 -36 0 -24 0 -12 12 0 88 0 100 -12 100 -24 88 -36"/><path fill="#d3d3d3" stroke="#d3d3d3" d="M12,-36C6,-36 2.96059e-14,-30 2.36848e-14,-24"/><path fill="#d3d3d3" stroke="#d3d3d3" d="M1.18424e-14,-12C5.92119e-15,-6 6,-1.69109e-14 12,-1.60583e-14"/><path fill="#d3d3d3" stroke="#d3d3d3" d="M88,-5.25802e-15C94,-4.40536e-15 100,-6 100,-12"/><path fill="#d3d3d3" stroke="#d3d3d3" d="M100,-24C100,-30 94,-36 88,-36"/><polyline fill="none" stroke="#000" points="88 -36 12 -36"/><path fill="none" stroke="#000" d="M12,-36C6,-36 2.96059e-14,-30 2.36848e-14,-24"/><polyline fill="none" stroke="#000" points="0 -24 0 -12"/><path fill="none" stroke="#000" d="M1.18424e-14,-12C5.92119e-15,-6 6,-1.69109e-14 12,-1.60583e-14"/><polyline fill="none" stroke="#000" points="12 0 88 0"/><path fill="none" stroke="#000" d="M88,-5.25802e-15C94,-4.40536e-15 100,-6 100,-12"/><polyline fill="none" stroke="#000" points="100 -12 100 -24"/><path fill="none" stroke="#000" d="M100,-24C100,-30 94,-36 88,-36"/><text x="50" y="-14.4" font-family="Times Roman,serif" font-size="14" text-anchor="middle">WebsiteURL</text></g><g id="edge74" class="edge"><title>ElasticLoadBalancer-&gt;WebsiteURL</title><path fill="none" stroke="#000" d="M79.9412,-431.767C68.7866,-404.825 50,-352.54 50,-306 50,-306 50,-306 50,-162 50,-121.876 50,-75.4631 50,-46.4177"/><polygon fill="#000" stroke="#000" points="53.5 -46.185 50 -36.185 46.5 -46.185 53.5 -46.185"/></g><g id="node2" class="node"><title>DBSecurityGroup</title><polygon fill="none" stroke="#000" points="501 -324 365 -324 365 -288 501 -288 501 -324"/><text x="433" y="-302.4" font-family="Times Roman,serif" font-size="14" text-anchor="middle">DBSecurityGroup</text></g><g id="node11" class="node"><title>DBInstance</title><polygon fill="none" stroke="#000" points="691 -252 595 -252 595 -216 691 -216 691 -252"/><text x="643" y="-230.4" font-family="Times Roman,serif" font-size="14" text-anchor="middle">DBInstance</text></g><g id="edge62" class="edge"><title>DBSecurityGroup-&gt;DBInstance</title><path fill="none" stroke="#000" d="M485.721,-287.924C515.979,-277.55 554.014,-264.51 585.101,-253.851"/><polygon fill="#000" stroke="#000" points="586.606 -257.035 594.931 -250.481 584.336 -250.413 586.606 -257.035"/></g><g id="edge4" class="edge"><title>WebServerSecurityGroup-&gt;DBSecurityGroup</title><path fill="none" stroke="#000" d="M267.482,-359.924C297.957,-349.996 335.927,-337.625 367.81,-327.238"/><polygon fill="#000" stroke="#000" points="369.071 -330.509 377.495 -324.083 366.902 -323.853 369.071 -330.509"/></g><g id="node5" class="node"><title>LaunchConfig</title><polygon fill="none" stroke="#000" points="911 -180 801 -180 801 -144 911 -144 911 -180"/><text x="856" y="-158.4" font-family="Times Roman,serif" font-size="14" text-anchor="middle">LaunchConfig</text></g><g id="edge28" class="edge"><title>WebServerSecurityGroup-&gt;LaunchConfig</title><path fill="none" stroke="#000" d="M254.099,-359.976C274.219,-350.521 298.176,-337.997 318,-324 337.005,-310.582 336.692,-300.978 356,-288 420.382,-244.725 440.69,-238.266 515,-216 608.525,-187.976 721.089,-173.752 790.6,-167.112"/><polygon fill="#000" stroke="#000" points="791.323 -170.56 800.956 -166.149 790.675 -163.59 791.323 -170.56"/></g><g id="edge14" class="edge"><title>LaunchConfig-&gt;WebServerGroup</title><path fill="none" stroke="#000" d="M856,-143.831C856,-136.131 856,-126.974 856,-118.417"/><polygon fill="#000" stroke="#000" points="859.5 -118.413 856 -108.413 852.5 -118.413 859.5 -118.413"/></g><g id="node6" class="node"><title>S3Content</title><polygon fill="none" stroke="#000" points="225 -324 135 -324 135 -288 225 -288 225 -324"/><text x="180" y="-302.4" font-family="Times Roman,serif" font-size="14" text-anchor="middle">S3Content</text></g><g id="edge44" class="edge"><title>S3Content-&gt;LaunchConfig</title><path fill="none" stroke="#000" d="M162.748,-287.659C146.171,-267.811 126.195,-236.287 145,-216 166.79,-192.492 618.83,-171.672 790.577,-164.581"/><polygon fill="#000" stroke="#000" points="790.897 -168.071 800.745 -164.164 790.61 -161.077 790.897 -168.071"/></g><g id="node10" class="node"><title>BucketPolicy</title><polygon fill="none" stroke="#000" points="256 -252 154 -252 154 -216 256 -216 256 -252"/><text x="205" y="-230.4" font-family="Times Roman,serif" font-size="14" text-anchor="middle">BucketPolicy</text></g><g id="edge56" class="edge"><title>S3Content-&gt;BucketPolicy</title><path fill="none" stroke="#000" d="M180.356,-287.831C182.322,-279.962 185.369,-270.571 188.735,-261.853"/><polygon fill="#000" stroke="#000" points="192.051 -262.992 192.63 -252.413 185.58 -260.322 192.051 -262.992"/></g><g id="edge58" class="edge"><title>S3Content-&gt;BucketPolicy</title><path fill="none" stroke="#000" d="M192.261,-287.831C195.723,-280.046 199.16,-270.773 201.836,-262.135"/><polygon fill="#000" stroke="#000" points="205.232 -262.988 204.583 -252.413 198.495 -261.085 205.232 -262.988"/></g><g id="node7" class="node"><title>S3User</title><polygon fill="none" stroke="#000" points="309 -324 243 -324 243 -288 309 -288 309 -324"/><text x="276" y="-302.4" font-family="Times Roman,serif" font-size="14" text-anchor="middle">S3User</text></g><g id="node8" class="node"><title>S3Keys</title><polygon fill="none" stroke="#000" points="340 -252 274 -252 274 -216 340 -216 340 -252"/><text x="307" y="-230.4" font-family="Times Roman,serif" font-size="14" text-anchor="middle">S3Keys</text></g><g id="edge50" class="edge"><title>S3User-&gt;S3Keys</title><path fill="none" stroke="#000" d="M283.823,-287.831C287.211,-279.962 291.254,-270.571 295.008,-261.853"/><polygon fill="#000" stroke="#000" points="298.332 -262.982 299.072 -252.413 291.903 -260.214 298.332 -262.982"/></g><g id="edge54" class="edge"><title>S3User-&gt;BucketPolicy</title><path fill="none" stroke="#000" d="M258.084,-287.831C249.656,-279.285 239.459,-268.944 230.264,-259.62"/><polygon fill="#000" stroke="#000" points="232.671 -257.076 223.158 -252.413 227.687 -261.991 232.671 -257.076"/></g><g id="edge46" class="edge"><title>S3Keys-&gt;LaunchConfig</title><path fill="none" stroke="#000" d="M340.116,-217.283C341.753,-216.819 343.386,-216.389 345,-216 501.789,-178.22 692.51,-166.852 790.742,-163.446"/><polygon fill="#000" stroke="#000" points="790.939 -166.942 800.818 -163.114 790.708 -159.946 790.939 -166.942"/></g><g id="edge48" class="edge"><title>S3Keys-&gt;LaunchConfig</title><path fill="none" stroke="#000" d="M340.134,-223.246C347.635,-220.491 355.525,-217.801 363,-216 513.669,-179.695 695.674,-167.78 790.895,-163.883"/><polygon fill="#000" stroke="#000" points="791.097 -167.378 800.952 -163.488 790.823 -160.383 791.097 -167.378"/></g><g id="node9" class="node"><title>WaitCondition</title><polygon fill="none" stroke="#000" points="1265 -108 1151 -108 1151 -72 1265 -72 1265 -108"/><text x="1208" y="-86.4" font-family="Times Roman,serif" font-size="14" text-anchor="middle">WaitCondition</text></g><g id="edge38" class="edge"><title>DBInstance-&gt;LaunchConfig</title><path fill="none" stroke="#000" d="M691.067,-217.752C721.09,-207.603 760.086,-194.422 792.622,-183.424"/><polygon fill="#000" stroke="#000" points="794.142 -186.604 802.495 -180.086 791.901 -179.973 794.142 -186.604"/></g><g id="node12" class="node"><title>WaitHandle</title><polygon fill="none" stroke="#000" points="1256 -252 1160 -252 1160 -216 1256 -216 1256 -252"/><text x="1208" y="-230.4" font-family="Times Roman,serif" font-size="14" text-anchor="middle">WaitHandle</text></g><g id="edge24" class="edge"><title>WaitHandle-&gt;LaunchConfig</title><path fill="none" stroke="#000" d="M1159.97,-221.987C1152.27,-219.858 1144.42,-217.762 1137,-216 1063.44,-198.518 978.275,-183.24 921.081,-173.439"/><polygon fill="#000" stroke="#000" points="921.537 -169.966 911.09 -171.733 920.359 -176.866 921.537 -169.966"/></g><g id="edge18" class="edge"><title>WaitHandle-&gt;LaunchConfig</title><path fill="none" stroke="#000" d="M1159.96,-217.212C1158.29,-216.794 1156.64,-216.389 1155,-216 1075.52,-197.111 982.487,-180.795 921.477,-171.18"/><polygon fill="#000" stroke="#000" points="921.639 -167.662 911.219 -169.579 920.559 -174.579 921.639 -167.662"/></g><g id="edge52" class="edge"><title>WaitHandle-&gt;WaitCondition</title><path fill="none" stroke="#000" d="M1208,-215.762C1208,-191.201 1208,-147.247 1208,-118.354"/><polygon fill="#000" stroke="#000" points="1211.5 -118.09 1208 -108.09 1204.5 -118.09 1211.5 -118.09"/></g><g id="node14" class="node"><title>DBUsername</title><polygon fill="#d3d3d3" stroke="#d3d3d3" points="338 -540 256 -540 244 -528 244 -516 256 -504 338 -504 350 -516 350 -528 338 -540"/><path fill="#d3d3d3" stroke="#d3d3d3" d="M256,-540C250,-540 244,-534 244,-528"/><path fill="#d3d3d3" stroke="#d3d3d3" d="M244,-516C244,-510 250,-504 256,-504"/><path fill="#d3d3d3" stroke="#d3d3d3" d="M338,-504C344,-504 350,-510 350,-516"/><path fill="#d3d3d3" stroke="#d3d3d3" d="M350,-528C350,-534 344,-540 338,-540"/><polyline fill="none" stroke="#000" points="338 -540 256 -540"/><path fill="none" stroke="#000" d="M256,-540C250,-540 244,-534 244,-528"/><polyline fill="none" stroke="#000" points="244 -528 244 -516"/><path fill="none" stroke="#000" d="M244,-516C244,-510 250,-504 256,-504"/><polyline fill="none" stroke="#000" points="256 -504 338 -504"/><path fill="none" stroke="#000" d="M338,-504C344,-504 350,-510 350,-516"/><polyline fill="none" stroke="#000" points="350 -516 350 -528"/><path fill="none" stroke="#000" d="M350,-528C350,-534 344,-540 338,-540"/><text x="297" y="-518.4" font-family="Times Roman,serif" font-size="14" text-anchor="middle">DBUsername</text></g><g id="edge40" class="edge"><title>DBUsername-&gt;LaunchConfig</title><path fill="none" stroke="#000" d="M343.391,-503.903C411.095,-476.022 529,-421.258 529,-378 529,-378 529,-378 529,-306 529,-258.653 546.971,-242.805 586,-216 618.561,-193.637 721.607,-177.643 790.561,-169.114"/><polygon fill="#000" stroke="#000" points="791.392 -172.539 800.897 -167.86 790.548 -165.59 791.392 -172.539"/></g><g id="edge64" class="edge"><title>DBUsername-&gt;DBInstance</title><path fill="none" stroke="#000" d="M350.016,-506.27C353.049,-505.476 356.059,-504.713 359,-504 439.982,-484.364 478.21,-520.401 543,-468 608.285,-415.199 631.75,-311.826 639.508,-262.072"/><polygon fill="#000" stroke="#000" points="642.993 -262.427 640.972 -252.027 636.066 -261.417 642.993 -262.427"/></g><g id="node15" class="node"><title>DBClass</title><polygon fill="#d3d3d3" stroke="#d3d3d3" points="428 -540 380 -540 368 -528 368 -516 380 -504 428 -504 440 -516 440 -528 428 -540"/><path fill="#d3d3d3" stroke="#d3d3d3" d="M380,-540C374,-540 368,-534 368,-528"/><path fill="#d3d3d3" stroke="#d3d3d3" d="M368,-516C368,-510 374,-504 380,-504"/><path fill="#d3d3d3" stroke="#d3d3d3" d="M428,-504C434,-504 440,-510 440,-516"/><path fill="#d3d3d3" stroke="#d3d3d3" d="M440,-528C440,-534 434,-540 428,-540"/><polyline fill="none" stroke="#000" points="428 -540 380 -540"/><path fill="none" stroke="#000" d="M380,-540C374,-540 368,-534 368,-528"/><polyline fill="none" stroke="#000" points="368 -528 368 -516"/><path fill="none" stroke="#000" d="M368,-516C368,-510 374,-504 380,-504"/><polyline fill="none" stroke="#000" points="380 -504 428 -504"/><path fill="none" stroke="#000" d="M428,-504C434,-504 440,-510 440,-516"/><polyline fill="none" stroke="#000" points="440 -516 440 -528"/><path fill="none" stroke="#000" d="M440,-528C440,-534 434,-540 428,-540"/><text x="404" y="-518.4" font-family="Times Roman,serif" font-size="14" text-anchor="middle">DBClass</text></g><g id="edge70" class="edge"><title>DBClass-&gt;DBInstance</title><path fill="none" stroke="#000" d="M440.217,-507.1C443.174,-506.01 446.128,-504.963 449,-504 506.657,-484.676 538.157,-511.154 581,-468 636.881,-411.712 644.066,-311.242 643.983,-262.324"/><polygon fill="#000" stroke="#000" points="647.48 -262.107 643.857 -252.151 640.481 -262.193 647.48 -262.107"/></g><g id="node16" class="node"><title>DBAllocatedStorage</title><polygon fill="#d3d3d3" stroke="#d3d3d3" points="600 -540 470 -540 458 -528 458 -516 470 -504 600 -504 612 -516 612 -528 600 -540"/><path fill="#d3d3d3" stroke="#d3d3d3" d="M470,-540C464,-540 458,-534 458,-528"/><path fill="#d3d3d3" stroke="#d3d3d3" d="M458,-516C458,-510 464,-504 470,-504"/><path fill="#d3d3d3" stroke="#d3d3d3" d="M600,-504C606,-504 612,-510 612,-516"/><path fill="#d3d3d3" stroke="#d3d3d3" d="M612,-528C612,-534 606,-540 600,-540"/><polyline fill="none" stroke="#000" points="600 -540 470 -540"/><path fill="none" stroke="#000" d="M470,-540C464,-540 458,-534 458,-528"/><polyline fill="none" stroke="#000" points="458 -528 458 -516"/><path fill="none" stroke="#000" d="M458,-516C458,-510 464,-504 470,-504"/><polyline fill="none" stroke="#000" points="470 -504 600 -504"/><path fill="none" stroke="#000" d="M600,-504C606,-504 612,-510 612,-516"/><polyline fill="none" stroke="#000" points="612 -516 612 -528"/><path fill="none" stroke="#000" d="M612,-528C612,-534 606,-540 600,-540"/><text x="535" y="-518.4" font-family="Times Roman,serif" font-size="14" text-anchor="middle">DBAllocatedStorage</text></g><g id="edge68" class="edge"><title>DBAllocatedStorage-&gt;DBInstance</title><path fill="none" stroke="#000" d="M578.254,-503.991C593.629,-495.383 609.472,-483.511 619,-468 658.858,-403.111 653.384,-308.596 647.47,-262.045"/><polygon fill="#000" stroke="#000" points="650.93 -261.507 646.102 -252.076 643.995 -262.46 650.93 -261.507"/></g><g id="node17" class="node"><title>InstanceType</title><polygon fill="#d3d3d3" stroke="#d3d3d3" points="1092 -540 1010 -540 998 -528 998 -516 1010 -504 1092 -504 1104 -516 1104 -528 1092 -540"/><path fill="#d3d3d3" stroke="#d3d3d3" d="M1010,-540C1004,-540 998,-534 998,-528"/><path fill="#d3d3d3" stroke="#d3d3d3" d="M998,-516C998,-510 1004,-504 1010,-504"/><path fill="#d3d3d3" stroke="#d3d3d3" d="M1092,-504C1098,-504 1104,-510 1104,-516"/><path fill="#d3d3d3" stroke="#d3d3d3" d="M1104,-528C1104,-534 1098,-540 1092,-540"/><polyline fill="none" stroke="#000" points="1092 -540 1010 -540"/><path fill="none" stroke="#000" d="M1010,-540C1004,-540 998,-534 998,-528"/><polyline fill="none" stroke="#000" points="998 -528 998 -516"/><path fill="none" stroke="#000" d="M998,-516C998,-510 1004,-504 1010,-504"/><polyline fill="none" stroke="#000" points="1010 -504 1092 -504"/><path fill="none" stroke="#000" d="M1092,-504C1098,-504 1104,-510 1104,-516"/><polyline fill="none" stroke="#000" points="1104 -516 1104 -528"/><path fill="none" stroke="#000" d="M1104,-528C1104,-534 1098,-540 1092,-540"/><text x="1051" y="-518.4" font-family="Times Roman,serif" font-size="14" text-anchor="middle">InstanceType</text></g><g id="edge30" class="edge"><title>InstanceType-&gt;LaunchConfig</title><path fill="none" stroke="#000" d="M997.817,-505.766C944.644,-484.843 871,-443.204 871,-378 871,-378 871,-378 871,-306 871,-265.323 861.567,-219.05 856.746,-190.187"/><polygon fill="#000" stroke="#000" points="860.16 -189.362 855.154 -180.025 853.244 -190.446 860.16 -189.362"/></g><g id="edge34" class="edge"><title>InstanceType-&gt;LaunchConfig</title><path fill="none" stroke="#000" d="M1006.37,-503.842C958.325,-482.344 889,-441.263 889,-378 889,-378 889,-378 889,-306 889,-265.143 879.483,-218.642 870.188,-189.806"/><polygon fill="#000" stroke="#000" points="873.378 -188.323 866.792 -180.025 866.766 -190.619 873.378 -188.323"/></g><g id="node18" class="node"><title>SSHLocation</title><polygon fill="#d3d3d3" stroke="#d3d3d3" points="214 -540 134 -540 122 -528 122 -516 134 -504 214 -504 226 -516 226 -528 214 -540"/><path fill="#d3d3d3" stroke="#d3d3d3" d="M134,-540C128,-540 122,-534 122,-528"/><path fill="#d3d3d3" stroke="#d3d3d3" d="M122,-516C122,-510 128,-504 134,-504"/><path fill="#d3d3d3" stroke="#d3d3d3" d="M214,-504C220,-504 226,-510 226,-516"/><path fill="#d3d3d3" stroke="#d3d3d3" d="M226,-528C226,-534 220,-540 214,-540"/><polyline fill="none" stroke="#000" points="214 -540 134 -540"/><path fill="none" stroke="#000" d="M134,-540C128,-540 122,-534 122,-528"/><polyline fill="none" stroke="#000" points="122 -528 122 -516"/><path fill="none" stroke="#000" d="M122,-516C122,-510 128,-504 134,-504"/><polyline fill="none" stroke="#000" points="134 -504 214 -504"/><path fill="none" stroke="#000" d="M214,-504C220,-504 226,-510 226,-516"/><polyline fill="none" stroke="#000" points="226 -516 226 -528"/><path fill="none" stroke="#000" d="M226,-528C226,-534 220,-540 214,-540"/><text x="174" y="-518.4" font-family="Times Roman,serif" font-size="14" text-anchor="middle">SSHLocation</text></g><g id="edge10" class="edge"><title>SSHLocation-&gt;WebServerSecurityGroup</title><path fill="none" stroke="#000" d="M178.813,-503.762C185.323,-479.093 196.995,-434.86 204.618,-405.973"/><polygon fill="#000" stroke="#000" points="208.059 -406.652 207.226 -396.09 201.291 -404.866 208.059 -406.652"/></g><g id="node19" class="node"><title>KeyName</title><polygon fill="#d3d3d3" stroke="#d3d3d3" points="1190 -540 1134 -540 1122 -528 1122 -516 1134 -504 1190 -504 1202 -516 1202 -528 1190 -540"/><path fill="#d3d3d3" stroke="#d3d3d3" d="M1134,-540C1128,-540 1122,-534 1122,-528"/><path fill="#d3d3d3" stroke="#d3d3d3" d="M1122,-516C1122,-510 1128,-504 1134,-504"/><path fill="#d3d3d3" stroke="#d3d3d3" d="M1190,-504C1196,-504 1202,-510 1202,-516"/><path fill="#d3d3d3" stroke="#d3d3d3" d="M1202,-528C1202,-534 1196,-540 1190,-540"/><polyline fill="none" stroke="#000" points="1190 -540 1134 -540"/><path fill="none" stroke="#000" d="M1134,-540C1128,-540 1122,-534 1122,-528"/><polyline fill="none" stroke="#000" points="1122 -528 1122 -516"/><path fill="none" stroke="#000" d="M1122,-516C1122,-510 1128,-504 1134,-504"/><polyline fill="none" stroke="#000" points="1134 -504 1190 -504"/><path fill="none" stroke="#000" d="M1190,-504C1196,-504 1202,-510 1202,-516"/><polyline fill="none" stroke="#000" points="1202 -516 1202 -528"/><path fill="none" stroke="#000" d="M1202,-528C1202,-534 1196,-540 1190,-540"/><text x="1162" y="-518.4" font-family="Times Roman,serif" font-size="14" text-anchor="middle">KeyName</text></g><g id="edge26" class="edge"><title>KeyName-&gt;LaunchConfig</title><path fill="none" stroke="#000" d="M1155.64,-503.615C1146.83,-476.484 1132,-423.966 1132,-378 1132,-378 1132,-378 1132,-306 1132,-211.411 1003,-178.851 921.388,-167.717"/><polygon fill="#000" stroke="#000" points="921.555 -164.209 911.189 -166.403 920.66 -171.152 921.555 -164.209"/></g><g id="node20" class="node"><title>DBPassword</title><polygon fill="#d3d3d3" stroke="#d3d3d3" points="720 -540 642 -540 630 -528 630 -516 642 -504 720 -504 732 -516 732 -528 720 -540"/><path fill="#d3d3d3" stroke="#d3d3d3" d="M642,-540C636,-540 630,-534 630,-528"/><path fill="#d3d3d3" stroke="#d3d3d3" d="M630,-516C630,-510 636,-504 642,-504"/><path fill="#d3d3d3" stroke="#d3d3d3" d="M720,-504C726,-504 732,-510 732,-516"/><path fill="#d3d3d3" stroke="#d3d3d3" d="M732,-528C732,-534 726,-540 720,-540"/><polyline fill="none" stroke="#000" points="720 -540 642 -540"/><path fill="none" stroke="#000" d="M642,-540C636,-540 630,-534 630,-528"/><polyline fill="none" stroke="#000" points="630 -528 630 -516"/><path fill="none" stroke="#000" d="M630,-516C630,-510 636,-504 642,-504"/><polyline fill="none" stroke="#000" points="642 -504 720 -504"/><path fill="none" stroke="#000" d="M720,-504C726,-504 732,-510 732,-516"/><polyline fill="none" stroke="#000" points="732 -516 732 -528"/><path fill="none" stroke="#000" d="M732,-528C732,-534 726,-540 720,-540"/><text x="681" y="-518.4" font-family="Times Roman,serif" font-size="14" text-anchor="middle">DBPassword</text></g><g id="edge42" class="edge"><title>DBPassword-&gt;LaunchConfig</title><path fill="none" stroke="#000" d="M689.059,-503.767C700.213,-476.825 719,-424.54 719,-378 719,-378 719,-378 719,-306 719,-251.624 770.91,-209.628 810.824,-185.374"/><polygon fill="#000" stroke="#000" points="812.806 -188.269 819.646 -180.178 809.253 -182.237 812.806 -188.269"/></g><g id="edge66" class="edge"><title>DBPassword-&gt;DBInstance</title><path fill="none" stroke="#000" d="M680.083,-503.963C677.875,-464.528 671.349,-367.784 657,-288 655.481,-279.555 653.337,-270.488 651.182,-262.241"/><polygon fill="#000" stroke="#000" points="654.492 -261.074 648.493 -252.341 647.737 -262.909 654.492 -261.074"/></g><g id="node21" class="node"><title>MultiAZDatabase</title><polygon fill="#d3d3d3" stroke="#d3d3d3" points="874 -540 762 -540 750 -528 750 -516 762 -504 874 -504 886 -516 886 -528 874 -540"/><path fill="#d3d3d3" stroke="#d3d3d3" d="M762,-540C756,-540 750,-534 750,-528"/><path fill="#d3d3d3" stroke="#d3d3d3" d="M750,-516C750,-510 756,-504 762,-504"/><path fill="#d3d3d3" stroke="#d3d3d3" d="M874,-504C880,-504 886,-510 886,-516"/><path fill="#d3d3d3" stroke="#d3d3d3" d="M886,-528C886,-534 880,-540 874,-540"/><polyline fill="none" stroke="#000" points="874 -540 762 -540"/><path fill="none" stroke="#000" d="M762,-540C756,-540 750,-534 750,-528"/><polyline fill="none" stroke="#000" points="750 -528 750 -516"/><path fill="none" stroke="#000" d="M750,-516C750,-510 756,-504 762,-504"/><polyline fill="none" stroke="#000" points="762 -504 874 -504"/><path fill="none" stroke="#000" d="M874,-504C880,-504 886,-510 886,-516"/><polyline fill="none" stroke="#000" points="886 -516 886 -528"/><path fill="none" stroke="#000" d="M886,-528C886,-534 880,-540 874,-540"/><text x="818" y="-518.4" font-family="Times Roman,serif" font-size="14" text-anchor="middle">MultiAZDatabase</text></g><g id="edge60" class="edge"><title>MultiAZDatabase-&gt;DBInstance</title><path fill="none" stroke="#000" d="M805.014,-503.713C797.772,-493.35 788.688,-480.08 781,-468 734.17,-394.418 682.985,-305.035 658.174,-261.077"/><polygon fill="#000" stroke="#000" points="661.108 -259.154 653.151 -252.159 655.009 -262.589 661.108 -259.154"/></g><g id="node22" class="node"><title>DBName</title><polygon fill="#d3d3d3" stroke="#d3d3d3" points="968 -540 916 -540 904 -528 904 -516 916 -504 968 -504 980 -516 980 -528 968 -540"/><path fill="#d3d3d3" stroke="#d3d3d3" d="M916,-540C910,-540 904,-534 904,-528"/><path fill="#d3d3d3" stroke="#d3d3d3" d="M904,-516C904,-510 910,-504 916,-504"/><path fill="#d3d3d3" stroke="#d3d3d3" d="M968,-504C974,-504 980,-510 980,-516"/><path fill="#d3d3d3" stroke="#d3d3d3" d="M980,-528C980,-534 974,-540 968,-540"/><polyline fill="none" stroke="#000" points="968 -540 916 -540"/><path fill="none" stroke="#000" d="M916,-540C910,-540 904,-534 904,-528"/><polyline fill="none" stroke="#000" points="904 -528 904 -516"/><path fill="none" stroke="#000" d="M904,-516C904,-510 910,-504 916,-504"/><polyline fill="none" stroke="#000" points="916 -504 968 -504"/><path fill="none" stroke="#000" d="M968,-504C974,-504 980,-510 980,-516"/><polyline fill="none" stroke="#000" points="980 -516 980 -528"/><path fill="none" stroke="#000" d="M980,-528C980,-534 974,-540 968,-540"/><text x="942" y="-518.4" font-family="Times Roman,serif" font-size="14" text-anchor="middle">DBName</text></g><g id="edge36" class="edge"><title>DBName-&gt;LaunchConfig</title><path fill="none" stroke="#000" d="M903.868,-505.657C887.249,-496.757 868.889,-484.214 857,-468 832.52,-434.616 833,-419.398 833,-378 833,-378 833,-378 833,-306 833,-265.188 842.12,-218.676 848.874,-189.825"/><polygon fill="#000" stroke="#000" points="852.293 -190.58 851.234 -180.038 845.488 -188.939 852.293 -190.58"/></g><g id="edge72" class="edge"><title>DBName-&gt;DBInstance</title><path fill="none" stroke="#000" d="M903.878,-506.515C870.418,-492.72 826.012,-473.839 819,-468 744.736,-406.154 758.557,-362.504 697,-288 688.819,-278.098 679.097,-267.958 670.172,-259.177"/><polygon fill="#000" stroke="#000" points="672.534 -256.593 662.913 -252.156 667.668 -261.625 672.534 -256.593"/></g><g id="node23" class="node"><title>WebServerCapacity</title><polygon fill="#d3d3d3" stroke="#d3d3d3" points="1360 -540 1232 -540 1220 -528 1220 -516 1232 -504 1360 -504 1372 -516 1372 -528 1360 -540"/><path fill="#d3d3d3" stroke="#d3d3d3" d="M1232,-540C1226,-540 1220,-534 1220,-528"/><path fill="#d3d3d3" stroke="#d3d3d3" d="M1220,-516C1220,-510 1226,-504 1232,-504"/><path fill="#d3d3d3" stroke="#d3d3d3" d="M1360,-504C1366,-504 1372,-510 1372,-516"/><path fill="#d3d3d3" stroke="#d3d3d3" d="M1372,-528C1372,-534 1366,-540 1360,-540"/><polyline fill="none" stroke="#000" points="1360 -540 1232 -540"/><path fill="none" stroke="#000" d="M1232,-540C1226,-540 1220,-534 1220,-528"/><polyline fill="none" stroke="#000" points="1220 -528 1220 -516"/><path fill="none" stroke="#000" d="M1220,-516C1220,-510 1226,-504 1232,-504"/><polyline fill="none" stroke="#000" points="1232 -504 1360 -504"/><path fill="none" stroke="#000" d="M1360,-504C1366,-504 1372,-510 1372,-516"/><polyline fill="none" stroke="#000" points="1372 -516 1372 -528"/><path fill="none" stroke="#000" d="M1372,-528C1372,-534 1366,-540 1360,-540"/><text x="1296" y="-518.4" font-family="Times Roman,serif" font-size="14" text-anchor="middle">WebServerCapacity</text></g><g id="edge12" class="edge"><title>WebServerCapacity-&gt;WebServerGroup</title><path fill="none" stroke="#000" d="M1296,-503.815C1296,-476.498 1296,-423.25 1296,-378 1296,-378 1296,-378 1296,-234 1296,-158.776 1060.77,-116.571 934.296,-99.3156"/><polygon fill="#000" stroke="#000" points="934.644 -95.831 924.267 -97.969 933.712 -102.769 934.644 -95.831"/></g><g id="node34" class="node"><title>AWS::StackId</title><polygon fill="none" stroke="#000" points="1104 -396 994 -396 994 -360 1104 -360 1104 -396"/><text x="1049" y="-374.4" font-family="Times Roman,serif" font-size="14" text-anchor="middle">AWS::StackId</text></g><g id="edge20" class="edge"><title>AWS::StackId-&gt;LaunchConfig</title><path fill="none" stroke="#000" d="M1052.68,-359.76C1058.16,-326.939 1064.48,-257.491 1030,-216 1015.75,-198.847 964.4,-184.206 921.15,-174.515"/><polygon fill="#000" stroke="#000" points="921.729 -171.059 911.212 -172.341 920.233 -177.897 921.729 -171.059"/></g><g id="node36" class="node"><title>AWS::Region</title><polygon fill="none" stroke="#000" points="1021 -252 917 -252 917 -216 1021 -216 1021 -252"/><text x="969" y="-230.4" font-family="Times Roman,serif" font-size="14" text-anchor="middle">AWS::Region</text></g><g id="edge32" class="edge"><title>AWS::Region-&gt;LaunchConfig</title><path fill="none" stroke="#000" d="M934.533,-215.831C919.324,-206.707 901.65,-195.539 886.877,-185.745"/><polygon fill="#000" stroke="#000" points="888.808 -182.826 878.554 -180.163 884.909 -188.64 888.808 -182.826"/></g><g id="edge22" class="edge"><title>AWS::Region-&gt;LaunchConfig</title><path fill="none" stroke="#000" d="M946.438,-215.831C932.882,-206.622 915.3,-195.33 899.209,-185.471"/><polygon fill="#000" stroke="#000" points="900.823 -182.356 890.457 -180.163 897.193 -188.341 900.823 -182.356"/></g></g></svg>