<svg xmlns="http://www.w3.org/2000/svg" xmlns:xlink="http://www.w3.org/1999/xlink" width="1712" height="260pt" viewBox="0 0 1284 260"><g id="graph1" class="graph" transform="scale(1 1) rotate(0) translate(4 256)"><title>AWS CloudFormation Sample Template Joomla!_Single_Instance: Joomla! is a free, open-source content management system (CMS) and application framework. This template installs a single-instance Joomla! deployment using a local MySQL database to store the data. It demonstrates using the AWS CloudFormation bootstrap scripts to install packages and files at instance launch time. **WARNING** This template creates an Amazon EC2 instance. You will be billed for the AWS resources used if you create a stack from this template.</title><polygon fill="#fff" stroke="#fff" points="-4 5 -4 -256 1281 -256 1281 5 -4 5"/><g id="node1" class="node"><title>WebServer</title><polygon fill="none" stroke="#000" points="746 -108 654 -108 654 -72 746 -72 746 -108"/><text x="700" y="-86.4" font-family="Times Roman,serif" font-size="14" text-anchor="middle">WebServer</text></g><g id="node15" class="node"><title>WebsiteURL</title><polygon fill="#d3d3d3" stroke="#d3d3d3" points="682 -36 606 -36 594 -24 594 -12 606 0 682 0 694 -12 694 -24 682 -36"/><path fill="#d3d3d3" stroke="#d3d3d3" d="M606,-36C600,-36 594,-30 594,-24"/><path fill="#d3d3d3" stroke="#d3d3d3" d="M594,-12C594,-6 600,-1.69109e-14 606,-1.60583e-14"/><path fill="#d3d3d3" stroke="#d3d3d3" d="M682,-5.25802e-15C688,-4.40536e-15 694,-6 694,-12"/><path fill="#d3d3d3" stroke="#d3d3d3" d="M694,-24C694,-30 688,-36 682,-36"/><polyline fill="none" stroke="#000" points="682 -36 606 -36"/><path fill="none" stroke="#000" d="M606,-36C600,-36 594,-30 594,-24"/><polyline fill="none" stroke="#000" points="594 -24 594 -12"/><path fill="none" stroke="#000" d="M594,-12C594,-6 600,-1.69109e-14 606,-1.60583e-14"/><polyline fill="none" stroke="#000" points="606 0 682 0"/><path fill="none" stroke="#000" d="M682,-5.25802e-15C688,-4.40536e-15 694,-6 694,-12"/><polyline fill="none" stroke="#000" points="694 -12 694 -24"/><path fill="none" stroke="#000" d="M694,-24C694,-30 688,-36 682,-36"/><text x="644" y="-14.4" font-family="Times Roman,serif" font-size="14" text-anchor="middle">WebsiteURL</text></g><g id="edge60" class="edge"><title>WebServer-&gt;WebsiteURL</title><path fill="none" stroke="#000" d="M685.869,-71.8314C679.419,-63.5386 671.655,-53.557 664.575,-44.4533"/><polygon fill="#000" stroke="#000" points="667.224 -42.158 658.321 -36.413 661.698 -46.456 667.224 -42.158"/></g><g id="node16" class="node"><title>AdminURL</title><polygon fill="#d3d3d3" stroke="#d3d3d3" points="788 -36 724 -36 712 -24 712 -12 724 0 788 0 800 -12 800 -24 788 -36"/><path fill="#d3d3d3" stroke="#d3d3d3" d="M724,-36C718,-36 712,-30 712,-24"/><path fill="#d3d3d3" stroke="#d3d3d3" d="M712,-12C712,-6 718,-1.67946e-14 724,-1.58257e-14"/><path fill="#d3d3d3" stroke="#d3d3d3" d="M788,-5.49056e-15C794,-4.52164e-15 800,-6 800,-12"/><path fill="#d3d3d3" stroke="#d3d3d3" d="M800,-24C800,-30 794,-36 788,-36"/><polyline fill="none" stroke="#000" points="788 -36 724 -36"/><path fill="none" stroke="#000" d="M724,-36C718,-36 712,-30 712,-24"/><polyline fill="none" stroke="#000" points="712 -24 712 -12"/><path fill="none" stroke="#000" d="M712,-12C712,-6 718,-1.67946e-14 724,-1.58257e-14"/><polyline fill="none" stroke="#000" points="724 0 788 0"/><path fill="none" stroke="#000" d="M788,-5.49056e-15C794,-4.52164e-15 800,-6 800,-12"/><polyline fill="none" stroke="#000" points="800 -12 800 -24"/><path fill="none" stroke="#000" d="M800,-24C800,-30 794,-36 788,-36"/><text x="756" y="-14.4" font-family="Times Roman,serif" font-size="14" text-anchor="middle">AdminURL</text></g><g id="edge62" class="edge"><title>WebServer-&gt;AdminURL</title><path fill="none" stroke="#000" d="M714.131,-71.8314C720.581,-63.5386 728.345,-53.557 735.425,-44.4533"/><polygon fill="#000" stroke="#000" points="738.302 -46.456 741.679 -36.413 732.776 -42.158 738.302 -46.456"/></g><g id="node2" class="node"><title>WaitCondition</title><polygon fill="none" stroke="#000" points="1276 -108 1162 -108 1162 -72 1276 -72 1276 -108"/><text x="1219" y="-86.4" font-family="Times Roman,serif" font-size="14" text-anchor="middle">WaitCondition</text></g><g id="node3" class="node"><title>WebServerSecurityGroup</title><polygon fill="none" stroke="#000" points="192 -180 0 -180 0 -144 192 -144 192 -180"/><text x="96" y="-158.4" font-family="Times Roman,serif" font-size="14" text-anchor="middle">WebServerSecurityGroup</text></g><g id="edge36" class="edge"><title>WebServerSecurityGroup-&gt;WebServer</title><path fill="none" stroke="#000" d="M192.167,-146.746C198.874,-145.784 205.535,-144.859 212,-144 368.01,-123.274 552.825,-104.355 643.744,-95.4178"/><polygon fill="#000" stroke="#000" points="644.219 -98.888 653.83 -94.429 643.537 -91.921 644.219 -98.888"/></g><g id="node4" class="node"><title>WaitHandle</title><polygon fill="none" stroke="#000" points="1267 -180 1171 -180 1171 -144 1267 -144 1267 -180"/><text x="1219" y="-158.4" font-family="Times Roman,serif" font-size="14" text-anchor="middle">WaitHandle</text></g><g id="edge4" class="edge"><title>WaitHandle-&gt;WebServer</title><path fill="none" stroke="#000" d="M1170.8,-148.527C1164.82,-146.819 1158.78,-145.24 1153,-144 1011.87,-113.754 842.603,-99.4198 756.347,-93.5223"/><polygon fill="#000" stroke="#000" points="756.459 -90.022 746.247 -92.844 755.99 -97.006 756.459 -90.022"/></g><g id="edge32" class="edge"><title>WaitHandle-&gt;WebServer</title><path fill="none" stroke="#000" d="M1171.3,-144.066C1171.2,-144.044 1171.1,-144.022 1171,-144 1023.65,-112.421 845.629,-98.1872 756.464,-92.7911"/><polygon fill="#000" stroke="#000" points="756.487 -89.286 746.298 -92.191 756.074 -96.274 756.487 -89.286"/></g><g id="edge56" class="edge"><title>WaitHandle-&gt;WaitCondition</title><path fill="none" stroke="#000" d="M1219,-143.831C1219,-136.131 1219,-126.974 1219,-118.417"/><polygon fill="#000" stroke="#000" points="1222.5 -118.413 1219 -108.413 1215.5 -118.413 1222.5 -118.413"/></g><g id="node6" class="node"><title>DBUsername</title><polygon fill="#d3d3d3" stroke="#d3d3d3" points="255 -252 173 -252 161 -240 161 -228 173 -216 255 -216 267 -228 267 -240 255 -252"/><path fill="#d3d3d3" stroke="#d3d3d3" d="M173,-252C167,-252 161,-246 161,-240"/><path fill="#d3d3d3" stroke="#d3d3d3" d="M161,-228C161,-222 167,-216 173,-216"/><path fill="#d3d3d3" stroke="#d3d3d3" d="M255,-216C261,-216 267,-222 267,-228"/><path fill="#d3d3d3" stroke="#d3d3d3" d="M267,-240C267,-246 261,-252 255,-252"/><polyline fill="none" stroke="#000" points="255 -252 173 -252"/><path fill="none" stroke="#000" d="M173,-252C167,-252 161,-246 161,-240"/><polyline fill="none" stroke="#000" points="161 -240 161 -228"/><path fill="none" stroke="#000" d="M161,-228C161,-222 167,-216 173,-216"/><polyline fill="none" stroke="#000" points="173 -216 255 -216"/><path fill="none" stroke="#000" d="M255,-216C261,-216 267,-222 267,-228"/><polyline fill="none" stroke="#000" points="267 -228 267 -240"/><path fill="none" stroke="#000" d="M267,-240C267,-246 261,-252 255,-252"/><text x="214" y="-230.4" font-family="Times Roman,serif" font-size="14" text-anchor="middle">DBUsername</text></g><g id="edge26" class="edge"><title>DBUsername-&gt;WebServer</title><path fill="none" stroke="#000" d="M234.93,-215.985C277.245,-196.707 362.798,-165.942 438,-144 506.356,-124.055 587.893,-105.942 643.737,-96.6166"/><polygon fill="#000" stroke="#000" points="644.544 -100.032 653.857 -94.979 643.426 -93.122 644.544 -100.032"/></g><g id="edge48" class="edge"><title>DBUsername-&gt;WebServer</title><path fill="none" stroke="#000" d="M267.166,-218.556C323.398,-199.539 413.359,-166.945 492,-144 543.089,-129.094 601.54,-115.21 643.734,-105.254"/><polygon fill="#000" stroke="#000" points="644.628 -108.639 653.557 -102.937 643.02 -101.826 644.628 -108.639"/></g><g id="edge54" class="edge"><title>DBUsername-&gt;WebServer</title><path fill="none" stroke="#000" d="M267.244,-222.341C328.753,-204.148 425.857,-168.551 510,-144 554.792,-130.931 605.243,-118.648 643.776,-109.109"/><polygon fill="#000" stroke="#000" points="644.946 -112.425 653.808 -106.619 643.259 -105.631 644.946 -112.425"/></g><g id="edge16" class="edge"><title>DBUsername-&gt;WebServer</title><path fill="none" stroke="#000" d="M248.198,-215.985C295.245,-196.707 380.798,-165.942 456,-144 519.04,-125.607 593.29,-108.771 643.631,-98.9487"/><polygon fill="#000" stroke="#000" points="644.523 -102.342 653.684 -97.02 643.204 -95.467 644.523 -102.342"/></g><g id="edge22" class="edge"><title>DBUsername-&gt;WebServer</title><path fill="none" stroke="#000" d="M261.465,-215.985C313.245,-196.707 398.798,-165.942 474,-144 531.365,-127.262 598.012,-111.815 643.993,-101.768"/><polygon fill="#000" stroke="#000" points="644.739 -105.187 653.769 -99.645 643.254 -98.347 644.739 -105.187"/></g><g id="node7" class="node"><title>AdminPassword</title><polygon fill="#d3d3d3" stroke="#d3d3d3" points="397 -252 297 -252 285 -240 285 -228 297 -216 397 -216 409 -228 409 -240 397 -252"/><path fill="#d3d3d3" stroke="#d3d3d3" d="M297,-252C291,-252 285,-246 285,-240"/><path fill="#d3d3d3" stroke="#d3d3d3" d="M285,-228C285,-222 291,-216 297,-216"/><path fill="#d3d3d3" stroke="#d3d3d3" d="M397,-216C403,-216 409,-222 409,-228"/><path fill="#d3d3d3" stroke="#d3d3d3" d="M409,-240C409,-246 403,-252 397,-252"/><polyline fill="none" stroke="#000" points="397 -252 297 -252"/><path fill="none" stroke="#000" d="M297,-252C291,-252 285,-246 285,-240"/><polyline fill="none" stroke="#000" points="285 -240 285 -228"/><path fill="none" stroke="#000" d="M285,-228C285,-222 291,-216 297,-216"/><polyline fill="none" stroke="#000" points="297 -216 397 -216"/><path fill="none" stroke="#000" d="M397,-216C403,-216 409,-222 409,-228"/><polyline fill="none" stroke="#000" points="409 -228 409 -240"/><path fill="none" stroke="#000" d="M409,-240C409,-246 403,-252 397,-252"/><text x="347" y="-230.4" font-family="Times Roman,serif" font-size="14" text-anchor="middle">AdminPassword</text></g><g id="edge44" class="edge"><title>AdminPassword-&gt;WebServer</title><path fill="none" stroke="#000" d="M388.869,-215.847C431.704,-197.384 500.259,-168.136 560,-144 587.629,-132.838 618.519,-120.869 644.239,-111.044"/><polygon fill="#000" stroke="#000" points="645.728 -114.222 653.826 -107.389 643.235 -107.681 645.728 -114.222"/></g><g id="node8" class="node"><title>InstanceType</title><polygon fill="#d3d3d3" stroke="#d3d3d3" points="521 -252 439 -252 427 -240 427 -228 439 -216 521 -216 533 -228 533 -240 521 -252"/><path fill="#d3d3d3" stroke="#d3d3d3" d="M439,-252C433,-252 427,-246 427,-240"/><path fill="#d3d3d3" stroke="#d3d3d3" d="M427,-228C427,-222 433,-216 439,-216"/><path fill="#d3d3d3" stroke="#d3d3d3" d="M521,-216C527,-216 533,-222 533,-228"/><path fill="#d3d3d3" stroke="#d3d3d3" d="M533,-240C533,-246 527,-252 521,-252"/><polyline fill="none" stroke="#000" points="521 -252 439 -252"/><path fill="none" stroke="#000" d="M439,-252C433,-252 427,-246 427,-240"/><polyline fill="none" stroke="#000" points="427 -240 427 -228"/><path fill="none" stroke="#000" d="M427,-228C427,-222 433,-216 439,-216"/><polyline fill="none" stroke="#000" points="439 -216 521 -216"/><path fill="none" stroke="#000" d="M521,-216C527,-216 533,-222 533,-228"/><polyline fill="none" stroke="#000" points="533 -228 533 -240"/><path fill="none" stroke="#000" d="M533,-240C533,-246 527,-252 521,-252"/><text x="480" y="-230.4" font-family="Times Roman,serif" font-size="14" text-anchor="middle">InstanceType</text></g><g id="edge38" class="edge"><title>InstanceType-&gt;WebServer</title><path fill="none" stroke="#000" d="M503.19,-215.762C540.34,-189.74 613.198,-141.951 659.168,-113.366"/><polygon fill="#000" stroke="#000" points="661.039 -116.325 667.705 -108.09 657.358 -110.37 661.039 -116.325"/></g><g id="edge42" class="edge"><title>InstanceType-&gt;WebServer</title><path fill="none" stroke="#000" d="M512.536,-215.762C554.634,-189.903 627.152,-142.546 668.657,-113.903"/><polygon fill="#000" stroke="#000" points="670.808 -116.671 677.021 -108.09 666.812 -110.923 670.808 -116.671"/></g><g id="node9" class="node"><title>SSHLocation</title><polygon fill="#d3d3d3" stroke="#d3d3d3" points="131 -252 51 -252 39 -240 39 -228 51 -216 131 -216 143 -228 143 -240 131 -252"/><path fill="#d3d3d3" stroke="#d3d3d3" d="M51,-252C45,-252 39,-246 39,-240"/><path fill="#d3d3d3" stroke="#d3d3d3" d="M39,-228C39,-222 45,-216 51,-216"/><path fill="#d3d3d3" stroke="#d3d3d3" d="M131,-216C137,-216 143,-222 143,-228"/><path fill="#d3d3d3" stroke="#d3d3d3" d="M143,-240C143,-246 137,-252 131,-252"/><polyline fill="none" stroke="#000" points="131 -252 51 -252"/><path fill="none" stroke="#000" d="M51,-252C45,-252 39,-246 39,-240"/><polyline fill="none" stroke="#000" points="39 -240 39 -228"/><path fill="none" stroke="#000" d="M39,-228C39,-222 45,-216 51,-216"/><polyline fill="none" stroke="#000" points="51 -216 131 -216"/><path fill="none" stroke="#000" d="M131,-216C137,-216 143,-222 143,-228"/><polyline fill="none" stroke="#000" points="143 -228 143 -240"/><path fill="none" stroke="#000" d="M143,-240C143,-246 137,-252 131,-252"/><text x="91" y="-230.4" font-family="Times Roman,serif" font-size="14" text-anchor="middle">SSHLocation</text></g><g id="edge58" class="edge"><title>SSHLocation-&gt;WebServerSecurityGroup</title><path fill="none" stroke="#000" d="M92.2617,-215.831C92.7965,-208.131 93.4323,-198.974 94.0266,-190.417"/><polygon fill="#000" stroke="#000" points="97.52 -190.632 94.721 -180.413 90.537 -190.147 97.52 -190.632"/></g><g id="node10" class="node"><title>KeyName</title><polygon fill="#d3d3d3" stroke="#d3d3d3" points="619 -252 563 -252 551 -240 551 -228 563 -216 619 -216 631 -228 631 -240 619 -252"/><path fill="#d3d3d3" stroke="#d3d3d3" d="M563,-252C557,-252 551,-246 551,-240"/><path fill="#d3d3d3" stroke="#d3d3d3" d="M551,-228C551,-222 557,-216 563,-216"/><path fill="#d3d3d3" stroke="#d3d3d3" d="M619,-216C625,-216 631,-222 631,-228"/><path fill="#d3d3d3" stroke="#d3d3d3" d="M631,-240C631,-246 625,-252 619,-252"/><polyline fill="none" stroke="#000" points="619 -252 563 -252"/><path fill="none" stroke="#000" d="M563,-252C557,-252 551,-246 551,-240"/><polyline fill="none" stroke="#000" points="551 -240 551 -228"/><path fill="none" stroke="#000" d="M551,-228C551,-222 557,-216 563,-216"/><polyline fill="none" stroke="#000" points="563 -216 619 -216"/><path fill="none" stroke="#000" d="M619,-216C625,-216 631,-222 631,-228"/><polyline fill="none" stroke="#000" points="631 -228 631 -240"/><path fill="none" stroke="#000" d="M631,-240C631,-246 625,-252 619,-252"/><text x="591" y="-230.4" font-family="Times Roman,serif" font-size="14" text-anchor="middle">KeyName</text></g><g id="edge34" class="edge"><title>KeyName-&gt;WebServer</title><path fill="none" stroke="#000" d="M604.805,-215.762C623.888,-190.552 658.436,-144.91 680.247,-116.095"/><polygon fill="#000" stroke="#000" points="683.062 -118.175 686.307 -108.09 677.481 -113.951 683.062 -118.175"/></g><g id="node11" class="node"><title>DBPassword</title><polygon fill="#d3d3d3" stroke="#d3d3d3" points="739 -252 661 -252 649 -240 649 -228 661 -216 739 -216 751 -228 751 -240 739 -252"/><path fill="#d3d3d3" stroke="#d3d3d3" d="M661,-252C655,-252 649,-246 649,-240"/><path fill="#d3d3d3" stroke="#d3d3d3" d="M649,-228C649,-222 655,-216 661,-216"/><path fill="#d3d3d3" stroke="#d3d3d3" d="M739,-216C745,-216 751,-222 751,-228"/><path fill="#d3d3d3" stroke="#d3d3d3" d="M751,-240C751,-246 745,-252 739,-252"/><polyline fill="none" stroke="#000" points="739 -252 661 -252"/><path fill="none" stroke="#000" d="M661,-252C655,-252 649,-246 649,-240"/><polyline fill="none" stroke="#000" points="649 -240 649 -228"/><path fill="none" stroke="#000" d="M649,-228C649,-222 655,-216 661,-216"/><polyline fill="none" stroke="#000" points="661 -216 739 -216"/><path fill="none" stroke="#000" d="M739,-216C745,-216 751,-222 751,-228"/><polyline fill="none" stroke="#000" points="751 -228 751 -240"/><path fill="none" stroke="#000" d="M751,-240C751,-246 745,-252 739,-252"/><text x="700" y="-230.4" font-family="Times Roman,serif" font-size="14" text-anchor="middle">DBPassword</text></g><g id="edge24" class="edge"><title>DBPassword-&gt;WebServer</title><path fill="none" stroke="#000" d="M685.98,-215.762C678.569,-191.093 677.77,-146.86 683.584,-117.973"/><polygon fill="#000" stroke="#000" points="687.025 -118.637 686.025 -108.09 680.229 -116.959 687.025 -118.637"/></g><g id="edge28" class="edge"><title>DBPassword-&gt;WebServer</title><path fill="none" stroke="#000" d="M704.673,-215.762C707.133,-191.201 707.408,-147.247 705.497,-118.354"/><polygon fill="#000" stroke="#000" points="708.962 -117.771 704.658 -108.09 701.985 -118.342 708.962 -117.771"/></g><g id="edge50" class="edge"><title>DBPassword-&gt;WebServer</title><path fill="none" stroke="#000" d="M714.02,-215.762C721.431,-191.093 722.23,-146.86 716.416,-117.973"/><polygon fill="#000" stroke="#000" points="719.771 -116.959 713.975 -108.09 712.975 -118.637 719.771 -116.959"/></g><g id="edge18" class="edge"><title>DBPassword-&gt;WebServer</title><path fill="none" stroke="#000" d="M695.327,-215.762C692.867,-191.201 692.592,-147.247 694.503,-118.354"/><polygon fill="#000" stroke="#000" points="698.015 -118.342 695.342 -108.09 691.038 -117.771 698.015 -118.342"/></g><g id="node12" class="node"><title>DBRootPassword</title><polygon fill="#d3d3d3" stroke="#d3d3d3" points="891 -252 781 -252 769 -240 769 -228 781 -216 891 -216 903 -228 903 -240 891 -252"/><path fill="#d3d3d3" stroke="#d3d3d3" d="M781,-252C775,-252 769,-246 769,-240"/><path fill="#d3d3d3" stroke="#d3d3d3" d="M769,-228C769,-222 775,-216 781,-216"/><path fill="#d3d3d3" stroke="#d3d3d3" d="M891,-216C897,-216 903,-222 903,-228"/><path fill="#d3d3d3" stroke="#d3d3d3" d="M903,-240C903,-246 897,-252 891,-252"/><polyline fill="none" stroke="#000" points="891 -252 781 -252"/><path fill="none" stroke="#000" d="M781,-252C775,-252 769,-246 769,-240"/><polyline fill="none" stroke="#000" points="769 -240 769 -228"/><path fill="none" stroke="#000" d="M769,-228C769,-222 775,-216 781,-216"/><polyline fill="none" stroke="#000" points="781 -216 891 -216"/><path fill="none" stroke="#000" d="M891,-216C897,-216 903,-222 903,-228"/><polyline fill="none" stroke="#000" points="903 -228 903 -240"/><path fill="none" stroke="#000" d="M903,-240C903,-246 897,-252 891,-252"/><text x="836" y="-230.4" font-family="Times Roman,serif" font-size="14" text-anchor="middle">DBRootPassword</text></g><g id="edge10" class="edge"><title>DBRootPassword-&gt;WebServer</title><path fill="none" stroke="#000" d="M814.102,-215.762C787.655,-190.444 744.067,-144.518 718.981,-115.725"/><polygon fill="#000" stroke="#000" points="721.596 -113.397 712.426 -108.09 716.285 -117.957 721.596 -113.397"/></g><g id="edge12" class="edge"><title>DBRootPassword-&gt;WebServer</title><path fill="none" stroke="#000" d="M823.449,-215.762C801.981,-190.335 758.543,-144.125 729.235,-115.357"/><polygon fill="#000" stroke="#000" points="731.358 -112.54 721.743 -108.09 726.484 -117.564 731.358 -112.54"/></g><g id="node13" class="node"><title>DBName</title><polygon fill="#d3d3d3" stroke="#d3d3d3" points="985 -252 933 -252 921 -240 921 -228 933 -216 985 -216 997 -228 997 -240 985 -252"/><path fill="#d3d3d3" stroke="#d3d3d3" d="M933,-252C927,-252 921,-246 921,-240"/><path fill="#d3d3d3" stroke="#d3d3d3" d="M921,-228C921,-222 927,-216 933,-216"/><path fill="#d3d3d3" stroke="#d3d3d3" d="M985,-216C991,-216 997,-222 997,-228"/><path fill="#d3d3d3" stroke="#d3d3d3" d="M997,-240C997,-246 991,-252 985,-252"/><polyline fill="none" stroke="#000" points="985 -252 933 -252"/><path fill="none" stroke="#000" d="M933,-252C927,-252 921,-246 921,-240"/><polyline fill="none" stroke="#000" points="921 -240 921 -228"/><path fill="none" stroke="#000" d="M921,-228C921,-222 927,-216 933,-216"/><polyline fill="none" stroke="#000" points="933 -216 985 -216"/><path fill="none" stroke="#000" d="M985,-216C991,-216 997,-222 997,-228"/><polyline fill="none" stroke="#000" points="997 -228 997 -240"/><path fill="none" stroke="#000" d="M997,-240C997,-246 991,-252 985,-252"/><text x="959" y="-230.4" font-family="Times Roman,serif" font-size="14" text-anchor="middle">DBName</text></g><g id="edge30" class="edge"><title>DBName-&gt;WebServer</title><path fill="none" stroke="#000" d="M920.999,-221.723C865.151,-197.875 768.303,-144.916 722.284,-113.901"/><polygon fill="#000" stroke="#000" points="723.997 -110.829 713.786 -108.006 720.008 -116.581 723.997 -110.829"/></g><g id="edge46" class="edge"><title>DBName-&gt;WebServer</title><path fill="none" stroke="#000" d="M935.544,-215.762C893.607,-189.524 806.877,-141.155 750.902,-112.657"/><polygon fill="#000" stroke="#000" points="752.357 -109.471 741.853 -108.09 749.203 -115.72 752.357 -109.471"/></g><g id="edge52" class="edge"><title>DBName-&gt;WebServer</title><path fill="none" stroke="#000" d="M944.89,-215.762C907.051,-188.696 816.241,-138.08 755.386,-110.02"/><polygon fill="#000" stroke="#000" points="756.816 -106.825 746.263 -105.883 753.925 -113.2 756.816 -106.825"/></g><g id="edge14" class="edge"><title>DBName-&gt;WebServer</title><path fill="none" stroke="#000" d="M920.866,-217.761C869.534,-192.332 780.331,-142.993 732.188,-113.627"/><polygon fill="#000" stroke="#000" points="733.76 -110.485 723.412 -108.21 730.083 -116.441 733.76 -110.485"/></g><g id="edge20" class="edge"><title>DBName-&gt;WebServer</title><path fill="none" stroke="#000" d="M926.46,-215.908C879.55,-189.827 792.925,-141.665 741.48,-113.063"/><polygon fill="#000" stroke="#000" points="743.052 -109.931 732.611 -108.131 739.65 -116.049 743.052 -109.931"/></g><g id="node18" class="node"><title>AWS::StackId</title><polygon fill="none" stroke="#000" points="1031 -180 921 -180 921 -144 1031 -144 1031 -180"/><text x="976" y="-158.4" font-family="Times Roman,serif" font-size="14" text-anchor="middle">AWS::StackId</text></g><g id="edge6" class="edge"><title>AWS::StackId-&gt;WebServer</title><path fill="none" stroke="#000" d="M920.811,-147.603C873.079,-135.151 804.374,-117.228 756.316,-104.691"/><polygon fill="#000" stroke="#000" points="756.949 -101.239 746.389 -102.102 755.182 -108.013 756.949 -101.239"/></g><g id="node20" class="node"><title>AWS::Region</title><polygon fill="none" stroke="#000" points="1153 -180 1049 -180 1049 -144 1153 -144 1153 -180"/><text x="1101" y="-158.4" font-family="Times Roman,serif" font-size="14" text-anchor="middle">AWS::Region</text></g><g id="edge40" class="edge"><title>AWS::Region-&gt;WebServer</title><path fill="none" stroke="#000" d="M1048.95,-148.519C1042.89,-146.875 1036.82,-145.314 1031,-144 935.266,-122.368 822.45,-106.269 756.235,-97.5051"/><polygon fill="#000" stroke="#000" points="756.388 -93.995 746.017 -96.162 755.476 -100.936 756.388 -93.995"/></g><g id="edge8" class="edge"><title>AWS::Region-&gt;WebServer</title><path fill="none" stroke="#000" d="M1049.32,-144.073C1049.22,-144.049 1049.11,-144.024 1049,-144 947.108,-120.977 825.866,-104.221 756.324,-95.9054"/><polygon fill="#000" stroke="#000" points="756.374 -92.387 746.033 -94.692 755.554 -99.339 756.374 -92.387"/></g></g></svg>