<svg xmlns="http://www.w3.org/2000/svg" xmlns:xlink="http://www.w3.org/1999/xlink" width="3331pt" height="476pt" viewBox="0 0 3331.21 476"><g id="graph1" class="graph" transform="scale(1 1) rotate(0) translate(4 472)"><title>AWS CloudFormation Sample Template multi-tier-vpc.template: Sample template showing how to create a multi-tier VPC with multiple subnets that can be used to launch VPC-based Elastic Beanstalk applications in. The first subnet is public and contains a NAT device for internet access from the private subnet and a bastion host to allow SSH access to the hosts in the private subnet. You will be billed for the AWS resources used if you create a stack from this template.</title><polygon fill="#fff" stroke="#fff" points="-4 5 -4 -472 3328.21 -472 3328.21 5 -4 5"/><g id="node1" class="node"><title>BastionHost</title><polygon fill="none" stroke="#000" points="3196.21 -180 3096.21 -180 3096.21 -144 3196.21 -144 3196.21 -180"/><text x="3146.21" y="-158.4" font-family="Times Roman,serif" font-size="14" text-anchor="middle">BastionHost</text></g><g id="node13" class="node"><title>BastionIPAddress</title><polygon fill="none" stroke="#000" points="3307.21 -108 3173.21 -108 3173.21 -72 3307.21 -72 3307.21 -108"/><text x="3240.21" y="-86.4" font-family="Times Roman,serif" font-size="14" text-anchor="middle">BastionIPAddress</text></g><g id="edge54" class="edge"><title>BastionHost-&gt;BastionIPAddress</title><path fill="none" stroke="#000" d="M3169.93,-143.831C3181.62,-134.878 3195.88,-123.956 3208.49,-114.295"/><polygon fill="#000" stroke="#000" points="3210.68 -117.022 3216.49 -108.163 3206.43 -111.465 3210.68 -117.022"/></g><g id="node2" class="node"><title>GatewayToInternet</title><polygon fill="none" stroke="#000" points="2835.21 -252 2683.21 -252 2683.21 -216 2835.21 -216 2835.21 -252"/><text x="2759.21" y="-230.4" font-family="Times Roman,serif" font-size="14" text-anchor="middle">GatewayToInternet</text></g><g id="node3" class="node"><title>PublicRoute</title><polygon fill="none" stroke="#000" points="2911.21 -180 2813.21 -180 2813.21 -144 2911.21 -144 2911.21 -180"/><text x="2862.21" y="-158.4" font-family="Times Roman,serif" font-size="14" text-anchor="middle">PublicRoute</text></g><g id="node4" class="node"><title>PublicSubnet</title><polygon fill="none" stroke="#000" points="2911.21 -36 2805.21 -36 2805.21 0 2911.21 0 2911.21 -36"/><text x="2858.21" y="-14.4" font-family="Times Roman,serif" font-size="14" text-anchor="middle">PublicSubnet</text></g><g id="edge4" class="edge"><title>PublicSubnet-&gt;BastionHost</title><path fill="none" stroke="#000" d="M2911.33,-21.9316C2980.57,-28.1605 3096.34,-42.7189 3126.21,-72 3142.39,-87.862 3146.79,-113.701 3147.49,-133.633"/><polygon fill="#000" stroke="#000" points="3143.99 -133.739 3147.56 -143.715 3150.99 -133.692 3143.99 -133.739"/></g><g id="edge106" class="edge"><title>PublicSubnet-&gt;PublicSubnet</title><path fill="none" stroke="#000" d="M2911.46,-30.8993C2921.84,-29.4013 2929.21,-25.1016 2929.21,-18 2929.21,-13.4506 2926.18,-10.051 2921.28,-7.80125"/><polygon fill="#000" stroke="#000" points="2922.03 -4.378 2911.46 -5.101 2920.18 -11.127 2922.03 -4.378"/></g><g id="node5" class="node"><title>PublicSubnetNetworkAclAssociation</title><polygon fill="none" stroke="#000" points="1777.21 -108 1513.21 -108 1513.21 -72 1777.21 -72 1777.21 -108"/><text x="1645.21" y="-86.4" font-family="Times Roman,serif" font-size="14" text-anchor="middle">PublicSubnetNetworkAclAssociation</text></g><g id="edge28" class="edge"><title>PublicSubnet-&gt;PublicSubnetNetworkAclAssociation</title><path fill="none" stroke="#000" d="M2805,-20.3484C2656.04,-27.0384 2222.21,-47.3152 1862.21,-72 1838.09,-73.6535 1812.49,-75.604 1787.64,-77.5998"/><polygon fill="#000" stroke="#000" points="1787.1 -74.132 1777.42 -78.427 1787.67 -81.109 1787.1 -74.132"/></g><g id="node16" class="node"><title>PublicSubnetRouteTableAssociation</title><polygon fill="none" stroke="#000" points="2795.21 -180 2535.21 -180 2535.21 -144 2795.21 -144 2795.21 -180"/><text x="2665.21" y="-158.4" font-family="Times Roman,serif" font-size="14" text-anchor="middle">PublicSubnetRouteTableAssociation</text></g><g id="edge62" class="edge"><title>PublicSubnet-&gt;PublicSubnetRouteTableAssociation</title><path fill="none" stroke="#000" d="M2837.31,-36.2221C2809.23,-60.6555 2761.84,-101.71 2753.21,-108 2738.31,-118.851 2721.18,-129.696 2706.02,-138.791"/><polygon fill="#000" stroke="#000" points="2704.17 -135.819 2697.35 -143.93 2707.74 -141.841 2704.17 -135.819"/></g><g id="node28" class="node"><title>NATDevice</title><polygon fill="none" stroke="#000" points="3059.21 -180 2967.21 -180 2967.21 -144 3059.21 -144 3059.21 -180"/><text x="3013.21" y="-158.4" font-family="Times Roman,serif" font-size="14" text-anchor="middle">NATDevice</text></g><g id="edge98" class="edge"><title>PublicSubnet-&gt;NATDevice</title><path fill="none" stroke="#000" d="M2899.33,-36.0481C2917.17,-45.1564 2937.52,-57.3899 2953.21,-72 2972.69,-90.1474 2989,-115.803 2999.67,-135.082"/><polygon fill="#000" stroke="#000" points="2996.63 -136.82 3004.45 -143.973 3002.8 -133.507 2996.63 -136.82"/></g><g id="node6" class="node"><title>InternetGateway</title><polygon fill="none" stroke="#000" points="2827.21 -324 2691.21 -324 2691.21 -288 2827.21 -288 2827.21 -324"/><text x="2759.21" y="-302.4" font-family="Times Roman,serif" font-size="14" text-anchor="middle">InternetGateway</text></g><g id="edge18" class="edge"><title>InternetGateway-&gt;GatewayToInternet</title><path fill="none" stroke="#000" d="M2759.21,-287.831C2759.21,-280.131 2759.21,-270.974 2759.21,-262.417"/><polygon fill="#000" stroke="#000" points="2762.71 -262.413 2759.21 -252.413 2755.71 -262.413 2762.71 -262.413"/></g><g id="edge20" class="edge"><title>InternetGateway-&gt;PublicRoute</title><path fill="none" stroke="#000" d="M2801.76,-287.849C2817.35,-279.169 2833.73,-267.284 2844.21,-252 2856.62,-233.9 2860.89,-209.224 2862.18,-190.288"/><polygon fill="#000" stroke="#000" points="2865.68 -190.312 2862.63 -180.166 2858.69 -190 2865.68 -190.312"/></g><g id="node7" class="node"><title>PrivateRouteTable</title><polygon fill="none" stroke="#000" points="2353.21 -252 2211.21 -252 2211.21 -216 2353.21 -216 2353.21 -252"/><text x="2282.21" y="-230.4" font-family="Times Roman,serif" font-size="14" text-anchor="middle">PrivateRouteTable</text></g><g id="node12" class="node"><title>PrivateRoute</title><polygon fill="none" stroke="#000" points="2911.21 -108 2805.21 -108 2805.21 -72 2911.21 -72 2911.21 -108"/><text x="2858.21" y="-86.4" font-family="Times Roman,serif" font-size="14" text-anchor="middle">PrivateRoute</text></g><g id="edge52" class="edge"><title>PrivateRouteTable-&gt;PrivateRoute</title><path fill="none" stroke="#000" d="M2353.23,-217.225C2407.9,-204.002 2476.13,-186.714 2488.21,-180 2508.54,-168.696 2505.34,-154.283 2526.21,-144 2617.84,-98.8496 2652.42,-124.63 2753.21,-108 2766.79,-105.759 2781.35,-103.299 2795.17,-100.938"/><polygon fill="#000" stroke="#000" points="2795.82 -104.378 2805.08 -99.24 2794.63 -97.479 2795.82 -104.378"/></g><g id="node21" class="node"><title>PrivateSubnetRouteTableAssociation</title><polygon fill="none" stroke="#000" points="2479.21 -180 2211.21 -180 2211.21 -144 2479.21 -144 2479.21 -180"/><text x="2345.21" y="-158.4" font-family="Times Roman,serif" font-size="14" text-anchor="middle">PrivateSubnetRouteTableAssociation</text></g><g id="edge78" class="edge"><title>PrivateRouteTable-&gt;PrivateSubnetRouteTableAssociation</title><path fill="none" stroke="#000" d="M2298.1,-215.831C2305.44,-207.454 2314.27,-197.353 2322.3,-188.175"/><polygon fill="#000" stroke="#000" points="2325.14 -190.244 2329.1 -180.413 2319.88 -185.634 2325.14 -190.244"/></g><g id="node8" class="node"><title>PrivateSubnetNetworkAclAssociation</title><polygon fill="none" stroke="#000" points="2143.21 -108 1871.21 -108 1871.21 -72 2143.21 -72 2143.21 -108"/><text x="2007.21" y="-86.4" font-family="Times Roman,serif" font-size="14" text-anchor="middle">PrivateSubnetNetworkAclAssociation</text></g><g id="node9" class="node"><title>InboundPrivateNetworkAclEntry</title><polygon fill="none" stroke="#000" points="2673.21 -108 2433.21 -108 2433.21 -72 2673.21 -72 2673.21 -108"/><text x="2553.21" y="-86.4" font-family="Times Roman,serif" font-size="14" text-anchor="middle">InboundPrivateNetworkAclEntry</text></g><g id="node10" class="node"><title>NATSecurityGroup</title><polygon fill="none" stroke="#000" points="2665.21 -252 2521.21 -252 2521.21 -216 2665.21 -216 2665.21 -252"/><text x="2593.21" y="-230.4" font-family="Times Roman,serif" font-size="14" text-anchor="middle">NATSecurityGroup</text></g><g id="edge100" class="edge"><title>NATSecurityGroup-&gt;NATDevice</title><path fill="none" stroke="#000" d="M2665.58,-217.642C2668.49,-217.071 2671.37,-216.521 2674.21,-216 2782.88,-196.001 2811.27,-198.503 2920.21,-180 2932.11,-177.978 2944.84,-175.634 2956.94,-173.321"/><polygon fill="#000" stroke="#000" points="2957.77 -176.725 2966.92 -171.392 2956.44 -169.852 2957.77 -176.725"/></g><g id="node11" class="node"><title>PrivateNetworkAcl</title><polygon fill="none" stroke="#000" points="2155.21 -180 2009.21 -180 2009.21 -144 2155.21 -144 2155.21 -180"/><text x="2082.21" y="-158.4" font-family="Times Roman,serif" font-size="14" text-anchor="middle">PrivateNetworkAcl</text></g><g id="edge40" class="edge"><title>PrivateNetworkAcl-&gt;PrivateSubnetNetworkAclAssociation</title><path fill="none" stroke="#000" d="M2063.28,-143.831C2054.22,-135.134 2043.23,-124.578 2033.38,-115.127"/><polygon fill="#000" stroke="#000" points="2035.76 -112.563 2026.13 -108.163 2030.92 -117.613 2035.76 -112.563"/></g><g id="edge42" class="edge"><title>PrivateNetworkAcl-&gt;InboundPrivateNetworkAclEntry</title><path fill="none" stroke="#000" d="M2155.24,-146.534C2159.96,-145.644 2164.65,-144.791 2169.21,-144 2175.61,-142.889 2314.02,-123.468 2422.85,-108.232"/><polygon fill="#000" stroke="#000" points="2423.53 -111.67 2432.95 -106.818 2422.56 -104.738 2423.53 -111.67"/></g><g id="node27" class="node"><title>OutBoundPrivateNetworkAclEntry</title><polygon fill="none" stroke="#000" points="2415.21 -108 2161.21 -108 2161.21 -72 2415.21 -72 2415.21 -108"/><text x="2288.21" y="-86.4" font-family="Times Roman,serif" font-size="14" text-anchor="middle">OutBoundPrivateNetworkAclEntry</text></g><g id="edge96" class="edge"><title>PrivateNetworkAcl-&gt;OutBoundPrivateNetworkAclEntry</title><path fill="none" stroke="#000" d="M2133.92,-143.924C2162.09,-134.081 2197.11,-121.839 2226.67,-111.507"/><polygon fill="#000" stroke="#000" points="2228.18 -114.687 2236.47 -108.083 2225.87 -108.079 2228.18 -114.687"/></g><g id="node36" class="node"><title>Bastion</title><polygon fill="#d3d3d3" stroke="#d3d3d3" points="3262.21 -36 3218.21 -36 3206.21 -24 3206.21 -12 3218.21 0 3262.21 0 3274.21 -12 3274.21 -24 3262.21 -36"/><path fill="#d3d3d3" stroke="#d3d3d3" d="M3218.21,-36C3212.21,-36 3206.21,-30 3206.21,-24"/><path fill="#d3d3d3" stroke="#d3d3d3" d="M3206.21,-12C3206.21,-6 3212.21,-1.65097e-14 3218.21,-1.52558e-14"/><path fill="#d3d3d3" stroke="#d3d3d3" d="M3262.21,-6.06051e-15C3268.21,-4.80661e-15 3274.21,-6 3274.21,-12"/><path fill="#d3d3d3" stroke="#d3d3d3" d="M3274.21,-24C3274.21,-30 3268.21,-36 3262.21,-36"/><polyline fill="none" stroke="#000" points="3262.21 -36 3218.21 -36"/><path fill="none" stroke="#000" d="M3218.21,-36C3212.21,-36 3206.21,-30 3206.21,-24"/><polyline fill="none" stroke="#000" points="3206.21 -24 3206.21 -12"/><path fill="none" stroke="#000" d="M3206.21,-12C3206.21,-6 3212.21,-1.65097e-14 3218.21,-1.52558e-14"/><polyline fill="none" stroke="#000" points="3218.21 0 3262.21 0"/><path fill="none" stroke="#000" d="M3262.21,-6.06051e-15C3268.21,-4.80661e-15 3274.21,-6 3274.21,-12"/><polyline fill="none" stroke="#000" points="3274.21 -12 3274.21 -24"/><path fill="none" stroke="#000" d="M3274.21,-24C3274.21,-30 3268.21,-36 3262.21,-36"/><text x="3240.21" y="-14.4" font-family="Times Roman,serif" font-size="14" text-anchor="middle">Bastion</text></g><g id="edge112" class="edge"><title>BastionIPAddress-&gt;Bastion</title><path fill="none" stroke="#000" d="M3240.21,-71.8314C3240.21,-64.131 3240.21,-54.9743 3240.21,-46.4166"/><polygon fill="#000" stroke="#000" points="3243.71 -46.413 3240.21 -36.413 3236.71 -46.413 3243.71 -46.413"/></g><g id="node14" class="node"><title>PrivateSubnet</title><polygon fill="none" stroke="#000" points="2016.21 -36 1900.21 -36 1900.21 0 2016.21 0 2016.21 -36"/><text x="1958.21" y="-14.4" font-family="Times Roman,serif" font-size="14" text-anchor="middle">PrivateSubnet</text></g><g id="edge38" class="edge"><title>PrivateSubnet-&gt;PrivateSubnetNetworkAclAssociation</title><path fill="none" stroke="#000" d="M1970.74,-36.4133C1976.35,-44.654 1983.06,-54.5245 1989.2,-63.536"/><polygon fill="#000" stroke="#000" points="1986.32 -65.533 1994.84 -71.831 1992.11 -61.595 1986.32 -65.533"/></g><g id="edge108" class="edge"><title>PrivateSubnet-&gt;PrivateSubnet</title><path fill="none" stroke="#000" d="M2016.52,-30.7082C2026.93,-29.0564 2034.21,-24.8203 2034.21,-18 2034.21,-13.6307 2031.22,-10.3221 2026.34,-8.07395"/><polygon fill="#000" stroke="#000" points="2027.09 -4.65 2016.52 -5.292 2025.19 -11.385 2027.09 -4.65"/></g><g id="edge76" class="edge"><title>PrivateSubnet-&gt;PrivateSubnetRouteTableAssociation</title><path fill="none" stroke="#000" d="M2016.25,-20.1957C2184.11,-26.824 2659.63,-47.6777 2682.21,-72 2693.09,-83.7269 2692.59,-95.8241 2682.21,-108 2675.56,-115.796 2577.72,-130.931 2489.17,-143.199"/><polygon fill="#000" stroke="#000" points="2488.68 -139.733 2479.26 -144.566 2489.64 -146.667 2488.68 -139.733"/></g><g id="node15" class="node"><title>InboundHTTPPublicNetworkAclEntry</title><polygon fill="none" stroke="#000" points="601.207 -108 333.207 -108 333.207 -72 601.207 -72 601.207 -108"/><text x="467.207" y="-86.4" font-family="Times Roman,serif" font-size="14" text-anchor="middle">InboundHTTPPublicNetworkAclEntry</text></g><g id="node17" class="node"><title>InboundHTTPSPublicNetworkAclEntry</title><polygon fill="none" stroke="#000" points="897.207 -108 619.207 -108 619.207 -72 897.207 -72 897.207 -108"/><text x="758.207" y="-86.4" font-family="Times Roman,serif" font-size="14" text-anchor="middle">InboundHTTPSPublicNetworkAclEntry</text></g><g id="node18" class="node"><title>InboundEmphemeralPublicNetworkAclEntry</title><polygon fill="none" stroke="#000" points="1233.21 -108 915.207 -108 915.207 -72 1233.21 -72 1233.21 -108"/><text x="1074.21" y="-86.4" font-family="Times Roman,serif" font-size="14" text-anchor="middle">InboundEmphemeralPublicNetworkAclEntry</text></g><g id="node19" class="node"><title>InboundSSHPublicNetworkAclEntry</title><polygon fill="none" stroke="#000" points="277.207 -108 17.207 -108 17.207 -72 277.207 -72 277.207 -108"/><text x="147.207" y="-86.4" font-family="Times Roman,serif" font-size="14" text-anchor="middle">InboundSSHPublicNetworkAclEntry</text></g><g id="node20" class="node"><title>VPC</title><polygon fill="none" stroke="#000" points="2210.21 -324 2156.21 -324 2156.21 -288 2210.21 -288 2210.21 -324"/><text x="2183.21" y="-302.4" font-family="Times Roman,serif" font-size="14" text-anchor="middle">VPC</text></g><g id="edge16" class="edge"><title>VPC-&gt;GatewayToInternet</title><path fill="none" stroke="#000" d="M2210.21,-303.977C2283.2,-298.308 2490.62,-280.873 2672.79,-252.147"/><polygon fill="#000" stroke="#000" points="2673.49 -255.579 2682.82 -250.55 2672.39 -248.666 2673.49 -255.579"/></g><g id="edge24" class="edge"><title>VPC-&gt;PublicSubnet</title><path fill="none" stroke="#000" d="M2178.82,-287.743C2171.9,-253.941 2162.97,-181.632 2202.21,-144 2240.81,-106.982 2630.72,-122.46 2682.21,-108 2683.98,-107.502 2762.54,-67.1903 2814.09,-40.6925"/><polygon fill="#000" stroke="#000" points="2815.77 -43.765 2823.06 -36.081 2812.57 -37.54 2815.77 -43.765"/></g><g id="edge34" class="edge"><title>VPC-&gt;PrivateRouteTable</title><path fill="none" stroke="#000" d="M2208.19,-287.831C2220.5,-278.878 2235.52,-267.956 2248.8,-258.295"/><polygon fill="#000" stroke="#000" points="2251.2 -260.875 2257.23 -252.163 2247.09 -255.214 2251.2 -260.875"/></g><g id="edge44" class="edge"><title>VPC-&gt;NATSecurityGroup</title><path fill="none" stroke="#000" d="M2210.6,-302.035C2265.59,-293.96 2393.56,-274.599 2510.95,-252.192"/><polygon fill="#000" stroke="#000" points="2511.67 -255.619 2520.83 -250.295 2510.34 -248.745 2511.67 -255.619"/></g><g id="edge46" class="edge"><title>VPC-&gt;PrivateNetworkAcl</title><path fill="none" stroke="#000" d="M2170.42,-287.762C2152.81,-262.66 2121,-217.302 2100.77,-188.467"/><polygon fill="#000" stroke="#000" points="2103.5 -186.267 2094.9 -180.09 2097.77 -190.286 2103.5 -186.267"/></g><g id="edge56" class="edge"><title>VPC-&gt;PrivateSubnet</title><path fill="none" stroke="#000" d="M2155.96,-298.979C2090.87,-280.561 1926.99,-224.067 1862.21,-108 1854.41,-94.0287 1854.13,-85.8114 1862.21,-72 1869.82,-58.9907 1881.84,-48.8734 1894.84,-41.1006"/><polygon fill="#000" stroke="#000" points="1896.87 -43.974 1903.95 -36.087 1893.5 -37.841 1896.87 -43.974"/></g><g id="node23" class="node"><title>BastionSecurityGroup</title><polygon fill="none" stroke="#000" points="1324.21 -252 1156.21 -252 1156.21 -216 1324.21 -216 1324.21 -252"/><text x="1240.21" y="-230.4" font-family="Times Roman,serif" font-size="14" text-anchor="middle">BastionSecurityGroup</text></g><g id="edge84" class="edge"><title>VPC-&gt;BastionSecurityGroup</title><path fill="none" stroke="#000" d="M2156,-303.923C2035.08,-294.69 1543.11,-257.127 1334.47,-241.197"/><polygon fill="#000" stroke="#000" points="1334.69 -237.704 1324.45 -240.432 1334.15 -244.683 1334.69 -237.704"/></g><g id="node24" class="node"><title>PublicRouteTable</title><polygon fill="none" stroke="#000" points="2503.21 -252 2371.21 -252 2371.21 -216 2503.21 -216 2503.21 -252"/><text x="2437.21" y="-230.4" font-family="Times Roman,serif" font-size="14" text-anchor="middle">PublicRouteTable</text></g><g id="edge86" class="edge"><title>VPC-&gt;PublicRouteTable</title><path fill="none" stroke="#000" d="M2210.39,-298.295C2246.7,-288.002 2312.42,-269.374 2363.8,-254.809"/><polygon fill="#000" stroke="#000" points="2364.88 -258.141 2373.54 -252.047 2362.97 -251.407 2364.88 -258.141"/></g><g id="node26" class="node"><title>PublicNetworkAcl</title><polygon fill="none" stroke="#000" points="1291.21 -180 1155.21 -180 1155.21 -144 1291.21 -144 1291.21 -180"/><text x="1223.21" y="-158.4" font-family="Times Roman,serif" font-size="14" text-anchor="middle">PublicNetworkAcl</text></g><g id="edge92" class="edge"><title>VPC-&gt;PublicNetworkAcl</title><path fill="none" stroke="#000" d="M2156.09,-302.457C2092.37,-294.089 1928.14,-272.278 1791.21,-252 1698.14,-238.218 1434.26,-195.95 1301.51,-174.608"/><polygon fill="#000" stroke="#000" points="1301.84 -171.116 1291.41 -172.984 1300.72 -178.027 1301.84 -171.116"/></g><g id="node35" class="node"><title>VPCId</title><polygon fill="#d3d3d3" stroke="#d3d3d3" points="1822.21 -36 1788.21 -36 1776.21 -24 1776.21 -12 1788.21 0 1822.21 0 1834.21 -12 1834.21 -24 1822.21 -36"/><path fill="#d3d3d3" stroke="#d3d3d3" d="M1788.21,-36C1782.21,-36 1776.21,-30 1776.21,-24"/><path fill="#d3d3d3" stroke="#d3d3d3" d="M1776.21,-12C1776.21,-6 1782.21,-1.62935e-14 1788.21,-1.48234e-14"/><path fill="#d3d3d3" stroke="#d3d3d3" d="M1822.21,-6.49289e-15C1828.21,-5.0228e-15 1834.21,-6 1834.21,-12"/><path fill="#d3d3d3" stroke="#d3d3d3" d="M1834.21,-24C1834.21,-30 1828.21,-36 1822.21,-36"/><polyline fill="none" stroke="#000" points="1822.21 -36 1788.21 -36"/><path fill="none" stroke="#000" d="M1788.21,-36C1782.21,-36 1776.21,-30 1776.21,-24"/><polyline fill="none" stroke="#000" points="1776.21 -24 1776.21 -12"/><path fill="none" stroke="#000" d="M1776.21,-12C1776.21,-6 1782.21,-1.62935e-14 1788.21,-1.48234e-14"/><polyline fill="none" stroke="#000" points="1788.21 0 1822.21 0"/><path fill="none" stroke="#000" d="M1822.21,-6.49289e-15C1828.21,-5.0228e-15 1834.21,-6 1834.21,-12"/><polyline fill="none" stroke="#000" points="1834.21 -12 1834.21 -24"/><path fill="none" stroke="#000" d="M1834.21,-24C1834.21,-30 1828.21,-36 1822.21,-36"/><text x="1805.21" y="-14.4" font-family="Times Roman,serif" font-size="14" text-anchor="middle">VPCId</text></g><g id="edge110" class="edge"><title>VPC-&gt;VPCId</title><path fill="none" stroke="#000" d="M2156.14,-303.154C2114.13,-297.883 2031.57,-284.068 1969.21,-252 1925.18,-229.358 1914.6,-219.086 1884.21,-180 1851.48,-137.912 1827.33,-80.0915 1814.83,-46.121"/><polygon fill="#000" stroke="#000" points="1818 -44.613 1811.33 -36.388 1811.42 -46.982 1818 -44.613"/></g><g id="node22" class="node"><title>OutboundPublicNetworkAclEntry</title><polygon fill="none" stroke="#000" points="1495.21 -108 1251.21 -108 1251.21 -72 1495.21 -72 1495.21 -108"/><text x="1373.21" y="-86.4" font-family="Times Roman,serif" font-size="14" text-anchor="middle">OutboundPublicNetworkAclEntry</text></g><g id="edge10" class="edge"><title>BastionSecurityGroup-&gt;BastionHost</title><path fill="none" stroke="#000" d="M1324.47,-232.49C1660.41,-226.334 2894.38,-202.402 3068.21,-180 3074.04,-179.249 3080.07,-178.255 3086.07,-177.119"/><polygon fill="#000" stroke="#000" points="3087.01 -180.5 3096.12 -175.09 3085.63 -173.639 3087.01 -180.5"/></g><g id="node37" class="node"><title>BastionSecuirtyGroup</title><polygon fill="#d3d3d3" stroke="#d3d3d3" points="377.207 -36 233.207 -36 221.207 -24 221.207 -12 233.207 0 377.207 0 389.207 -12 389.207 -24 377.207 -36"/><path fill="#d3d3d3" stroke="#d3d3d3" d="M233.207,-36C227.207,-36 221.207,-30 221.207,-24"/><path fill="#d3d3d3" stroke="#d3d3d3" d="M221.207,-12C221.207,-6 227.207,-1.7256e-14 233.207,-1.67485e-14"/><path fill="#d3d3d3" stroke="#d3d3d3" d="M377.207,-4.56777e-15C383.207,-4.06024e-15 389.207,-6 389.207,-12"/><path fill="#d3d3d3" stroke="#d3d3d3" d="M389.207,-24C389.207,-30 383.207,-36 377.207,-36"/><polyline fill="none" stroke="#000" points="377.207 -36 233.207 -36"/><path fill="none" stroke="#000" d="M233.207,-36C227.207,-36 221.207,-30 221.207,-24"/><polyline fill="none" stroke="#000" points="221.207 -24 221.207 -12"/><path fill="none" stroke="#000" d="M221.207,-12C221.207,-6 227.207,-1.7256e-14 233.207,-1.67485e-14"/><polyline fill="none" stroke="#000" points="233.207 0 377.207 0"/><path fill="none" stroke="#000" d="M377.207,-4.56777e-15C383.207,-4.06024e-15 389.207,-6 389.207,-12"/><polyline fill="none" stroke="#000" points="389.207 -12 389.207 -24"/><path fill="none" stroke="#000" d="M389.207,-24C389.207,-30 383.207,-36 377.207,-36"/><text x="305.207" y="-14.4" font-family="Times Roman,serif" font-size="14" text-anchor="middle">BastionSecuirtyGroup</text></g><g id="edge114" class="edge"><title>BastionSecurityGroup-&gt;BastionSecuirtyGroup</title><path fill="none" stroke="#000" d="M1155.95,-227.905C940.972,-211.593 384.712,-164.334 324.207,-108 307.563,-92.5033 303.557,-66.3977 303.279,-46.2815"/><polygon fill="#000" stroke="#000" points="306.781 -46.166 303.439 -36.112 299.782 -46.056 306.781 -46.166"/></g><g id="edge22" class="edge"><title>PublicRouteTable-&gt;PublicRoute</title><path fill="none" stroke="#000" d="M2503.37,-217.691C2506.35,-217.092 2509.31,-216.525 2512.21,-216 2637.73,-193.274 2674.58,-206.789 2803.18,-180.012"/><polygon fill="#000" stroke="#000" points="2803.95 -183.425 2813.01 -177.924 2802.5 -176.578 2803.95 -183.425"/></g><g id="edge64" class="edge"><title>PublicRouteTable-&gt;PublicSubnetRouteTableAssociation</title><path fill="none" stroke="#000" d="M2494.45,-215.924C2526.02,-205.953 2565.4,-193.519 2598.38,-183.104"/><polygon fill="#000" stroke="#000" points="2599.46 -186.432 2607.94 -180.083 2597.35 -179.757 2599.46 -186.432"/></g><g id="node25" class="node"><title>NATIPAddress</title><polygon fill="none" stroke="#000" points="3117.21 -108 3005.21 -108 3005.21 -72 3117.21 -72 3117.21 -108"/><text x="3061.21" y="-86.4" font-family="Times Roman,serif" font-size="14" text-anchor="middle">NATIPAddress</text></g><g id="edge30" class="edge"><title>PublicNetworkAcl-&gt;PublicSubnetNetworkAclAssociation</title><path fill="none" stroke="#000" d="M1291.48,-150.352C1355.66,-139.401 1453.02,-122.791 1529.35,-109.766"/><polygon fill="#000" stroke="#000" points="1530.24 -113.167 1539.5 -108.035 1529.06 -106.266 1530.24 -113.167"/></g><g id="edge60" class="edge"><title>PublicNetworkAcl-&gt;InboundHTTPPublicNetworkAclEntry</title><path fill="none" stroke="#000" d="M1155.09,-156.835C1043.69,-148.204 815.307,-129.738 611.529,-108.122"/><polygon fill="#000" stroke="#000" points="611.852 -104.636 601.538 -107.057 611.111 -111.597 611.852 -104.636"/></g><g id="edge66" class="edge"><title>PublicNetworkAcl-&gt;InboundHTTPSPublicNetworkAclEntry</title><path fill="none" stroke="#000" d="M1155.09,-151.453C1084.29,-140.49 971.838,-123.078 884.682,-109.583"/><polygon fill="#000" stroke="#000" points="885.14 -106.112 874.722 -108.041 884.069 -113.03 885.14 -106.112"/></g><g id="edge68" class="edge"><title>PublicNetworkAcl-&gt;InboundEmphemeralPublicNetworkAclEntry</title><path fill="none" stroke="#000" d="M1185.61,-143.831C1165.86,-134.287 1141.48,-122.506 1120.57,-112.401"/><polygon fill="#000" stroke="#000" points="1122.06 -109.238 1111.54 -108.038 1119.02 -115.54 1122.06 -109.238"/></g><g id="edge70" class="edge"><title>PublicNetworkAcl-&gt;InboundSSHPublicNetworkAclEntry</title><path fill="none" stroke="#000" d="M1155.19,-158.877C1005.08,-151.772 634.152,-133.058 324.207,-108 312.422,-107.047 300.203,-105.977 287.944,-104.845"/><polygon fill="#000" stroke="#000" points="287.928 -101.329 277.646 -103.882 287.276 -108.298 287.928 -101.329"/></g><g id="edge80" class="edge"><title>PublicNetworkAcl-&gt;OutboundPublicNetworkAclEntry</title><path fill="none" stroke="#000" d="M1261.06,-143.831C1280.94,-134.287 1305.49,-122.506 1326.54,-112.401"/><polygon fill="#000" stroke="#000" points="1328.13 -115.521 1335.63 -108.038 1325.1 -109.21 1328.13 -115.521"/></g><g id="edge50" class="edge"><title>NATDevice-&gt;PrivateRoute</title><path fill="none" stroke="#000" d="M2974.09,-143.831C2953.46,-134.245 2927.96,-122.401 2906.14,-112.266"/><polygon fill="#000" stroke="#000" points="2907.58 -109.077 2897.04 -108.038 2904.63 -115.425 2907.58 -109.077"/></g><g id="edge90" class="edge"><title>NATDevice-&gt;NATIPAddress</title><path fill="none" stroke="#000" d="M3025.32,-143.831C3030.74,-135.708 3037.23,-125.964 3043.2,-117.012"/><polygon fill="#000" stroke="#000" points="3046.3 -118.675 3048.93 -108.413 3040.47 -114.792 3046.3 -118.675"/></g><g id="node30" class="node"><title>NATInstanceType</title><polygon fill="#d3d3d3" stroke="#d3d3d3" points="3032.21 -468 2922.21 -468 2910.21 -456 2910.21 -444 2922.21 -432 3032.21 -432 3044.21 -444 3044.21 -456 3032.21 -468"/><path fill="#d3d3d3" stroke="#d3d3d3" d="M2922.21,-468C2916.21,-468 2910.21,-462 2910.21,-456"/><path fill="#d3d3d3" stroke="#d3d3d3" d="M2910.21,-444C2910.21,-438 2916.21,-432 2922.21,-432"/><path fill="#d3d3d3" stroke="#d3d3d3" d="M3032.21,-432C3038.21,-432 3044.21,-438 3044.21,-444"/><path fill="#d3d3d3" stroke="#d3d3d3" d="M3044.21,-456C3044.21,-462 3038.21,-468 3032.21,-468"/><polyline fill="none" stroke="#000" points="3032.21 -468 2922.21 -468"/><path fill="none" stroke="#000" d="M2922.21,-468C2916.21,-468 2910.21,-462 2910.21,-456"/><polyline fill="none" stroke="#000" points="2910.21 -456 2910.21 -444"/><path fill="none" stroke="#000" d="M2910.21,-444C2910.21,-438 2916.21,-432 2922.21,-432"/><polyline fill="none" stroke="#000" points="2922.21 -432 3032.21 -432"/><path fill="none" stroke="#000" d="M3032.21,-432C3038.21,-432 3044.21,-438 3044.21,-444"/><polyline fill="none" stroke="#000" points="3044.21 -444 3044.21 -456"/><path fill="none" stroke="#000" d="M3044.21,-456C3044.21,-462 3038.21,-468 3032.21,-468"/><text x="2977.21" y="-446.4" font-family="Times Roman,serif" font-size="14" text-anchor="middle">NATInstanceType</text></g><g id="edge102" class="edge"><title>NATInstanceType-&gt;NATDevice</title><path fill="none" stroke="#000" d="M2977.3,-431.905C2977.81,-392.358 2980.69,-295.404 2996.21,-216 2997.9,-207.359 3000.48,-198.154 3003.14,-189.837"/><polygon fill="#000" stroke="#000" points="3006.5 -190.824 3006.35 -180.23 2999.86 -188.606 3006.5 -190.824"/></g><g id="node31" class="node"><title>KeyName</title><polygon fill="#d3d3d3" stroke="#d3d3d3" points="3311.21 -468 3255.21 -468 3243.21 -456 3243.21 -444 3255.21 -432 3311.21 -432 3323.21 -444 3323.21 -456 3311.21 -468"/><path fill="#d3d3d3" stroke="#d3d3d3" d="M3255.21,-468C3249.21,-468 3243.21,-462 3243.21,-456"/><path fill="#d3d3d3" stroke="#d3d3d3" d="M3243.21,-444C3243.21,-438 3249.21,-432 3255.21,-432"/><path fill="#d3d3d3" stroke="#d3d3d3" d="M3311.21,-432C3317.21,-432 3323.21,-438 3323.21,-444"/><path fill="#d3d3d3" stroke="#d3d3d3" d="M3323.21,-456C3323.21,-462 3317.21,-468 3311.21,-468"/><polyline fill="none" stroke="#000" points="3311.21 -468 3255.21 -468"/><path fill="none" stroke="#000" d="M3255.21,-468C3249.21,-468 3243.21,-462 3243.21,-456"/><polyline fill="none" stroke="#000" points="3243.21 -456 3243.21 -444"/><path fill="none" stroke="#000" d="M3243.21,-444C3243.21,-438 3249.21,-432 3255.21,-432"/><polyline fill="none" stroke="#000" points="3255.21 -432 3311.21 -432"/><path fill="none" stroke="#000" d="M3311.21,-432C3317.21,-432 3323.21,-438 3323.21,-444"/><polyline fill="none" stroke="#000" points="3323.21 -444 3323.21 -456"/><path fill="none" stroke="#000" d="M3323.21,-456C3323.21,-462 3317.21,-468 3311.21,-468"/><text x="3283.21" y="-446.4" font-family="Times Roman,serif" font-size="14" text-anchor="middle">KeyName</text></g><g id="edge6" class="edge"><title>KeyName-&gt;BastionHost</title><path fill="none" stroke="#000" d="M3274.64,-431.984C3251.38,-383.092 3186.96,-247.679 3159.21,-189.33"/><polygon fill="#000" stroke="#000" points="3162.23 -187.536 3154.77 -180.009 3155.91 -190.543 3162.23 -187.536"/></g><g id="node32" class="node"><title>SSHFrom</title><polygon fill="#d3d3d3" stroke="#d3d3d3" points="104.207 -468 48.207 -468 36.207 -456 36.207 -444 48.207 -432 104.207 -432 116.207 -444 116.207 -456 104.207 -468"/><path fill="#d3d3d3" stroke="#d3d3d3" d="M48.2073,-468C42.2073,-468 36.2073,-462 36.2073,-456"/><path fill="#d3d3d3" stroke="#d3d3d3" d="M36.2073,-444C36.2073,-438 42.2073,-432 48.2073,-432"/><path fill="#d3d3d3" stroke="#d3d3d3" d="M104.207,-432C110.207,-432 116.207,-438 116.207,-444"/><path fill="#d3d3d3" stroke="#d3d3d3" d="M116.207,-456C116.207,-462 110.207,-468 104.207,-468"/><polyline fill="none" stroke="#000" points="104.207 -468 48.207 -468"/><path fill="none" stroke="#000" d="M48.2073,-468C42.2073,-468 36.2073,-462 36.2073,-456"/><polyline fill="none" stroke="#000" points="36.207 -456 36.207 -444"/><path fill="none" stroke="#000" d="M36.2073,-444C36.2073,-438 42.2073,-432 48.2073,-432"/><polyline fill="none" stroke="#000" points="48.207 -432 104.207 -432"/><path fill="none" stroke="#000" d="M104.207,-432C110.207,-432 116.207,-438 116.207,-444"/><polyline fill="none" stroke="#000" points="116.207 -444 116.207 -456"/><path fill="none" stroke="#000" d="M116.207,-456C116.207,-462 110.207,-468 104.207,-468"/><text x="76.207" y="-446.4" font-family="Times Roman,serif" font-size="14" text-anchor="middle">SSHFrom</text></g><g id="edge72" class="edge"><title>SSHFrom-&gt;InboundSSHPublicNetworkAclEntry</title><path fill="none" stroke="#000" d="M65.5751,-431.584C51.1638,-404.838 27.2073,-353.27 27.2073,-306 27.2073,-306 27.2073,-306 27.2073,-234 27.2073,-182.249 73.5119,-139.227 108.594,-114.058"/><polygon fill="#000" stroke="#000" points="111.023 -116.631 117.236 -108.049 107.027 -110.884 111.023 -116.631"/></g><g id="edge82" class="edge"><title>SSHFrom-&gt;BastionSecurityGroup</title><path fill="none" stroke="#000" d="M116.275,-442.565C280.713,-412.05 906.379,-295.948 1146.03,-251.476"/><polygon fill="#000" stroke="#000" points="1146.92 -254.87 1156.12 -249.604 1145.65 -247.988 1146.92 -254.87"/></g><g id="node33" class="node"><title>BastionInstanceType</title><polygon fill="#d3d3d3" stroke="#d3d3d3" points="3213.21 -468 3079.21 -468 3067.21 -456 3067.21 -444 3079.21 -432 3213.21 -432 3225.21 -444 3225.21 -456 3213.21 -468"/><path fill="#d3d3d3" stroke="#d3d3d3" d="M3079.21,-468C3073.21,-468 3067.21,-462 3067.21,-456"/><path fill="#d3d3d3" stroke="#d3d3d3" d="M3067.21,-444C3067.21,-438 3073.21,-432 3079.21,-432"/><path fill="#d3d3d3" stroke="#d3d3d3" d="M3213.21,-432C3219.21,-432 3225.21,-438 3225.21,-444"/><path fill="#d3d3d3" stroke="#d3d3d3" d="M3225.21,-456C3225.21,-462 3219.21,-468 3213.21,-468"/><polyline fill="none" stroke="#000" points="3213.21 -468 3079.21 -468"/><path fill="none" stroke="#000" d="M3079.21,-468C3073.21,-468 3067.21,-462 3067.21,-456"/><polyline fill="none" stroke="#000" points="3067.21 -456 3067.21 -444"/><path fill="none" stroke="#000" d="M3067.21,-444C3067.21,-438 3073.21,-432 3079.21,-432"/><polyline fill="none" stroke="#000" points="3079.21 -432 3213.21 -432"/><path fill="none" stroke="#000" d="M3213.21,-432C3219.21,-432 3225.21,-438 3225.21,-444"/><polyline fill="none" stroke="#000" points="3225.21 -444 3225.21 -456"/><path fill="none" stroke="#000" d="M3225.21,-456C3225.21,-462 3219.21,-468 3213.21,-468"/><text x="3146.21" y="-446.4" font-family="Times Roman,serif" font-size="14" text-anchor="middle">BastionInstanceType</text></g><g id="edge8" class="edge"><title>BastionInstanceType-&gt;BastionHost</title><path fill="none" stroke="#000" d="M3142.72,-431.984C3138.62,-383.294 3138.38,-248.796 3142,-190.057"/><polygon fill="#000" stroke="#000" points="3145.5 -190.234 3142.72 -180.009 3138.52 -189.733 3145.5 -190.234"/></g><g id="edge14" class="edge"><title>BastionInstanceType-&gt;BastionHost</title><path fill="none" stroke="#000" d="M3149.69,-431.984C3153.79,-383.294 3154.03,-248.796 3150.41,-190.057"/><polygon fill="#000" stroke="#000" points="3153.9 -189.733 3149.69 -180.009 3146.92 -190.234 3153.9 -189.733"/></g><g id="node42" class="node"><title>AWS::Region</title><polygon fill="none" stroke="#000" points="3109.21 -252 3005.21 -252 3005.21 -216 3109.21 -216 3109.21 -252"/><text x="3057.21" y="-230.4" font-family="Times Roman,serif" font-size="14" text-anchor="middle">AWS::Region</text></g><g id="edge12" class="edge"><title>AWS::Region-&gt;BastionHost</title><path fill="none" stroke="#000" d="M3079.67,-215.831C3090.63,-206.963 3103.98,-196.164 3115.83,-186.572"/><polygon fill="#000" stroke="#000" points="3118.18 -189.173 3123.76 -180.163 3113.78 -183.731 3118.18 -189.173"/></g><g id="edge104" class="edge"><title>AWS::Region-&gt;NATDevice</title><path fill="none" stroke="#000" d="M3046.1,-215.831C3041.14,-207.708 3035.19,-197.964 3029.71,-189.012"/><polygon fill="#000" stroke="#000" points="3032.66 -187.121 3024.46 -180.413 3026.69 -190.771 3032.66 -187.121"/></g><g id="node50" class="node"><title>AWS::StackName</title><polygon fill="none" stroke="#000" points="2290.21 -396 2154.21 -396 2154.21 -360 2290.21 -360 2290.21 -396"/><text x="2222.21" y="-374.4" font-family="Times Roman,serif" font-size="14" text-anchor="middle">AWS::StackName</text></g><g id="edge26" class="edge"><title>AWS::StackName-&gt;PublicSubnet</title><path fill="none" stroke="#000" d="M2290.36,-377.29C2429.1,-374.991 2739.43,-365.252 2836.21,-324 2892.13,-300.163 2939.21,-294.791 2939.21,-234 2939.21,-234 2939.21,-234 2939.21,-162 2939.21,-121.118 2940.92,-107.249 2920.21,-72 2913.65,-60.8319 2903.95,-50.7964 2894.16,-42.4938"/><polygon fill="#000" stroke="#000" points="2896.33 -39.753 2886.35 -36.218 2891.95 -45.21 2896.33 -39.753"/></g><g id="edge32" class="edge"><title>AWS::StackName-&gt;InternetGateway</title><path fill="none" stroke="#000" d="M2290.22,-368.881C2390.01,-355.501 2575.65,-330.611 2680.97,-316.49"/><polygon fill="#000" stroke="#000" points="2681.46 -319.956 2690.9 -315.158 2680.53 -313.018 2681.46 -319.956"/></g><g id="edge36" class="edge"><title>AWS::StackName-&gt;PrivateRouteTable</title><path fill="none" stroke="#000" d="M2229.81,-359.762C2240.13,-334.985 2258.68,-290.471 2270.71,-261.594"/><polygon fill="#000" stroke="#000" points="2274.05 -262.667 2274.67 -252.09 2267.59 -259.974 2274.05 -262.667"/></g><g id="edge48" class="edge"><title>AWS::StackName-&gt;PrivateNetworkAcl</title><path fill="none" stroke="#000" d="M2189.07,-359.813C2174.69,-350.603 2158.58,-338.328 2147.21,-324 2114.86,-283.233 2096.66,-224.258 2088.18,-189.851"/><polygon fill="#000" stroke="#000" points="2091.56 -188.937 2085.86 -180.009 2084.75 -190.545 2091.56 -188.937"/></g><g id="edge58" class="edge"><title>AWS::StackName-&gt;PrivateSubnet</title><path fill="none" stroke="#000" d="M2154.08,-374.972C1797.21,-358.432 154.202,-273.615 8.20734,-108 -2.37307,-95.9977 -2.99486,-83.4241 8.20734,-72 43.9018,-35.5984 1792.42,-40.4521 1843.21,-36 1858.48,-34.6609 1874.81,-32.5343 1890.21,-30.2046"/><polygon fill="#000" stroke="#000" points="1890.84 -33.649 1900.19 -28.651 1889.77 -26.732 1890.84 -33.649"/></g><g id="edge74" class="edge"><title>AWS::StackName-&gt;VPC</title><path fill="none" stroke="#000" d="M2212.37,-359.831C2208.01,-351.792 2202.8,-342.167 2197.99,-333.292"/><polygon fill="#000" stroke="#000" points="2201.02 -331.539 2193.18 -324.413 2194.87 -334.873 2201.02 -331.539"/></g><g id="edge88" class="edge"><title>AWS::StackName-&gt;PublicRouteTable</title><path fill="none" stroke="#000" d="M2249.44,-359.762C2288.13,-333.849 2359.05,-286.348 2401.79,-257.724"/><polygon fill="#000" stroke="#000" points="2403.84 -260.562 2410.2 -252.09 2399.94 -254.746 2403.84 -260.562"/></g><g id="edge94" class="edge"><title>AWS::StackName-&gt;PublicNetworkAcl</title><path fill="none" stroke="#000" d="M2154.16,-366.562C2034.38,-346.075 1778.28,-300.685 1564.21,-252 1471.17,-230.84 1365.04,-202.092 1296.24,-182.834"/><polygon fill="#000" stroke="#000" points="1296.94 -179.395 1286.36 -180.064 1295.04 -186.135 1296.94 -179.395"/></g></g></svg>