<svg xmlns="http://www.w3.org/2000/svg" xmlns:xlink="http://www.w3.org/1999/xlink" width="278pt" height="116pt" viewBox="0 0 278 116"><g id="graph1" class="graph" transform="scale(1 1) rotate(0) translate(4 112)"><title>AWS CloudFormation Sample Template Mutually_Referencing_EC2_Security_Groups: Sample template showing how to create 2 EC2 security groups that mutually reference each other</title><polygon fill="#fff" stroke="#fff" points="-4 5 -4 -112 275 -112 275 5 -4 5"/><g id="node1" class="node"><title>SGroup2Ingress</title><polygon fill="none" stroke="#000" points="126 -36 0 -36 0 0 126 0 126 -36"/><text x="63" y="-14.4" font-family="Times Roman,serif" font-size="14" text-anchor="middle">SGroup2Ingress</text></g><g id="node2" class="node"><title>SGroup1Ingress</title><polygon fill="none" stroke="#000" points="270 -36 144 -36 144 0 270 0 270 -36"/><text x="207" y="-14.4" font-family="Times Roman,serif" font-size="14" text-anchor="middle">SGroup1Ingress</text></g><g id="node3" class="node"><title>SGroup2</title><polygon fill="none" stroke="#000" points="113 -108 37 -108 37 -72 113 -72 113 -108"/><text x="75" y="-86.4" font-family="Times Roman,serif" font-size="14" text-anchor="middle">SGroup2</text></g><g id="edge2" class="edge"><title>SGroup2-&gt;SGroup2Ingress</title><path fill="none" stroke="#000" d="M71.9719,-71.8314C70.6885,-64.131 69.1624,-54.9743 67.7361,-46.4166"/><polygon fill="#000" stroke="#000" points="71.165 -45.702 66.069 -36.413 64.261 -46.853 71.165 -45.702"/></g><g id="edge8" class="edge"><title>SGroup2-&gt;SGroup1Ingress</title><path fill="none" stroke="#000" d="M108.309,-71.8314C125.427,-62.4942 146.471,-51.016 164.722,-41.0606"/><polygon fill="#000" stroke="#000" points="166.599 -44.024 173.701 -36.163 163.247 -37.879 166.599 -44.024"/></g><g id="node4" class="node"><title>SGroup1</title><polygon fill="none" stroke="#000" points="232 -108 156 -108 156 -72 232 -72 232 -108"/><text x="194" y="-86.4" font-family="Times Roman,serif" font-size="14" text-anchor="middle">SGroup1</text></g><g id="edge4" class="edge"><title>SGroup1-&gt;SGroup2Ingress</title><path fill="none" stroke="#000" d="M160.943,-71.8314C144.032,-62.5368 123.261,-51.1208 105.206,-41.1971"/><polygon fill="#000" stroke="#000" points="106.496 -37.912 96.046 -36.163 103.124 -44.047 106.496 -37.912"/></g><g id="edge6" class="edge"><title>SGroup1-&gt;SGroup1Ingress</title><path fill="none" stroke="#000" d="M197.28,-71.8314C198.671,-64.131 200.324,-54.9743 201.869,-46.4166"/><polygon fill="#000" stroke="#000" points="205.343 -46.876 203.675 -36.413 198.454 -45.632 205.343 -46.876"/></g></g></svg>