<svg xmlns="http://www.w3.org/2000/svg" xmlns:xlink="http://www.w3.org/1999/xlink" width="456" height="188pt" viewBox="0 0 342 188"><g id="graph1" class="graph" transform="scale(1 1) rotate(0) translate(4 184)"><title>AWS CloudFormation Sample Template RDS_with_DBParameterGroup: Sample template showing how to create an Amazon RDS Database Instance with a DBParameterGroup.**WARNING** This template creates an Amazon Relational Database Service database instance. You will be billed for the AWS resources used if you create a stack from this template.</title><polygon fill="#fff" stroke="#fff" points="-4 5 -4 -184 339 -184 339 5 -4 5"/><g id="node1" class="node"><title>MyRDSParamGroup</title><polygon fill="none" stroke="#000" points="152 -108 0 -108 0 -72 152 -72 152 -108"/><text x="76" y="-86.4" font-family="Times Roman,serif" font-size="14" text-anchor="middle">MyRDSParamGroup</text></g><g id="node2" class="node"><title>MyDB</title><polygon fill="none" stroke="#000" points="209 -36 151 -36 151 0 209 0 209 -36"/><text x="180" y="-14.4" font-family="Times Roman,serif" font-size="14" text-anchor="middle">MyDB</text></g><g id="edge3" class="edge"><title>MyRDSParamGroup-&gt;MyDB</title><path fill="none" stroke="#000" d="M102.244,-71.8314C115.299,-62.7927 131.253,-51.7476 145.305,-42.0198"/><polygon fill="#000" stroke="#000" points="147.535 -44.733 153.765 -36.163 143.551 -38.977 147.535 -44.733"/></g><g id="node4" class="node"><title>DBUser</title><polygon fill="#d3d3d3" stroke="#d3d3d3" points="202 -180 158 -180 146 -168 146 -156 158 -144 202 -144 214 -156 214 -168 202 -180"/><path fill="#d3d3d3" stroke="#d3d3d3" d="M158,-180C152,-180 146,-174 146,-168"/><path fill="#d3d3d3" stroke="#d3d3d3" d="M146,-156C146,-150 152,-144 158,-144"/><path fill="#d3d3d3" stroke="#d3d3d3" d="M202,-144C208,-144 214,-150 214,-156"/><path fill="#d3d3d3" stroke="#d3d3d3" d="M214,-168C214,-174 208,-180 202,-180"/><polyline fill="none" stroke="#000" points="202 -180 158 -180"/><path fill="none" stroke="#000" d="M158,-180C152,-180 146,-174 146,-168"/><polyline fill="none" stroke="#000" points="146 -168 146 -156"/><path fill="none" stroke="#000" d="M146,-156C146,-150 152,-144 158,-144"/><polyline fill="none" stroke="#000" points="158 -144 202 -144"/><path fill="none" stroke="#000" d="M202,-144C208,-144 214,-150 214,-156"/><polyline fill="none" stroke="#000" points="214 -156 214 -168"/><path fill="none" stroke="#000" d="M214,-168C214,-174 208,-180 202,-180"/><text x="180" y="-158.4" font-family="Times Roman,serif" font-size="14" text-anchor="middle">DBUser</text></g><g id="edge5" class="edge"><title>DBUser-&gt;MyDB</title><path fill="none" stroke="#000" d="M180,-143.762C180,-119.201 180,-75.2474 180,-46.3541"/><polygon fill="#000" stroke="#000" points="183.5 -46.09 180 -36.09 176.5 -46.09 183.5 -46.09"/></g><g id="node5" class="node"><title>DBPassword</title><polygon fill="#d3d3d3" stroke="#d3d3d3" points="322 -180 244 -180 232 -168 232 -156 244 -144 322 -144 334 -156 334 -168 322 -180"/><path fill="#d3d3d3" stroke="#d3d3d3" d="M244,-180C238,-180 232,-174 232,-168"/><path fill="#d3d3d3" stroke="#d3d3d3" d="M232,-156C232,-150 238,-144 244,-144"/><path fill="#d3d3d3" stroke="#d3d3d3" d="M322,-144C328,-144 334,-150 334,-156"/><path fill="#d3d3d3" stroke="#d3d3d3" d="M334,-168C334,-174 328,-180 322,-180"/><polyline fill="none" stroke="#000" points="322 -180 244 -180"/><path fill="none" stroke="#000" d="M244,-180C238,-180 232,-174 232,-168"/><polyline fill="none" stroke="#000" points="232 -168 232 -156"/><path fill="none" stroke="#000" d="M232,-156C232,-150 238,-144 244,-144"/><polyline fill="none" stroke="#000" points="244 -144 322 -144"/><path fill="none" stroke="#000" d="M322,-144C328,-144 334,-150 334,-156"/><polyline fill="none" stroke="#000" points="334 -156 334 -168"/><path fill="none" stroke="#000" d="M334,-168C334,-174 328,-180 322,-180"/><text x="283" y="-158.4" font-family="Times Roman,serif" font-size="14" text-anchor="middle">DBPassword</text></g><g id="edge7" class="edge"><title>DBPassword-&gt;MyDB</title><path fill="none" stroke="#000" d="M269.955,-143.762C252,-118.66 219.556,-73.3017 198.931,-44.4671"/><polygon fill="#000" stroke="#000" points="201.604 -42.187 192.939 -36.09 195.91 -46.259 201.604 -42.187"/></g></g></svg>