<svg xmlns="http://www.w3.org/2000/svg" xmlns:xlink="http://www.w3.org/1999/xlink" width="610pt" height="188pt" viewBox="0 0 610 188"><g id="graph1" class="graph" transform="scale(1 1) rotate(0) translate(4 184)"><title>AWS CloudFormation Sample Template RDS_MySQL_55_With_Tags: Sample template showing how to create an RDS DBInstance version 5.5 with tags and alarming on important metrics that indicate the health of the database **WARNING** This template creates an Amazon Relational Database Service database instance and Amazon CloudWatch alarms. You will be billed for the AWS resources used if you create a stack from this template.</title><polygon fill="#fff" stroke="#fff" points="-4 5 -4 -184 607 -184 607 5 -4 5"/><g id="node1" class="node"><title>MyDB</title><polygon fill="none" stroke="#000" points="366 -108 308 -108 308 -72 366 -72 366 -108"/><text x="337" y="-86.4" font-family="Times Roman,serif" font-size="14" text-anchor="middle">MyDB</text></g><g id="node9" class="node"><title>JDBCConnectionString</title><polygon fill="#d3d3d3" stroke="#d3d3d3" points="561 -36 413 -36 401 -24 401 -12 413 0 561 0 573 -12 573 -24 561 -36"/><path fill="#d3d3d3" stroke="#d3d3d3" d="M413,-36C407,-36 401,-30 401,-24"/><path fill="#d3d3d3" stroke="#d3d3d3" d="M401,-12C401,-6 407,-1.72678e-14 413,-1.67721e-14"/><path fill="#d3d3d3" stroke="#d3d3d3" d="M561,-4.54417e-15C567,-4.04844e-15 573,-6 573,-12"/><path fill="#d3d3d3" stroke="#d3d3d3" d="M573,-24C573,-30 567,-36 561,-36"/><polyline fill="none" stroke="#000" points="561 -36 413 -36"/><path fill="none" stroke="#000" d="M413,-36C407,-36 401,-30 401,-24"/><polyline fill="none" stroke="#000" points="401 -24 401 -12"/><path fill="none" stroke="#000" d="M401,-12C401,-6 407,-1.72678e-14 413,-1.67721e-14"/><polyline fill="none" stroke="#000" points="413 0 561 0"/><path fill="none" stroke="#000" d="M561,-4.54417e-15C567,-4.04844e-15 573,-6 573,-12"/><polyline fill="none" stroke="#000" points="573 -12 573 -24"/><path fill="none" stroke="#000" d="M573,-24C573,-30 567,-36 561,-36"/><text x="487" y="-14.4" font-family="Times Roman,serif" font-size="14" text-anchor="middle">JDBCConnectionString</text></g><g id="edge14" class="edge"><title>MyDB-&gt;JDBCConnectionString</title><path fill="none" stroke="#000" d="M366.348,-73.1192C385.691,-63.3288 411.467,-50.8807 434.263,-40.2924"/><polygon fill="#000" stroke="#000" points="435.878 -43.402 443.491 -36.034 432.944 -37.046 435.878 -43.402"/></g><g id="edge16" class="edge"><title>MyDB-&gt;JDBCConnectionString</title><path fill="none" stroke="#000" d="M366.215,-78.432C389.113,-68.2357 421.068,-53.0886 446.414,-40.5101"/><polygon fill="#000" stroke="#000" points="448.044 -43.608 455.424 -36.006 444.914 -37.347 448.044 -43.608"/></g><g id="node10" class="node"><title>DBPort</title><polygon fill="#d3d3d3" stroke="#d3d3d3" points="261 -36 219 -36 207 -24 207 -12 219 0 261 0 273 -12 273 -24 261 -36"/><path fill="#d3d3d3" stroke="#d3d3d3" d="M219,-36C213,-36 207,-30 207,-24"/><path fill="#d3d3d3" stroke="#d3d3d3" d="M207,-12C207,-6 213,-1.64717e-14 219,-1.51798e-14"/><path fill="#d3d3d3" stroke="#d3d3d3" d="M261,-6.13651e-15C267,-4.84461e-15 273,-6 273,-12"/><path fill="#d3d3d3" stroke="#d3d3d3" d="M273,-24C273,-30 267,-36 261,-36"/><polyline fill="none" stroke="#000" points="261 -36 219 -36"/><path fill="none" stroke="#000" d="M219,-36C213,-36 207,-30 207,-24"/><polyline fill="none" stroke="#000" points="207 -24 207 -12"/><path fill="none" stroke="#000" d="M207,-12C207,-6 213,-1.64717e-14 219,-1.51798e-14"/><polyline fill="none" stroke="#000" points="219 0 261 0"/><path fill="none" stroke="#000" d="M261,-6.13651e-15C267,-4.84461e-15 273,-6 273,-12"/><polyline fill="none" stroke="#000" points="273 -12 273 -24"/><path fill="none" stroke="#000" d="M273,-24C273,-30 267,-36 261,-36"/><text x="240" y="-14.4" font-family="Times Roman,serif" font-size="14" text-anchor="middle">DBPort</text></g><g id="edge20" class="edge"><title>MyDB-&gt;DBPort</title><path fill="none" stroke="#000" d="M312.523,-71.8314C300.461,-62.8779 285.746,-51.9558 272.731,-42.2955"/><polygon fill="#000" stroke="#000" points="274.585 -39.313 264.469 -36.163 270.413 -44.934 274.585 -39.313"/></g><g id="node11" class="node"><title>DBAddress</title><polygon fill="#d3d3d3" stroke="#d3d3d3" points="371 -36 303 -36 291 -24 291 -12 303 0 371 0 383 -12 383 -24 371 -36"/><path fill="#d3d3d3" stroke="#d3d3d3" d="M303,-36C297,-36 291,-30 291,-24"/><path fill="#d3d3d3" stroke="#d3d3d3" d="M291,-12C291,-6 297,-1.68368e-14 303,-1.591e-14"/><path fill="#d3d3d3" stroke="#d3d3d3" d="M371,-5.4063e-15C377,-4.47951e-15 383,-6 383,-12"/><path fill="#d3d3d3" stroke="#d3d3d3" d="M383,-24C383,-30 377,-36 371,-36"/><polyline fill="none" stroke="#000" points="371 -36 303 -36"/><path fill="none" stroke="#000" d="M303,-36C297,-36 291,-30 291,-24"/><polyline fill="none" stroke="#000" points="291 -24 291 -12"/><path fill="none" stroke="#000" d="M291,-12C291,-6 297,-1.68368e-14 303,-1.591e-14"/><polyline fill="none" stroke="#000" points="303 0 371 0"/><path fill="none" stroke="#000" d="M371,-5.4063e-15C377,-4.47951e-15 383,-6 383,-12"/><polyline fill="none" stroke="#000" points="383 -12 383 -24"/><path fill="none" stroke="#000" d="M383,-24C383,-30 377,-36 371,-36"/><text x="337" y="-14.4" font-family="Times Roman,serif" font-size="14" text-anchor="middle">DBAddress</text></g><g id="edge22" class="edge"><title>MyDB-&gt;DBAddress</title><path fill="none" stroke="#000" d="M337,-71.8314C337,-64.131 337,-54.9743 337,-46.4166"/><polygon fill="#000" stroke="#000" points="340.5 -46.413 337 -36.413 333.5 -46.413 340.5 -46.413"/></g><g id="node3" class="node"><title>DBUser</title><polygon fill="#d3d3d3" stroke="#d3d3d3" points="56 -180 12 -180 0 -168 0 -156 12 -144 56 -144 68 -156 68 -168 56 -180"/><path fill="#d3d3d3" stroke="#d3d3d3" d="M12,-180C6,-180 2.96059e-14,-174 2.36848e-14,-168"/><path fill="#d3d3d3" stroke="#d3d3d3" d="M1.18424e-14,-156C5.92119e-15,-150 6,-144 12,-144"/><path fill="#d3d3d3" stroke="#d3d3d3" d="M56,-144C62,-144 68,-150 68,-156"/><path fill="#d3d3d3" stroke="#d3d3d3" d="M68,-168C68,-174 62,-180 56,-180"/><polyline fill="none" stroke="#000" points="56 -180 12 -180"/><path fill="none" stroke="#000" d="M12,-180C6,-180 2.96059e-14,-174 2.36848e-14,-168"/><polyline fill="none" stroke="#000" points="0 -168 0 -156"/><path fill="none" stroke="#000" d="M1.18424e-14,-156C5.92119e-15,-150 6,-144 12,-144"/><polyline fill="none" stroke="#000" points="12 -144 56 -144"/><path fill="none" stroke="#000" d="M56,-144C62,-144 68,-150 68,-156"/><polyline fill="none" stroke="#000" points="68 -156 68 -168"/><path fill="none" stroke="#000" d="M68,-168C68,-174 62,-180 56,-180"/><text x="34" y="-158.4" font-family="Times Roman,serif" font-size="14" text-anchor="middle">DBUser</text></g><g id="edge4" class="edge"><title>DBUser-&gt;MyDB</title><path fill="none" stroke="#000" d="M68.0487,-147.053C71.0498,-145.947 74.0626,-144.911 77,-144 153.626,-120.246 246.211,-103.834 297.655,-95.7591"/><polygon fill="#000" stroke="#000" points="298.336 -99.196 307.684 -94.209 297.266 -92.278 298.336 -99.196"/></g><g id="node4" class="node"><title>DBInstanceClass</title><polygon fill="#d3d3d3" stroke="#d3d3d3" points="204 -180 98 -180 86 -168 86 -156 98 -144 204 -144 216 -156 216 -168 204 -180"/><path fill="#d3d3d3" stroke="#d3d3d3" d="M98,-180C92,-180 86,-174 86,-168"/><path fill="#d3d3d3" stroke="#d3d3d3" d="M86,-156C86,-150 92,-144 98,-144"/><path fill="#d3d3d3" stroke="#d3d3d3" d="M204,-144C210,-144 216,-150 216,-156"/><path fill="#d3d3d3" stroke="#d3d3d3" d="M216,-168C216,-174 210,-180 204,-180"/><polyline fill="none" stroke="#000" points="204 -180 98 -180"/><path fill="none" stroke="#000" d="M98,-180C92,-180 86,-174 86,-168"/><polyline fill="none" stroke="#000" points="86 -168 86 -156"/><path fill="none" stroke="#000" d="M86,-156C86,-150 92,-144 98,-144"/><polyline fill="none" stroke="#000" points="98 -144 204 -144"/><path fill="none" stroke="#000" d="M204,-144C210,-144 216,-150 216,-156"/><polyline fill="none" stroke="#000" points="216 -156 216 -168"/><path fill="none" stroke="#000" d="M216,-168C216,-174 210,-180 204,-180"/><text x="151" y="-158.4" font-family="Times Roman,serif" font-size="14" text-anchor="middle">DBInstanceClass</text></g><g id="edge10" class="edge"><title>DBInstanceClass-&gt;MyDB</title><path fill="none" stroke="#000" d="M197.936,-143.831C228.973,-131.817 269.168,-116.258 298.356,-104.959"/><polygon fill="#000" stroke="#000" points="299.741 -108.176 307.803 -101.302 297.214 -101.648 299.741 -108.176"/></g><g id="node5" class="node"><title>DBName</title><polygon fill="#d3d3d3" stroke="#d3d3d3" points="590 -180 538 -180 526 -168 526 -156 538 -144 590 -144 602 -156 602 -168 590 -180"/><path fill="#d3d3d3" stroke="#d3d3d3" d="M538,-180C532,-180 526,-174 526,-168"/><path fill="#d3d3d3" stroke="#d3d3d3" d="M526,-156C526,-150 532,-144 538,-144"/><path fill="#d3d3d3" stroke="#d3d3d3" d="M590,-144C596,-144 602,-150 602,-156"/><path fill="#d3d3d3" stroke="#d3d3d3" d="M602,-168C602,-174 596,-180 590,-180"/><polyline fill="none" stroke="#000" points="590 -180 538 -180"/><path fill="none" stroke="#000" d="M538,-180C532,-180 526,-174 526,-168"/><polyline fill="none" stroke="#000" points="526 -168 526 -156"/><path fill="none" stroke="#000" d="M526,-156C526,-150 532,-144 538,-144"/><polyline fill="none" stroke="#000" points="538 -144 590 -144"/><path fill="none" stroke="#000" d="M590,-144C596,-144 602,-150 602,-156"/><polyline fill="none" stroke="#000" points="602 -156 602 -168"/><path fill="none" stroke="#000" d="M602,-168C602,-174 596,-180 590,-180"/><text x="564" y="-158.4" font-family="Times Roman,serif" font-size="14" text-anchor="middle">DBName</text></g><g id="edge12" class="edge"><title>DBName-&gt;MyDB</title><path fill="none" stroke="#000" d="M525.867,-147.124C522.876,-146.04 519.895,-144.987 517,-144 468.874,-127.591 412.634,-111.148 375.995,-100.793"/><polygon fill="#000" stroke="#000" points="376.778 -97.378 366.204 -98.04 374.883 -104.116 376.778 -97.378"/></g><g id="edge18" class="edge"><title>DBName-&gt;JDBCConnectionString</title><path fill="none" stroke="#000" d="M554.248,-143.762C540.941,-118.876 516.988,-74.0822 501.553,-45.2165"/><polygon fill="#000" stroke="#000" points="504.475 -43.258 496.673 -36.09 498.302 -46.559 504.475 -43.258"/></g><g id="node6" class="node"><title>DBAllocatedStorage</title><polygon fill="#d3d3d3" stroke="#d3d3d3" points="376 -180 246 -180 234 -168 234 -156 246 -144 376 -144 388 -156 388 -168 376 -180"/><path fill="#d3d3d3" stroke="#d3d3d3" d="M246,-180C240,-180 234,-174 234,-168"/><path fill="#d3d3d3" stroke="#d3d3d3" d="M234,-156C234,-150 240,-144 246,-144"/><path fill="#d3d3d3" stroke="#d3d3d3" d="M376,-144C382,-144 388,-150 388,-156"/><path fill="#d3d3d3" stroke="#d3d3d3" d="M388,-168C388,-174 382,-180 376,-180"/><polyline fill="none" stroke="#000" points="376 -180 246 -180"/><path fill="none" stroke="#000" d="M246,-180C240,-180 234,-174 234,-168"/><polyline fill="none" stroke="#000" points="234 -168 234 -156"/><path fill="none" stroke="#000" d="M234,-156C234,-150 240,-144 246,-144"/><polyline fill="none" stroke="#000" points="246 -144 376 -144"/><path fill="none" stroke="#000" d="M376,-144C382,-144 388,-150 388,-156"/><polyline fill="none" stroke="#000" points="388 -156 388 -168"/><path fill="none" stroke="#000" d="M388,-168C388,-174 382,-180 376,-180"/><text x="311" y="-158.4" font-family="Times Roman,serif" font-size="14" text-anchor="middle">DBAllocatedStorage</text></g><g id="edge8" class="edge"><title>DBAllocatedStorage-&gt;MyDB</title><path fill="none" stroke="#000" d="M317.561,-143.831C320.403,-135.962 323.794,-126.571 326.942,-117.853"/><polygon fill="#000" stroke="#000" points="330.246 -119.008 330.351 -108.413 323.662 -116.63 330.246 -119.008"/></g><g id="node7" class="node"><title>DBPassword</title><polygon fill="#d3d3d3" stroke="#d3d3d3" points="496 -180 418 -180 406 -168 406 -156 418 -144 496 -144 508 -156 508 -168 496 -180"/><path fill="#d3d3d3" stroke="#d3d3d3" d="M418,-180C412,-180 406,-174 406,-168"/><path fill="#d3d3d3" stroke="#d3d3d3" d="M406,-156C406,-150 412,-144 418,-144"/><path fill="#d3d3d3" stroke="#d3d3d3" d="M496,-144C502,-144 508,-150 508,-156"/><path fill="#d3d3d3" stroke="#d3d3d3" d="M508,-168C508,-174 502,-180 496,-180"/><polyline fill="none" stroke="#000" points="496 -180 418 -180"/><path fill="none" stroke="#000" d="M418,-180C412,-180 406,-174 406,-168"/><polyline fill="none" stroke="#000" points="406 -168 406 -156"/><path fill="none" stroke="#000" d="M406,-156C406,-150 412,-144 418,-144"/><polyline fill="none" stroke="#000" points="418 -144 496 -144"/><path fill="none" stroke="#000" d="M496,-144C502,-144 508,-150 508,-156"/><polyline fill="none" stroke="#000" points="508 -156 508 -168"/><path fill="none" stroke="#000" d="M508,-168C508,-174 502,-180 496,-180"/><text x="457" y="-158.4" font-family="Times Roman,serif" font-size="14" text-anchor="middle">DBPassword</text></g><g id="edge6" class="edge"><title>DBPassword-&gt;MyDB</title><path fill="none" stroke="#000" d="M426.719,-143.831C411.019,-134.411 391.686,-122.812 374.993,-112.796"/><polygon fill="#000" stroke="#000" points="376.405 -109.561 366.03 -107.418 372.804 -115.564 376.405 -109.561"/></g></g></svg>