<svg xmlns="http://www.w3.org/2000/svg" xmlns:xlink="http://www.w3.org/1999/xlink" width="1132" height="260pt" viewBox="0 0 849 260"><g id="graph1" class="graph" transform="scale(1 1) rotate(0) translate(4 256)"><title>AWS CloudFormation Sample Template VPC_RDS_DB_Instance: Sample template showing how to create an RDS DBInstance in an existing Virtual Private Cloud (VPC). **WARNING** This template creates an Amazon Relational Database Service database instance. You will be billed for the AWS resources used if you create a stack from this template.</title><polygon fill="#fff" stroke="#fff" points="-4 5 -4 -256 846 -256 846 5 -4 5"/><g id="node1" class="node"><title>MyDB</title><polygon fill="none" stroke="#000" points="420 -108 362 -108 362 -72 420 -72 420 -108"/><text x="391" y="-86.4" font-family="Times Roman,serif" font-size="14" text-anchor="middle">MyDB</text></g><g id="node13" class="node"><title>JDBCConnectionString</title><polygon fill="#d3d3d3" stroke="#d3d3d3" points="465 -36 317 -36 305 -24 305 -12 317 0 465 0 477 -12 477 -24 465 -36"/><path fill="#d3d3d3" stroke="#d3d3d3" d="M317,-36C311,-36 305,-30 305,-24"/><path fill="#d3d3d3" stroke="#d3d3d3" d="M305,-12C305,-6 311,-1.72678e-14 317,-1.67721e-14"/><path fill="#d3d3d3" stroke="#d3d3d3" d="M465,-4.54417e-15C471,-4.04844e-15 477,-6 477,-12"/><path fill="#d3d3d3" stroke="#d3d3d3" d="M477,-24C477,-30 471,-36 465,-36"/><polyline fill="none" stroke="#000" points="465 -36 317 -36"/><path fill="none" stroke="#000" d="M317,-36C311,-36 305,-30 305,-24"/><polyline fill="none" stroke="#000" points="305 -24 305 -12"/><path fill="none" stroke="#000" d="M305,-12C305,-6 311,-1.72678e-14 317,-1.67721e-14"/><polyline fill="none" stroke="#000" points="317 0 465 0"/><path fill="none" stroke="#000" d="M465,-4.54417e-15C471,-4.04844e-15 477,-6 477,-12"/><polyline fill="none" stroke="#000" points="477 -12 477 -24"/><path fill="none" stroke="#000" d="M477,-24C477,-30 471,-36 465,-36"/><text x="391" y="-14.4" font-family="Times Roman,serif" font-size="14" text-anchor="middle">JDBCConnectionString</text></g><g id="edge24" class="edge"><title>MyDB-&gt;JDBCConnectionString</title><path fill="none" stroke="#000" d="M385.048,-71.8314C384.297,-64.131 384.076,-54.9743 384.385,-46.4166"/><polygon fill="#000" stroke="#000" points="387.879 -46.616 385.024 -36.413 380.893 -46.17 387.879 -46.616"/></g><g id="edge22" class="edge"><title>MyDB-&gt;JDBCConnectionString</title><path fill="none" stroke="#000" d="M396.952,-71.8314C397.703,-64.131 397.924,-54.9743 397.615,-46.4166"/><polygon fill="#000" stroke="#000" points="401.107 -46.17 396.976 -36.413 394.121 -46.616 401.107 -46.17"/></g><g id="node2" class="node"><title>MyDBSubnetGroup</title><polygon fill="none" stroke="#000" points="235 -180 85 -180 85 -144 235 -144 235 -180"/><text x="160" y="-158.4" font-family="Times Roman,serif" font-size="14" text-anchor="middle">MyDBSubnetGroup</text></g><g id="edge14" class="edge"><title>MyDBSubnetGroup-&gt;MyDB</title><path fill="none" stroke="#000" d="M217.993,-143.924C259.894,-130.864 315.352,-113.579 352.052,-102.14"/><polygon fill="#000" stroke="#000" points="353.373 -105.394 361.879 -99.077 351.29 -98.711 353.373 -105.394"/></g><g id="node3" class="node"><title>myVPCSecurityGroup</title><polygon fill="none" stroke="#000" points="419 -180 253 -180 253 -144 419 -144 419 -180"/><text x="336" y="-158.4" font-family="Times Roman,serif" font-size="14" text-anchor="middle">myVPCSecurityGroup</text></g><g id="edge8" class="edge"><title>myVPCSecurityGroup-&gt;MyDB</title><path fill="none" stroke="#000" d="M349.879,-143.831C356.214,-135.539 363.838,-125.557 370.793,-116.453"/><polygon fill="#000" stroke="#000" points="373.645 -118.485 376.934 -108.413 368.083 -114.235 373.645 -118.485"/></g><g id="node5" class="node"><title>DBUsername</title><polygon fill="#d3d3d3" stroke="#d3d3d3" points="447 -252 365 -252 353 -240 353 -228 365 -216 447 -216 459 -228 459 -240 447 -252"/><path fill="#d3d3d3" stroke="#d3d3d3" d="M365,-252C359,-252 353,-246 353,-240"/><path fill="#d3d3d3" stroke="#d3d3d3" d="M353,-228C353,-222 359,-216 365,-216"/><path fill="#d3d3d3" stroke="#d3d3d3" d="M447,-216C453,-216 459,-222 459,-228"/><path fill="#d3d3d3" stroke="#d3d3d3" d="M459,-240C459,-246 453,-252 447,-252"/><polyline fill="none" stroke="#000" points="447 -252 365 -252"/><path fill="none" stroke="#000" d="M365,-252C359,-252 353,-246 353,-240"/><polyline fill="none" stroke="#000" points="353 -240 353 -228"/><path fill="none" stroke="#000" d="M353,-228C353,-222 359,-216 365,-216"/><polyline fill="none" stroke="#000" points="365 -216 447 -216"/><path fill="none" stroke="#000" d="M447,-216C453,-216 459,-222 459,-228"/><polyline fill="none" stroke="#000" points="459 -228 459 -240"/><path fill="none" stroke="#000" d="M459,-240C459,-246 453,-252 447,-252"/><text x="406" y="-230.4" font-family="Times Roman,serif" font-size="14" text-anchor="middle">DBUsername</text></g><g id="edge4" class="edge"><title>DBUsername-&gt;MyDB</title><path fill="none" stroke="#000" d="M416.173,-215.895C425.117,-197.594 435.614,-168.584 428,-144 424.956,-134.17 419.436,-124.539 413.573,-116.195"/><polygon fill="#000" stroke="#000" points="416.231 -113.906 407.428 -108.011 410.634 -118.109 416.231 -113.906"/></g><g id="node6" class="node"><title>Subnets</title><polygon fill="#d3d3d3" stroke="#d3d3d3" points="184 -252 136 -252 124 -240 124 -228 136 -216 184 -216 196 -228 196 -240 184 -252"/><path fill="#d3d3d3" stroke="#d3d3d3" d="M136,-252C130,-252 124,-246 124,-240"/><path fill="#d3d3d3" stroke="#d3d3d3" d="M124,-228C124,-222 130,-216 136,-216"/><path fill="#d3d3d3" stroke="#d3d3d3" d="M184,-216C190,-216 196,-222 196,-228"/><path fill="#d3d3d3" stroke="#d3d3d3" d="M196,-240C196,-246 190,-252 184,-252"/><polyline fill="none" stroke="#000" points="184 -252 136 -252"/><path fill="none" stroke="#000" d="M136,-252C130,-252 124,-246 124,-240"/><polyline fill="none" stroke="#000" points="124 -240 124 -228"/><path fill="none" stroke="#000" d="M124,-228C124,-222 130,-216 136,-216"/><polyline fill="none" stroke="#000" points="136 -216 184 -216"/><path fill="none" stroke="#000" d="M184,-216C190,-216 196,-222 196,-228"/><polyline fill="none" stroke="#000" points="196 -228 196 -240"/><path fill="none" stroke="#000" d="M196,-240C196,-246 190,-252 184,-252"/><text x="160" y="-230.4" font-family="Times Roman,serif" font-size="14" text-anchor="middle">Subnets</text></g><g id="edge18" class="edge"><title>Subnets-&gt;MyDBSubnetGroup</title><path fill="none" stroke="#000" d="M160,-215.831C160,-208.131 160,-198.974 160,-190.417"/><polygon fill="#000" stroke="#000" points="163.5 -190.413 160 -180.413 156.5 -190.413 163.5 -190.413"/></g><g id="node7" class="node"><title>VpcId</title><polygon fill="#d3d3d3" stroke="#d3d3d3" points="323 -252 293 -252 281 -240 281 -228 293 -216 323 -216 335 -228 335 -240 323 -252"/><path fill="#d3d3d3" stroke="#d3d3d3" d="M293,-252C287,-252 281,-246 281,-240"/><path fill="#d3d3d3" stroke="#d3d3d3" d="M281,-228C281,-222 287,-216 293,-216"/><path fill="#d3d3d3" stroke="#d3d3d3" d="M323,-216C329,-216 335,-222 335,-228"/><path fill="#d3d3d3" stroke="#d3d3d3" d="M335,-240C335,-246 329,-252 323,-252"/><polyline fill="none" stroke="#000" points="323 -252 293 -252"/><path fill="none" stroke="#000" d="M293,-252C287,-252 281,-246 281,-240"/><polyline fill="none" stroke="#000" points="281 -240 281 -228"/><path fill="none" stroke="#000" d="M281,-228C281,-222 287,-216 293,-216"/><polyline fill="none" stroke="#000" points="293 -216 323 -216"/><path fill="none" stroke="#000" d="M323,-216C329,-216 335,-222 335,-228"/><polyline fill="none" stroke="#000" points="335 -228 335 -240"/><path fill="none" stroke="#000" d="M335,-240C335,-246 329,-252 323,-252"/><text x="308" y="-230.4" font-family="Times Roman,serif" font-size="14" text-anchor="middle">VpcId</text></g><g id="edge20" class="edge"><title>VpcId-&gt;myVPCSecurityGroup</title><path fill="none" stroke="#000" d="M315.066,-215.831C318.126,-207.962 321.778,-198.571 325.168,-189.853"/><polygon fill="#000" stroke="#000" points="328.477 -191.002 328.839 -180.413 321.953 -188.465 328.477 -191.002"/></g><g id="node8" class="node"><title>DBClass</title><polygon fill="#d3d3d3" stroke="#d3d3d3" points="537 -252 489 -252 477 -240 477 -228 489 -216 537 -216 549 -228 549 -240 537 -252"/><path fill="#d3d3d3" stroke="#d3d3d3" d="M489,-252C483,-252 477,-246 477,-240"/><path fill="#d3d3d3" stroke="#d3d3d3" d="M477,-228C477,-222 483,-216 489,-216"/><path fill="#d3d3d3" stroke="#d3d3d3" d="M537,-216C543,-216 549,-222 549,-228"/><path fill="#d3d3d3" stroke="#d3d3d3" d="M549,-240C549,-246 543,-252 537,-252"/><polyline fill="none" stroke="#000" points="537 -252 489 -252"/><path fill="none" stroke="#000" d="M489,-252C483,-252 477,-246 477,-240"/><polyline fill="none" stroke="#000" points="477 -240 477 -228"/><path fill="none" stroke="#000" d="M477,-228C477,-222 483,-216 489,-216"/><polyline fill="none" stroke="#000" points="489 -216 537 -216"/><path fill="none" stroke="#000" d="M537,-216C543,-216 549,-222 549,-228"/><polyline fill="none" stroke="#000" points="549 -228 549 -240"/><path fill="none" stroke="#000" d="M549,-240C549,-246 543,-252 537,-252"/><text x="513" y="-230.4" font-family="Times Roman,serif" font-size="14" text-anchor="middle">DBClass</text></g><g id="edge12" class="edge"><title>DBClass-&gt;MyDB</title><path fill="none" stroke="#000" d="M499.855,-215.969C486.172,-197.476 463.865,-168.09 443,-144 434.612,-134.316 424.986,-124.095 416.315,-115.182"/><polygon fill="#000" stroke="#000" points="418.808 -112.725 409.303 -108.043 413.814 -117.63 418.808 -112.725"/></g><g id="node9" class="node"><title>DBAllocatedStorage</title><polygon fill="#d3d3d3" stroke="#d3d3d3" points="709 -252 579 -252 567 -240 567 -228 579 -216 709 -216 721 -228 721 -240 709 -252"/><path fill="#d3d3d3" stroke="#d3d3d3" d="M579,-252C573,-252 567,-246 567,-240"/><path fill="#d3d3d3" stroke="#d3d3d3" d="M567,-228C567,-222 573,-216 579,-216"/><path fill="#d3d3d3" stroke="#d3d3d3" d="M709,-216C715,-216 721,-222 721,-228"/><path fill="#d3d3d3" stroke="#d3d3d3" d="M721,-240C721,-246 715,-252 709,-252"/><polyline fill="none" stroke="#000" points="709 -252 579 -252"/><path fill="none" stroke="#000" d="M579,-252C573,-252 567,-246 567,-240"/><polyline fill="none" stroke="#000" points="567 -240 567 -228"/><path fill="none" stroke="#000" d="M567,-228C567,-222 573,-216 579,-216"/><polyline fill="none" stroke="#000" points="579 -216 709 -216"/><path fill="none" stroke="#000" d="M709,-216C715,-216 721,-222 721,-228"/><polyline fill="none" stroke="#000" points="721 -228 721 -240"/><path fill="none" stroke="#000" d="M721,-240C721,-246 715,-252 709,-252"/><text x="644" y="-230.4" font-family="Times Roman,serif" font-size="14" text-anchor="middle">DBAllocatedStorage</text></g><g id="edge10" class="edge"><title>DBAllocatedStorage-&gt;MyDB</title><path fill="none" stroke="#000" d="M612.214,-215.908C565.611,-189.383 478.881,-140.019 428.985,-111.62"/><polygon fill="#000" stroke="#000" points="430.537 -108.476 420.114 -106.571 427.074 -114.559 430.537 -108.476"/></g><g id="node10" class="node"><title>DBPassword</title><polygon fill="#d3d3d3" stroke="#d3d3d3" points="829 -252 751 -252 739 -240 739 -228 751 -216 829 -216 841 -228 841 -240 829 -252"/><path fill="#d3d3d3" stroke="#d3d3d3" d="M751,-252C745,-252 739,-246 739,-240"/><path fill="#d3d3d3" stroke="#d3d3d3" d="M739,-228C739,-222 745,-216 751,-216"/><path fill="#d3d3d3" stroke="#d3d3d3" d="M829,-216C835,-216 841,-222 841,-228"/><path fill="#d3d3d3" stroke="#d3d3d3" d="M841,-240C841,-246 835,-252 829,-252"/><polyline fill="none" stroke="#000" points="829 -252 751 -252"/><path fill="none" stroke="#000" d="M751,-252C745,-252 739,-246 739,-240"/><polyline fill="none" stroke="#000" points="739 -240 739 -228"/><path fill="none" stroke="#000" d="M739,-228C739,-222 745,-216 751,-216"/><polyline fill="none" stroke="#000" points="751 -216 829 -216"/><path fill="none" stroke="#000" d="M829,-216C835,-216 841,-222 841,-228"/><polyline fill="none" stroke="#000" points="841 -228 841 -240"/><path fill="none" stroke="#000" d="M841,-240C841,-246 835,-252 829,-252"/><text x="790" y="-230.4" font-family="Times Roman,serif" font-size="14" text-anchor="middle">DBPassword</text></g><g id="edge6" class="edge"><title>DBPassword-&gt;MyDB</title><path fill="none" stroke="#000" d="M739.87,-215.908C659.31,-186.834 502.716,-130.318 429.931,-104.05"/><polygon fill="#000" stroke="#000" points="430.828 -100.653 420.234 -100.551 428.452 -107.238 430.828 -100.653"/></g><g id="node11" class="node"><title>DBName</title><polygon fill="#d3d3d3" stroke="#d3d3d3" points="64 -252 12 -252 0 -240 0 -228 12 -216 64 -216 76 -228 76 -240 64 -252"/><path fill="#d3d3d3" stroke="#d3d3d3" d="M12,-252C6,-252 3.55271e-14,-246 2.84217e-14,-240"/><path fill="#d3d3d3" stroke="#d3d3d3" d="M1.42109e-14,-228C7.10543e-15,-222 6,-216 12,-216"/><path fill="#d3d3d3" stroke="#d3d3d3" d="M64,-216C70,-216 76,-222 76,-228"/><path fill="#d3d3d3" stroke="#d3d3d3" d="M76,-240C76,-246 70,-252 64,-252"/><polyline fill="none" stroke="#000" points="64 -252 12 -252"/><path fill="none" stroke="#000" d="M12,-252C6,-252 3.55271e-14,-246 2.84217e-14,-240"/><polyline fill="none" stroke="#000" points="0 -240 0 -228"/><path fill="none" stroke="#000" d="M1.42109e-14,-228C7.10543e-15,-222 6,-216 12,-216"/><polyline fill="none" stroke="#000" points="12 -216 64 -216"/><path fill="none" stroke="#000" d="M64,-216C70,-216 76,-222 76,-228"/><polyline fill="none" stroke="#000" points="76 -228 76 -240"/><path fill="none" stroke="#000" d="M76,-240C76,-246 70,-252 64,-252"/><text x="38" y="-230.4" font-family="Times Roman,serif" font-size="14" text-anchor="middle">DBName</text></g><g id="edge16" class="edge"><title>DBName-&gt;MyDB</title><path fill="none" stroke="#000" d="M40.4697,-215.684C44.2865,-194.933 53.6752,-161.706 76,-144 118.056,-110.645 276.478,-96.8627 351.344,-92.1206"/><polygon fill="#000" stroke="#000" points="351.991 -95.588 361.76 -91.485 351.565 -88.601 351.991 -95.588"/></g><g id="edge26" class="edge"><title>DBName-&gt;JDBCConnectionString</title><path fill="none" stroke="#000" d="M34.8271,-215.708C32.4705,-195.903 31.9996,-164.417 48,-144 80.4224,-102.627 214.591,-62.0212 305.198,-38.5248"/><polygon fill="#000" stroke="#000" points="306.108 -41.905 314.922 -36.025 304.365 -35.125 306.108 -41.905"/></g></g></svg>