<svg xmlns="http://www.w3.org/2000/svg" xmlns:xlink="http://www.w3.org/1999/xlink" width="196pt" height="116pt" viewBox="0 0 196 116"><g id="graph1" class="graph" transform="scale(1 1) rotate(0) translate(4 112)"><title>AWS CloudFormation Sample Template RDS_PIOPS: Sample template showing how to create an Amazon RDS Database Instance with provisioned IOPs.**WARNING** This template creates an Amazon Relational Database Service database instance. You will be billed for the AWS resources used if you create a stack from this template.</title><polygon fill="#fff" stroke="#fff" points="-4 5 -4 -112 193 -112 193 5 -4 5"/><g id="node1" class="node"><title>MyDB</title><polygon fill="none" stroke="#000" points="114 -36 56 -36 56 0 114 0 114 -36"/><text x="85" y="-14.4" font-family="Times Roman,serif" font-size="14" text-anchor="middle">MyDB</text></g><g id="node3" class="node"><title>DBUser</title><polygon fill="#d3d3d3" stroke="#d3d3d3" points="56 -108 12 -108 0 -96 0 -84 12 -72 56 -72 68 -84 68 -96 56 -108"/><path fill="#d3d3d3" stroke="#d3d3d3" d="M12,-108C6,-108 2.96059e-14,-102 2.36848e-14,-96"/><path fill="#d3d3d3" stroke="#d3d3d3" d="M1.18424e-14,-84C5.92119e-15,-78 6,-72 12,-72"/><path fill="#d3d3d3" stroke="#d3d3d3" d="M56,-72C62,-72 68,-78 68,-84"/><path fill="#d3d3d3" stroke="#d3d3d3" d="M68,-96C68,-102 62,-108 56,-108"/><polyline fill="none" stroke="#000" points="56 -108 12 -108"/><path fill="none" stroke="#000" d="M12,-108C6,-108 2.96059e-14,-102 2.36848e-14,-96"/><polyline fill="none" stroke="#000" points="0 -96 0 -84"/><path fill="none" stroke="#000" d="M1.18424e-14,-84C5.92119e-15,-78 6,-72 12,-72"/><polyline fill="none" stroke="#000" points="12 -72 56 -72"/><path fill="none" stroke="#000" d="M56,-72C62,-72 68,-78 68,-84"/><polyline fill="none" stroke="#000" points="68 -84 68 -96"/><path fill="none" stroke="#000" d="M68,-96C68,-102 62,-108 56,-108"/><text x="34" y="-86.4" font-family="Times Roman,serif" font-size="14" text-anchor="middle">DBUser</text></g><g id="edge3" class="edge"><title>DBUser-&gt;MyDB</title><path fill="none" stroke="#000" d="M46.8695,-71.8314C52.6835,-63.6232 59.6696,-53.7606 66.0646,-44.7323"/><polygon fill="#000" stroke="#000" points="69.033 -46.597 71.957 -36.413 63.321 -42.55 69.033 -46.597"/></g><g id="node4" class="node"><title>DBPassword</title><polygon fill="#d3d3d3" stroke="#d3d3d3" points="176 -108 98 -108 86 -96 86 -84 98 -72 176 -72 188 -84 188 -96 176 -108"/><path fill="#d3d3d3" stroke="#d3d3d3" d="M98,-108C92,-108 86,-102 86,-96"/><path fill="#d3d3d3" stroke="#d3d3d3" d="M86,-84C86,-78 92,-72 98,-72"/><path fill="#d3d3d3" stroke="#d3d3d3" d="M176,-72C182,-72 188,-78 188,-84"/><path fill="#d3d3d3" stroke="#d3d3d3" d="M188,-96C188,-102 182,-108 176,-108"/><polyline fill="none" stroke="#000" points="176 -108 98 -108"/><path fill="none" stroke="#000" d="M98,-108C92,-108 86,-102 86,-96"/><polyline fill="none" stroke="#000" points="86 -96 86 -84"/><path fill="none" stroke="#000" d="M86,-84C86,-78 92,-72 98,-72"/><polyline fill="none" stroke="#000" points="98 -72 176 -72"/><path fill="none" stroke="#000" d="M176,-72C182,-72 188,-78 188,-84"/><polyline fill="none" stroke="#000" points="188 -84 188 -96"/><path fill="none" stroke="#000" d="M188,-96C188,-102 182,-108 176,-108"/><text x="137" y="-86.4" font-family="Times Roman,serif" font-size="14" text-anchor="middle">DBPassword</text></g><g id="edge5" class="edge"><title>DBPassword-&gt;MyDB</title><path fill="none" stroke="#000" d="M123.878,-71.8314C117.95,-63.6232 110.827,-53.7606 104.307,-44.7323"/><polygon fill="#000" stroke="#000" points="106.991 -42.471 98.299 -36.413 101.316 -46.569 106.991 -42.471"/></g></g></svg>