<svg xmlns="http://www.w3.org/2000/svg" xmlns:xlink="http://www.w3.org/1999/xlink" width="316" height="332pt" viewBox="0 0 237 332"><g id="graph1" class="graph" transform="scale(1 1) rotate(0) translate(4 328)"><title>AWS CloudFormation Sample Template Route53_A: Sample template showing how to create an Amazon Route 53 A record that maps to the public IP address of an EC2 instance. It assumes that you already have a Hosted Zone registered with Amazon Route 53. **WARNING** This template creates an Amazon EC2 instance. You will be billed for the AWS resources used if you create a stack from this template.</title><polygon fill="#fff" stroke="#fff" points="-4 5 -4 -328 234 -328 234 5 -4 5"/><g id="node1" class="node"><title>Ec2Instance</title><polygon fill="none" stroke="#000" points="187 -180 87 -180 87 -144 187 -144 187 -180"/><text x="137" y="-158.4" font-family="Times Roman,serif" font-size="14" text-anchor="middle">Ec2Instance</text></g><g id="node2" class="node"><title>myDNSRecord</title><polygon fill="none" stroke="#000" points="194 -108 80 -108 80 -72 194 -72 194 -108"/><text x="137" y="-86.4" font-family="Times Roman,serif" font-size="14" text-anchor="middle">myDNSRecord</text></g><g id="edge6" class="edge"><title>Ec2Instance-&gt;myDNSRecord</title><path fill="none" stroke="#000" d="M131.048,-143.831C130.297,-136.131 130.076,-126.974 130.385,-118.417"/><polygon fill="#000" stroke="#000" points="133.879 -118.616 131.024 -108.413 126.893 -118.17 133.879 -118.616"/></g><g id="edge14" class="edge"><title>Ec2Instance-&gt;myDNSRecord</title><path fill="none" stroke="#000" d="M142.952,-143.831C143.703,-136.131 143.924,-126.974 143.615,-118.417"/><polygon fill="#000" stroke="#000" points="147.107 -118.17 142.976 -108.413 140.121 -118.616 147.107 -118.17"/></g><g id="node6" class="node"><title>DomainName</title><polygon fill="#d3d3d3" stroke="#d3d3d3" points="180 -36 94 -36 82 -24 82 -12 94 0 180 0 192 -12 192 -24 180 -36"/><path fill="#d3d3d3" stroke="#d3d3d3" d="M94,-36C88,-36 82,-30 82,-24"/><path fill="#d3d3d3" stroke="#d3d3d3" d="M82,-12C82,-6 88,-1.69884e-14 94,-1.62133e-14"/><path fill="#d3d3d3" stroke="#d3d3d3" d="M180,-5.10299e-15C186,-4.32785e-15 192,-6 192,-12"/><path fill="#d3d3d3" stroke="#d3d3d3" d="M192,-24C192,-30 186,-36 180,-36"/><polyline fill="none" stroke="#000" points="180 -36 94 -36"/><path fill="none" stroke="#000" d="M94,-36C88,-36 82,-30 82,-24"/><polyline fill="none" stroke="#000" points="82 -24 82 -12"/><path fill="none" stroke="#000" d="M82,-12C82,-6 88,-1.69884e-14 94,-1.62133e-14"/><polyline fill="none" stroke="#000" points="94 0 180 0"/><path fill="none" stroke="#000" d="M180,-5.10299e-15C186,-4.32785e-15 192,-6 192,-12"/><polyline fill="none" stroke="#000" points="192 -12 192 -24"/><path fill="none" stroke="#000" d="M192,-24C192,-30 186,-36 180,-36"/><text x="137" y="-14.4" font-family="Times Roman,serif" font-size="14" text-anchor="middle">DomainName</text></g><g id="edge16" class="edge"><title>myDNSRecord-&gt;DomainName</title><path fill="none" stroke="#000" d="M137,-71.8314C137,-64.131 137,-54.9743 137,-46.4166"/><polygon fill="#000" stroke="#000" points="140.5 -46.413 137 -36.413 133.5 -46.413 140.5 -46.413"/></g><g id="node4" class="node"><title>HostedZone</title><polygon fill="#d3d3d3" stroke="#d3d3d3" points="88 -324 12 -324 0 -312 0 -300 12 -288 88 -288 100 -300 100 -312 88 -324"/><path fill="#d3d3d3" stroke="#d3d3d3" d="M12,-324C6,-324 3.55271e-14,-318 2.84217e-14,-312"/><path fill="#d3d3d3" stroke="#d3d3d3" d="M1.42109e-14,-300C7.10543e-15,-294 6,-288 12,-288"/><path fill="#d3d3d3" stroke="#d3d3d3" d="M88,-288C94,-288 100,-294 100,-300"/><path fill="#d3d3d3" stroke="#d3d3d3" d="M100,-312C100,-318 94,-324 88,-324"/><polyline fill="none" stroke="#000" points="88 -324 12 -324"/><path fill="none" stroke="#000" d="M12,-324C6,-324 3.55271e-14,-318 2.84217e-14,-312"/><polyline fill="none" stroke="#000" points="0 -312 0 -300"/><path fill="none" stroke="#000" d="M1.42109e-14,-300C7.10543e-15,-294 6,-288 12,-288"/><polyline fill="none" stroke="#000" points="12 -288 88 -288"/><path fill="none" stroke="#000" d="M88,-288C94,-288 100,-294 100,-300"/><polyline fill="none" stroke="#000" points="100 -300 100 -312"/><path fill="none" stroke="#000" d="M100,-312C100,-318 94,-324 88,-324"/><text x="50" y="-302.4" font-family="Times Roman,serif" font-size="14" text-anchor="middle">HostedZone</text></g><g id="edge10" class="edge"><title>HostedZone-&gt;myDNSRecord</title><path fill="none" stroke="#000" d="M43.9926,-287.747C40.2232,-256.379 43.2565,-191.08 69,-144 75.0976,-132.849 84.3773,-122.768 94.1955,-114.418"/><polygon fill="#000" stroke="#000" points="96.486 -117.069 102.134 -108.106 92.129 -111.59 96.486 -117.069"/></g><g id="edge12" class="edge"><title>HostedZone-&gt;myDNSRecord</title><path fill="none" stroke="#000" d="M54.8636,-287.747C58.2232,-256.379 61.2565,-191.08 87,-144 92.9769,-133.069 102.011,-123.168 110.838,-114.916"/><polygon fill="#000" stroke="#000" points="113.335 -117.379 118.46 -108.106 108.671 -112.159 113.335 -117.379"/></g><g id="node7" class="node"><title>AWS::Region</title><polygon fill="none" stroke="#000" points="229 -252 125 -252 125 -216 229 -216 229 -252"/><text x="177" y="-230.4" font-family="Times Roman,serif" font-size="14" text-anchor="middle">AWS::Region</text></g><g id="edge4" class="edge"><title>AWS::Region-&gt;Ec2Instance</title><path fill="none" stroke="#000" d="M166.906,-215.831C162.44,-207.792 157.093,-198.167 152.162,-189.292"/><polygon fill="#000" stroke="#000" points="155.146 -187.455 147.23 -180.413 149.027 -190.855 155.146 -187.455"/></g><g id="edge8" class="edge"><title>AWS::Region-&gt;myDNSRecord</title><path fill="none" stroke="#000" d="M187.188,-215.738C196.175,-197.061 206.362,-167.53 196,-144 191.016,-132.682 182.359,-122.703 173.187,-114.502"/><polygon fill="#000" stroke="#000" points="175.355 -111.752 165.432 -108.04 170.874 -117.13 175.355 -111.752"/></g></g></svg>