<svg xmlns="http://www.w3.org/2000/svg" xmlns:xlink="http://www.w3.org/1999/xlink" width="362pt" height="188pt" viewBox="0 0 362 188"><g id="graph1" class="graph" transform="scale(1 1) rotate(0) translate(4 184)"><title>AWS CloudFormation Sample Template Route53_RoundRobin: Sample template showing how to use weighted round robin (WRR) DNS entried via Amazon Route 53. This contrived sample uses weighted CNAME records to illustrate that the weighting influences the return records. It assumes that you already have a Hosted Zone registered with Amazon Route 53. **WARNING** This template creates one or more AWS resources. You will be billed for the AWS resources used if you create a stack from this template.</title><polygon fill="#fff" stroke="#fff" points="-4 5 -4 -184 359 -184 359 5 -4 5"/><g id="node1" class="node"><title>myDNSRecord</title><polygon fill="none" stroke="#000" points="221 -36 107 -36 107 0 221 0 221 -36"/><text x="164" y="-14.4" font-family="Times Roman,serif" font-size="14" text-anchor="middle">myDNSRecord</text></g><g id="node3" class="node"><title>HostedZone</title><polygon fill="#d3d3d3" stroke="#d3d3d3" points="88 -180 12 -180 0 -168 0 -156 12 -144 88 -144 100 -156 100 -168 88 -180"/><path fill="#d3d3d3" stroke="#d3d3d3" d="M12,-180C6,-180 3.55271e-14,-174 2.84217e-14,-168"/><path fill="#d3d3d3" stroke="#d3d3d3" d="M1.42109e-14,-156C7.10543e-15,-150 6,-144 12,-144"/><path fill="#d3d3d3" stroke="#d3d3d3" d="M88,-144C94,-144 100,-150 100,-156"/><path fill="#d3d3d3" stroke="#d3d3d3" d="M100,-168C100,-174 94,-180 88,-180"/><polyline fill="none" stroke="#000" points="88 -180 12 -180"/><path fill="none" stroke="#000" d="M12,-180C6,-180 3.55271e-14,-174 2.84217e-14,-168"/><polyline fill="none" stroke="#000" points="0 -168 0 -156"/><path fill="none" stroke="#000" d="M1.42109e-14,-156C7.10543e-15,-150 6,-144 12,-144"/><polyline fill="none" stroke="#000" points="12 -144 88 -144"/><path fill="none" stroke="#000" d="M88,-144C94,-144 100,-150 100,-156"/><polyline fill="none" stroke="#000" points="100 -156 100 -168"/><path fill="none" stroke="#000" d="M100,-168C100,-174 94,-180 88,-180"/><text x="50" y="-158.4" font-family="Times Roman,serif" font-size="14" text-anchor="middle">HostedZone</text></g><g id="edge3" class="edge"><title>HostedZone-&gt;myDNSRecord</title><path fill="none" stroke="#000" d="M40.9286,-143.867C41.377,-124.487 51.6948,-93.6368 69,-72 78.4534,-60.1804 91.1563,-49.8404 104.371,-41.4582"/><polygon fill="#000" stroke="#000" points="106.314 -44.374 113.099 -36.237 102.721 -38.367 106.314 -44.374"/></g><g id="edge9" class="edge"><title>HostedZone-&gt;myDNSRecord</title><path fill="none" stroke="#000" d="M54.1962,-143.867C59.377,-124.487 69.6948,-93.6368 87,-72 96.3634,-60.293 108.915,-50.0375 121.163,-41.6982"/><polygon fill="#000" stroke="#000" points="123.08 -44.626 129.551 -36.237 119.261 -38.76 123.08 -44.626"/></g><g id="edge17" class="edge"><title>HostedZone-&gt;myDNSRecord</title><path fill="none" stroke="#000" d="M67.4637,-143.867C77.377,-124.487 87.6948,-93.6368 105,-72 114.183,-60.5181 126.433,-50.4325 137.672,-42.1814"/><polygon fill="#000" stroke="#000" points="139.896 -44.895 146.003 -36.237 135.83 -39.197 139.896 -44.895"/></g><g id="node5" class="node"><title>AWS::StackName</title><polygon fill="none" stroke="#000" points="232 -108 96 -108 96 -72 232 -72 232 -108"/><text x="164" y="-86.4" font-family="Times Roman,serif" font-size="14" text-anchor="middle">AWS::StackName</text></g><g id="edge5" class="edge"><title>AWS::StackName-&gt;myDNSRecord</title><path fill="none" stroke="#000" d="M146.143,-71.8314C143.892,-64.131 143.229,-54.9743 144.155,-46.4166"/><polygon fill="#000" stroke="#000" points="147.627 -46.893 146.072 -36.413 140.752 -45.576 147.627 -46.893"/></g><g id="edge11" class="edge"><title>AWS::StackName-&gt;myDNSRecord</title><path fill="none" stroke="#000" d="M158.048,-71.8314C157.297,-64.131 157.076,-54.9743 157.385,-46.4166"/><polygon fill="#000" stroke="#000" points="160.879 -46.616 158.024 -36.413 153.893 -46.17 160.879 -46.616"/></g><g id="edge13" class="edge"><title>AWS::StackName-&gt;myDNSRecord</title><path fill="none" stroke="#000" d="M169.952,-71.8314C170.703,-64.131 170.924,-54.9743 170.615,-46.4166"/><polygon fill="#000" stroke="#000" points="174.107 -46.17 169.976 -36.413 167.121 -46.616 174.107 -46.17"/></g><g id="edge19" class="edge"><title>AWS::StackName-&gt;myDNSRecord</title><path fill="none" stroke="#000" d="M181.857,-71.8314C184.108,-64.131 184.771,-54.9743 183.845,-46.4166"/><polygon fill="#000" stroke="#000" points="187.248 -45.576 181.928 -36.413 180.373 -46.893 187.248 -45.576"/></g><g id="node7" class="node"><title>AWS::Region</title><polygon fill="none" stroke="#000" points="354 -108 250 -108 250 -72 354 -72 354 -108"/><text x="302" y="-86.4" font-family="Times Roman,serif" font-size="14" text-anchor="middle">AWS::Region</text></g><g id="edge7" class="edge"><title>AWS::Region-&gt;myDNSRecord</title><path fill="none" stroke="#000" d="M261.224,-71.8314C242.418,-62.4942 220.287,-51.016 201.853,-41.0606"/><polygon fill="#000" stroke="#000" points="203.316 -37.872 192.86 -36.163 199.968 -44.02 203.316 -37.872"/></g><g id="edge15" class="edge"><title>AWS::Region-&gt;myDNSRecord</title><path fill="none" stroke="#000" d="M273.129,-71.8314C255.844,-62.3302 233.505,-50.6121 213.508,-40.5374"/><polygon fill="#000" stroke="#000" points="215.022 -37.381 204.512 -36.038 211.89 -43.642 215.022 -37.381"/></g></g></svg>