<svg xmlns="http://www.w3.org/2000/svg" xmlns:xlink="http://www.w3.org/1999/xlink" width="112pt" height="116pt" viewBox="0 0 112 116"><g id="graph1" class="graph" transform="scale(1 1) rotate(0) translate(4 112)"><title>AWS CloudFormation Sample Template S3_Bucket_With_Tags: Sample template showing how to create a publicly accessible S3 bucket that has tags. **WARNING** This template creates an S3 bucket. You will be billed for the AWS resources used if you create a stack from this template.</title><polygon fill="#fff" stroke="#fff" points="-4 5 -4 -112 109 -112 109 5 -4 5"/><g id="node1" class="node"><title>S3Bucket</title><polygon fill="none" stroke="#000" points="93 -108 11 -108 11 -72 93 -72 93 -108"/><text x="52" y="-86.4" font-family="Times Roman,serif" font-size="14" text-anchor="middle">S3Bucket</text></g><g id="node3" class="node"><title>BucketName</title><polygon fill="#d3d3d3" stroke="#d3d3d3" points="92 -36 12 -36 0 -24 0 -12 12 0 92 0 104 -12 104 -24 92 -36"/><path fill="#d3d3d3" stroke="#d3d3d3" d="M12,-36C6,-36 2.96059e-14,-30 2.36848e-14,-24"/><path fill="#d3d3d3" stroke="#d3d3d3" d="M1.18424e-14,-12C5.92119e-15,-6 6,-1.69437e-14 12,-1.61239e-14"/><path fill="#d3d3d3" stroke="#d3d3d3" d="M92,-5.19243e-15C98,-4.37257e-15 104,-6 104,-12"/><path fill="#d3d3d3" stroke="#d3d3d3" d="M104,-24C104,-30 98,-36 92,-36"/><polyline fill="none" stroke="#000" points="92 -36 12 -36"/><path fill="none" stroke="#000" d="M12,-36C6,-36 2.96059e-14,-30 2.36848e-14,-24"/><polyline fill="none" stroke="#000" points="0 -24 0 -12"/><path fill="none" stroke="#000" d="M1.18424e-14,-12C5.92119e-15,-6 6,-1.69437e-14 12,-1.61239e-14"/><polyline fill="none" stroke="#000" points="12 0 92 0"/><path fill="none" stroke="#000" d="M92,-5.19243e-15C98,-4.37257e-15 104,-6 104,-12"/><polyline fill="none" stroke="#000" points="104 -12 104 -24"/><path fill="none" stroke="#000" d="M104,-24C104,-30 98,-36 92,-36"/><text x="52" y="-14.4" font-family="Times Roman,serif" font-size="14" text-anchor="middle">BucketName</text></g><g id="edge3" class="edge"><title>S3Bucket-&gt;BucketName</title><path fill="none" stroke="#000" d="M52,-71.8314C52,-64.131 52,-54.9743 52,-46.4166"/><polygon fill="#000" stroke="#000" points="55.5 -46.413 52 -36.413 48.5 -46.413 55.5 -46.413"/></g></g></svg>