<svg xmlns="http://www.w3.org/2000/svg" xmlns:xlink="http://www.w3.org/1999/xlink" width="284pt" height="116pt" viewBox="0 0 284 116"><g id="graph1" class="graph" transform="scale(1 1) rotate(0) translate(4 112)"><title>AWS CloudFormation Sample Template S3_Website_Bucket_With_Retain_On_Delete: Sample template showing how to create a publicly accessible S3 bucket configured for website access with a deletion policy of retail on delete. **WARNING** This template creates an S3 bucket that will NOT be deleted when the stack is deleted. You will be billed for the AWS resources used if you create a stack from this template.</title><polygon fill="#fff" stroke="#fff" points="-4 5 -4 -112 281 -112 281 5 -4 5"/><g id="node1" class="node"><title>S3Bucket</title><polygon fill="none" stroke="#000" points="164 -108 82 -108 82 -72 164 -72 164 -108"/><text x="123" y="-86.4" font-family="Times Roman,serif" font-size="14" text-anchor="middle">S3Bucket</text></g><g id="node3" class="node"><title>WebsiteURL</title><polygon fill="#d3d3d3" stroke="#d3d3d3" points="88 -36 12 -36 0 -24 0 -12 12 0 88 0 100 -12 100 -24 88 -36"/><path fill="#d3d3d3" stroke="#d3d3d3" d="M12,-36C6,-36 2.96059e-14,-30 2.36848e-14,-24"/><path fill="#d3d3d3" stroke="#d3d3d3" d="M1.18424e-14,-12C5.92119e-15,-6 6,-1.69109e-14 12,-1.60583e-14"/><path fill="#d3d3d3" stroke="#d3d3d3" d="M88,-5.25802e-15C94,-4.40536e-15 100,-6 100,-12"/><path fill="#d3d3d3" stroke="#d3d3d3" d="M100,-24C100,-30 94,-36 88,-36"/><polyline fill="none" stroke="#000" points="88 -36 12 -36"/><path fill="none" stroke="#000" d="M12,-36C6,-36 2.96059e-14,-30 2.36848e-14,-24"/><polyline fill="none" stroke="#000" points="0 -24 0 -12"/><path fill="none" stroke="#000" d="M1.18424e-14,-12C5.92119e-15,-6 6,-1.69109e-14 12,-1.60583e-14"/><polyline fill="none" stroke="#000" points="12 0 88 0"/><path fill="none" stroke="#000" d="M88,-5.25802e-15C94,-4.40536e-15 100,-6 100,-12"/><polyline fill="none" stroke="#000" points="100 -12 100 -24"/><path fill="none" stroke="#000" d="M100,-24C100,-30 94,-36 88,-36"/><text x="50" y="-14.4" font-family="Times Roman,serif" font-size="14" text-anchor="middle">WebsiteURL</text></g><g id="edge3" class="edge"><title>S3Bucket-&gt;WebsiteURL</title><path fill="none" stroke="#000" d="M104.579,-71.8314C95.8471,-63.219 85.2683,-52.7851 75.7577,-43.4048"/><polygon fill="#000" stroke="#000" points="77.993 -40.693 68.415 -36.163 73.077 -45.677 77.993 -40.693"/></g><g id="node4" class="node"><title>S3BucketSecureURL</title><polygon fill="#d3d3d3" stroke="#d3d3d3" points="264 -36 130 -36 118 -24 118 -12 130 0 264 0 276 -12 276 -24 264 -36"/><path fill="#d3d3d3" stroke="#d3d3d3" d="M130,-36C124,-36 118,-30 118,-24"/><path fill="#d3d3d3" stroke="#d3d3d3" d="M118,-12C118,-6 124,-1.72239e-14 130,-1.66843e-14"/><path fill="#d3d3d3" stroke="#d3d3d3" d="M264,-4.63202e-15C270,-4.09237e-15 276,-6 276,-12"/><path fill="#d3d3d3" stroke="#d3d3d3" d="M276,-24C276,-30 270,-36 264,-36"/><polyline fill="none" stroke="#000" points="264 -36 130 -36"/><path fill="none" stroke="#000" d="M130,-36C124,-36 118,-30 118,-24"/><polyline fill="none" stroke="#000" points="118 -24 118 -12"/><path fill="none" stroke="#000" d="M118,-12C118,-6 124,-1.72239e-14 130,-1.66843e-14"/><polyline fill="none" stroke="#000" points="130 0 264 0"/><path fill="none" stroke="#000" d="M264,-4.63202e-15C270,-4.09237e-15 276,-6 276,-12"/><polyline fill="none" stroke="#000" points="276 -12 276 -24"/><path fill="none" stroke="#000" d="M276,-24C276,-30 270,-36 264,-36"/><text x="197" y="-14.4" font-family="Times Roman,serif" font-size="14" text-anchor="middle">S3BucketSecureURL</text></g><g id="edge5" class="edge"><title>S3Bucket-&gt;S3BucketSecureURL</title><path fill="none" stroke="#000" d="M141.673,-71.8314C150.525,-63.219 161.249,-52.7851 170.889,-43.4048"/><polygon fill="#000" stroke="#000" points="173.606 -45.645 178.333 -36.163 168.725 -40.628 173.606 -45.645"/></g></g></svg>