<svg xmlns="http://www.w3.org/2000/svg" xmlns:xlink="http://www.w3.org/1999/xlink" width="793pt" height="332pt" viewBox="0 0 793 332"><g id="graph1" class="graph" transform="scale(1 1) rotate(0) translate(4 328)"><title>AWS CloudFormation Sample Template S3Bucket_SourceAuth: Simple test template showing how to get sources from a private S3 bucket onto an EC2 instance using authenticated GetObject requests. In this template the credentials used to access the bucket are defined and attached in the AWS::CloudFormation::Authentication section. **WARNING** This template creates an Amazon EC2 instance. You will be billed for the AWS resources used if you create a stack from this template.</title><polygon fill="#fff" stroke="#fff" points="-4 5 -4 -328 790 -328 790 5 -4 5"/><g id="node1" class="node"><title>CfnKeys</title><polygon fill="none" stroke="#000" points="425 -180 355 -180 355 -144 425 -144 425 -180"/><text x="390" y="-158.4" font-family="Times Roman,serif" font-size="14" text-anchor="middle">CfnKeys</text></g><g id="node3" class="node"><title>WebServer</title><polygon fill="none" stroke="#000" points="436 -108 344 -108 344 -72 436 -72 436 -108"/><text x="390" y="-86.4" font-family="Times Roman,serif" font-size="14" text-anchor="middle">WebServer</text></g><g id="edge8" class="edge"><title>CfnKeys-&gt;WebServer</title><path fill="none" stroke="#000" d="M384.048,-143.831C383.297,-136.131 383.076,-126.974 383.385,-118.417"/><polygon fill="#000" stroke="#000" points="386.879 -118.616 384.024 -108.413 379.893 -118.17 386.879 -118.616"/></g><g id="edge12" class="edge"><title>CfnKeys-&gt;WebServer</title><path fill="none" stroke="#000" d="M395.952,-143.831C396.703,-136.131 396.924,-126.974 396.615,-118.417"/><polygon fill="#000" stroke="#000" points="400.107 -118.17 395.976 -108.413 393.121 -118.616 400.107 -118.17"/></g><g id="node2" class="node"><title>CfnUser</title><polygon fill="none" stroke="#000" points="375 -252 305 -252 305 -216 375 -216 375 -252"/><text x="340" y="-230.4" font-family="Times Roman,serif" font-size="14" text-anchor="middle">CfnUser</text></g><g id="edge4" class="edge"><title>CfnUser-&gt;CfnKeys</title><path fill="none" stroke="#000" d="M352.617,-215.831C358.317,-207.623 365.166,-197.761 371.436,-188.732"/><polygon fill="#000" stroke="#000" points="374.384 -190.623 377.213 -180.413 368.634 -186.631 374.384 -190.623"/></g><g id="node6" class="node"><title>BucketPolicy</title><polygon fill="none" stroke="#000" points="337 -180 235 -180 235 -144 337 -144 337 -180"/><text x="286" y="-158.4" font-family="Times Roman,serif" font-size="14" text-anchor="middle">BucketPolicy</text></g><g id="edge34" class="edge"><title>CfnUser-&gt;BucketPolicy</title><path fill="none" stroke="#000" d="M326.374,-215.831C320.154,-207.539 312.668,-197.557 305.84,-188.453"/><polygon fill="#000" stroke="#000" points="308.61 -186.313 299.81 -180.413 303.01 -190.513 308.61 -186.313"/></g><g id="node14" class="node"><title>WebsiteURL</title><polygon fill="#d3d3d3" stroke="#d3d3d3" points="428 -36 352 -36 340 -24 340 -12 352 0 428 0 440 -12 440 -24 428 -36"/><path fill="#d3d3d3" stroke="#d3d3d3" d="M352,-36C346,-36 340,-30 340,-24"/><path fill="#d3d3d3" stroke="#d3d3d3" d="M340,-12C340,-6 346,-1.69109e-14 352,-1.60583e-14"/><path fill="#d3d3d3" stroke="#d3d3d3" d="M428,-5.25802e-15C434,-4.40536e-15 440,-6 440,-12"/><path fill="#d3d3d3" stroke="#d3d3d3" d="M440,-24C440,-30 434,-36 428,-36"/><polyline fill="none" stroke="#000" points="428 -36 352 -36"/><path fill="none" stroke="#000" d="M352,-36C346,-36 340,-30 340,-24"/><polyline fill="none" stroke="#000" points="340 -24 340 -12"/><path fill="none" stroke="#000" d="M340,-12C340,-6 346,-1.69109e-14 352,-1.60583e-14"/><polyline fill="none" stroke="#000" points="352 0 428 0"/><path fill="none" stroke="#000" d="M428,-5.25802e-15C434,-4.40536e-15 440,-6 440,-12"/><polyline fill="none" stroke="#000" points="440 -12 440 -24"/><path fill="none" stroke="#000" d="M440,-24C440,-30 434,-36 428,-36"/><text x="390" y="-14.4" font-family="Times Roman,serif" font-size="14" text-anchor="middle">WebsiteURL</text></g><g id="edge40" class="edge"><title>WebServer-&gt;WebsiteURL</title><path fill="none" stroke="#000" d="M390,-71.8314C390,-64.131 390,-54.9743 390,-46.4166"/><polygon fill="#000" stroke="#000" points="393.5 -46.413 390 -36.413 386.5 -46.413 393.5 -46.413"/></g><g id="node4" class="node"><title>WebServerSecurityGroup</title><polygon fill="none" stroke="#000" points="717 -252 525 -252 525 -216 717 -216 717 -252"/><text x="621" y="-230.4" font-family="Times Roman,serif" font-size="14" text-anchor="middle">WebServerSecurityGroup</text></g><g id="edge22" class="edge"><title>WebServerSecurityGroup-&gt;WebServer</title><path fill="none" stroke="#000" d="M620.577,-215.8C619.101,-195.473 613.576,-162.946 594,-144 572.978,-123.654 498.789,-107.677 445.952,-98.537"/><polygon fill="#000" stroke="#000" points="446.467 -95.074 436.023 -96.856 445.298 -101.976 446.467 -95.074"/></g><g id="node5" class="node"><title>WaitCondition</title><polygon fill="none" stroke="#000" points="114 -108 0 -108 0 -72 114 -72 114 -108"/><text x="57" y="-86.4" font-family="Times Roman,serif" font-size="14" text-anchor="middle">WaitCondition</text></g><g id="node7" class="node"><title>WaitHandle</title><polygon fill="none" stroke="#000" points="105 -180 9 -180 9 -144 105 -144 105 -180"/><text x="57" y="-158.4" font-family="Times Roman,serif" font-size="14" text-anchor="middle">WaitHandle</text></g><g id="edge18" class="edge"><title>WaitHandle-&gt;WebServer</title><path fill="none" stroke="#000" d="M105.292,-147.545C109.911,-146.294 114.536,-145.091 119,-144 192.705,-125.993 278.774,-109.625 333.799,-99.7435"/><polygon fill="#000" stroke="#000" points="334.473 -103.179 343.702 -97.975 333.243 -96.288 334.473 -103.179"/></g><g id="edge32" class="edge"><title>WaitHandle-&gt;WaitCondition</title><path fill="none" stroke="#000" d="M57,-143.831C57,-136.131 57,-126.974 57,-118.417"/><polygon fill="#000" stroke="#000" points="60.5 -118.413 57 -108.413 53.5 -118.413 60.5 -118.413"/></g><g id="node9" class="node"><title>SSHLocation</title><polygon fill="#d3d3d3" stroke="#d3d3d3" points="661 -324 581 -324 569 -312 569 -300 581 -288 661 -288 673 -300 673 -312 661 -324"/><path fill="#d3d3d3" stroke="#d3d3d3" d="M581,-324C575,-324 569,-318 569,-312"/><path fill="#d3d3d3" stroke="#d3d3d3" d="M569,-300C569,-294 575,-288 581,-288"/><path fill="#d3d3d3" stroke="#d3d3d3" d="M661,-288C667,-288 673,-294 673,-300"/><path fill="#d3d3d3" stroke="#d3d3d3" d="M673,-312C673,-318 667,-324 661,-324"/><polyline fill="none" stroke="#000" points="661 -324 581 -324"/><path fill="none" stroke="#000" d="M581,-324C575,-324 569,-318 569,-312"/><polyline fill="none" stroke="#000" points="569 -312 569 -300"/><path fill="none" stroke="#000" d="M569,-300C569,-294 575,-288 581,-288"/><polyline fill="none" stroke="#000" points="581 -288 661 -288"/><path fill="none" stroke="#000" d="M661,-288C667,-288 673,-294 673,-300"/><polyline fill="none" stroke="#000" points="673 -300 673 -312"/><path fill="none" stroke="#000" d="M673,-312C673,-318 667,-324 661,-324"/><text x="621" y="-302.4" font-family="Times Roman,serif" font-size="14" text-anchor="middle">SSHLocation</text></g><g id="edge30" class="edge"><title>SSHLocation-&gt;WebServerSecurityGroup</title><path fill="none" stroke="#000" d="M621,-287.831C621,-280.131 621,-270.974 621,-262.417"/><polygon fill="#000" stroke="#000" points="624.5 -262.413 621 -252.413 617.5 -262.413 624.5 -262.413"/></g><g id="node10" class="node"><title>KeyName</title><polygon fill="#d3d3d3" stroke="#d3d3d3" points="773 -324 717 -324 705 -312 705 -300 717 -288 773 -288 785 -300 785 -312 773 -324"/><path fill="#d3d3d3" stroke="#d3d3d3" d="M717,-324C711,-324 705,-318 705,-312"/><path fill="#d3d3d3" stroke="#d3d3d3" d="M705,-300C705,-294 711,-288 717,-288"/><path fill="#d3d3d3" stroke="#d3d3d3" d="M773,-288C779,-288 785,-294 785,-300"/><path fill="#d3d3d3" stroke="#d3d3d3" d="M785,-312C785,-318 779,-324 773,-324"/><polyline fill="none" stroke="#000" points="773 -324 717 -324"/><path fill="none" stroke="#000" d="M717,-324C711,-324 705,-318 705,-312"/><polyline fill="none" stroke="#000" points="705 -312 705 -300"/><path fill="none" stroke="#000" d="M705,-300C705,-294 711,-288 717,-288"/><polyline fill="none" stroke="#000" points="717 -288 773 -288"/><path fill="none" stroke="#000" d="M773,-288C779,-288 785,-294 785,-300"/><polyline fill="none" stroke="#000" points="785 -300 785 -312"/><path fill="none" stroke="#000" d="M785,-312C785,-318 779,-324 773,-324"/><text x="745" y="-302.4" font-family="Times Roman,serif" font-size="14" text-anchor="middle">KeyName</text></g><g id="edge20" class="edge"><title>KeyName-&gt;WebServer</title><path fill="none" stroke="#000" d="M745.111,-287.873C744.388,-268.498 740.735,-237.652 726,-216 693.335,-168.001 670.278,-167.071 617,-144 561.415,-119.93 493.319,-105.555 446.291,-97.7619"/><polygon fill="#000" stroke="#000" points="446.722 -94.286 436.292 -96.151 445.608 -101.197 446.722 -94.286"/></g><g id="node11" class="node"><title>InstanceType</title><polygon fill="#d3d3d3" stroke="#d3d3d3" points="183 -324 101 -324 89 -312 89 -300 101 -288 183 -288 195 -300 195 -312 183 -324"/><path fill="#d3d3d3" stroke="#d3d3d3" d="M101,-324C95,-324 89,-318 89,-312"/><path fill="#d3d3d3" stroke="#d3d3d3" d="M89,-300C89,-294 95,-288 101,-288"/><path fill="#d3d3d3" stroke="#d3d3d3" d="M183,-288C189,-288 195,-294 195,-300"/><path fill="#d3d3d3" stroke="#d3d3d3" d="M195,-312C195,-318 189,-324 183,-324"/><polyline fill="none" stroke="#000" points="183 -324 101 -324"/><path fill="none" stroke="#000" d="M101,-324C95,-324 89,-318 89,-312"/><polyline fill="none" stroke="#000" points="89 -312 89 -300"/><path fill="none" stroke="#000" d="M89,-300C89,-294 95,-288 101,-288"/><polyline fill="none" stroke="#000" points="101 -288 183 -288"/><path fill="none" stroke="#000" d="M183,-288C189,-288 195,-294 195,-300"/><polyline fill="none" stroke="#000" points="195 -300 195 -312"/><path fill="none" stroke="#000" d="M195,-312C195,-318 189,-324 183,-324"/><text x="142" y="-302.4" font-family="Times Roman,serif" font-size="14" text-anchor="middle">InstanceType</text></g><g id="edge24" class="edge"><title>InstanceType-&gt;WebServer</title><path fill="none" stroke="#000" d="M139.271,-287.769C141.063,-254.333 157.567,-183.058 201,-144 220.308,-126.637 285.197,-109.989 333.682,-99.8792"/><polygon fill="#000" stroke="#000" points="334.658 -103.252 343.757 -97.823 333.259 -96.393 334.658 -103.252"/></g><g id="edge28" class="edge"><title>InstanceType-&gt;WebServer</title><path fill="none" stroke="#000" d="M149.736,-287.769C159.063,-254.333 175.567,-183.058 219,-144 236.442,-128.314 291.084,-113.212 334.035,-102.987"/><polygon fill="#000" stroke="#000" points="334.899 -106.38 343.836 -100.689 333.301 -99.564 334.899 -106.38"/></g><g id="node12" class="node"><title>BucketName</title><polygon fill="#d3d3d3" stroke="#d3d3d3" points="306 -324 226 -324 214 -312 214 -300 226 -288 306 -288 318 -300 318 -312 306 -324"/><path fill="#d3d3d3" stroke="#d3d3d3" d="M226,-324C220,-324 214,-318 214,-312"/><path fill="#d3d3d3" stroke="#d3d3d3" d="M214,-300C214,-294 220,-288 226,-288"/><path fill="#d3d3d3" stroke="#d3d3d3" d="M306,-288C312,-288 318,-294 318,-300"/><path fill="#d3d3d3" stroke="#d3d3d3" d="M318,-312C318,-318 312,-324 306,-324"/><polyline fill="none" stroke="#000" points="306 -324 226 -324"/><path fill="none" stroke="#000" d="M226,-324C220,-324 214,-318 214,-312"/><polyline fill="none" stroke="#000" points="214 -312 214 -300"/><path fill="none" stroke="#000" d="M214,-300C214,-294 220,-288 226,-288"/><polyline fill="none" stroke="#000" points="226 -288 306 -288"/><path fill="none" stroke="#000" d="M306,-288C312,-288 318,-294 318,-300"/><polyline fill="none" stroke="#000" points="318 -300 318 -312"/><path fill="none" stroke="#000" d="M318,-312C318,-318 312,-324 306,-324"/><text x="266" y="-302.4" font-family="Times Roman,serif" font-size="14" text-anchor="middle">BucketName</text></g><g id="edge6" class="edge"><title>BucketName-&gt;WebServer</title><path fill="none" stroke="#000" d="M247.441,-287.888C222.199,-255.874 184.819,-188.476 217,-144 230.722,-125.034 288.746,-109.11 333.951,-99.5763"/><polygon fill="#000" stroke="#000" points="334.869 -102.961 343.962 -97.524 333.463 -96.103 334.869 -102.961"/></g><g id="edge10" class="edge"><title>BucketName-&gt;WebServer</title><path fill="none" stroke="#000" d="M258.14,-287.888C240.199,-255.874 202.819,-188.476 235,-144 247.23,-127.097 294.651,-112.61 333.928,-102.909"/><polygon fill="#000" stroke="#000" points="334.813 -106.296 343.712 -100.547 333.17 -99.492 334.813 -106.296"/></g><g id="edge36" class="edge"><title>BucketName-&gt;BucketPolicy</title><path fill="none" stroke="#000" d="M263.86,-287.762C264.816,-263.093 270.693,-218.86 276.643,-189.973"/><polygon fill="#000" stroke="#000" points="280.087 -190.61 278.829 -180.09 273.252 -189.098 280.087 -190.61"/></g><g id="edge38" class="edge"><title>BucketName-&gt;BucketPolicy</title><path fill="none" stroke="#000" d="M273.206,-287.762C279.077,-263.201 285.457,-219.247 287.559,-190.354"/><polygon fill="#000" stroke="#000" points="291.07 -190.273 288.146 -180.09 284.081 -189.874 291.07 -190.273"/></g><g id="node20" class="node"><title>AWS::StackId</title><polygon fill="none" stroke="#000" points="507 -252 397 -252 397 -216 507 -216 507 -252"/><text x="452" y="-230.4" font-family="Times Roman,serif" font-size="14" text-anchor="middle">AWS::StackId</text></g><g id="edge14" class="edge"><title>AWS::StackId-&gt;WebServer</title><path fill="none" stroke="#000" d="M450.954,-215.952C449.292,-197.188 445.008,-167.349 434,-144 429.31,-134.053 422.4,-124.359 415.439,-115.993"/><polygon fill="#000" stroke="#000" points="418.035 -113.644 408.82 -108.414 412.762 -118.249 418.035 -113.644"/></g><g id="node22" class="node"><title>AWS::Region</title><polygon fill="none" stroke="#000" points="585 -180 481 -180 481 -144 585 -144 585 -180"/><text x="533" y="-158.4" font-family="Times Roman,serif" font-size="14" text-anchor="middle">AWS::Region</text></g><g id="edge26" class="edge"><title>AWS::Region-&gt;WebServer</title><path fill="none" stroke="#000" d="M490.963,-143.831C471.419,-134.452 448.37,-122.911 429.193,-112.924"/><polygon fill="#000" stroke="#000" points="430.603 -109.712 420.122 -108.163 427.349 -115.91 430.603 -109.712"/></g><g id="edge16" class="edge"><title>AWS::Region-&gt;WebServer</title><path fill="none" stroke="#000" d="M502.867,-143.831C484.842,-134.287 461.561,-122.506 440.794,-112.401"/><polygon fill="#000" stroke="#000" points="442.292 -109.238 431.765 -108.038 439.246 -115.541 442.292 -109.238"/></g></g></svg>