<svg xmlns="http://www.w3.org/2000/svg" xmlns:xlink="http://www.w3.org/1999/xlink" width="340" height="332pt" viewBox="0 0 255 332"><g id="graph1" class="graph" transform="scale(1 1) rotate(0) translate(4 328)"><title>AWS CloudFormation Sample Template S3Bucket_Lockdown_to_IAM_User: Simple test template showing how to create a bucket and an IAM user and lock the bucket down to be accessible by that new user. **WARNING** This template creates an Amazon S3 Bucket. You will be billed for the AWS resources used if you create a stack from this template.</title><polygon fill="#fff" stroke="#fff" points="-4 5 -4 -328 252 -328 252 5 -4 5"/><g id="node1" class="node"><title>S3Bucket</title><polygon fill="none" stroke="#000" points="172 -252 90 -252 90 -216 172 -216 172 -252"/><text x="131" y="-230.4" font-family="Times Roman,serif" font-size="14" text-anchor="middle">S3Bucket</text></g><g id="node2" class="node"><title>BucketPolicy</title><polygon fill="none" stroke="#000" points="182 -108 80 -108 80 -72 182 -72 182 -108"/><text x="131" y="-86.4" font-family="Times Roman,serif" font-size="14" text-anchor="middle">BucketPolicy</text></g><g id="edge6" class="edge"><title>S3Bucket-&gt;BucketPolicy</title><path fill="none" stroke="#000" d="M126.327,-215.762C123.867,-191.201 123.592,-147.247 125.503,-118.354"/><polygon fill="#000" stroke="#000" points="129.015 -118.342 126.342 -108.09 122.038 -117.771 129.015 -118.342"/></g><g id="edge8" class="edge"><title>S3Bucket-&gt;BucketPolicy</title><path fill="none" stroke="#000" d="M135.673,-215.762C138.133,-191.201 138.408,-147.247 136.497,-118.354"/><polygon fill="#000" stroke="#000" points="139.962 -117.771 135.658 -108.09 132.985 -118.342 139.962 -117.771"/></g><g id="node3" class="node"><title>S3User</title><polygon fill="none" stroke="#000" points="234 -180 168 -180 168 -144 234 -144 234 -180"/><text x="201" y="-158.4" font-family="Times Roman,serif" font-size="14" text-anchor="middle">S3User</text></g><g id="edge10" class="edge"><title>S3Bucket-&gt;S3User</title><path fill="none" stroke="#000" d="M148.664,-215.831C156.973,-207.285 167.026,-196.944 176.092,-187.62"/><polygon fill="#000" stroke="#000" points="178.637 -190.023 183.098 -180.413 173.618 -185.143 178.637 -190.023"/></g><g id="node8" class="node"><title>BucketName</title><polygon fill="#d3d3d3" stroke="#d3d3d3" points="92 -36 12 -36 0 -24 0 -12 12 0 92 0 104 -12 104 -24 92 -36"/><path fill="#d3d3d3" stroke="#d3d3d3" d="M12,-36C6,-36 2.96059e-14,-30 2.36848e-14,-24"/><path fill="#d3d3d3" stroke="#d3d3d3" d="M1.18424e-14,-12C5.92119e-15,-6 6,-1.69437e-14 12,-1.61239e-14"/><path fill="#d3d3d3" stroke="#d3d3d3" d="M92,-5.19243e-15C98,-4.37257e-15 104,-6 104,-12"/><path fill="#d3d3d3" stroke="#d3d3d3" d="M104,-24C104,-30 98,-36 92,-36"/><polyline fill="none" stroke="#000" points="92 -36 12 -36"/><path fill="none" stroke="#000" d="M12,-36C6,-36 2.96059e-14,-30 2.36848e-14,-24"/><polyline fill="none" stroke="#000" points="0 -24 0 -12"/><path fill="none" stroke="#000" d="M1.18424e-14,-12C5.92119e-15,-6 6,-1.69437e-14 12,-1.61239e-14"/><polyline fill="none" stroke="#000" points="12 0 92 0"/><path fill="none" stroke="#000" d="M92,-5.19243e-15C98,-4.37257e-15 104,-6 104,-12"/><polyline fill="none" stroke="#000" points="104 -12 104 -24"/><path fill="none" stroke="#000" d="M104,-24C104,-30 98,-36 92,-36"/><text x="52" y="-14.4" font-family="Times Roman,serif" font-size="14" text-anchor="middle">BucketName</text></g><g id="edge16" class="edge"><title>S3Bucket-&gt;BucketName</title><path fill="none" stroke="#000" d="M120.634,-215.791C107.374,-191.792 84.5108,-147.934 71,-108 64.1868,-87.8621 59.3216,-64.3305 56.2209,-46.3806"/><polygon fill="#000" stroke="#000" points="59.634 -45.565 54.557 -36.266 52.727 -46.701 59.634 -45.565"/></g><g id="edge4" class="edge"><title>S3User-&gt;BucketPolicy</title><path fill="none" stroke="#000" d="M183.336,-143.831C175.027,-135.285 164.974,-124.944 155.908,-115.62"/><polygon fill="#000" stroke="#000" points="158.382 -113.143 148.902 -108.413 153.363 -118.023 158.382 -113.143"/></g><g id="node7" class="node"><title>IAMUser</title><polygon fill="#d3d3d3" stroke="#d3d3d3" points="235 -36 185 -36 173 -24 173 -12 185 0 235 0 247 -12 247 -24 235 -36"/><path fill="#d3d3d3" stroke="#d3d3d3" d="M185,-36C179,-36 173,-30 173,-24"/><path fill="#d3d3d3" stroke="#d3d3d3" d="M173,-12C173,-6 179,-1.66113e-14 185,-1.54591e-14"/><path fill="#d3d3d3" stroke="#d3d3d3" d="M235,-5.85718e-15C241,-4.70495e-15 247,-6 247,-12"/><path fill="#d3d3d3" stroke="#d3d3d3" d="M247,-24C247,-30 241,-36 235,-36"/><polyline fill="none" stroke="#000" points="235 -36 185 -36"/><path fill="none" stroke="#000" d="M185,-36C179,-36 173,-30 173,-24"/><polyline fill="none" stroke="#000" points="173 -24 173 -12"/><path fill="none" stroke="#000" d="M173,-12C173,-6 179,-1.66113e-14 185,-1.54591e-14"/><polyline fill="none" stroke="#000" points="185 0 235 0"/><path fill="none" stroke="#000" d="M235,-5.85718e-15C241,-4.70495e-15 247,-6 247,-12"/><polyline fill="none" stroke="#000" points="247 -12 247 -24"/><path fill="none" stroke="#000" d="M247,-24C247,-30 241,-36 235,-36"/><text x="210" y="-14.4" font-family="Times Roman,serif" font-size="14" text-anchor="middle">IAMUser</text></g><g id="edge14" class="edge"><title>S3User-&gt;IAMUser</title><path fill="none" stroke="#000" d="M202.14,-143.762C203.675,-119.201 206.422,-75.2474 208.228,-46.3541"/><polygon fill="#000" stroke="#000" points="211.739 -46.288 208.869 -36.09 204.752 -45.852 211.739 -46.288"/></g><g id="node5" class="node"><title>Password</title><polygon fill="#d3d3d3" stroke="#d3d3d3" points="230 -324 172 -324 160 -312 160 -300 172 -288 230 -288 242 -300 242 -312 230 -324"/><path fill="#d3d3d3" stroke="#d3d3d3" d="M172,-324C166,-324 160,-318 160,-312"/><path fill="#d3d3d3" stroke="#d3d3d3" d="M160,-300C160,-294 166,-288 172,-288"/><path fill="#d3d3d3" stroke="#d3d3d3" d="M230,-288C236,-288 242,-294 242,-300"/><path fill="#d3d3d3" stroke="#d3d3d3" d="M242,-312C242,-318 236,-324 230,-324"/><polyline fill="none" stroke="#000" points="230 -324 172 -324"/><path fill="none" stroke="#000" d="M172,-324C166,-324 160,-318 160,-312"/><polyline fill="none" stroke="#000" points="160 -312 160 -300"/><path fill="none" stroke="#000" d="M160,-300C160,-294 166,-288 172,-288"/><polyline fill="none" stroke="#000" points="172 -288 230 -288"/><path fill="none" stroke="#000" d="M230,-288C236,-288 242,-294 242,-300"/><polyline fill="none" stroke="#000" points="242 -300 242 -312"/><path fill="none" stroke="#000" d="M242,-312C242,-318 236,-324 230,-324"/><text x="201" y="-302.4" font-family="Times Roman,serif" font-size="14" text-anchor="middle">Password</text></g><g id="edge12" class="edge"><title>Password-&gt;S3User</title><path fill="none" stroke="#000" d="M201,-287.762C201,-263.201 201,-219.247 201,-190.354"/><polygon fill="#000" stroke="#000" points="204.5 -190.09 201 -180.09 197.5 -190.09 204.5 -190.09"/></g></g></svg>