<svg xmlns="http://www.w3.org/2000/svg" xmlns:xlink="http://www.w3.org/1999/xlink" width="208pt" height="116pt" viewBox="0 0 208 116"><g id="graph1" class="graph" transform="scale(1 1) rotate(0) translate(4 112)"><title>AWS CloudFormation Sample Template SQS: Sample template showing how to create an SQS queue. **WARNING** This template creates an Amazon SQS Queue. You will be billed for the AWS resources used if you create a stack from this template.</title><polygon fill="#fff" stroke="#fff" points="-4 5 -4 -112 205 -112 205 5 -4 5"/><g id="node1" class="node"><title>MyQueue</title><polygon fill="none" stroke="#000" points="140 -108 58 -108 58 -72 140 -72 140 -108"/><text x="99" y="-86.4" font-family="Times Roman,serif" font-size="14" text-anchor="middle">MyQueue</text></g><g id="node3" class="node"><title>QueueURL</title><polygon fill="#d3d3d3" stroke="#d3d3d3" points="78 -36 12 -36 0 -24 0 -12 12 0 78 0 90 -12 90 -24 78 -36"/><path fill="#d3d3d3" stroke="#d3d3d3" d="M12,-36C6,-36 2.96059e-14,-30 2.36848e-14,-24"/><path fill="#d3d3d3" stroke="#d3d3d3" d="M1.18424e-14,-12C5.92119e-15,-6 6,-1.68162e-14 12,-1.58688e-14"/><path fill="#d3d3d3" stroke="#d3d3d3" d="M78,-5.44749e-15C84,-4.5001e-15 90,-6 90,-12"/><path fill="#d3d3d3" stroke="#d3d3d3" d="M90,-24C90,-30 84,-36 78,-36"/><polyline fill="none" stroke="#000" points="78 -36 12 -36"/><path fill="none" stroke="#000" d="M12,-36C6,-36 2.96059e-14,-30 2.36848e-14,-24"/><polyline fill="none" stroke="#000" points="0 -24 0 -12"/><path fill="none" stroke="#000" d="M1.18424e-14,-12C5.92119e-15,-6 6,-1.68162e-14 12,-1.58688e-14"/><polyline fill="none" stroke="#000" points="12 0 78 0"/><path fill="none" stroke="#000" d="M78,-5.44749e-15C84,-4.5001e-15 90,-6 90,-12"/><polyline fill="none" stroke="#000" points="90 -12 90 -24"/><path fill="none" stroke="#000" d="M90,-24C90,-30 84,-36 78,-36"/><text x="45" y="-14.4" font-family="Times Roman,serif" font-size="14" text-anchor="middle">QueueURL</text></g><g id="edge3" class="edge"><title>MyQueue-&gt;QueueURL</title><path fill="none" stroke="#000" d="M85.3735,-71.8314C79.154,-63.5386 71.6678,-53.557 64.84,-44.4533"/><polygon fill="#000" stroke="#000" points="67.61 -42.313 58.81 -36.413 62.01 -46.513 67.61 -42.313"/></g><g id="node4" class="node"><title>QueueARN</title><polygon fill="#d3d3d3" stroke="#d3d3d3" points="188 -36 120 -36 108 -24 108 -12 120 0 188 0 200 -12 200 -24 188 -36"/><path fill="#d3d3d3" stroke="#d3d3d3" d="M120,-36C114,-36 108,-30 108,-24"/><path fill="#d3d3d3" stroke="#d3d3d3" d="M108,-12C108,-6 114,-1.68368e-14 120,-1.591e-14"/><path fill="#d3d3d3" stroke="#d3d3d3" d="M188,-5.4063e-15C194,-4.47951e-15 200,-6 200,-12"/><path fill="#d3d3d3" stroke="#d3d3d3" d="M200,-24C200,-30 194,-36 188,-36"/><polyline fill="none" stroke="#000" points="188 -36 120 -36"/><path fill="none" stroke="#000" d="M120,-36C114,-36 108,-30 108,-24"/><polyline fill="none" stroke="#000" points="108 -24 108 -12"/><path fill="none" stroke="#000" d="M108,-12C108,-6 114,-1.68368e-14 120,-1.591e-14"/><polyline fill="none" stroke="#000" points="120 0 188 0"/><path fill="none" stroke="#000" d="M188,-5.4063e-15C194,-4.47951e-15 200,-6 200,-12"/><polyline fill="none" stroke="#000" points="200 -12 200 -24"/><path fill="none" stroke="#000" d="M200,-24C200,-30 194,-36 188,-36"/><text x="154" y="-14.4" font-family="Times Roman,serif" font-size="14" text-anchor="middle">QueueARN</text></g><g id="edge5" class="edge"><title>MyQueue-&gt;QueueARN</title><path fill="none" stroke="#000" d="M112.879,-71.8314C119.214,-63.5386 126.838,-53.557 133.793,-44.4533"/><polygon fill="#000" stroke="#000" points="136.645 -46.485 139.934 -36.413 131.083 -42.235 136.645 -46.485"/></g></g></svg>