<svg xmlns="http://www.w3.org/2000/svg" xmlns:xlink="http://www.w3.org/1999/xlink" width="419pt" height="260pt" viewBox="0 0 419 260"><g id="graph1" class="graph" transform="scale(1 1) rotate(0) translate(4 256)"><title>AWS CloudFormation Sample Template SQS_With_CloudWatch_Alarms: Sample template showing how to create an SQS queue with AWS CloudWatch alarms on queue depth. **WARNING** This template creates an Amazon SQS Queue and one or more Amazon CloudWatch alarms. You will be billed for the AWS resources used if you create a stack from this template.</title><polygon fill="#fff" stroke="#fff" points="-4 5 -4 -256 416 -256 416 5 -4 5"/><g id="node1" class="node"><title>MyQueue</title><polygon fill="none" stroke="#000" points="254 -180 172 -180 172 -144 254 -144 254 -180"/><text x="213" y="-158.4" font-family="Times Roman,serif" font-size="14" text-anchor="middle">MyQueue</text></g><g id="node2" class="node"><title>QueueDepthAlarm</title><polygon fill="none" stroke="#000" points="146 -108 0 -108 0 -72 146 -72 146 -108"/><text x="73" y="-86.4" font-family="Times Roman,serif" font-size="14" text-anchor="middle">QueueDepthAlarm</text></g><g id="edge4" class="edge"><title>MyQueue-&gt;QueueDepthAlarm</title><path fill="none" stroke="#000" d="M177.672,-143.831C159.351,-134.409 136.79,-122.806 117.311,-112.788"/><polygon fill="#000" stroke="#000" points="118.81 -109.624 108.317 -108.163 115.609 -115.849 118.81 -109.624"/></g><g id="node7" class="node"><title>QueueURL</title><polygon fill="#d3d3d3" stroke="#d3d3d3" points="169 -36 103 -36 91 -24 91 -12 103 0 169 0 181 -12 181 -24 169 -36"/><path fill="#d3d3d3" stroke="#d3d3d3" d="M103,-36C97,-36 91,-30 91,-24"/><path fill="#d3d3d3" stroke="#d3d3d3" d="M91,-12C91,-6 97,-1.68162e-14 103,-1.58688e-14"/><path fill="#d3d3d3" stroke="#d3d3d3" d="M169,-5.44749e-15C175,-4.5001e-15 181,-6 181,-12"/><path fill="#d3d3d3" stroke="#d3d3d3" d="M181,-24C181,-30 175,-36 169,-36"/><polyline fill="none" stroke="#000" points="169 -36 103 -36"/><path fill="none" stroke="#000" d="M103,-36C97,-36 91,-30 91,-24"/><polyline fill="none" stroke="#000" points="91 -24 91 -12"/><path fill="none" stroke="#000" d="M91,-12C91,-6 97,-1.68162e-14 103,-1.58688e-14"/><polyline fill="none" stroke="#000" points="103 0 169 0"/><path fill="none" stroke="#000" d="M169,-5.44749e-15C175,-4.5001e-15 181,-6 181,-12"/><polyline fill="none" stroke="#000" points="181 -12 181 -24"/><path fill="none" stroke="#000" d="M181,-24C181,-30 175,-36 169,-36"/><text x="136" y="-14.4" font-family="Times Roman,serif" font-size="14" text-anchor="middle">QueueURL</text></g><g id="edge12" class="edge"><title>MyQueue-&gt;QueueURL</title><path fill="none" stroke="#000" d="M203.248,-143.762C189.941,-118.876 165.988,-74.0822 150.553,-45.2165"/><polygon fill="#000" stroke="#000" points="153.475 -43.258 145.673 -36.09 147.302 -46.559 153.475 -43.258"/></g><g id="node8" class="node"><title>QueueName</title><polygon fill="#d3d3d3" stroke="#d3d3d3" points="289 -36 211 -36 199 -24 199 -12 211 0 289 0 301 -12 301 -24 289 -36"/><path fill="#d3d3d3" stroke="#d3d3d3" d="M211,-36C205,-36 199,-30 199,-24"/><path fill="#d3d3d3" stroke="#d3d3d3" d="M199,-12C199,-6 205,-1.69276e-14 211,-1.60917e-14"/><path fill="#d3d3d3" stroke="#d3d3d3" d="M289,-5.22458e-15C295,-4.38865e-15 301,-6 301,-12"/><path fill="#d3d3d3" stroke="#d3d3d3" d="M301,-24C301,-30 295,-36 289,-36"/><polyline fill="none" stroke="#000" points="289 -36 211 -36"/><path fill="none" stroke="#000" d="M211,-36C205,-36 199,-30 199,-24"/><polyline fill="none" stroke="#000" points="199 -24 199 -12"/><path fill="none" stroke="#000" d="M199,-12C199,-6 205,-1.69276e-14 211,-1.60917e-14"/><polyline fill="none" stroke="#000" points="211 0 289 0"/><path fill="none" stroke="#000" d="M289,-5.22458e-15C295,-4.38865e-15 301,-6 301,-12"/><polyline fill="none" stroke="#000" points="301 -12 301 -24"/><path fill="none" stroke="#000" d="M301,-24C301,-30 295,-36 289,-36"/><text x="250" y="-14.4" font-family="Times Roman,serif" font-size="14" text-anchor="middle">QueueName</text></g><g id="edge14" class="edge"><title>MyQueue-&gt;QueueName</title><path fill="none" stroke="#000" d="M217.686,-143.762C224.025,-119.093 235.39,-74.8598 242.812,-45.9731"/><polygon fill="#000" stroke="#000" points="246.253 -46.646 245.352 -36.09 239.473 -44.904 246.253 -46.646"/></g><g id="node9" class="node"><title>QueueARN</title><polygon fill="#d3d3d3" stroke="#d3d3d3" points="399 -36 331 -36 319 -24 319 -12 331 0 399 0 411 -12 411 -24 399 -36"/><path fill="#d3d3d3" stroke="#d3d3d3" d="M331,-36C325,-36 319,-30 319,-24"/><path fill="#d3d3d3" stroke="#d3d3d3" d="M319,-12C319,-6 325,-1.68368e-14 331,-1.591e-14"/><path fill="#d3d3d3" stroke="#d3d3d3" d="M399,-5.4063e-15C405,-4.47951e-15 411,-6 411,-12"/><path fill="#d3d3d3" stroke="#d3d3d3" d="M411,-24C411,-30 405,-36 399,-36"/><polyline fill="none" stroke="#000" points="399 -36 331 -36"/><path fill="none" stroke="#000" d="M331,-36C325,-36 319,-30 319,-24"/><polyline fill="none" stroke="#000" points="319 -24 319 -12"/><path fill="none" stroke="#000" d="M319,-12C319,-6 325,-1.68368e-14 331,-1.591e-14"/><polyline fill="none" stroke="#000" points="331 0 399 0"/><path fill="none" stroke="#000" d="M399,-5.4063e-15C405,-4.47951e-15 411,-6 411,-12"/><polyline fill="none" stroke="#000" points="411 -12 411 -24"/><path fill="none" stroke="#000" d="M411,-24C411,-30 405,-36 399,-36"/><text x="365" y="-14.4" font-family="Times Roman,serif" font-size="14" text-anchor="middle">QueueARN</text></g><g id="edge16" class="edge"><title>MyQueue-&gt;QueueARN</title><path fill="none" stroke="#000" d="M232.251,-143.762C259.205,-118.227 308.283,-71.7316 338.621,-42.9906"/><polygon fill="#000" stroke="#000" points="341.053 -45.508 345.905 -36.09 336.239 -40.426 341.053 -45.508"/></g><g id="node3" class="node"><title>AlarmTopic</title><polygon fill="none" stroke="#000" points="118 -180 28 -180 28 -144 118 -144 118 -180"/><text x="73" y="-158.4" font-family="Times Roman,serif" font-size="14" text-anchor="middle">AlarmTopic</text></g><g id="edge6" class="edge"><title>AlarmTopic-&gt;QueueDepthAlarm</title><path fill="none" stroke="#000" d="M67.0476,-143.831C66.2972,-136.131 66.0763,-126.974 66.3849,-118.417"/><polygon fill="#000" stroke="#000" points="69.879 -118.616 67.024 -108.413 62.894 -118.17 69.879 -118.616"/></g><g id="edge8" class="edge"><title>AlarmTopic-&gt;QueueDepthAlarm</title><path fill="none" stroke="#000" d="M78.9524,-143.831C79.7028,-136.131 79.9237,-126.974 79.6151,-118.417"/><polygon fill="#000" stroke="#000" points="83.106 -118.17 78.976 -108.413 76.121 -118.616 83.106 -118.17"/></g><g id="node5" class="node"><title>AlarmEmail</title><polygon fill="#d3d3d3" stroke="#d3d3d3" points="108 -252 38 -252 26 -240 26 -228 38 -216 108 -216 120 -228 120 -240 108 -252"/><path fill="#d3d3d3" stroke="#d3d3d3" d="M38,-252C32,-252 26,-246 26,-240"/><path fill="#d3d3d3" stroke="#d3d3d3" d="M26,-228C26,-222 32,-216 38,-216"/><path fill="#d3d3d3" stroke="#d3d3d3" d="M108,-216C114,-216 120,-222 120,-228"/><path fill="#d3d3d3" stroke="#d3d3d3" d="M120,-240C120,-246 114,-252 108,-252"/><polyline fill="none" stroke="#000" points="108 -252 38 -252"/><path fill="none" stroke="#000" d="M38,-252C32,-252 26,-246 26,-240"/><polyline fill="none" stroke="#000" points="26 -240 26 -228"/><path fill="none" stroke="#000" d="M26,-228C26,-222 32,-216 38,-216"/><polyline fill="none" stroke="#000" points="38 -216 108 -216"/><path fill="none" stroke="#000" d="M108,-216C114,-216 120,-222 120,-228"/><polyline fill="none" stroke="#000" points="120 -228 120 -240"/><path fill="none" stroke="#000" d="M120,-240C120,-246 114,-252 108,-252"/><text x="73" y="-230.4" font-family="Times Roman,serif" font-size="14" text-anchor="middle">AlarmEmail</text></g><g id="edge10" class="edge"><title>AlarmEmail-&gt;AlarmTopic</title><path fill="none" stroke="#000" d="M73,-215.831C73,-208.131 73,-198.974 73,-190.417"/><polygon fill="#000" stroke="#000" points="76.5 -190.413 73 -180.413 69.5 -190.413 76.5 -190.413"/></g></g></svg>