<svg xmlns="http://www.w3.org/2000/svg" xmlns:xlink="http://www.w3.org/1999/xlink" width="860pt" height="404pt" viewBox="0 0 860 404"><g id="graph1" class="graph" transform="scale(1 1) rotate(0) translate(4 400)"><title>AWS CloudFormation Sample Template UpdateTutorial Part 5: Sample template that can be used to test EC2 updates convert a single instance deployment into an Auto Scaled, Load Balanced solutio. **WARNING** This template creates an Amazon Ec2 Instance. You will be billed for the AWS resources used if you create a stack from this template.</title><polygon fill="#fff" stroke="#fff" points="-4 5 -4 -400 857 -400 857 5 -4 5"/><g id="node1" class="node"><title>WebServerSecurityGroup</title><polygon fill="none" stroke="#000" points="308 -252 116 -252 116 -216 308 -216 308 -252"/><text x="212" y="-230.4" font-family="Times Roman,serif" font-size="14" text-anchor="middle">WebServerSecurityGroup</text></g><g id="node6" class="node"><title>WebServerConfig</title><polygon fill="none" stroke="#000" points="613 -180 477 -180 477 -144 613 -144 613 -180"/><text x="545" y="-158.4" font-family="Times Roman,serif" font-size="14" text-anchor="middle">WebServerConfig</text></g><g id="edge26" class="edge"><title>WebServerSecurityGroup-&gt;WebServerConfig</title><path fill="none" stroke="#000" d="M295.6,-215.924C348.069,-204.58 415.285,-190.047 466.713,-178.927"/><polygon fill="#000" stroke="#000" points="467.745 -182.285 476.779 -176.75 466.266 -175.443 467.745 -182.285"/></g><g id="node2" class="node"><title>WebServerWaitHandle</title><polygon fill="none" stroke="#000" points="843 -252 671 -252 671 -216 843 -216 843 -252"/><text x="757" y="-230.4" font-family="Times Roman,serif" font-size="14" text-anchor="middle">WebServerWaitHandle</text></g><g id="node5" class="node"><title>WebServerWaitCondition</title><polygon fill="none" stroke="#000" points="852 -108 662 -108 662 -72 852 -72 852 -108"/><text x="757" y="-86.4" font-family="Times Roman,serif" font-size="14" text-anchor="middle">WebServerWaitCondition</text></g><g id="edge14" class="edge"><title>WebServerWaitHandle-&gt;WebServerWaitCondition</title><path fill="none" stroke="#000" d="M757,-215.762C757,-191.201 757,-147.247 757,-118.354"/><polygon fill="#000" stroke="#000" points="760.5 -118.09 757 -108.09 753.5 -118.09 760.5 -118.09"/></g><g id="edge16" class="edge"><title>WebServerWaitHandle-&gt;WebServerConfig</title><path fill="none" stroke="#000" d="M697.834,-215.924C667.886,-206.081 631.739,-193.839 602.089,-183.507"/><polygon fill="#000" stroke="#000" points="602.896 -180.082 592.301 -180.083 600.584 -186.689 602.896 -180.082"/></g><g id="edge22" class="edge"><title>WebServerWaitHandle-&gt;WebServerConfig</title><path fill="none" stroke="#000" d="M709.72,-215.924C681.461,-205.996 645.129,-193.625 613.753,-183.238"/><polygon fill="#000" stroke="#000" points="614.782 -179.892 604.189 -180.083 612.589 -186.54 614.782 -179.892"/></g><g id="node3" class="node"><title>WebServerGroup</title><polygon fill="none" stroke="#000" points="414 -108 278 -108 278 -72 414 -72 414 -108"/><text x="346" y="-86.4" font-family="Times Roman,serif" font-size="14" text-anchor="middle">WebServerGroup</text></g><g id="node4" class="node"><title>ElasticLoadBalancer</title><polygon fill="none" stroke="#000" points="165 -324 11 -324 11 -288 165 -288 165 -324"/><text x="88" y="-302.4" font-family="Times Roman,serif" font-size="14" text-anchor="middle">ElasticLoadBalancer</text></g><g id="edge6" class="edge"><title>ElasticLoadBalancer-&gt;WebServerSecurityGroup</title><path fill="none" stroke="#000" d="M113.338,-287.831C128.439,-278.537 147.966,-267.121 165.694,-257.197"/><polygon fill="#000" stroke="#000" points="167.722 -260.075 174.768 -252.163 164.325 -253.954 167.722 -260.075"/></g><g id="edge8" class="edge"><title>ElasticLoadBalancer-&gt;WebServerSecurityGroup</title><path fill="none" stroke="#000" d="M125.243,-287.831C142.001,-278.622 161.588,-267.33 177.951,-257.471"/><polygon fill="#000" stroke="#000" points="179.949 -260.352 186.671 -252.163 176.31 -254.372 179.949 -260.352"/></g><g id="edge10" class="edge"><title>ElasticLoadBalancer-&gt;WebServerGroup</title><path fill="none" stroke="#000" d="M87.4759,-287.939C87.8173,-268.336 91.12,-237.027 107,-216 147.002,-163.034 215.804,-130.125 269.346,-111.283"/><polygon fill="#000" stroke="#000" points="270.489 -114.591 278.815 -108.039 268.221 -107.968 270.489 -114.591"/></g><g id="node12" class="node"><title>WebsiteURL</title><polygon fill="#d3d3d3" stroke="#d3d3d3" points="88 -36 12 -36 0 -24 0 -12 12 0 88 0 100 -12 100 -24 88 -36"/><path fill="#d3d3d3" stroke="#d3d3d3" d="M12,-36C6,-36 2.96059e-14,-30 2.36848e-14,-24"/><path fill="#d3d3d3" stroke="#d3d3d3" d="M1.18424e-14,-12C5.92119e-15,-6 6,-1.69109e-14 12,-1.60583e-14"/><path fill="#d3d3d3" stroke="#d3d3d3" d="M88,-5.25802e-15C94,-4.40536e-15 100,-6 100,-12"/><path fill="#d3d3d3" stroke="#d3d3d3" d="M100,-24C100,-30 94,-36 88,-36"/><polyline fill="none" stroke="#000" points="88 -36 12 -36"/><path fill="none" stroke="#000" d="M12,-36C6,-36 2.96059e-14,-30 2.36848e-14,-24"/><polyline fill="none" stroke="#000" points="0 -24 0 -12"/><path fill="none" stroke="#000" d="M1.18424e-14,-12C5.92119e-15,-6 6,-1.69109e-14 12,-1.60583e-14"/><polyline fill="none" stroke="#000" points="12 0 88 0"/><path fill="none" stroke="#000" d="M88,-5.25802e-15C94,-4.40536e-15 100,-6 100,-12"/><polyline fill="none" stroke="#000" points="100 -12 100 -24"/><path fill="none" stroke="#000" d="M100,-24C100,-30 94,-36 88,-36"/><text x="50" y="-14.4" font-family="Times Roman,serif" font-size="14" text-anchor="middle">WebsiteURL</text></g><g id="edge42" class="edge"><title>ElasticLoadBalancer-&gt;WebsiteURL</title><path fill="none" stroke="#000" d="M85.6229,-287.984C79.1985,-239.294 61.4523,-104.796 53.702,-46.0573"/><polygon fill="#000" stroke="#000" points="57.154 -45.465 52.376 -36.009 50.214 -46.381 57.154 -45.465"/></g><g id="edge12" class="edge"><title>WebServerConfig-&gt;WebServerGroup</title><path fill="none" stroke="#000" d="M495.041,-143.924C467.836,-134.081 433.998,-121.839 405.444,-111.507"/><polygon fill="#000" stroke="#000" points="406.574 -108.194 395.98 -108.083 404.192 -114.777 406.574 -108.194"/></g><g id="node8" class="node"><title>SSHLocation</title><polygon fill="#d3d3d3" stroke="#d3d3d3" points="231 -396 151 -396 139 -384 139 -372 151 -360 231 -360 243 -372 243 -384 231 -396"/><path fill="#d3d3d3" stroke="#d3d3d3" d="M151,-396C145,-396 139,-390 139,-384"/><path fill="#d3d3d3" stroke="#d3d3d3" d="M139,-372C139,-366 145,-360 151,-360"/><path fill="#d3d3d3" stroke="#d3d3d3" d="M231,-360C237,-360 243,-366 243,-372"/><path fill="#d3d3d3" stroke="#d3d3d3" d="M243,-384C243,-390 237,-396 231,-396"/><polyline fill="none" stroke="#000" points="231 -396 151 -396"/><path fill="none" stroke="#000" d="M151,-396C145,-396 139,-390 139,-384"/><polyline fill="none" stroke="#000" points="139 -384 139 -372"/><path fill="none" stroke="#000" d="M139,-372C139,-366 145,-360 151,-360"/><polyline fill="none" stroke="#000" points="151 -360 231 -360"/><path fill="none" stroke="#000" d="M231,-360C237,-360 243,-366 243,-372"/><polyline fill="none" stroke="#000" points="243 -372 243 -384"/><path fill="none" stroke="#000" d="M243,-384C243,-390 237,-396 231,-396"/><text x="191" y="-374.4" font-family="Times Roman,serif" font-size="14" text-anchor="middle">SSHLocation</text></g><g id="edge4" class="edge"><title>SSHLocation-&gt;WebServerSecurityGroup</title><path fill="none" stroke="#000" d="M193.66,-359.762C197.242,-335.201 203.651,-291.247 207.865,-262.354"/><polygon fill="#000" stroke="#000" points="211.382 -262.49 209.362 -252.09 204.455 -261.48 211.382 -262.49"/></g><g id="node9" class="node"><title>WebServerKeyName</title><polygon fill="#d3d3d3" stroke="#d3d3d3" points="407 -396 273 -396 261 -384 261 -372 273 -360 407 -360 419 -372 419 -384 407 -396"/><path fill="#d3d3d3" stroke="#d3d3d3" d="M273,-396C267,-396 261,-390 261,-384"/><path fill="#d3d3d3" stroke="#d3d3d3" d="M261,-372C261,-366 267,-360 273,-360"/><path fill="#d3d3d3" stroke="#d3d3d3" d="M407,-360C413,-360 419,-366 419,-372"/><path fill="#d3d3d3" stroke="#d3d3d3" d="M419,-384C419,-390 413,-396 407,-396"/><polyline fill="none" stroke="#000" points="407 -396 273 -396"/><path fill="none" stroke="#000" d="M273,-396C267,-396 261,-390 261,-384"/><polyline fill="none" stroke="#000" points="261 -384 261 -372"/><path fill="none" stroke="#000" d="M261,-372C261,-366 267,-360 273,-360"/><polyline fill="none" stroke="#000" points="273 -360 407 -360"/><path fill="none" stroke="#000" d="M407,-360C413,-360 419,-366 419,-372"/><polyline fill="none" stroke="#000" points="419 -372 419 -384"/><path fill="none" stroke="#000" d="M419,-384C419,-390 413,-396 407,-396"/><text x="340" y="-374.4" font-family="Times Roman,serif" font-size="14" text-anchor="middle">WebServerKeyName</text></g><g id="edge24" class="edge"><title>WebServerKeyName-&gt;WebServerConfig</title><path fill="none" stroke="#000" d="M335.881,-359.987C329.529,-327.224 321.412,-257.443 356,-216 370.616,-198.487 421.511,-184.538 466.807,-175.208"/><polygon fill="#000" stroke="#000" points="467.554 -178.627 476.671 -173.229 466.177 -171.764 467.554 -178.627"/></g><g id="node10" class="node"><title>WebServerInstanceType</title><polygon fill="#d3d3d3" stroke="#d3d3d3" points="713 -396 555 -396 543 -384 543 -372 555 -360 713 -360 725 -372 725 -384 713 -396"/><path fill="#d3d3d3" stroke="#d3d3d3" d="M555,-396C549,-396 543,-390 543,-384"/><path fill="#d3d3d3" stroke="#d3d3d3" d="M543,-372C543,-366 549,-360 555,-360"/><path fill="#d3d3d3" stroke="#d3d3d3" d="M713,-360C719,-360 725,-366 725,-372"/><path fill="#d3d3d3" stroke="#d3d3d3" d="M725,-384C725,-390 719,-396 713,-396"/><polyline fill="none" stroke="#000" points="713 -396 555 -396"/><path fill="none" stroke="#000" d="M555,-396C549,-396 543,-390 543,-384"/><polyline fill="none" stroke="#000" points="543 -384 543 -372"/><path fill="none" stroke="#000" d="M543,-372C543,-366 549,-360 555,-360"/><polyline fill="none" stroke="#000" points="555 -360 713 -360"/><path fill="none" stroke="#000" d="M713,-360C719,-360 725,-366 725,-372"/><polyline fill="none" stroke="#000" points="725 -372 725 -384"/><path fill="none" stroke="#000" d="M725,-384C725,-390 719,-396 713,-396"/><text x="634" y="-374.4" font-family="Times Roman,serif" font-size="14" text-anchor="middle">WebServerInstanceType</text></g><g id="edge28" class="edge"><title>WebServerInstanceType-&gt;WebServerConfig</title><path fill="none" stroke="#000" d="M629.219,-359.702C625.984,-328.265 623.133,-262.865 597,-216 590.873,-205.013 581.64,-195.141 572.576,-186.937"/><polygon fill="#000" stroke="#000" points="574.594 -184.055 564.737 -180.171 570.02 -189.354 574.594 -184.055"/></g><g id="edge32" class="edge"><title>WebServerInstanceType-&gt;WebServerConfig</title><path fill="none" stroke="#000" d="M640.09,-359.702C643.984,-328.265 641.133,-262.865 615,-216 608.749,-204.791 599.266,-194.743 589.226,-186.442"/><polygon fill="#000" stroke="#000" points="591.159 -183.513 581.105 -180.171 586.88 -189.053 591.159 -183.513"/></g><g id="node20" class="node"><title>AWS::StackId</title><polygon fill="none" stroke="#000" points="475 -252 365 -252 365 -216 475 -216 475 -252"/><text x="420" y="-230.4" font-family="Times Roman,serif" font-size="14" text-anchor="middle">AWS::StackId</text></g><g id="edge34" class="edge"><title>AWS::StackId-&gt;WebServerConfig</title><path fill="none" stroke="#000" d="M439.638,-215.831C454.094,-206.452 473.873,-194.911 492.526,-184.924"/><polygon fill="#000" stroke="#000" points="494.348 -187.92 501.564 -180.163 491.085 -181.727 494.348 -187.92"/></g><g id="edge38" class="edge"><title>AWS::StackId-&gt;WebServerConfig</title><path fill="none" stroke="#000" d="M463.448,-215.831C481.066,-206.707 500.747,-195.539 516.556,-185.745"/><polygon fill="#000" stroke="#000" points="518.795 -188.47 525.371 -180.163 515.05 -182.556 518.795 -188.47"/></g><g id="edge18" class="edge"><title>AWS::StackId-&gt;WebServerConfig</title><path fill="none" stroke="#000" d="M451.543,-215.831C467.679,-206.537 487.499,-195.121 504.727,-185.197"/><polygon fill="#000" stroke="#000" points="506.549 -188.187 513.467 -180.163 503.055 -182.121 506.549 -188.187"/></g><g id="node22" class="node"><title>AWS::Region</title><polygon fill="none" stroke="#000" points="597 -252 493 -252 493 -216 597 -216 597 -252"/><text x="545" y="-230.4" font-family="Times Roman,serif" font-size="14" text-anchor="middle">AWS::Region</text></g><g id="edge30" class="edge"><title>AWS::Region-&gt;WebServerConfig</title><path fill="none" stroke="#000" d="M527.143,-215.831C524.892,-208.131 524.229,-198.974 525.155,-190.417"/><polygon fill="#000" stroke="#000" points="528.627 -190.893 527.072 -180.413 521.752 -189.576 528.627 -190.893"/></g><g id="edge36" class="edge"><title>AWS::Region-&gt;WebServerConfig</title><path fill="none" stroke="#000" d="M550.952,-215.831C551.703,-208.131 551.924,-198.974 551.615,-190.417"/><polygon fill="#000" stroke="#000" points="555.107 -190.17 550.976 -180.413 548.121 -190.616 555.107 -190.17"/></g><g id="edge40" class="edge"><title>AWS::Region-&gt;WebServerConfig</title><path fill="none" stroke="#000" d="M562.857,-215.831C565.108,-208.131 565.771,-198.974 564.845,-190.417"/><polygon fill="#000" stroke="#000" points="568.248 -189.576 562.928 -180.413 561.373 -190.893 568.248 -189.576"/></g><g id="edge20" class="edge"><title>AWS::Region-&gt;WebServerConfig</title><path fill="none" stroke="#000" d="M539.048,-215.831C538.297,-208.131 538.076,-198.974 538.385,-190.417"/><polygon fill="#000" stroke="#000" points="541.879 -190.616 539.024 -180.413 534.893 -190.17 541.879 -190.616"/></g></g></svg>