<svg xmlns="http://www.w3.org/2000/svg" xmlns:xlink="http://www.w3.org/1999/xlink" width="1164" height="404pt" viewBox="0 0 873 404"><g id="graph1" class="graph" transform="scale(1 1) rotate(0) translate(4 400)"><title>AWS CloudFormation Sample Template UpdateTutorial Part 2: Sample template that can be used to test EC2 updates. **WARNING** This template creates an Amazon Ec2 Instance. You will be billed for the AWS resources used if you create a stack from this template.</title><polygon fill="#fff" stroke="#fff" points="-4 5 -4 -400 870 -400 870 5 -4 5"/><g id="node1" class="node"><title>Endpoint</title><polygon fill="none" stroke="#000" points="515 -108 437 -108 437 -72 515 -72 515 -108"/><text x="476" y="-86.4" font-family="Times Roman,serif" font-size="14" text-anchor="middle">Endpoint</text></g><g id="node11" class="node"><title>WebsiteURL</title><polygon fill="#d3d3d3" stroke="#d3d3d3" points="514 -36 438 -36 426 -24 426 -12 438 0 514 0 526 -12 526 -24 514 -36"/><path fill="#d3d3d3" stroke="#d3d3d3" d="M438,-36C432,-36 426,-30 426,-24"/><path fill="#d3d3d3" stroke="#d3d3d3" d="M426,-12C426,-6 432,-1.69109e-14 438,-1.60583e-14"/><path fill="#d3d3d3" stroke="#d3d3d3" d="M514,-5.25802e-15C520,-4.40536e-15 526,-6 526,-12"/><path fill="#d3d3d3" stroke="#d3d3d3" d="M526,-24C526,-30 520,-36 514,-36"/><polyline fill="none" stroke="#000" points="514 -36 438 -36"/><path fill="none" stroke="#000" d="M438,-36C432,-36 426,-30 426,-24"/><polyline fill="none" stroke="#000" points="426 -24 426 -12"/><path fill="none" stroke="#000" d="M426,-12C426,-6 432,-1.69109e-14 438,-1.60583e-14"/><polyline fill="none" stroke="#000" points="438 0 514 0"/><path fill="none" stroke="#000" d="M514,-5.25802e-15C520,-4.40536e-15 526,-6 526,-12"/><polyline fill="none" stroke="#000" points="526 -12 526 -24"/><path fill="none" stroke="#000" d="M526,-24C526,-30 520,-36 514,-36"/><text x="476" y="-14.4" font-family="Times Roman,serif" font-size="14" text-anchor="middle">WebsiteURL</text></g><g id="edge42" class="edge"><title>Endpoint-&gt;WebsiteURL</title><path fill="none" stroke="#000" d="M476,-71.8314C476,-64.131 476,-54.9743 476,-46.4166"/><polygon fill="#000" stroke="#000" points="479.5 -46.413 476 -36.413 472.5 -46.413 479.5 -46.413"/></g><g id="node2" class="node"><title>WebServerHost</title><polygon fill="none" stroke="#000" points="538 -180 414 -180 414 -144 538 -144 538 -180"/><text x="476" y="-158.4" font-family="Times Roman,serif" font-size="14" text-anchor="middle">WebServerHost</text></g><g id="edge4" class="edge"><title>WebServerHost-&gt;Endpoint</title><path fill="none" stroke="#000" d="M476,-143.831C476,-136.131 476,-126.974 476,-118.417"/><polygon fill="#000" stroke="#000" points="479.5 -118.413 476 -108.413 472.5 -118.413 479.5 -118.413"/></g><g id="node3" class="node"><title>WebServerWaitHandle</title><polygon fill="none" stroke="#000" points="856 -252 684 -252 684 -216 856 -216 856 -252"/><text x="770" y="-230.4" font-family="Times Roman,serif" font-size="14" text-anchor="middle">WebServerWaitHandle</text></g><g id="edge6" class="edge"><title>WebServerWaitHandle-&gt;WebServerHost</title><path fill="none" stroke="#000" d="M690.248,-215.924C645.809,-205.297 590.956,-191.871 547.852,-181.075"/><polygon fill="#000" stroke="#000" points="548.555 -177.643 538.003 -178.602 546.85 -184.432 548.555 -177.643"/></g><g id="edge16" class="edge"><title>WebServerWaitHandle-&gt;WebServerHost</title><path fill="none" stroke="#000" d="M702.134,-215.924C655.95,-204.335 594.976,-189.419 547.95,-178.213"/><polygon fill="#000" stroke="#000" points="548.675 -174.788 538.137 -175.881 547.057 -181.598 548.675 -174.788"/></g><g id="node4" class="node"><title>WebServerWaitCondition</title><polygon fill="none" stroke="#000" points="865 -108 675 -108 675 -72 865 -72 865 -108"/><text x="770" y="-86.4" font-family="Times Roman,serif" font-size="14" text-anchor="middle">WebServerWaitCondition</text></g><g id="edge38" class="edge"><title>WebServerWaitHandle-&gt;WebServerWaitCondition</title><path fill="none" stroke="#000" d="M770,-215.762C770,-191.201 770,-147.247 770,-118.354"/><polygon fill="#000" stroke="#000" points="773.5 -118.09 770 -108.09 766.5 -118.09 773.5 -118.09"/></g><g id="node5" class="node"><title>WebServerKeys</title><polygon fill="none" stroke="#000" points="296 -252 172 -252 172 -216 296 -216 296 -252"/><text x="234" y="-230.4" font-family="Times Roman,serif" font-size="14" text-anchor="middle">WebServerKeys</text></g><g id="edge34" class="edge"><title>WebServerKeys-&gt;WebServerHost</title><path fill="none" stroke="#000" d="M276.925,-215.924C312.403,-204.355 362.624,-189.47 404.053,-178.271"/><polygon fill="#000" stroke="#000" points="405.08 -181.619 413.835 -175.652 403.27 -174.857 405.08 -181.619"/></g><g id="edge36" class="edge"><title>WebServerKeys-&gt;WebServerHost</title><path fill="none" stroke="#000" d="M296.072,-220.373C335.63,-209.894 385.726,-195.225 423.346,-183.214"/><polygon fill="#000" stroke="#000" points="424.673 -186.464 433.115 -180.063 422.524 -179.802 424.673 -186.464"/></g><g id="edge10" class="edge"><title>WebServerKeys-&gt;WebServerHost</title><path fill="none" stroke="#000" d="M288.811,-215.924C322.998,-205.447 367.31,-192.25 404.265,-181.534"/><polygon fill="#000" stroke="#000" points="405.349 -184.864 413.984 -178.724 403.405 -178.139 405.349 -184.864"/></g><g id="edge12" class="edge"><title>WebServerKeys-&gt;WebServerHost</title><path fill="none" stroke="#000" d="M296.243,-217.21C331.56,-207.031 375.646,-193.953 411.348,-183.082"/><polygon fill="#000" stroke="#000" points="412.64 -186.347 421.182 -180.078 410.595 -179.652 412.64 -186.347"/></g><g id="node6" class="node"><title>WebServerUser</title><polygon fill="none" stroke="#000" points="124 -324 0 -324 0 -288 124 -288 124 -324"/><text x="62" y="-302.4" font-family="Times Roman,serif" font-size="14" text-anchor="middle">WebServerUser</text></g><g id="edge40" class="edge"><title>WebServerUser-&gt;WebServerKeys</title><path fill="none" stroke="#000" d="M105.403,-287.831C128.509,-278.159 157.104,-266.189 181.458,-255.994"/><polygon fill="#000" stroke="#000" points="183.036 -259.128 190.909 -252.038 180.333 -252.671 183.036 -259.128"/></g><g id="node7" class="node"><title>WebServerSecurityGroup</title><polygon fill="none" stroke="#000" points="334 -324 142 -324 142 -288 334 -288 334 -324"/><text x="238" y="-302.4" font-family="Times Roman,serif" font-size="14" text-anchor="middle">WebServerSecurityGroup</text></g><g id="edge18" class="edge"><title>WebServerSecurityGroup-&gt;WebServerHost</title><path fill="none" stroke="#000" d="M260.724,-287.858C273.735,-277.427 290.339,-264.043 305,-252 324.259,-236.179 326.727,-228.988 348,-216 368.532,-203.465 392.495,-192.5 414.099,-183.785"/><polygon fill="#000" stroke="#000" points="415.501 -186.995 423.516 -180.066 412.929 -180.484 415.501 -186.995"/></g><g id="node9" class="node"><title>WebServerInstanceType</title><polygon fill="#d3d3d3" stroke="#d3d3d3" points="450 -396 292 -396 280 -384 280 -372 292 -360 450 -360 462 -372 462 -384 450 -396"/><path fill="#d3d3d3" stroke="#d3d3d3" d="M292,-396C286,-396 280,-390 280,-384"/><path fill="#d3d3d3" stroke="#d3d3d3" d="M280,-372C280,-366 286,-360 292,-360"/><path fill="#d3d3d3" stroke="#d3d3d3" d="M450,-360C456,-360 462,-366 462,-372"/><path fill="#d3d3d3" stroke="#d3d3d3" d="M462,-384C462,-390 456,-396 450,-396"/><polyline fill="none" stroke="#000" points="450 -396 292 -396"/><path fill="none" stroke="#000" d="M292,-396C286,-396 280,-390 280,-384"/><polyline fill="none" stroke="#000" points="280 -384 280 -372"/><path fill="none" stroke="#000" d="M280,-372C280,-366 286,-360 292,-360"/><polyline fill="none" stroke="#000" points="292 -360 450 -360"/><path fill="none" stroke="#000" d="M450,-360C456,-360 462,-366 462,-372"/><polyline fill="none" stroke="#000" points="462 -372 462 -384"/><path fill="none" stroke="#000" d="M462,-384C462,-390 456,-396 450,-396"/><text x="371" y="-374.4" font-family="Times Roman,serif" font-size="14" text-anchor="middle">WebServerInstanceType</text></g><g id="edge24" class="edge"><title>WebServerInstanceType-&gt;WebServerHost</title><path fill="none" stroke="#000" d="M364.435,-359.88C359.616,-328.145 361.109,-261.556 390,-216 397.744,-203.788 409.346,-193.563 421.581,-185.412"/><polygon fill="#000" stroke="#000" points="423.474 -188.356 430.114 -180.1 419.775 -182.414 423.474 -188.356"/></g><g id="edge20" class="edge"><title>WebServerInstanceType-&gt;WebServerHost</title><path fill="none" stroke="#000" d="M375.191,-359.88C377.616,-328.145 379.109,-261.556 408,-216 415.595,-204.023 426.901,-193.957 438.173,-185.884"/><polygon fill="#000" stroke="#000" points="440.402 -188.602 446.724 -180.1 436.48 -182.804 440.402 -188.602"/></g><g id="node14" class="node"><title>AWS::StackName</title><polygon fill="none" stroke="#000" points="544 -252 408 -252 408 -216 544 -216 544 -252"/><text x="476" y="-230.4" font-family="Times Roman,serif" font-size="14" text-anchor="middle">AWS::StackName</text></g><g id="edge26" class="edge"><title>AWS::StackName-&gt;WebServerHost</title><path fill="none" stroke="#000" d="M464.095,-215.831C462.594,-208.131 462.153,-198.974 462.77,-190.417"/><polygon fill="#000" stroke="#000" points="466.252 -190.776 464.048 -180.413 459.309 -189.889 466.252 -190.776"/></g><g id="edge30" class="edge"><title>AWS::StackName-&gt;WebServerHost</title><path fill="none" stroke="#000" d="M487.905,-215.831C489.406,-208.131 489.847,-198.974 489.23,-190.417"/><polygon fill="#000" stroke="#000" points="492.691 -189.889 487.952 -180.413 485.748 -190.776 492.691 -189.889"/></g><g id="edge8" class="edge"><title>AWS::StackName-&gt;WebServerHost</title><path fill="none" stroke="#000" d="M476,-215.831C476,-208.131 476,-198.974 476,-190.417"/><polygon fill="#000" stroke="#000" points="479.5 -190.413 476 -180.413 472.5 -190.413 479.5 -190.413"/></g><g id="node18" class="node"><title>AWS::Region</title><polygon fill="none" stroke="#000" points="666 -252 562 -252 562 -216 666 -216 666 -252"/><text x="614" y="-230.4" font-family="Times Roman,serif" font-size="14" text-anchor="middle">AWS::Region</text></g><g id="edge28" class="edge"><title>AWS::Region-&gt;WebServerHost</title><path fill="none" stroke="#000" d="M561.73,-216.017C541.196,-206.739 518.858,-195.31 501.672,-185.357"/><polygon fill="#000" stroke="#000" points="503.079 -182.121 492.698 -180.003 499.492 -188.133 503.079 -182.121"/></g><g id="edge32" class="edge"><title>AWS::Region-&gt;WebServerHost</title><path fill="none" stroke="#000" d="M597.034,-215.831C581.462,-206.245 559.102,-194.401 537.554,-184.266"/><polygon fill="#000" stroke="#000" points="538.938 -181.049 528.392 -180.038 536.005 -187.405 538.938 -181.049"/></g><g id="edge14" class="edge"><title>AWS::Region-&gt;WebServerHost</title><path fill="none" stroke="#000" d="M573.224,-215.831C554.418,-206.494 532.287,-195.016 513.853,-185.061"/><polygon fill="#000" stroke="#000" points="515.316 -181.872 504.86 -180.163 511.968 -188.02 515.316 -181.872"/></g><g id="edge22" class="edge"><title>AWS::Region-&gt;WebServerHost</title><path fill="none" stroke="#000" d="M585.129,-215.831C567.844,-206.33 545.505,-194.612 525.508,-184.537"/><polygon fill="#000" stroke="#000" points="527.022 -181.381 516.512 -180.038 523.89 -187.642 527.022 -181.381"/></g></g></svg>