<svg xmlns="http://www.w3.org/2000/svg" xmlns:xlink="http://www.w3.org/1999/xlink" width="809pt" height="260pt" viewBox="0 0 809 260"><g id="graph1" class="graph" transform="scale(1 1) rotate(0) translate(4 256)"><title>AWS CloudFormation Sample Template VPC_RDS_DB_Instance: Sample template showing how to create an RDS DBInstance in an existing Virtual Private Cloud (VPC). **WARNING** This template creates an Amazon Relational Database Service database instance. You will be billed for the AWS resources used if you create a stack from this template.</title><polygon fill="#fff" stroke="#fff" points="-4 5 -4 -256 806 -256 806 5 -4 5"/><g id="node1" class="node"><title>MyDBSecurityGroup</title><polygon fill="none" stroke="#000" points="801 -180 643 -180 643 -144 801 -144 801 -180"/><text x="722" y="-158.4" font-family="Times Roman,serif" font-size="14" text-anchor="middle">MyDBSecurityGroup</text></g><g id="node3" class="node"><title>MyDB</title><polygon fill="none" stroke="#000" points="342 -108 284 -108 284 -72 342 -72 342 -108"/><text x="313" y="-86.4" font-family="Times Roman,serif" font-size="14" text-anchor="middle">MyDB</text></g><g id="edge8" class="edge"><title>MyDBSecurityGroup-&gt;MyDB</title><path fill="none" stroke="#000" d="M642.874,-146.563C638.182,-145.686 633.53,-144.825 629,-144 529.567,-125.884 412.192,-106.297 352.365,-96.4419"/><polygon fill="#000" stroke="#000" points="352.662 -92.944 342.227 -94.775 351.526 -99.851 352.662 -92.944"/></g><g id="node2" class="node"><title>MyDBSubnetGroup</title><polygon fill="none" stroke="#000" points="254 -180 104 -180 104 -144 254 -144 254 -180"/><text x="179" y="-158.4" font-family="Times Roman,serif" font-size="14" text-anchor="middle">MyDBSubnetGroup</text></g><g id="edge18" class="edge"><title>MyDBSubnetGroup-&gt;MyDB</title><path fill="none" stroke="#000" d="M212.814,-143.831C231.689,-133.69 255.264,-121.022 274.804,-110.523"/><polygon fill="#000" stroke="#000" points="276.596 -113.534 283.748 -105.717 273.283 -107.367 276.596 -113.534"/></g><g id="node13" class="node"><title>JDBCConnectionString</title><polygon fill="#d3d3d3" stroke="#d3d3d3" points="387 -36 239 -36 227 -24 227 -12 239 0 387 0 399 -12 399 -24 387 -36"/><path fill="#d3d3d3" stroke="#d3d3d3" d="M239,-36C233,-36 227,-30 227,-24"/><path fill="#d3d3d3" stroke="#d3d3d3" d="M227,-12C227,-6 233,-1.72678e-14 239,-1.67721e-14"/><path fill="#d3d3d3" stroke="#d3d3d3" d="M387,-4.54417e-15C393,-4.04844e-15 399,-6 399,-12"/><path fill="#d3d3d3" stroke="#d3d3d3" d="M399,-24C399,-30 393,-36 387,-36"/><polyline fill="none" stroke="#000" points="387 -36 239 -36"/><path fill="none" stroke="#000" d="M239,-36C233,-36 227,-30 227,-24"/><polyline fill="none" stroke="#000" points="227 -24 227 -12"/><path fill="none" stroke="#000" d="M227,-12C227,-6 233,-1.72678e-14 239,-1.67721e-14"/><polyline fill="none" stroke="#000" points="239 0 387 0"/><path fill="none" stroke="#000" d="M387,-4.54417e-15C393,-4.04844e-15 399,-6 399,-12"/><polyline fill="none" stroke="#000" points="399 -12 399 -24"/><path fill="none" stroke="#000" d="M399,-24C399,-30 393,-36 387,-36"/><text x="313" y="-14.4" font-family="Times Roman,serif" font-size="14" text-anchor="middle">JDBCConnectionString</text></g><g id="edge24" class="edge"><title>MyDB-&gt;JDBCConnectionString</title><path fill="none" stroke="#000" d="M307.048,-71.8314C306.297,-64.131 306.076,-54.9743 306.385,-46.4166"/><polygon fill="#000" stroke="#000" points="309.879 -46.616 307.024 -36.413 302.893 -46.17 309.879 -46.616"/></g><g id="edge22" class="edge"><title>MyDB-&gt;JDBCConnectionString</title><path fill="none" stroke="#000" d="M318.952,-71.8314C319.703,-64.131 319.924,-54.9743 319.615,-46.4166"/><polygon fill="#000" stroke="#000" points="323.107 -46.17 318.976 -36.413 316.121 -46.616 323.107 -46.17"/></g><g id="node5" class="node"><title>DBUsername</title><polygon fill="#d3d3d3" stroke="#d3d3d3" points="278 -252 196 -252 184 -240 184 -228 196 -216 278 -216 290 -228 290 -240 278 -252"/><path fill="#d3d3d3" stroke="#d3d3d3" d="M196,-252C190,-252 184,-246 184,-240"/><path fill="#d3d3d3" stroke="#d3d3d3" d="M184,-228C184,-222 190,-216 196,-216"/><path fill="#d3d3d3" stroke="#d3d3d3" d="M278,-216C284,-216 290,-222 290,-228"/><path fill="#d3d3d3" stroke="#d3d3d3" d="M290,-240C290,-246 284,-252 278,-252"/><polyline fill="none" stroke="#000" points="278 -252 196 -252"/><path fill="none" stroke="#000" d="M196,-252C190,-252 184,-246 184,-240"/><polyline fill="none" stroke="#000" points="184 -240 184 -228"/><path fill="none" stroke="#000" d="M184,-228C184,-222 190,-216 196,-216"/><polyline fill="none" stroke="#000" points="196 -216 278 -216"/><path fill="none" stroke="#000" d="M278,-216C284,-216 290,-222 290,-228"/><polyline fill="none" stroke="#000" points="290 -228 290 -240"/><path fill="none" stroke="#000" d="M290,-240C290,-246 284,-252 278,-252"/><text x="237" y="-230.4" font-family="Times Roman,serif" font-size="14" text-anchor="middle">DBUsername</text></g><g id="edge10" class="edge"><title>DBUsername-&gt;MyDB</title><path fill="none" stroke="#000" d="M246.625,-215.762C259.76,-190.876 283.401,-146.082 298.636,-117.216"/><polygon fill="#000" stroke="#000" points="301.88 -118.567 303.453 -108.09 295.69 -115.3 301.88 -118.567"/></g><g id="node6" class="node"><title>Subnets</title><polygon fill="#d3d3d3" stroke="#d3d3d3" points="154 -252 106 -252 94 -240 94 -228 106 -216 154 -216 166 -228 166 -240 154 -252"/><path fill="#d3d3d3" stroke="#d3d3d3" d="M106,-252C100,-252 94,-246 94,-240"/><path fill="#d3d3d3" stroke="#d3d3d3" d="M94,-228C94,-222 100,-216 106,-216"/><path fill="#d3d3d3" stroke="#d3d3d3" d="M154,-216C160,-216 166,-222 166,-228"/><path fill="#d3d3d3" stroke="#d3d3d3" d="M166,-240C166,-246 160,-252 154,-252"/><polyline fill="none" stroke="#000" points="154 -252 106 -252"/><path fill="none" stroke="#000" d="M106,-252C100,-252 94,-246 94,-240"/><polyline fill="none" stroke="#000" points="94 -240 94 -228"/><path fill="none" stroke="#000" d="M94,-228C94,-222 100,-216 106,-216"/><polyline fill="none" stroke="#000" points="106 -216 154 -216"/><path fill="none" stroke="#000" d="M154,-216C160,-216 166,-222 166,-228"/><polyline fill="none" stroke="#000" points="166 -228 166 -240"/><path fill="none" stroke="#000" d="M166,-240C166,-246 160,-252 154,-252"/><text x="130" y="-230.4" font-family="Times Roman,serif" font-size="14" text-anchor="middle">Subnets</text></g><g id="edge6" class="edge"><title>Subnets-&gt;MyDBSubnetGroup</title><path fill="none" stroke="#000" d="M142.365,-215.831C147.951,-207.623 154.663,-197.761 160.807,-188.732"/><polygon fill="#000" stroke="#000" points="163.736 -190.65 166.469 -180.413 157.949 -186.711 163.736 -190.65"/></g><g id="node7" class="node"><title>VpcId</title><polygon fill="#d3d3d3" stroke="#d3d3d3" points="737 -252 707 -252 695 -240 695 -228 707 -216 737 -216 749 -228 749 -240 737 -252"/><path fill="#d3d3d3" stroke="#d3d3d3" d="M707,-252C701,-252 695,-246 695,-240"/><path fill="#d3d3d3" stroke="#d3d3d3" d="M695,-228C695,-222 701,-216 707,-216"/><path fill="#d3d3d3" stroke="#d3d3d3" d="M737,-216C743,-216 749,-222 749,-228"/><path fill="#d3d3d3" stroke="#d3d3d3" d="M749,-240C749,-246 743,-252 737,-252"/><polyline fill="none" stroke="#000" points="737 -252 707 -252"/><path fill="none" stroke="#000" d="M707,-252C701,-252 695,-246 695,-240"/><polyline fill="none" stroke="#000" points="695 -240 695 -228"/><path fill="none" stroke="#000" d="M695,-228C695,-222 701,-216 707,-216"/><polyline fill="none" stroke="#000" points="707 -216 737 -216"/><path fill="none" stroke="#000" d="M737,-216C743,-216 749,-222 749,-228"/><polyline fill="none" stroke="#000" points="749 -228 749 -240"/><path fill="none" stroke="#000" d="M749,-240C749,-246 743,-252 737,-252"/><text x="722" y="-230.4" font-family="Times Roman,serif" font-size="14" text-anchor="middle">VpcId</text></g><g id="edge4" class="edge"><title>VpcId-&gt;MyDBSecurityGroup</title><path fill="none" stroke="#000" d="M722,-215.831C722,-208.131 722,-198.974 722,-190.417"/><polygon fill="#000" stroke="#000" points="725.5 -190.413 722 -180.413 718.5 -190.413 725.5 -190.413"/></g><g id="node8" class="node"><title>DBClass</title><polygon fill="#d3d3d3" stroke="#d3d3d3" points="368 -252 320 -252 308 -240 308 -228 320 -216 368 -216 380 -228 380 -240 368 -252"/><path fill="#d3d3d3" stroke="#d3d3d3" d="M320,-252C314,-252 308,-246 308,-240"/><path fill="#d3d3d3" stroke="#d3d3d3" d="M308,-228C308,-222 314,-216 320,-216"/><path fill="#d3d3d3" stroke="#d3d3d3" d="M368,-216C374,-216 380,-222 380,-228"/><path fill="#d3d3d3" stroke="#d3d3d3" d="M380,-240C380,-246 374,-252 368,-252"/><polyline fill="none" stroke="#000" points="368 -252 320 -252"/><path fill="none" stroke="#000" d="M320,-252C314,-252 308,-246 308,-240"/><polyline fill="none" stroke="#000" points="308 -240 308 -228"/><path fill="none" stroke="#000" d="M308,-228C308,-222 314,-216 320,-216"/><polyline fill="none" stroke="#000" points="320 -216 368 -216"/><path fill="none" stroke="#000" d="M368,-216C374,-216 380,-222 380,-228"/><polyline fill="none" stroke="#000" points="380 -228 380 -240"/><path fill="none" stroke="#000" d="M380,-240C380,-246 374,-252 368,-252"/><text x="344" y="-230.4" font-family="Times Roman,serif" font-size="14" text-anchor="middle">DBClass</text></g><g id="edge16" class="edge"><title>DBClass-&gt;MyDB</title><path fill="none" stroke="#000" d="M340.074,-215.762C334.763,-191.093 325.241,-146.86 319.022,-117.973"/><polygon fill="#000" stroke="#000" points="322.421 -117.129 316.894 -108.09 315.577 -118.602 322.421 -117.129"/></g><g id="node9" class="node"><title>DBAllocatedStorage</title><polygon fill="#d3d3d3" stroke="#d3d3d3" points="540 -252 410 -252 398 -240 398 -228 410 -216 540 -216 552 -228 552 -240 540 -252"/><path fill="#d3d3d3" stroke="#d3d3d3" d="M410,-252C404,-252 398,-246 398,-240"/><path fill="#d3d3d3" stroke="#d3d3d3" d="M398,-228C398,-222 404,-216 410,-216"/><path fill="#d3d3d3" stroke="#d3d3d3" d="M540,-216C546,-216 552,-222 552,-228"/><path fill="#d3d3d3" stroke="#d3d3d3" d="M552,-240C552,-246 546,-252 540,-252"/><polyline fill="none" stroke="#000" points="540 -252 410 -252"/><path fill="none" stroke="#000" d="M410,-252C404,-252 398,-246 398,-240"/><polyline fill="none" stroke="#000" points="398 -240 398 -228"/><path fill="none" stroke="#000" d="M398,-228C398,-222 404,-216 410,-216"/><polyline fill="none" stroke="#000" points="410 -216 540 -216"/><path fill="none" stroke="#000" d="M540,-216C546,-216 552,-222 552,-228"/><polyline fill="none" stroke="#000" points="552 -228 552 -240"/><path fill="none" stroke="#000" d="M552,-240C552,-246 546,-252 540,-252"/><text x="475" y="-230.4" font-family="Times Roman,serif" font-size="14" text-anchor="middle">DBAllocatedStorage</text></g><g id="edge14" class="edge"><title>DBAllocatedStorage-&gt;MyDB</title><path fill="none" stroke="#000" d="M454.483,-215.762C425.756,-190.227 373.448,-143.732 341.114,-114.991"/><polygon fill="#000" stroke="#000" points="343.15 -112.117 333.351 -108.09 338.5 -117.349 343.15 -112.117"/></g><g id="node10" class="node"><title>DBPassword</title><polygon fill="#d3d3d3" stroke="#d3d3d3" points="660 -252 582 -252 570 -240 570 -228 582 -216 660 -216 672 -228 672 -240 660 -252"/><path fill="#d3d3d3" stroke="#d3d3d3" d="M582,-252C576,-252 570,-246 570,-240"/><path fill="#d3d3d3" stroke="#d3d3d3" d="M570,-228C570,-222 576,-216 582,-216"/><path fill="#d3d3d3" stroke="#d3d3d3" d="M660,-216C666,-216 672,-222 672,-228"/><path fill="#d3d3d3" stroke="#d3d3d3" d="M672,-240C672,-246 666,-252 660,-252"/><polyline fill="none" stroke="#000" points="660 -252 582 -252"/><path fill="none" stroke="#000" d="M582,-252C576,-252 570,-246 570,-240"/><polyline fill="none" stroke="#000" points="570 -240 570 -228"/><path fill="none" stroke="#000" d="M570,-228C570,-222 576,-216 582,-216"/><polyline fill="none" stroke="#000" points="582 -216 660 -216"/><path fill="none" stroke="#000" d="M660,-216C666,-216 672,-222 672,-228"/><polyline fill="none" stroke="#000" points="672 -228 672 -240"/><path fill="none" stroke="#000" d="M672,-240C672,-246 666,-252 660,-252"/><text x="621" y="-230.4" font-family="Times Roman,serif" font-size="14" text-anchor="middle">DBPassword</text></g><g id="edge12" class="edge"><title>DBPassword-&gt;MyDB</title><path fill="none" stroke="#000" d="M582.303,-215.908C523.074,-188.217 410.601,-135.632 351.494,-107.997"/><polygon fill="#000" stroke="#000" points="352.678 -104.687 342.137 -103.622 349.713 -111.028 352.678 -104.687"/></g><g id="node11" class="node"><title>DBName</title><polygon fill="#d3d3d3" stroke="#d3d3d3" points="64 -252 12 -252 0 -240 0 -228 12 -216 64 -216 76 -228 76 -240 64 -252"/><path fill="#d3d3d3" stroke="#d3d3d3" d="M12,-252C6,-252 3.55271e-14,-246 2.84217e-14,-240"/><path fill="#d3d3d3" stroke="#d3d3d3" d="M1.42109e-14,-228C7.10543e-15,-222 6,-216 12,-216"/><path fill="#d3d3d3" stroke="#d3d3d3" d="M64,-216C70,-216 76,-222 76,-228"/><path fill="#d3d3d3" stroke="#d3d3d3" d="M76,-240C76,-246 70,-252 64,-252"/><polyline fill="none" stroke="#000" points="64 -252 12 -252"/><path fill="none" stroke="#000" d="M12,-252C6,-252 3.55271e-14,-246 2.84217e-14,-240"/><polyline fill="none" stroke="#000" points="0 -240 0 -228"/><path fill="none" stroke="#000" d="M1.42109e-14,-228C7.10543e-15,-222 6,-216 12,-216"/><polyline fill="none" stroke="#000" points="12 -216 64 -216"/><path fill="none" stroke="#000" d="M64,-216C70,-216 76,-222 76,-228"/><polyline fill="none" stroke="#000" points="76 -228 76 -240"/><path fill="none" stroke="#000" d="M76,-240C76,-246 70,-252 64,-252"/><text x="38" y="-230.4" font-family="Times Roman,serif" font-size="14" text-anchor="middle">DBName</text></g><g id="edge20" class="edge"><title>DBName-&gt;MyDB</title><path fill="none" stroke="#000" d="M44.6399,-215.848C53.1225,-195.25 69.7933,-162.168 95,-144 123.379,-123.546 219.076,-105.235 273.78,-96.1126"/><polygon fill="#000" stroke="#000" points="274.516 -99.539 283.817 -94.465 273.382 -92.631 274.516 -99.539"/></g><g id="edge26" class="edge"><title>DBName-&gt;JDBCConnectionString</title><path fill="none" stroke="#000" d="M38.3203,-215.82C39.5694,-196.114 44.2954,-164.713 61,-144 104.105,-90.5509 175.711,-57.8326 231.599,-39.1812"/><polygon fill="#000" stroke="#000" points="232.703 -42.503 241.133 -36.084 230.541 -35.845 232.703 -42.503"/></g></g></svg>