<svg xmlns="http://www.w3.org/2000/svg" xmlns:xlink="http://www.w3.org/1999/xlink" width="481pt" height="260pt" viewBox="0 0 481 260"><g id="graph1" class="graph" transform="scale(1 1) rotate(0) translate(4 256)"><title>AWS CloudFormation Sample Template VPC_EC2_Instance_with_EIP_and_Security_Group: Sample template showing how to create an instance with an Elastic IP address and a security group in an existing VPC. It assumes you have already created a VPC. **WARNING** This template creates an Amazon EC2 instance. You will be billed for the AWS resources used if you create a stack from this template.</title><polygon fill="#fff" stroke="#fff" points="-4 5 -4 -256 478 -256 478 5 -4 5"/><g id="node1" class="node"><title>InstanceSecurityGroup</title><polygon fill="none" stroke="#000" points="460 -180 286 -180 286 -144 460 -144 460 -180"/><text x="373" y="-158.4" font-family="Times Roman,serif" font-size="14" text-anchor="middle">InstanceSecurityGroup</text></g><g id="node3" class="node"><title>Ec2Instance</title><polygon fill="none" stroke="#000" points="226 -108 126 -108 126 -72 226 -72 226 -108"/><text x="176" y="-86.4" font-family="Times Roman,serif" font-size="14" text-anchor="middle">Ec2Instance</text></g><g id="edge14" class="edge"><title>InstanceSecurityGroup-&gt;Ec2Instance</title><path fill="none" stroke="#000" d="M323.543,-143.924C296.729,-134.124 263.405,-121.945 235.215,-111.642"/><polygon fill="#000" stroke="#000" points="236.071 -108.229 225.477 -108.083 233.668 -114.803 236.071 -108.229"/></g><g id="node2" class="node"><title>IPAddress</title><polygon fill="none" stroke="#000" points="157 -36 75 -36 75 0 157 0 157 -36"/><text x="116" y="-14.4" font-family="Times Roman,serif" font-size="14" text-anchor="middle">IPAddress</text></g><g id="edge20" class="edge"><title>IPAddress-&gt;IPAddress</title><path fill="none" stroke="#000" d="M157.083,-31.3146C167.336,-30.3835 175,-25.9453 175,-18 175,-12.91 171.855,-9.25939 166.899,-7.04806"/><polygon fill="#000" stroke="#000" points="167.625 -3.623 157.083 -4.685 165.986 -10.428 167.625 -3.623"/></g><g id="edge8" class="edge"><title>Ec2Instance-&gt;IPAddress</title><path fill="none" stroke="#000" d="M160.859,-71.8314C153.878,-63.454 145.461,-53.3531 137.812,-44.1749"/><polygon fill="#000" stroke="#000" points="140.435 -41.855 131.344 -36.413 135.057 -46.336 140.435 -41.855"/></g><g id="node10" class="node"><title>InstanceId</title><polygon fill="#d3d3d3" stroke="#d3d3d3" points="269 -36 205 -36 193 -24 193 -12 205 0 269 0 281 -12 281 -24 269 -36"/><path fill="#d3d3d3" stroke="#d3d3d3" d="M205,-36C199,-36 193,-30 193,-24"/><path fill="#d3d3d3" stroke="#d3d3d3" d="M193,-12C193,-6 199,-1.67946e-14 205,-1.58257e-14"/><path fill="#d3d3d3" stroke="#d3d3d3" d="M269,-5.49056e-15C275,-4.52164e-15 281,-6 281,-12"/><path fill="#d3d3d3" stroke="#d3d3d3" d="M281,-24C281,-30 275,-36 269,-36"/><polyline fill="none" stroke="#000" points="269 -36 205 -36"/><path fill="none" stroke="#000" d="M205,-36C199,-36 193,-30 193,-24"/><polyline fill="none" stroke="#000" points="193 -24 193 -12"/><path fill="none" stroke="#000" d="M193,-12C193,-6 199,-1.67946e-14 205,-1.58257e-14"/><polyline fill="none" stroke="#000" points="205 0 269 0"/><path fill="none" stroke="#000" d="M269,-5.49056e-15C275,-4.52164e-15 281,-6 281,-12"/><polyline fill="none" stroke="#000" points="281 -12 281 -24"/><path fill="none" stroke="#000" d="M281,-24C281,-30 275,-36 269,-36"/><text x="237" y="-14.4" font-family="Times Roman,serif" font-size="14" text-anchor="middle">InstanceId</text></g><g id="edge18" class="edge"><title>Ec2Instance-&gt;InstanceId</title><path fill="none" stroke="#000" d="M191.393,-71.8314C198.49,-63.454 207.048,-53.3531 214.824,-44.1749"/><polygon fill="#000" stroke="#000" points="217.606 -46.306 221.4 -36.413 212.265 -41.781 217.606 -46.306"/></g><g id="node5" class="node"><title>SubnetId</title><polygon fill="#d3d3d3" stroke="#d3d3d3" points="66 -252 12 -252 0 -240 0 -228 12 -216 66 -216 78 -228 78 -240 66 -252"/><path fill="#d3d3d3" stroke="#d3d3d3" d="M12,-252C6,-252 2.96059e-14,-246 2.36848e-14,-240"/><path fill="#d3d3d3" stroke="#d3d3d3" d="M1.18424e-14,-228C5.92119e-15,-222 6,-216 12,-216"/><path fill="#d3d3d3" stroke="#d3d3d3" d="M66,-216C72,-216 78,-222 78,-228"/><path fill="#d3d3d3" stroke="#d3d3d3" d="M78,-240C78,-246 72,-252 66,-252"/><polyline fill="none" stroke="#000" points="66 -252 12 -252"/><path fill="none" stroke="#000" d="M12,-252C6,-252 2.96059e-14,-246 2.36848e-14,-240"/><polyline fill="none" stroke="#000" points="0 -240 0 -228"/><path fill="none" stroke="#000" d="M1.18424e-14,-228C5.92119e-15,-222 6,-216 12,-216"/><polyline fill="none" stroke="#000" points="12 -216 66 -216"/><path fill="none" stroke="#000" d="M66,-216C72,-216 78,-222 78,-228"/><polyline fill="none" stroke="#000" points="78 -228 78 -240"/><path fill="none" stroke="#000" d="M78,-240C78,-246 72,-252 66,-252"/><text x="39" y="-230.4" font-family="Times Roman,serif" font-size="14" text-anchor="middle">SubnetId</text></g><g id="edge10" class="edge"><title>SubnetId-&gt;Ec2Instance</title><path fill="none" stroke="#000" d="M56.3511,-215.762C80.542,-190.335 124.506,-144.125 151.876,-115.357"/><polygon fill="#000" stroke="#000" points="154.433 -117.747 158.79 -108.09 149.361 -112.922 154.433 -117.747"/></g><g id="node6" class="node"><title>VpcId</title><polygon fill="#d3d3d3" stroke="#d3d3d3" points="339 -252 309 -252 297 -240 297 -228 309 -216 339 -216 351 -228 351 -240 339 -252"/><path fill="#d3d3d3" stroke="#d3d3d3" d="M309,-252C303,-252 297,-246 297,-240"/><path fill="#d3d3d3" stroke="#d3d3d3" d="M297,-228C297,-222 303,-216 309,-216"/><path fill="#d3d3d3" stroke="#d3d3d3" d="M339,-216C345,-216 351,-222 351,-228"/><path fill="#d3d3d3" stroke="#d3d3d3" d="M351,-240C351,-246 345,-252 339,-252"/><polyline fill="none" stroke="#000" points="339 -252 309 -252"/><path fill="none" stroke="#000" d="M309,-252C303,-252 297,-246 297,-240"/><polyline fill="none" stroke="#000" points="297 -240 297 -228"/><path fill="none" stroke="#000" d="M297,-228C297,-222 303,-216 309,-216"/><polyline fill="none" stroke="#000" points="309 -216 339 -216"/><path fill="none" stroke="#000" d="M339,-216C345,-216 351,-222 351,-228"/><polyline fill="none" stroke="#000" points="351 -228 351 -240"/><path fill="none" stroke="#000" d="M351,-240C351,-246 345,-252 339,-252"/><text x="324" y="-230.4" font-family="Times Roman,serif" font-size="14" text-anchor="middle">VpcId</text></g><g id="edge6" class="edge"><title>VpcId-&gt;InstanceSecurityGroup</title><path fill="none" stroke="#000" d="M336.365,-215.831C341.951,-207.623 348.663,-197.761 354.807,-188.732"/><polygon fill="#000" stroke="#000" points="357.736 -190.65 360.469 -180.413 351.949 -186.711 357.736 -190.65"/></g><g id="node7" class="node"><title>SSHLocation</title><polygon fill="#d3d3d3" stroke="#d3d3d3" points="461 -252 381 -252 369 -240 369 -228 381 -216 461 -216 473 -228 473 -240 461 -252"/><path fill="#d3d3d3" stroke="#d3d3d3" d="M381,-252C375,-252 369,-246 369,-240"/><path fill="#d3d3d3" stroke="#d3d3d3" d="M369,-228C369,-222 375,-216 381,-216"/><path fill="#d3d3d3" stroke="#d3d3d3" d="M461,-216C467,-216 473,-222 473,-228"/><path fill="#d3d3d3" stroke="#d3d3d3" d="M473,-240C473,-246 467,-252 461,-252"/><polyline fill="none" stroke="#000" points="461 -252 381 -252"/><path fill="none" stroke="#000" d="M381,-252C375,-252 369,-246 369,-240"/><polyline fill="none" stroke="#000" points="369 -240 369 -228"/><path fill="none" stroke="#000" d="M369,-228C369,-222 375,-216 381,-216"/><polyline fill="none" stroke="#000" points="381 -216 461 -216"/><path fill="none" stroke="#000" d="M461,-216C467,-216 473,-222 473,-228"/><polyline fill="none" stroke="#000" points="473 -228 473 -240"/><path fill="none" stroke="#000" d="M473,-240C473,-246 467,-252 461,-252"/><text x="421" y="-230.4" font-family="Times Roman,serif" font-size="14" text-anchor="middle">SSHLocation</text></g><g id="edge4" class="edge"><title>SSHLocation-&gt;InstanceSecurityGroup</title><path fill="none" stroke="#000" d="M408.888,-215.831C403.472,-207.708 396.976,-197.964 391.008,-189.012"/><polygon fill="#000" stroke="#000" points="393.735 -186.792 385.276 -180.413 387.91 -190.675 393.735 -186.792"/></g><g id="node8" class="node"><title>KeyName</title><polygon fill="#d3d3d3" stroke="#d3d3d3" points="164 -252 108 -252 96 -240 96 -228 108 -216 164 -216 176 -228 176 -240 164 -252"/><path fill="#d3d3d3" stroke="#d3d3d3" d="M108,-252C102,-252 96,-246 96,-240"/><path fill="#d3d3d3" stroke="#d3d3d3" d="M96,-228C96,-222 102,-216 108,-216"/><path fill="#d3d3d3" stroke="#d3d3d3" d="M164,-216C170,-216 176,-222 176,-228"/><path fill="#d3d3d3" stroke="#d3d3d3" d="M176,-240C176,-246 170,-252 164,-252"/><polyline fill="none" stroke="#000" points="164 -252 108 -252"/><path fill="none" stroke="#000" d="M108,-252C102,-252 96,-246 96,-240"/><polyline fill="none" stroke="#000" points="96 -240 96 -228"/><path fill="none" stroke="#000" d="M96,-228C96,-222 102,-216 108,-216"/><polyline fill="none" stroke="#000" points="108 -216 164 -216"/><path fill="none" stroke="#000" d="M164,-216C170,-216 176,-222 176,-228"/><polyline fill="none" stroke="#000" points="176 -228 176 -240"/><path fill="none" stroke="#000" d="M176,-240C176,-246 170,-252 164,-252"/><text x="136" y="-230.4" font-family="Times Roman,serif" font-size="14" text-anchor="middle">KeyName</text></g><g id="edge12" class="edge"><title>KeyName-&gt;Ec2Instance</title><path fill="none" stroke="#000" d="M138.935,-215.854C142.108,-197.522 147.707,-168.488 155,-144 157.6,-135.269 160.989,-125.958 164.283,-117.569"/><polygon fill="#000" stroke="#000" points="167.553 -118.819 168.053 -108.236 161.062 -116.197 167.553 -118.819"/></g><g id="node17" class="node"><title>AWS::Region</title><polygon fill="none" stroke="#000" points="268 -180 164 -180 164 -144 268 -144 268 -180"/><text x="216" y="-158.4" font-family="Times Roman,serif" font-size="14" text-anchor="middle">AWS::Region</text></g><g id="edge16" class="edge"><title>AWS::Region-&gt;Ec2Instance</title><path fill="none" stroke="#000" d="M205.906,-143.831C201.44,-135.792 196.093,-126.167 191.162,-117.292"/><polygon fill="#000" stroke="#000" points="194.146 -115.455 186.23 -108.413 188.027 -118.855 194.146 -115.455"/></g></g></svg>