<svg xmlns="http://www.w3.org/2000/svg" xmlns:xlink="http://www.w3.org/1999/xlink" width="192" height="188pt" viewBox="0 0 144 188"><g id="graph1" class="graph" transform="scale(1 1) rotate(0) translate(4 184)"><title>Example template showing how the WaitCondition and WaitConditionHandle are configured. With this template, the stack will not complete until either the WaitCondition timeout occurs, or you manually signal the WaitCondition object using the URL created by the WaitConditionHandle. You can use CURL or some other equivalent mechanism to signal the WaitCondition. To find the URL, use cfn-describe-stack-resources or the AWS Management Console to display the PhysicalResourceId of the WaitConditionHandle - this is the URL to use to signal. For details of the signal request see the AWS CloudFormation User Guide at http://docs.amazonwebservices.com/AWSCloudFormation/latest/UserGuide/</title><polygon fill="#fff" stroke="#fff" points="-4 5 -4 -184 141 -184 141 5 -4 5"/><g id="node1" class="node"><title>myWaitCondition</title><polygon fill="none" stroke="#000" points="136 -108 0 -108 0 -72 136 -72 136 -108"/><text x="68" y="-86.4" font-family="Times Roman,serif" font-size="14" text-anchor="middle">myWaitCondition</text></g><g id="node4" class="node"><title>ApplicationData</title><polygon fill="#d3d3d3" stroke="#d3d3d3" points="119 -36 17 -36 5 -24 5 -12 17 0 119 0 131 -12 131 -24 119 -36"/><path fill="#d3d3d3" stroke="#d3d3d3" d="M17,-36C11,-36 5,-30 5,-24"/><path fill="#d3d3d3" stroke="#d3d3d3" d="M5,-12C5,-6 11,-1.70869e-14 17,-1.64102e-14"/><path fill="#d3d3d3" stroke="#d3d3d3" d="M119,-4.90613e-15C125,-4.22942e-15 131,-6 131,-12"/><path fill="#d3d3d3" stroke="#d3d3d3" d="M131,-24C131,-30 125,-36 119,-36"/><polyline fill="none" stroke="#000" points="119 -36 17 -36"/><path fill="none" stroke="#000" d="M17,-36C11,-36 5,-30 5,-24"/><polyline fill="none" stroke="#000" points="5 -24 5 -12"/><path fill="none" stroke="#000" d="M5,-12C5,-6 11,-1.70869e-14 17,-1.64102e-14"/><polyline fill="none" stroke="#000" points="17 0 119 0"/><path fill="none" stroke="#000" d="M119,-4.90613e-15C125,-4.22942e-15 131,-6 131,-12"/><polyline fill="none" stroke="#000" points="131 -12 131 -24"/><path fill="none" stroke="#000" d="M131,-24C131,-30 125,-36 119,-36"/><text x="68" y="-14.4" font-family="Times Roman,serif" font-size="14" text-anchor="middle">ApplicationData</text></g><g id="edge5" class="edge"><title>myWaitCondition-&gt;ApplicationData</title><path fill="none" stroke="#000" d="M68,-71.8314C68,-64.131 68,-54.9743 68,-46.4166"/><polygon fill="#000" stroke="#000" points="71.5 -46.413 68 -36.413 64.5 -46.413 71.5 -46.413"/></g><g id="node2" class="node"><title>myWaitHandle</title><polygon fill="none" stroke="#000" points="127 -180 9 -180 9 -144 127 -144 127 -180"/><text x="68" y="-158.4" font-family="Times Roman,serif" font-size="14" text-anchor="middle">myWaitHandle</text></g><g id="edge3" class="edge"><title>myWaitHandle-&gt;myWaitCondition</title><path fill="none" stroke="#000" d="M68,-143.831C68,-136.131 68,-126.974 68,-118.417"/><polygon fill="#000" stroke="#000" points="71.5 -118.413 68 -108.413 64.5 -118.413 71.5 -118.413"/></g></g></svg>