<svg xmlns="http://www.w3.org/2000/svg" xmlns:xlink="http://www.w3.org/1999/xlink" width="1151pt" height="332pt" viewBox="0 0 1151 332"><g id="graph1" class="graph" transform="scale(1 1) rotate(0) translate(4 328)"><title>This template enables roles and features of Windows Server. **WARNING** This template creates Amazon EC2 Windows instance and related resources. You will be billed for the AWS resources used if you create a stack from this template.</title><polygon fill="#fff" stroke="#fff" points="-4 5 -4 -328 1148 -328 1148 5 -4 5"/><g id="node1" class="node"><title>WindowsServerWaitCondition</title><polygon fill="none" stroke="#000" points="317 -108 93 -108 93 -72 317 -72 317 -108"/><text x="205" y="-86.4" font-family="Times Roman,serif" font-size="14" text-anchor="middle">WindowsServerWaitCondition</text></g><g id="node2" class="node"><title>WindowsServer</title><polygon fill="none" stroke="#000" points="713 -108 587 -108 587 -72 713 -72 713 -108"/><text x="650" y="-86.4" font-family="Times Roman,serif" font-size="14" text-anchor="middle">WindowsServer</text></g><g id="node3" class="node"><title>IAMUser</title><polygon fill="none" stroke="#000" points="832 -252 758 -252 758 -216 832 -216 832 -252"/><text x="795" y="-230.4" font-family="Times Roman,serif" font-size="14" text-anchor="middle">IAMUser</text></g><g id="node5" class="node"><title>IAMUserAccessKey</title><polygon fill="none" stroke="#000" points="909 -180 765 -180 765 -144 909 -144 909 -180"/><text x="837" y="-158.4" font-family="Times Roman,serif" font-size="14" text-anchor="middle">IAMUserAccessKey</text></g><g id="edge46" class="edge"><title>IAMUser-&gt;IAMUserAccessKey</title><path fill="none" stroke="#000" d="M805.598,-215.831C810.288,-207.792 815.903,-198.167 821.08,-189.292"/><polygon fill="#000" stroke="#000" points="824.243 -190.815 826.259 -180.413 818.197 -187.288 824.243 -190.815"/></g><g id="node4" class="node"><title>WindowsServerWaitHandle</title><polygon fill="none" stroke="#000" points="303 -180 97 -180 97 -144 303 -144 303 -180"/><text x="200" y="-158.4" font-family="Times Roman,serif" font-size="14" text-anchor="middle">WindowsServerWaitHandle</text></g><g id="edge4" class="edge"><title>WindowsServerWaitHandle-&gt;WindowsServerWaitCondition</title><path fill="none" stroke="#000" d="M201.262,-143.831C201.796,-136.131 202.432,-126.974 203.027,-118.417"/><polygon fill="#000" stroke="#000" points="206.52 -118.632 203.721 -108.413 199.537 -118.147 206.52 -118.632"/></g><g id="edge40" class="edge"><title>WindowsServerWaitHandle-&gt;WindowsServer</title><path fill="none" stroke="#000" d="M303.239,-145.482C386.757,-132.119 502.304,-113.631 576.606,-101.743"/><polygon fill="#000" stroke="#000" points="577.488 -105.147 586.809 -100.111 576.382 -98.234 577.488 -105.147"/></g><g id="edge28" class="edge"><title>IAMUserAccessKey-&gt;WindowsServer</title><path fill="none" stroke="#000" d="M772.223,-143.924C744.256,-134.253 712.784,-122.264 688.431,-112.048"/><polygon fill="#000" stroke="#000" points="689.705 -108.787 679.134 -108.083 686.959 -115.226 689.705 -108.787"/></g><g id="edge30" class="edge"><title>IAMUserAccessKey-&gt;WindowsServer</title><path fill="none" stroke="#000" d="M807.669,-143.831C784.536,-133.795 752.279,-121.284 722.716,-110.85"/><polygon fill="#000" stroke="#000" points="723.823 -107.529 713.228 -107.541 721.518 -114.139 723.823 -107.529"/></g><g id="edge8" class="edge"><title>IAMUserAccessKey-&gt;WindowsServer</title><path fill="none" stroke="#000" d="M783.86,-143.831C757.68,-134.116 726.324,-122.083 700.509,-111.859"/><polygon fill="#000" stroke="#000" points="701.495 -108.484 690.909 -108.038 698.906 -114.988 701.495 -108.484"/></g><g id="edge10" class="edge"><title>IAMUserAccessKey-&gt;WindowsServer</title><path fill="none" stroke="#000" d="M795.764,-143.831C771.265,-134.031 739.781,-121.871 712.317,-111.589"/><polygon fill="#000" stroke="#000" points="713.381 -108.251 702.788 -108.038 710.936 -114.81 713.381 -108.251"/></g><g id="node6" class="node"><title>InstanceSecurityGroup</title><polygon fill="none" stroke="#000" points="1024 -252 850 -252 850 -216 1024 -216 1024 -252"/><text x="937" y="-230.4" font-family="Times Roman,serif" font-size="14" text-anchor="middle">InstanceSecurityGroup</text></g><g id="edge16" class="edge"><title>InstanceSecurityGroup-&gt;WindowsServer</title><path fill="none" stroke="#000" d="M938.577,-215.736C939.258,-195.351 936.945,-162.771 918,-144 891.006,-117.254 792.93,-102.84 723.255,-95.7948"/><polygon fill="#000" stroke="#000" points="723.486 -92.301 713.193 -94.808 722.803 -99.267 723.486 -92.301"/></g><g id="node8" class="node"><title>Features</title><polygon fill="#d3d3d3" stroke="#d3d3d3" points="313 -324 261 -324 249 -312 249 -300 261 -288 313 -288 325 -300 325 -312 313 -324"/><path fill="#d3d3d3" stroke="#d3d3d3" d="M261,-324C255,-324 249,-318 249,-312"/><path fill="#d3d3d3" stroke="#d3d3d3" d="M249,-300C249,-294 255,-288 261,-288"/><path fill="#d3d3d3" stroke="#d3d3d3" d="M313,-288C319,-288 325,-294 325,-300"/><path fill="#d3d3d3" stroke="#d3d3d3" d="M325,-312C325,-318 319,-324 313,-324"/><polyline fill="none" stroke="#000" points="313 -324 261 -324"/><path fill="none" stroke="#000" d="M261,-324C255,-324 249,-318 249,-312"/><polyline fill="none" stroke="#000" points="249 -312 249 -300"/><path fill="none" stroke="#000" d="M249,-300C249,-294 255,-288 261,-288"/><polyline fill="none" stroke="#000" points="261 -288 313 -288"/><path fill="none" stroke="#000" d="M313,-288C319,-288 325,-294 325,-300"/><polyline fill="none" stroke="#000" points="325 -300 325 -312"/><path fill="none" stroke="#000" d="M325,-312C325,-318 319,-324 313,-324"/><text x="287" y="-302.4" font-family="Times Roman,serif" font-size="14" text-anchor="middle">Features</text></g><g id="edge42" class="edge"><title>Features-&gt;WindowsServer</title><path fill="none" stroke="#000" d="M288.865,-287.788C299.193,-253.731 334.487,-180.546 389,-144 418.87,-123.975 510.588,-107.807 576.934,-98.5473"/><polygon fill="#000" stroke="#000" points="577.507 -102.002 586.939 -97.176 576.556 -95.066 577.507 -102.002"/></g><g id="edge44" class="edge"><title>Features-&gt;WindowsServer</title><path fill="none" stroke="#000" d="M299.212,-287.788C317.193,-253.731 352.487,-180.546 407,-144 434.768,-125.384 515.981,-110.102 576.995,-100.605"/><polygon fill="#000" stroke="#000" points="577.63 -104.048 586.984 -99.073 576.569 -97.129 577.63 -104.048"/></g><g id="node14" class="node"><title>FeaturesEnabled</title><polygon fill="#d3d3d3" stroke="#d3d3d3" points="118 -36 12 -36 0 -24 0 -12 12 0 118 0 130 -12 130 -24 118 -36"/><path fill="#d3d3d3" stroke="#d3d3d3" d="M12,-36C6,-36 4.73695e-14,-30 3.78956e-14,-24"/><path fill="#d3d3d3" stroke="#d3d3d3" d="M1.89478e-14,-12C9.4739e-15,-6 6,-1.71077e-14 12,-1.64518e-14"/><path fill="#d3d3d3" stroke="#d3d3d3" d="M118,-4.86448e-15C124,-4.2086e-15 130,-6 130,-12"/><path fill="#d3d3d3" stroke="#d3d3d3" d="M130,-24C130,-30 124,-36 118,-36"/><polyline fill="none" stroke="#000" points="118 -36 12 -36"/><path fill="none" stroke="#000" d="M12,-36C6,-36 4.73695e-14,-30 3.78956e-14,-24"/><polyline fill="none" stroke="#000" points="0 -24 0 -12"/><path fill="none" stroke="#000" d="M1.89478e-14,-12C9.4739e-15,-6 6,-1.71077e-14 12,-1.64518e-14"/><polyline fill="none" stroke="#000" points="12 0 118 0"/><path fill="none" stroke="#000" d="M118,-4.86448e-15C124,-4.2086e-15 130,-6 130,-12"/><polyline fill="none" stroke="#000" points="130 -12 130 -24"/><path fill="none" stroke="#000" d="M130,-24C130,-30 124,-36 118,-36"/><text x="65" y="-14.4" font-family="Times Roman,serif" font-size="14" text-anchor="middle">FeaturesEnabled</text></g><g id="edge50" class="edge"><title>Features-&gt;FeaturesEnabled</title><path fill="none" stroke="#000" d="M248.71,-293.131C202.437,-275.433 126.061,-238.902 88,-180 61.7066,-139.31 60.2382,-80.9382 62.1879,-46.5017"/><polygon fill="#000" stroke="#000" points="65.701 -46.436 62.914 -36.215 58.718 -45.944 65.701 -46.436"/></g><g id="node9" class="node"><title>InstanceType</title><polygon fill="#d3d3d3" stroke="#d3d3d3" points="437 -324 355 -324 343 -312 343 -300 355 -288 437 -288 449 -300 449 -312 437 -324"/><path fill="#d3d3d3" stroke="#d3d3d3" d="M355,-324C349,-324 343,-318 343,-312"/><path fill="#d3d3d3" stroke="#d3d3d3" d="M343,-300C343,-294 349,-288 355,-288"/><path fill="#d3d3d3" stroke="#d3d3d3" d="M437,-288C443,-288 449,-294 449,-300"/><path fill="#d3d3d3" stroke="#d3d3d3" d="M449,-312C449,-318 443,-324 437,-324"/><polyline fill="none" stroke="#000" points="437 -324 355 -324"/><path fill="none" stroke="#000" d="M355,-324C349,-324 343,-318 343,-312"/><polyline fill="none" stroke="#000" points="343 -312 343 -300"/><path fill="none" stroke="#000" d="M343,-300C343,-294 349,-288 355,-288"/><polyline fill="none" stroke="#000" points="355 -288 437 -288"/><path fill="none" stroke="#000" d="M437,-288C443,-288 449,-294 449,-300"/><polyline fill="none" stroke="#000" points="449 -300 449 -312"/><path fill="none" stroke="#000" d="M449,-312C449,-318 443,-324 437,-324"/><text x="396" y="-302.4" font-family="Times Roman,serif" font-size="14" text-anchor="middle">InstanceType</text></g><g id="edge18" class="edge"><title>InstanceType-&gt;WindowsServer</title><path fill="none" stroke="#000" d="M388.081,-287.921C380.483,-254.734 377.595,-183.854 415,-144 436.607,-120.978 516.29,-105.92 577.004,-97.6946"/><polygon fill="#000" stroke="#000" points="577.497 -101.16 586.955 -96.384 576.583 -94.22 577.497 -101.16"/></g><g id="edge22" class="edge"><title>InstanceType-&gt;WindowsServer</title><path fill="none" stroke="#000" d="M398.546,-287.921C398.483,-254.734 395.595,-183.854 433,-144 452.849,-122.851 521.708,-108.423 576.66,-99.8385"/><polygon fill="#000" stroke="#000" points="577.384 -103.269 586.743 -98.303 576.331 -96.348 577.384 -103.269"/></g><g id="node10" class="node"><title>Roles</title><polygon fill="#d3d3d3" stroke="#d3d3d3" points="621 -324 591 -324 579 -312 579 -300 591 -288 621 -288 633 -300 633 -312 621 -324"/><path fill="#d3d3d3" stroke="#d3d3d3" d="M591,-324C585,-324 579,-318 579,-312"/><path fill="#d3d3d3" stroke="#d3d3d3" d="M579,-300C579,-294 585,-288 591,-288"/><path fill="#d3d3d3" stroke="#d3d3d3" d="M621,-288C627,-288 633,-294 633,-300"/><path fill="#d3d3d3" stroke="#d3d3d3" d="M633,-312C633,-318 627,-324 621,-324"/><polyline fill="none" stroke="#000" points="621 -324 591 -324"/><path fill="none" stroke="#000" d="M591,-324C585,-324 579,-318 579,-312"/><polyline fill="none" stroke="#000" points="579 -312 579 -300"/><path fill="none" stroke="#000" d="M579,-300C579,-294 585,-288 591,-288"/><polyline fill="none" stroke="#000" points="591 -288 621 -288"/><path fill="none" stroke="#000" d="M621,-288C627,-288 633,-294 633,-300"/><polyline fill="none" stroke="#000" points="633 -300 633 -312"/><path fill="none" stroke="#000" d="M633,-312C633,-318 627,-324 621,-324"/><text x="606" y="-302.4" font-family="Times Roman,serif" font-size="14" text-anchor="middle">Roles</text></g><g id="edge36" class="edge"><title>Roles-&gt;WindowsServer</title><path fill="none" stroke="#000" d="M602.877,-287.882C603.611,-257.789 612.918,-195.695 625,-144 627.015,-135.377 629.607,-126.097 632.514,-117.704"/><polygon fill="#000" stroke="#000" points="635.787 -118.943 636.055 -108.352 629.241 -116.465 635.787 -118.943"/></g><g id="edge38" class="edge"><title>Roles-&gt;WindowsServer</title><path fill="none" stroke="#000" d="M613.974,-287.882C621.611,-257.789 630.918,-195.695 643,-144 644.972,-135.565 647.495,-126.501 649.579,-118.253"/><polygon fill="#000" stroke="#000" points="653.025 -118.888 651.909 -108.352 646.211 -117.284 653.025 -118.888"/></g><g id="node13" class="node"><title>RolesEnabled</title><polygon fill="#d3d3d3" stroke="#d3d3d3" points="1093 -36 1011 -36 999 -24 999 -12 1011 0 1093 0 1105 -12 1105 -24 1093 -36"/><path fill="#d3d3d3" stroke="#d3d3d3" d="M1011,-36C1005,-36 999,-30 999,-24"/><path fill="#d3d3d3" stroke="#d3d3d3" d="M999,-12C999,-6 1005,-1.69592e-14 1011,-1.61548e-14"/><path fill="#d3d3d3" stroke="#d3d3d3" d="M1093,-5.16149e-15C1099,-4.3571e-15 1105,-6 1105,-12"/><path fill="#d3d3d3" stroke="#d3d3d3" d="M1105,-24C1105,-30 1099,-36 1093,-36"/><polyline fill="none" stroke="#000" points="1093 -36 1011 -36"/><path fill="none" stroke="#000" d="M1011,-36C1005,-36 999,-30 999,-24"/><polyline fill="none" stroke="#000" points="999 -24 999 -12"/><path fill="none" stroke="#000" d="M999,-12C999,-6 1005,-1.69592e-14 1011,-1.61548e-14"/><polyline fill="none" stroke="#000" points="1011 0 1093 0"/><path fill="none" stroke="#000" d="M1093,-5.16149e-15C1099,-4.3571e-15 1105,-6 1105,-12"/><polyline fill="none" stroke="#000" points="1105 -12 1105 -24"/><path fill="none" stroke="#000" d="M1105,-24C1105,-30 1099,-36 1093,-36"/><text x="1052" y="-14.4" font-family="Times Roman,serif" font-size="14" text-anchor="middle">RolesEnabled</text></g><g id="edge48" class="edge"><title>Roles-&gt;RolesEnabled</title><path fill="none" stroke="#000" d="M633.214,-304.522C722.93,-299.386 1005.24,-281.028 1033,-252 1086.27,-196.287 1071.2,-95.1812 1059.69,-46.1581"/><polygon fill="#000" stroke="#000" points="1063.04 -45.116 1057.25 -36.247 1056.25 -46.794 1063.04 -45.116"/></g><g id="node11" class="node"><title>KeyPairName</title><polygon fill="#d3d3d3" stroke="#d3d3d3" points="1131 -324 1049 -324 1037 -312 1037 -300 1049 -288 1131 -288 1143 -300 1143 -312 1131 -324"/><path fill="#d3d3d3" stroke="#d3d3d3" d="M1049,-324C1043,-324 1037,-318 1037,-312"/><path fill="#d3d3d3" stroke="#d3d3d3" d="M1037,-300C1037,-294 1043,-288 1049,-288"/><path fill="#d3d3d3" stroke="#d3d3d3" d="M1131,-288C1137,-288 1143,-294 1143,-300"/><path fill="#d3d3d3" stroke="#d3d3d3" d="M1143,-312C1143,-318 1137,-324 1131,-324"/><polyline fill="none" stroke="#000" points="1131 -324 1049 -324"/><path fill="none" stroke="#000" d="M1049,-324C1043,-324 1037,-318 1037,-312"/><polyline fill="none" stroke="#000" points="1037 -312 1037 -300"/><path fill="none" stroke="#000" d="M1037,-300C1037,-294 1043,-288 1049,-288"/><polyline fill="none" stroke="#000" points="1049 -288 1131 -288"/><path fill="none" stroke="#000" d="M1131,-288C1137,-288 1143,-294 1143,-300"/><polyline fill="none" stroke="#000" points="1143 -300 1143 -312"/><path fill="none" stroke="#000" d="M1143,-312C1143,-318 1137,-324 1131,-324"/><text x="1090" y="-302.4" font-family="Times Roman,serif" font-size="14" text-anchor="middle">KeyPairName</text></g><g id="edge14" class="edge"><title>KeyPairName-&gt;WindowsServer</title><path fill="none" stroke="#000" d="M1080.93,-287.825C1070.85,-268.688 1053.29,-238.298 1033,-216 997.82,-177.338 987.699,-165.384 940,-144 870.423,-112.808 783.685,-99.6323 723.282,-94.0676"/><polygon fill="#000" stroke="#000" points="723.338 -90.559 713.072 -93.176 722.729 -97.533 723.338 -90.559"/></g><g id="node16" class="node"><title>AWS::StackName</title><polygon fill="none" stroke="#000" points="569 -180 433 -180 433 -144 569 -144 569 -180"/><text x="501" y="-158.4" font-family="Times Roman,serif" font-size="14" text-anchor="middle">AWS::StackName</text></g><g id="edge6" class="edge"><title>AWS::StackName-&gt;WindowsServer</title><path fill="none" stroke="#000" d="M526.694,-143.831C544.745,-134.202 569.165,-122.295 591.637,-112.13"/><polygon fill="#000" stroke="#000" points="593.091 -115.314 600.792 -108.038 590.234 -108.923 593.091 -115.314"/></g><g id="edge24" class="edge"><title>AWS::StackName-&gt;WindowsServer</title><path fill="none" stroke="#000" d="M538.599,-143.831C558.35,-134.287 582.73,-122.506 603.642,-112.401"/><polygon fill="#000" stroke="#000" points="605.19 -115.54 612.671 -108.038 602.145 -109.238 605.19 -115.54"/></g><g id="edge32" class="edge"><title>AWS::StackName-&gt;WindowsServer</title><path fill="none" stroke="#000" d="M550.504,-143.831C571.743,-134.452 595.882,-122.911 615.235,-112.924"/><polygon fill="#000" stroke="#000" points="617.085 -115.906 624.317 -108.163 613.835 -109.706 617.085 -115.906"/></g><g id="node20" class="node"><title>AWS::Region</title><polygon fill="none" stroke="#000" points="747 -180 643 -180 643 -144 747 -144 747 -180"/><text x="695" y="-158.4" font-family="Times Roman,serif" font-size="14" text-anchor="middle">AWS::Region</text></g><g id="edge26" class="edge"><title>AWS::Region-&gt;WindowsServer</title><path fill="none" stroke="#000" d="M665.787,-143.831C658.568,-135.962 652.057,-126.571 647.626,-117.853"/><polygon fill="#000" stroke="#000" points="650.737 -116.226 643.58 -108.413 644.303 -118.983 650.737 -116.226"/></g><g id="edge34" class="edge"><title>AWS::Region-&gt;WindowsServer</title><path fill="none" stroke="#000" d="M701.502,-143.831C698.715,-135.454 692.971,-125.353 685.924,-116.175"/><polygon fill="#000" stroke="#000" points="688.535 -113.842 679.436 -108.413 683.164 -118.331 688.535 -113.842"/></g><g id="edge12" class="edge"><title>AWS::Region-&gt;WindowsServer</title><path fill="none" stroke="#000" d="M677.692,-143.831C671.884,-135.792 665.662,-126.167 660.486,-117.292"/><polygon fill="#000" stroke="#000" points="663.461 -115.441 655.532 -108.413 657.348 -118.851 663.461 -115.441"/></g><g id="edge20" class="edge"><title>AWS::Region-&gt;WindowsServer</title><path fill="none" stroke="#000" d="M689.597,-143.831C685.267,-135.623 679.301,-125.761 673.255,-116.732"/><polygon fill="#000" stroke="#000" points="676.06 -114.635 667.484 -108.413 670.308 -118.625 676.06 -114.635"/></g></g></svg>