<svg xmlns="http://www.w3.org/2000/svg" xmlns:xlink="http://www.w3.org/1999/xlink" width="833pt" height="404pt" viewBox="0 0 833 404"><g id="graph1" class="graph" transform="scale(1 1) rotate(0) translate(4 400)"><title>Install a single-instance WordPress deployment using an Amazon RDS database instance for storage. This template demonstrates using the AWS CloudFormation bootstrap scripts to install packages and files at instance launch time. **WARNING** This template creates an Amazon EC2 instance and an Amazon RDS database instance. You will be billed for the AWS resources used if you create a stack from this template.</title><polygon fill="#fff" stroke="#fff" points="-4 5 -4 -400 830 -400 830 5 -4 5"/><g id="node1" class="node"><title>DBSecurityGroup</title><polygon fill="none" stroke="#000" points="366 -252 230 -252 230 -216 366 -216 366 -252"/><text x="298" y="-230.4" font-family="Times Roman,serif" font-size="14" text-anchor="middle">DBSecurityGroup</text></g><g id="node5" class="node"><title>DBInstance</title><polygon fill="none" stroke="#000" points="298 -180 202 -180 202 -144 298 -144 298 -180"/><text x="250" y="-158.4" font-family="Times Roman,serif" font-size="14" text-anchor="middle">DBInstance</text></g><g id="edge34" class="edge"><title>DBSecurityGroup-&gt;DBInstance</title><path fill="none" stroke="#000" d="M285.888,-215.831C280.472,-207.708 273.976,-197.964 268.008,-189.012"/><polygon fill="#000" stroke="#000" points="270.735 -186.792 262.276 -180.413 264.91 -190.675 270.735 -186.792"/></g><g id="node2" class="node"><title>FrontendGroup</title><polygon fill="none" stroke="#000" points="388 -324 266 -324 266 -288 388 -288 388 -324"/><text x="327" y="-302.4" font-family="Times Roman,serif" font-size="14" text-anchor="middle">FrontendGroup</text></g><g id="edge4" class="edge"><title>FrontendGroup-&gt;DBSecurityGroup</title><path fill="none" stroke="#000" d="M319.682,-287.831C316.512,-279.962 312.73,-270.571 309.219,-261.853"/><polygon fill="#000" stroke="#000" points="312.399 -260.381 305.416 -252.413 305.906 -262.997 312.399 -260.381"/></g><g id="node3" class="node"><title>WebServer</title><polygon fill="none" stroke="#000" points="564 -108 472 -108 472 -72 564 -72 564 -108"/><text x="518" y="-86.4" font-family="Times Roman,serif" font-size="14" text-anchor="middle">WebServer</text></g><g id="edge16" class="edge"><title>FrontendGroup-&gt;WebServer</title><path fill="none" stroke="#000" d="M344.513,-287.531C353.898,-277.336 365.457,-264.282 375,-252 410.545,-206.249 408.337,-186.231 448,-144 458.146,-133.197 470.598,-122.86 482.172,-114.176"/><polygon fill="#000" stroke="#000" points="484.392 -116.888 490.399 -108.161 480.261 -111.237 484.392 -116.888"/></g><g id="node16" class="node"><title>WebsiteURL</title><polygon fill="#d3d3d3" stroke="#d3d3d3" points="501 -36 425 -36 413 -24 413 -12 425 0 501 0 513 -12 513 -24 501 -36"/><path fill="#d3d3d3" stroke="#d3d3d3" d="M425,-36C419,-36 413,-30 413,-24"/><path fill="#d3d3d3" stroke="#d3d3d3" d="M413,-12C413,-6 419,-1.69109e-14 425,-1.60583e-14"/><path fill="#d3d3d3" stroke="#d3d3d3" d="M501,-5.25802e-15C507,-4.40536e-15 513,-6 513,-12"/><path fill="#d3d3d3" stroke="#d3d3d3" d="M513,-24C513,-30 507,-36 501,-36"/><polyline fill="none" stroke="#000" points="501 -36 425 -36"/><path fill="none" stroke="#000" d="M425,-36C419,-36 413,-30 413,-24"/><polyline fill="none" stroke="#000" points="413 -24 413 -12"/><path fill="none" stroke="#000" d="M413,-12C413,-6 419,-1.69109e-14 425,-1.60583e-14"/><polyline fill="none" stroke="#000" points="425 0 501 0"/><path fill="none" stroke="#000" d="M501,-5.25802e-15C507,-4.40536e-15 513,-6 513,-12"/><polyline fill="none" stroke="#000" points="513 -12 513 -24"/><path fill="none" stroke="#000" d="M513,-24C513,-30 507,-36 501,-36"/><text x="463" y="-14.4" font-family="Times Roman,serif" font-size="14" text-anchor="middle">WebsiteURL</text></g><g id="edge44" class="edge"><title>WebServer-&gt;WebsiteURL</title><path fill="none" stroke="#000" d="M504.121,-71.8314C497.786,-63.5386 490.162,-53.557 483.207,-44.4533"/><polygon fill="#000" stroke="#000" points="485.917 -42.235 477.066 -36.413 480.355 -46.485 485.917 -42.235"/></g><g id="node17" class="node"><title>InstallURL</title><polygon fill="#d3d3d3" stroke="#d3d3d3" points="605 -36 543 -36 531 -24 531 -12 543 0 605 0 617 -12 617 -24 605 -36"/><path fill="#d3d3d3" stroke="#d3d3d3" d="M543,-36C537,-36 531,-30 531,-24"/><path fill="#d3d3d3" stroke="#d3d3d3" d="M531,-12C531,-6 537,-1.67721e-14 543,-1.57807e-14"/><path fill="#d3d3d3" stroke="#d3d3d3" d="M605,-5.53562e-15C611,-4.54417e-15 617,-6 617,-12"/><path fill="#d3d3d3" stroke="#d3d3d3" d="M617,-24C617,-30 611,-36 605,-36"/><polyline fill="none" stroke="#000" points="605 -36 543 -36"/><path fill="none" stroke="#000" d="M543,-36C537,-36 531,-30 531,-24"/><polyline fill="none" stroke="#000" points="531 -24 531 -12"/><path fill="none" stroke="#000" d="M531,-12C531,-6 537,-1.67721e-14 543,-1.57807e-14"/><polyline fill="none" stroke="#000" points="543 0 605 0"/><path fill="none" stroke="#000" d="M605,-5.53562e-15C611,-4.54417e-15 617,-6 617,-12"/><polyline fill="none" stroke="#000" points="617 -12 617 -24"/><path fill="none" stroke="#000" d="M617,-24C617,-30 611,-36 605,-36"/><text x="574" y="-14.4" font-family="Times Roman,serif" font-size="14" text-anchor="middle">InstallURL</text></g><g id="edge46" class="edge"><title>WebServer-&gt;InstallURL</title><path fill="none" stroke="#000" d="M532.131,-71.8314C538.581,-63.5386 546.345,-53.557 553.425,-44.4533"/><polygon fill="#000" stroke="#000" points="556.302 -46.456 559.679 -36.413 550.776 -42.158 556.302 -46.456"/></g><g id="node4" class="node"><title>WaitCondition</title><polygon fill="none" stroke="#000" points="825 -108 711 -108 711 -72 825 -72 825 -108"/><text x="768" y="-86.4" font-family="Times Roman,serif" font-size="14" text-anchor="middle">WaitCondition</text></g><g id="edge30" class="edge"><title>DBInstance-&gt;WebServer</title><path fill="none" stroke="#000" d="M298.223,-149.045C344.326,-136.659 413.799,-117.994 462.255,-104.976"/><polygon fill="#000" stroke="#000" points="463.207 -108.345 471.956 -102.37 461.39 -101.585 463.207 -108.345"/></g><g id="node6" class="node"><title>WaitHandle</title><polygon fill="none" stroke="#000" points="816 -180 720 -180 720 -144 816 -144 816 -180"/><text x="768" y="-158.4" font-family="Times Roman,serif" font-size="14" text-anchor="middle">WaitHandle</text></g><g id="edge12" class="edge"><title>WaitHandle-&gt;WebServer</title><path fill="none" stroke="#000" d="M719.94,-148.032C715.23,-146.668 710.523,-145.306 706,-144 661.675,-131.2 611.448,-116.777 574.067,-106.059"/><polygon fill="#000" stroke="#000" points="574.944 -102.67 564.367 -103.278 573.015 -109.399 574.944 -102.67"/></g><g id="edge32" class="edge"><title>WaitHandle-&gt;WaitCondition</title><path fill="none" stroke="#000" d="M768,-143.831C768,-136.131 768,-126.974 768,-118.417"/><polygon fill="#000" stroke="#000" points="771.5 -118.413 768 -108.413 764.5 -118.413 771.5 -118.413"/></g><g id="node8" class="node"><title>DBClass</title><polygon fill="#d3d3d3" stroke="#d3d3d3" points="240 -396 192 -396 180 -384 180 -372 192 -360 240 -360 252 -372 252 -384 240 -396"/><path fill="#d3d3d3" stroke="#d3d3d3" d="M192,-396C186,-396 180,-390 180,-384"/><path fill="#d3d3d3" stroke="#d3d3d3" d="M180,-372C180,-366 186,-360 192,-360"/><path fill="#d3d3d3" stroke="#d3d3d3" d="M240,-360C246,-360 252,-366 252,-372"/><path fill="#d3d3d3" stroke="#d3d3d3" d="M252,-384C252,-390 246,-396 240,-396"/><polyline fill="none" stroke="#000" points="240 -396 192 -396"/><path fill="none" stroke="#000" d="M192,-396C186,-396 180,-390 180,-384"/><polyline fill="none" stroke="#000" points="180 -384 180 -372"/><path fill="none" stroke="#000" d="M180,-372C180,-366 186,-360 192,-360"/><polyline fill="none" stroke="#000" points="192 -360 240 -360"/><path fill="none" stroke="#000" d="M240,-360C246,-360 252,-366 252,-372"/><polyline fill="none" stroke="#000" points="252 -372 252 -384"/><path fill="none" stroke="#000" d="M252,-384C252,-390 246,-396 240,-396"/><text x="216" y="-374.4" font-family="Times Roman,serif" font-size="14" text-anchor="middle">DBClass</text></g><g id="edge40" class="edge"><title>DBClass-&gt;DBInstance</title><path fill="none" stroke="#000" d="M213.878,-359.626C210.951,-329.165 207.452,-266.553 221,-216 223.482,-206.74 227.809,-197.309 232.374,-188.975"/><polygon fill="#000" stroke="#000" points="235.535 -190.502 237.545 -180.099 229.487 -186.978 235.535 -190.502"/></g><g id="node9" class="node"><title>DBName</title><polygon fill="#d3d3d3" stroke="#d3d3d3" points="64 -396 12 -396 0 -384 0 -372 12 -360 64 -360 76 -372 76 -384 64 -396"/><path fill="#d3d3d3" stroke="#d3d3d3" d="M12,-396C6,-396 3.55271e-14,-390 2.84217e-14,-384"/><path fill="#d3d3d3" stroke="#d3d3d3" d="M1.42109e-14,-372C7.10543e-15,-366 6,-360 12,-360"/><path fill="#d3d3d3" stroke="#d3d3d3" d="M64,-360C70,-360 76,-366 76,-372"/><path fill="#d3d3d3" stroke="#d3d3d3" d="M76,-384C76,-390 70,-396 64,-396"/><polyline fill="none" stroke="#000" points="64 -396 12 -396"/><path fill="none" stroke="#000" d="M12,-396C6,-396 3.55271e-14,-390 2.84217e-14,-384"/><polyline fill="none" stroke="#000" points="0 -384 0 -372"/><path fill="none" stroke="#000" d="M1.42109e-14,-372C7.10543e-15,-366 6,-360 12,-360"/><polyline fill="none" stroke="#000" points="12 -360 64 -360"/><path fill="none" stroke="#000" d="M64,-360C70,-360 76,-366 76,-372"/><polyline fill="none" stroke="#000" points="76 -372 76 -384"/><path fill="none" stroke="#000" d="M76,-384C76,-390 70,-396 64,-396"/><text x="38" y="-374.4" font-family="Times Roman,serif" font-size="14" text-anchor="middle">DBName</text></g><g id="edge24" class="edge"><title>DBName-&gt;WebServer</title><path fill="none" stroke="#000" d="M41.4251,-359.922C50.9827,-314.935 82.4385,-197.72 159,-144 206.768,-110.483 373.256,-97.201 461.729,-92.4167"/><polygon fill="#000" stroke="#000" points="462.055 -95.904 471.859 -91.888 461.69 -88.914 462.055 -95.904"/></g><g id="edge42" class="edge"><title>DBName-&gt;DBInstance</title><path fill="none" stroke="#000" d="M53.267,-359.797C79.3458,-329.054 134.645,-265.37 186,-216 196.439,-205.964 208.444,-195.563 219.216,-186.6"/><polygon fill="#000" stroke="#000" points="221.67 -189.113 227.166 -180.056 217.221 -183.708 221.67 -189.113"/></g><g id="node10" class="node"><title>SSHLocation</title><polygon fill="#d3d3d3" stroke="#d3d3d3" points="367 -396 287 -396 275 -384 275 -372 287 -360 367 -360 379 -372 379 -384 367 -396"/><path fill="#d3d3d3" stroke="#d3d3d3" d="M287,-396C281,-396 275,-390 275,-384"/><path fill="#d3d3d3" stroke="#d3d3d3" d="M275,-372C275,-366 281,-360 287,-360"/><path fill="#d3d3d3" stroke="#d3d3d3" d="M367,-360C373,-360 379,-366 379,-372"/><path fill="#d3d3d3" stroke="#d3d3d3" d="M379,-384C379,-390 373,-396 367,-396"/><polyline fill="none" stroke="#000" points="367 -396 287 -396"/><path fill="none" stroke="#000" d="M287,-396C281,-396 275,-390 275,-384"/><polyline fill="none" stroke="#000" points="275 -384 275 -372"/><path fill="none" stroke="#000" d="M275,-372C275,-366 281,-360 287,-360"/><polyline fill="none" stroke="#000" points="287 -360 367 -360"/><path fill="none" stroke="#000" d="M367,-360C373,-360 379,-366 379,-372"/><polyline fill="none" stroke="#000" points="379 -372 379 -384"/><path fill="none" stroke="#000" d="M379,-384C379,-390 373,-396 367,-396"/><text x="327" y="-374.4" font-family="Times Roman,serif" font-size="14" text-anchor="middle">SSHLocation</text></g><g id="edge6" class="edge"><title>SSHLocation-&gt;FrontendGroup</title><path fill="none" stroke="#000" d="M327,-359.831C327,-352.131 327,-342.974 327,-334.417"/><polygon fill="#000" stroke="#000" points="330.5 -334.413 327 -324.413 323.5 -334.413 330.5 -334.413"/></g><g id="node11" class="node"><title>KeyName</title><polygon fill="#d3d3d3" stroke="#d3d3d3" points="600 -396 544 -396 532 -384 532 -372 544 -360 600 -360 612 -372 612 -384 600 -396"/><path fill="#d3d3d3" stroke="#d3d3d3" d="M544,-396C538,-396 532,-390 532,-384"/><path fill="#d3d3d3" stroke="#d3d3d3" d="M532,-372C532,-366 538,-360 544,-360"/><path fill="#d3d3d3" stroke="#d3d3d3" d="M600,-360C606,-360 612,-366 612,-372"/><path fill="#d3d3d3" stroke="#d3d3d3" d="M612,-384C612,-390 606,-396 600,-396"/><polyline fill="none" stroke="#000" points="600 -396 544 -396"/><path fill="none" stroke="#000" d="M544,-396C538,-396 532,-390 532,-384"/><polyline fill="none" stroke="#000" points="532 -384 532 -372"/><path fill="none" stroke="#000" d="M532,-372C532,-366 538,-360 544,-360"/><polyline fill="none" stroke="#000" points="544 -360 600 -360"/><path fill="none" stroke="#000" d="M600,-360C606,-360 612,-366 612,-372"/><polyline fill="none" stroke="#000" points="612 -372 612 -384"/><path fill="none" stroke="#000" d="M612,-384C612,-390 606,-396 600,-396"/><text x="572" y="-374.4" font-family="Times Roman,serif" font-size="14" text-anchor="middle">KeyName</text></g><g id="edge14" class="edge"><title>KeyName-&gt;WebServer</title><path fill="none" stroke="#000" d="M590.158,-359.729C598.549,-349.991 607.612,-337.295 612,-324 637.072,-248.03 652.075,-213.239 612,-144 603.252,-128.886 588.496,-117.634 573.237,-109.43"/><polygon fill="#000" stroke="#000" points="574.748 -106.272 564.236 -104.946 571.626 -112.538 574.748 -106.272"/></g><g id="node12" class="node"><title>DBPassword</title><polygon fill="#d3d3d3" stroke="#d3d3d3" points="497 -396 419 -396 407 -384 407 -372 419 -360 497 -360 509 -372 509 -384 497 -396"/><path fill="#d3d3d3" stroke="#d3d3d3" d="M419,-396C413,-396 407,-390 407,-384"/><path fill="#d3d3d3" stroke="#d3d3d3" d="M407,-372C407,-366 413,-360 419,-360"/><path fill="#d3d3d3" stroke="#d3d3d3" d="M497,-360C503,-360 509,-366 509,-372"/><path fill="#d3d3d3" stroke="#d3d3d3" d="M509,-384C509,-390 503,-396 497,-396"/><polyline fill="none" stroke="#000" points="497 -396 419 -396"/><path fill="none" stroke="#000" d="M419,-396C413,-396 407,-390 407,-384"/><polyline fill="none" stroke="#000" points="407 -384 407 -372"/><path fill="none" stroke="#000" d="M407,-372C407,-366 413,-360 419,-360"/><polyline fill="none" stroke="#000" points="419 -360 497 -360"/><path fill="none" stroke="#000" d="M497,-360C503,-360 509,-366 509,-372"/><polyline fill="none" stroke="#000" points="509 -372 509 -384"/><path fill="none" stroke="#000" d="M509,-384C509,-390 503,-396 497,-396"/><text x="458" y="-374.4" font-family="Times Roman,serif" font-size="14" text-anchor="middle">DBPassword</text></g><g id="edge28" class="edge"><title>DBPassword-&gt;WebServer</title><path fill="none" stroke="#000" d="M484.849,-359.939C514.361,-338.29 560.092,-298.987 579,-252 596.919,-207.47 598.708,-187.767 579,-144 573.873,-132.615 565.028,-122.66 555.639,-114.503"/><polygon fill="#000" stroke="#000" points="557.672 -111.646 547.694 -108.083 553.272 -117.09 557.672 -111.646"/></g><g id="edge38" class="edge"><title>DBPassword-&gt;DBInstance</title><path fill="none" stroke="#000" d="M453.186,-359.951C443.576,-327.128 419.059,-257.256 375,-216 356.202,-198.398 330.767,-185.998 307.748,-177.56"/><polygon fill="#000" stroke="#000" points="308.652 -174.169 298.057 -174.183 306.348 -180.779 308.652 -174.169"/></g><g id="node13" class="node"><title>DBUser</title><polygon fill="#d3d3d3" stroke="#d3d3d3" points="150 -396 106 -396 94 -384 94 -372 106 -360 150 -360 162 -372 162 -384 150 -396"/><path fill="#d3d3d3" stroke="#d3d3d3" d="M106,-396C100,-396 94,-390 94,-384"/><path fill="#d3d3d3" stroke="#d3d3d3" d="M94,-372C94,-366 100,-360 106,-360"/><path fill="#d3d3d3" stroke="#d3d3d3" d="M150,-360C156,-360 162,-366 162,-372"/><path fill="#d3d3d3" stroke="#d3d3d3" d="M162,-384C162,-390 156,-396 150,-396"/><polyline fill="none" stroke="#000" points="150 -396 106 -396"/><path fill="none" stroke="#000" d="M106,-396C100,-396 94,-390 94,-384"/><polyline fill="none" stroke="#000" points="94 -384 94 -372"/><path fill="none" stroke="#000" d="M94,-372C94,-366 100,-360 106,-360"/><polyline fill="none" stroke="#000" points="106 -360 150 -360"/><path fill="none" stroke="#000" d="M150,-360C156,-360 162,-366 162,-372"/><polyline fill="none" stroke="#000" points="162 -372 162 -384"/><path fill="none" stroke="#000" d="M162,-384C162,-390 156,-396 150,-396"/><text x="128" y="-374.4" font-family="Times Roman,serif" font-size="14" text-anchor="middle">DBUser</text></g><g id="edge26" class="edge"><title>DBUser-&gt;WebServer</title><path fill="none" stroke="#000" d="M126.948,-359.974C125.442,-315.619 128.304,-200.68 193,-144 232.091,-109.752 379.457,-96.916 461.676,-92.3504"/><polygon fill="#000" stroke="#000" points="462.054 -95.835 471.854 -91.809 461.682 -88.845 462.054 -95.835"/></g><g id="edge36" class="edge"><title>DBUser-&gt;DBInstance</title><path fill="none" stroke="#000" d="M135.911,-359.97C149.554,-329.48 179.035,-266.16 210,-216 215.7,-206.767 222.537,-197.116 228.933,-188.569"/><polygon fill="#000" stroke="#000" points="231.846 -190.521 235.124 -180.447 226.279 -186.278 231.846 -190.521"/></g><g id="node14" class="node"><title>InstanceType</title><polygon fill="#d3d3d3" stroke="#d3d3d3" points="724 -396 642 -396 630 -384 630 -372 642 -360 724 -360 736 -372 736 -384 724 -396"/><path fill="#d3d3d3" stroke="#d3d3d3" d="M642,-396C636,-396 630,-390 630,-384"/><path fill="#d3d3d3" stroke="#d3d3d3" d="M630,-372C630,-366 636,-360 642,-360"/><path fill="#d3d3d3" stroke="#d3d3d3" d="M724,-360C730,-360 736,-366 736,-372"/><path fill="#d3d3d3" stroke="#d3d3d3" d="M736,-384C736,-390 730,-396 724,-396"/><polyline fill="none" stroke="#000" points="724 -396 642 -396"/><path fill="none" stroke="#000" d="M642,-396C636,-396 630,-390 630,-384"/><polyline fill="none" stroke="#000" points="630 -384 630 -372"/><path fill="none" stroke="#000" d="M630,-372C630,-366 636,-360 642,-360"/><polyline fill="none" stroke="#000" points="642 -360 724 -360"/><path fill="none" stroke="#000" d="M724,-360C730,-360 736,-366 736,-372"/><polyline fill="none" stroke="#000" points="736 -372 736 -384"/><path fill="none" stroke="#000" d="M736,-384C736,-390 730,-396 724,-396"/><text x="683" y="-374.4" font-family="Times Roman,serif" font-size="14" text-anchor="middle">InstanceType</text></g><g id="edge18" class="edge"><title>InstanceType-&gt;WebServer</title><path fill="none" stroke="#000" d="M679.757,-359.924C677.494,-317.401 677.115,-209.678 625,-144 611.829,-127.402 592.369,-115.676 573.601,-107.495"/><polygon fill="#000" stroke="#000" points="574.762 -104.189 564.181 -103.646 572.114 -110.669 574.762 -104.189"/></g><g id="edge22" class="edge"><title>InstanceType-&gt;WebServer</title><path fill="none" stroke="#000" d="M688.914,-359.924C695.494,-317.401 695.115,-209.678 643,-144 626.056,-122.647 598.703,-109.357 573.822,-101.307"/><polygon fill="#000" stroke="#000" points="574.659 -97.903 564.074 -98.371 572.64 -104.606 574.659 -97.903"/></g><g id="node20" class="node"><title>AWS::StackId</title><polygon fill="none" stroke="#000" points="570 -252 460 -252 460 -216 570 -216 570 -252"/><text x="515" y="-230.4" font-family="Times Roman,serif" font-size="14" text-anchor="middle">AWS::StackId</text></g><g id="edge8" class="edge"><title>AWS::StackId-&gt;WebServer</title><path fill="none" stroke="#000" d="M487.039,-215.862C475.446,-206.662 463.26,-194.381 457,-180 450.614,-165.33 450.431,-158.589 457,-144 462.127,-132.615 470.972,-122.66 480.361,-114.503"/><polygon fill="#000" stroke="#000" points="482.728 -117.09 488.306 -108.083 478.328 -111.646 482.728 -117.09"/></g><g id="node22" class="node"><title>AWS::Region</title><polygon fill="none" stroke="#000" points="570 -180 466 -180 466 -144 570 -144 570 -180"/><text x="518" y="-158.4" font-family="Times Roman,serif" font-size="14" text-anchor="middle">AWS::Region</text></g><g id="edge10" class="edge"><title>AWS::Region-&gt;WebServer</title><path fill="none" stroke="#000" d="M512.048,-143.831C511.297,-136.131 511.076,-126.974 511.385,-118.417"/><polygon fill="#000" stroke="#000" points="514.879 -118.616 512.024 -108.413 507.893 -118.17 514.879 -118.616"/></g><g id="edge20" class="edge"><title>AWS::Region-&gt;WebServer</title><path fill="none" stroke="#000" d="M523.952,-143.831C524.703,-136.131 524.924,-126.974 524.615,-118.417"/><polygon fill="#000" stroke="#000" points="528.107 -118.17 523.976 -108.413 521.121 -118.616 528.107 -118.17"/></g></g></svg>