<svg xmlns="http://www.w3.org/2000/svg" xmlns:xlink="http://www.w3.org/1999/xlink" width="1316pt" height="332pt" viewBox="0 0 1316 332"><g id="graph1" class="graph" transform="scale(1 1) rotate(0) translate(4 328)"><title>This template demonstrates using embedded templates to build an end to end solution from basic building blocks. It builds a WordPress installation using an RDS database backend configured via a Puppet Master. **WARNING** This template creates one or more Amazon EC2 instances and CloudWatch alarms. You will be billed for the AWS resources used if you create a stack from this template.</title><polygon fill="#fff" stroke="#fff" points="-4 5 -4 -328 1313 -328 1313 5 -4 5"/><g id="node1" class="node"><title>AppDatabase</title><polygon fill="none" stroke="#000" points="496 -180 388 -180 388 -144 496 -144 496 -180"/><text x="442" y="-158.4" font-family="Times Roman,serif" font-size="14" text-anchor="middle">AppDatabase</text></g><g id="node2" class="node"><title>WebServer</title><polygon fill="none" stroke="#000" points="744 -108 652 -108 652 -72 744 -72 744 -108"/><text x="698" y="-86.4" font-family="Times Roman,serif" font-size="14" text-anchor="middle">WebServer</text></g><g id="edge30" class="edge"><title>AppDatabase-&gt;WebServer</title><path fill="none" stroke="#000" d="M496.291,-146.731C539.183,-134.667 598.825,-117.893 642.123,-105.716"/><polygon fill="#000" stroke="#000" points="643.249 -109.035 651.927 -102.958 641.353 -102.296 643.249 -109.035"/></g><g id="node16" class="node"><title>URL</title><polygon fill="#d3d3d3" stroke="#d3d3d3" points="713 -36 683 -36 671 -24 671 -12 683 0 713 0 725 -12 725 -24 713 -36"/><path fill="#d3d3d3" stroke="#d3d3d3" d="M683,-36C677,-36 671,-30 671,-24"/><path fill="#d3d3d3" stroke="#d3d3d3" d="M671,-12C671,-6 677,-1.61846e-14 683,-1.46056e-14"/><path fill="#d3d3d3" stroke="#d3d3d3" d="M713,-6.71068e-15C719,-5.1317e-15 725,-6 725,-12"/><path fill="#d3d3d3" stroke="#d3d3d3" d="M725,-24C725,-30 719,-36 713,-36"/><polyline fill="none" stroke="#000" points="713 -36 683 -36"/><path fill="none" stroke="#000" d="M683,-36C677,-36 671,-30 671,-24"/><polyline fill="none" stroke="#000" points="671 -24 671 -12"/><path fill="none" stroke="#000" d="M671,-12C671,-6 677,-1.61846e-14 683,-1.46056e-14"/><polyline fill="none" stroke="#000" points="683 0 713 0"/><path fill="none" stroke="#000" d="M713,-6.71068e-15C719,-5.1317e-15 725,-6 725,-12"/><polyline fill="none" stroke="#000" points="725 -12 725 -24"/><path fill="none" stroke="#000" d="M725,-24C725,-30 719,-36 713,-36"/><text x="698" y="-14.4" font-family="Times Roman,serif" font-size="14" text-anchor="middle">URL</text></g><g id="edge40" class="edge"><title>WebServer-&gt;URL</title><path fill="none" stroke="#000" d="M698,-71.8314C698,-64.131 698,-54.9743 698,-46.4166"/><polygon fill="#000" stroke="#000" points="701.5 -46.413 698 -36.413 694.5 -46.413 701.5 -46.413"/></g><g id="node3" class="node"><title>EC2SecurityGroup</title><polygon fill="none" stroke="#000" points="230 -252 86 -252 86 -216 230 -216 230 -252"/><text x="158" y="-230.4" font-family="Times Roman,serif" font-size="14" text-anchor="middle">EC2SecurityGroup</text></g><g id="edge6" class="edge"><title>EC2SecurityGroup-&gt;AppDatabase</title><path fill="none" stroke="#000" d="M229.299,-215.924C274.973,-204.345 333.749,-189.444 377.937,-178.241"/><polygon fill="#000" stroke="#000" points="378.867 -181.616 387.701 -175.766 377.147 -174.831 378.867 -181.616"/></g><g id="edge18" class="edge"><title>EC2SecurityGroup-&gt;WebServer</title><path fill="none" stroke="#000" d="M169.468,-215.912C183.993,-194.719 211.133,-160.418 244,-144 312.549,-109.759 535.932,-96.4513 641.613,-91.9777"/><polygon fill="#000" stroke="#000" points="641.922 -95.468 651.769 -91.56 641.634 -88.474 641.922 -95.468"/></g><g id="node4" class="node"><title>AlarmTopic</title><polygon fill="none" stroke="#000" points="414 -252 324 -252 324 -216 414 -216 414 -252"/><text x="369" y="-230.4" font-family="Times Roman,serif" font-size="14" text-anchor="middle">AlarmTopic</text></g><g id="edge14" class="edge"><title>AlarmTopic-&gt;AppDatabase</title><path fill="none" stroke="#000" d="M387.421,-215.831C396.153,-207.219 406.732,-196.785 416.242,-187.405"/><polygon fill="#000" stroke="#000" points="418.923 -189.677 423.585 -180.163 414.007 -184.693 418.923 -189.677"/></g><g id="node6" class="node"><title>SSHLocation</title><polygon fill="#d3d3d3" stroke="#d3d3d3" points="92 -324 12 -324 0 -312 0 -300 12 -288 92 -288 104 -300 104 -312 92 -324"/><path fill="#d3d3d3" stroke="#d3d3d3" d="M12,-324C6,-324 2.96059e-14,-318 2.36848e-14,-312"/><path fill="#d3d3d3" stroke="#d3d3d3" d="M1.18424e-14,-300C5.92119e-15,-294 6,-288 12,-288"/><path fill="#d3d3d3" stroke="#d3d3d3" d="M92,-288C98,-288 104,-294 104,-300"/><path fill="#d3d3d3" stroke="#d3d3d3" d="M104,-312C104,-318 98,-324 92,-324"/><polyline fill="none" stroke="#000" points="92 -324 12 -324"/><path fill="none" stroke="#000" d="M12,-324C6,-324 2.96059e-14,-318 2.36848e-14,-312"/><polyline fill="none" stroke="#000" points="0 -312 0 -300"/><path fill="none" stroke="#000" d="M1.18424e-14,-300C5.92119e-15,-294 6,-288 12,-288"/><polyline fill="none" stroke="#000" points="12 -288 92 -288"/><path fill="none" stroke="#000" d="M92,-288C98,-288 104,-294 104,-300"/><polyline fill="none" stroke="#000" points="104 -300 104 -312"/><path fill="none" stroke="#000" d="M104,-312C104,-318 98,-324 92,-324"/><text x="52" y="-302.4" font-family="Times Roman,serif" font-size="14" text-anchor="middle">SSHLocation</text></g><g id="edge36" class="edge"><title>SSHLocation-&gt;EC2SecurityGroup</title><path fill="none" stroke="#000" d="M78.7483,-287.831C92.0553,-278.793 108.316,-267.748 122.637,-258.02"/><polygon fill="#000" stroke="#000" points="124.955 -260.677 131.26 -252.163 121.021 -254.886 124.955 -260.677"/></g><g id="node7" class="node"><title>DatabaseUser</title><polygon fill="#d3d3d3" stroke="#d3d3d3" points="222 -324 134 -324 122 -312 122 -300 134 -288 222 -288 234 -300 234 -312 222 -324"/><path fill="#d3d3d3" stroke="#d3d3d3" d="M134,-324C128,-324 122,-318 122,-312"/><path fill="#d3d3d3" stroke="#d3d3d3" d="M122,-300C122,-294 128,-288 134,-288"/><path fill="#d3d3d3" stroke="#d3d3d3" d="M222,-288C228,-288 234,-294 234,-300"/><path fill="#d3d3d3" stroke="#d3d3d3" d="M234,-312C234,-318 228,-324 222,-324"/><polyline fill="none" stroke="#000" points="222 -324 134 -324"/><path fill="none" stroke="#000" d="M134,-324C128,-324 122,-318 122,-312"/><polyline fill="none" stroke="#000" points="122 -312 122 -300"/><path fill="none" stroke="#000" d="M122,-300C122,-294 128,-288 134,-288"/><polyline fill="none" stroke="#000" points="134 -288 222 -288"/><path fill="none" stroke="#000" d="M222,-288C228,-288 234,-294 234,-300"/><polyline fill="none" stroke="#000" points="234 -300 234 -312"/><path fill="none" stroke="#000" d="M234,-312C234,-318 228,-324 222,-324"/><text x="178" y="-302.4" font-family="Times Roman,serif" font-size="14" text-anchor="middle">DatabaseUser</text></g><g id="edge10" class="edge"><title>DatabaseUser-&gt;AppDatabase</title><path fill="none" stroke="#000" d="M212.825,-287.903C230.939,-278.019 253.17,-265.139 272,-252 292.44,-237.737 293.745,-229.018 315,-216 335.467,-203.465 359.363,-192.471 380.871,-183.732"/><polygon fill="#000" stroke="#000" points="382.245 -186.952 390.243 -180.003 379.657 -180.448 382.245 -186.952"/></g><g id="edge34" class="edge"><title>DatabaseUser-&gt;WebServer</title><path fill="none" stroke="#000" d="M199.667,-287.786C211.552,-277.558 226.391,-264.393 239,-252 254.48,-236.786 255.548,-230.158 272,-216 315.447,-178.612 325.769,-165.261 379,-144 466.64,-108.996 576.645,-96.6787 641.911,-92.347"/><polygon fill="#000" stroke="#000" points="642.229 -95.834 651.991 -91.718 641.793 -88.848 642.229 -95.834"/></g><g id="node8" class="node"><title>DatabaseType</title><polygon fill="#d3d3d3" stroke="#d3d3d3" points="486 -324 398 -324 386 -312 386 -300 398 -288 486 -288 498 -300 498 -312 486 -324"/><path fill="#d3d3d3" stroke="#d3d3d3" d="M398,-324C392,-324 386,-318 386,-312"/><path fill="#d3d3d3" stroke="#d3d3d3" d="M386,-300C386,-294 392,-288 398,-288"/><path fill="#d3d3d3" stroke="#d3d3d3" d="M486,-288C492,-288 498,-294 498,-300"/><path fill="#d3d3d3" stroke="#d3d3d3" d="M498,-312C498,-318 492,-324 486,-324"/><polyline fill="none" stroke="#000" points="486 -324 398 -324"/><path fill="none" stroke="#000" d="M398,-324C392,-324 386,-318 386,-312"/><polyline fill="none" stroke="#000" points="386 -312 386 -300"/><path fill="none" stroke="#000" d="M386,-300C386,-294 392,-288 398,-288"/><polyline fill="none" stroke="#000" points="398 -288 486 -288"/><path fill="none" stroke="#000" d="M486,-288C492,-288 498,-294 498,-300"/><polyline fill="none" stroke="#000" points="498 -300 498 -312"/><path fill="none" stroke="#000" d="M498,-312C498,-318 492,-324 486,-324"/><text x="442" y="-302.4" font-family="Times Roman,serif" font-size="14" text-anchor="middle">DatabaseType</text></g><g id="edge12" class="edge"><title>DatabaseType-&gt;AppDatabase</title><path fill="none" stroke="#000" d="M442,-287.762C442,-263.201 442,-219.247 442,-190.354"/><polygon fill="#000" stroke="#000" points="445.5 -190.09 442 -180.09 438.5 -190.09 445.5 -190.09"/></g><g id="node9" class="node"><title>OperatorEmail</title><polygon fill="#d3d3d3" stroke="#d3d3d3" points="356 -324 264 -324 252 -312 252 -300 264 -288 356 -288 368 -300 368 -312 356 -324"/><path fill="#d3d3d3" stroke="#d3d3d3" d="M264,-324C258,-324 252,-318 252,-312"/><path fill="#d3d3d3" stroke="#d3d3d3" d="M252,-300C252,-294 258,-288 264,-288"/><path fill="#d3d3d3" stroke="#d3d3d3" d="M356,-288C362,-288 368,-294 368,-300"/><path fill="#d3d3d3" stroke="#d3d3d3" d="M368,-312C368,-318 362,-324 356,-324"/><polyline fill="none" stroke="#000" points="356 -324 264 -324"/><path fill="none" stroke="#000" d="M264,-324C258,-324 252,-318 252,-312"/><polyline fill="none" stroke="#000" points="252 -312 252 -300"/><path fill="none" stroke="#000" d="M252,-300C252,-294 258,-288 264,-288"/><polyline fill="none" stroke="#000" points="264 -288 356 -288"/><path fill="none" stroke="#000" d="M356,-288C362,-288 368,-294 368,-300"/><polyline fill="none" stroke="#000" points="368 -300 368 -312"/><path fill="none" stroke="#000" d="M368,-312C368,-318 362,-324 356,-324"/><text x="310" y="-302.4" font-family="Times Roman,serif" font-size="14" text-anchor="middle">OperatorEmail</text></g><g id="edge38" class="edge"><title>OperatorEmail-&gt;AlarmTopic</title><path fill="none" stroke="#000" d="M324.888,-287.831C331.753,-279.454 340.03,-269.353 347.551,-260.175"/><polygon fill="#000" stroke="#000" points="350.28 -262.366 353.911 -252.413 344.866 -257.93 350.28 -262.366"/></g><g id="node10" class="node"><title>DatabasePassword</title><polygon fill="#d3d3d3" stroke="#d3d3d3" points="650 -324 528 -324 516 -312 516 -300 528 -288 650 -288 662 -300 662 -312 650 -324"/><path fill="#d3d3d3" stroke="#d3d3d3" d="M528,-324C522,-324 516,-318 516,-312"/><path fill="#d3d3d3" stroke="#d3d3d3" d="M516,-300C516,-294 522,-288 528,-288"/><path fill="#d3d3d3" stroke="#d3d3d3" d="M650,-288C656,-288 662,-294 662,-300"/><path fill="#d3d3d3" stroke="#d3d3d3" d="M662,-312C662,-318 656,-324 650,-324"/><polyline fill="none" stroke="#000" points="650 -324 528 -324"/><path fill="none" stroke="#000" d="M528,-324C522,-324 516,-318 516,-312"/><polyline fill="none" stroke="#000" points="516 -312 516 -300"/><path fill="none" stroke="#000" d="M516,-300C516,-294 522,-288 528,-288"/><polyline fill="none" stroke="#000" points="528 -288 650 -288"/><path fill="none" stroke="#000" d="M650,-288C656,-288 662,-294 662,-300"/><polyline fill="none" stroke="#000" points="662 -300 662 -312"/><path fill="none" stroke="#000" d="M662,-312C662,-318 656,-324 650,-324"/><text x="589" y="-302.4" font-family="Times Roman,serif" font-size="14" text-anchor="middle">DatabasePassword</text></g><g id="edge8" class="edge"><title>DatabasePassword-&gt;AppDatabase</title><path fill="none" stroke="#000" d="M566.605,-287.84C554.324,-277.627 538.999,-264.461 526,-252 504.458,-231.35 481.428,-206.455 464.941,-188.087"/><polygon fill="#000" stroke="#000" points="467.124 -185.277 457.855 -180.146 461.901 -189.937 467.124 -185.277"/></g><g id="edge32" class="edge"><title>DatabasePassword-&gt;WebServer</title><path fill="none" stroke="#000" d="M614.308,-287.91C626.014,-278.398 639.234,-265.843 648,-252 674.713,-209.814 687.979,-152.401 693.889,-118.466"/><polygon fill="#000" stroke="#000" points="697.388 -118.758 695.557 -108.322 690.481 -117.622 697.388 -118.758"/></g><g id="node11" class="node"><title>KeyName</title><polygon fill="#d3d3d3" stroke="#d3d3d3" points="748 -324 692 -324 680 -312 680 -300 692 -288 748 -288 760 -300 760 -312 748 -324"/><path fill="#d3d3d3" stroke="#d3d3d3" d="M692,-324C686,-324 680,-318 680,-312"/><path fill="#d3d3d3" stroke="#d3d3d3" d="M680,-300C680,-294 686,-288 692,-288"/><path fill="#d3d3d3" stroke="#d3d3d3" d="M748,-288C754,-288 760,-294 760,-300"/><path fill="#d3d3d3" stroke="#d3d3d3" d="M760,-312C760,-318 754,-324 748,-324"/><polyline fill="none" stroke="#000" points="748 -324 692 -324"/><path fill="none" stroke="#000" d="M692,-324C686,-324 680,-318 680,-312"/><polyline fill="none" stroke="#000" points="680 -312 680 -300"/><path fill="none" stroke="#000" d="M680,-300C680,-294 686,-288 692,-288"/><polyline fill="none" stroke="#000" points="692 -288 748 -288"/><path fill="none" stroke="#000" d="M748,-288C754,-288 760,-294 760,-300"/><polyline fill="none" stroke="#000" points="760 -300 760 -312"/><path fill="none" stroke="#000" d="M760,-312C760,-318 754,-324 748,-324"/><text x="720" y="-302.4" font-family="Times Roman,serif" font-size="14" text-anchor="middle">KeyName</text></g><g id="edge22" class="edge"><title>KeyName-&gt;WebServer</title><path fill="none" stroke="#000" d="M718.162,-287.955C714.328,-250.314 705.454,-163.187 700.865,-118.125"/><polygon fill="#000" stroke="#000" points="704.343 -117.739 699.848 -108.145 697.379 -118.448 704.343 -117.739"/></g><g id="node12" class="node"><title>PuppetMasterDNSName</title><polygon fill="#d3d3d3" stroke="#d3d3d3" points="948 -324 790 -324 778 -312 778 -300 790 -288 948 -288 960 -300 960 -312 948 -324"/><path fill="#d3d3d3" stroke="#d3d3d3" d="M790,-324C784,-324 778,-318 778,-312"/><path fill="#d3d3d3" stroke="#d3d3d3" d="M778,-300C778,-294 784,-288 790,-288"/><path fill="#d3d3d3" stroke="#d3d3d3" d="M948,-288C954,-288 960,-294 960,-300"/><path fill="#d3d3d3" stroke="#d3d3d3" d="M960,-312C960,-318 954,-324 948,-324"/><polyline fill="none" stroke="#000" points="948 -324 790 -324"/><path fill="none" stroke="#000" d="M790,-324C784,-324 778,-318 778,-312"/><polyline fill="none" stroke="#000" points="778 -312 778 -300"/><path fill="none" stroke="#000" d="M778,-300C778,-294 784,-288 790,-288"/><polyline fill="none" stroke="#000" points="790 -288 948 -288"/><path fill="none" stroke="#000" d="M948,-288C954,-288 960,-294 960,-300"/><polyline fill="none" stroke="#000" points="960 -300 960 -312"/><path fill="none" stroke="#000" d="M960,-312C960,-318 954,-324 948,-324"/><text x="869" y="-302.4" font-family="Times Roman,serif" font-size="14" text-anchor="middle">PuppetMasterDNSName</text></g><g id="edge24" class="edge"><title>PuppetMasterDNSName-&gt;WebServer</title><path fill="none" stroke="#000" d="M854.715,-287.955C824.475,-249.759 753.894,-160.603 718.707,-116.156"/><polygon fill="#000" stroke="#000" points="721.316 -113.813 712.365 -108.145 715.828 -118.158 721.316 -113.813"/></g><g id="node13" class="node"><title>InstanceType</title><polygon fill="#d3d3d3" stroke="#d3d3d3" points="1072 -324 990 -324 978 -312 978 -300 990 -288 1072 -288 1084 -300 1084 -312 1072 -324"/><path fill="#d3d3d3" stroke="#d3d3d3" d="M990,-324C984,-324 978,-318 978,-312"/><path fill="#d3d3d3" stroke="#d3d3d3" d="M978,-300C978,-294 984,-288 990,-288"/><path fill="#d3d3d3" stroke="#d3d3d3" d="M1072,-288C1078,-288 1084,-294 1084,-300"/><path fill="#d3d3d3" stroke="#d3d3d3" d="M1084,-312C1084,-318 1078,-324 1072,-324"/><polyline fill="none" stroke="#000" points="1072 -324 990 -324"/><path fill="none" stroke="#000" d="M990,-324C984,-324 978,-318 978,-312"/><polyline fill="none" stroke="#000" points="978 -312 978 -300"/><path fill="none" stroke="#000" d="M978,-300C978,-294 984,-288 990,-288"/><polyline fill="none" stroke="#000" points="990 -288 1072 -288"/><path fill="none" stroke="#000" d="M1072,-288C1078,-288 1084,-294 1084,-300"/><polyline fill="none" stroke="#000" points="1084 -300 1084 -312"/><path fill="none" stroke="#000" d="M1084,-312C1084,-318 1078,-324 1072,-324"/><text x="1031" y="-302.4" font-family="Times Roman,serif" font-size="14" text-anchor="middle">InstanceType</text></g><g id="edge26" class="edge"><title>InstanceType-&gt;WebServer</title><path fill="none" stroke="#000" d="M1003.18,-287.955C943.193,-249.044 801.674,-157.248 734.551,-113.709"/><polygon fill="#000" stroke="#000" points="736.268 -110.651 725.974 -108.145 732.459 -116.523 736.268 -110.651"/></g><g id="node14" class="node"><title>PuppetClientSecurityGroup</title><polygon fill="#d3d3d3" stroke="#d3d3d3" points="1296 -324 1114 -324 1102 -312 1102 -300 1114 -288 1296 -288 1308 -300 1308 -312 1296 -324"/><path fill="#d3d3d3" stroke="#d3d3d3" d="M1114,-324C1108,-324 1102,-318 1102,-312"/><path fill="#d3d3d3" stroke="#d3d3d3" d="M1102,-300C1102,-294 1108,-288 1114,-288"/><path fill="#d3d3d3" stroke="#d3d3d3" d="M1296,-288C1302,-288 1308,-294 1308,-300"/><path fill="#d3d3d3" stroke="#d3d3d3" d="M1308,-312C1308,-318 1302,-324 1296,-324"/><polyline fill="none" stroke="#000" points="1296 -324 1114 -324"/><path fill="none" stroke="#000" d="M1114,-324C1108,-324 1102,-318 1102,-312"/><polyline fill="none" stroke="#000" points="1102 -312 1102 -300"/><path fill="none" stroke="#000" d="M1102,-300C1102,-294 1108,-288 1114,-288"/><polyline fill="none" stroke="#000" points="1114 -288 1296 -288"/><path fill="none" stroke="#000" d="M1296,-288C1302,-288 1308,-294 1308,-300"/><polyline fill="none" stroke="#000" points="1308 -300 1308 -312"/><path fill="none" stroke="#000" d="M1308,-312C1308,-318 1302,-324 1296,-324"/><text x="1205" y="-302.4" font-family="Times Roman,serif" font-size="14" text-anchor="middle">PuppetClientSecurityGroup</text></g><g id="edge28" class="edge"><title>PuppetClientSecurityGroup-&gt;WebServer</title><path fill="none" stroke="#000" d="M1162.65,-287.955C1070.19,-248.567 850.551,-154.992 749.947,-112.131"/><polygon fill="#000" stroke="#000" points="751.162 -108.845 740.591 -108.145 748.419 -115.285 751.162 -108.845"/></g><g id="node17" class="node"><title>AWS::Region</title><polygon fill="none" stroke="#000" points="639 -252 535 -252 535 -216 639 -216 639 -252"/><text x="587" y="-230.4" font-family="Times Roman,serif" font-size="14" text-anchor="middle">AWS::Region</text></g><g id="edge4" class="edge"><title>AWS::Region-&gt;AppDatabase</title><path fill="none" stroke="#000" d="M550.41,-215.831C531.276,-206.33 507.677,-194.612 487.388,-184.537"/><polygon fill="#000" stroke="#000" points="488.84 -181.351 478.327 -180.038 485.726 -187.62 488.84 -181.351"/></g><g id="edge16" class="edge"><title>AWS::Region-&gt;WebServer</title><path fill="none" stroke="#000" d="M601.058,-215.762C620.491,-190.552 655.673,-144.91 677.885,-116.095"/><polygon fill="#000" stroke="#000" points="680.723 -118.147 684.056 -108.09 675.179 -113.873 680.723 -118.147"/></g><g id="node26" class="node"><title>AWS::StackId</title><polygon fill="none" stroke="#000" points="1275 -180 1165 -180 1165 -144 1275 -144 1275 -180"/><text x="1220" y="-158.4" font-family="Times Roman,serif" font-size="14" text-anchor="middle">AWS::StackId</text></g><g id="edge20" class="edge"><title>AWS::StackId-&gt;WebServer</title><path fill="none" stroke="#000" d="M1164.79,-146.888C1160.14,-145.832 1155.5,-144.851 1151,-144 1009.47,-117.234 840.42,-101.246 754.369,-94.2295"/><polygon fill="#000" stroke="#000" points="754.543 -90.732 744.294 -93.418 753.981 -97.71 754.543 -90.732"/></g></g></svg>