<svg xmlns="http://www.w3.org/2000/svg" xmlns:xlink="http://www.w3.org/1999/xlink" width="1208" height="332pt" viewBox="0 0 906 332"><g id="graph1" class="graph" transform="scale(1 1) rotate(0) translate(4 328)"><title>Sample template to bring up an Opscode Chef Client using the BootStrap Chef RubyGems installation. A WaitCondition is used to hold up the stack creation until the application is deployed. **WARNING** This template creates one or more Amazon EC2 instances. You will be billed for the AWS resources used if you create a stack from this template.</title><polygon fill="#fff" stroke="#fff" points="-4 5 -4 -328 903 -328 903 5 -4 5"/><g id="node1" class="node"><title>ChefClientWaitHandle</title><polygon fill="none" stroke="#000" points="177 -180 9 -180 9 -144 177 -144 177 -180"/><text x="93" y="-158.4" font-family="Times Roman,serif" font-size="14" text-anchor="middle">ChefClientWaitHandle</text></g><g id="node4" class="node"><title>ChefClientWaitCondition</title><polygon fill="none" stroke="#000" points="186 -108 0 -108 0 -72 186 -72 186 -108"/><text x="93" y="-86.4" font-family="Times Roman,serif" font-size="14" text-anchor="middle">ChefClientWaitCondition</text></g><g id="edge4" class="edge"><title>ChefClientWaitHandle-&gt;ChefClientWaitCondition</title><path fill="none" stroke="#000" d="M93,-143.831C93,-136.131 93,-126.974 93,-118.417"/><polygon fill="#000" stroke="#000" points="96.5 -118.413 93 -108.413 89.5 -118.413 96.5 -118.413"/></g><g id="node6" class="node"><title>ChefClient</title><polygon fill="none" stroke="#000" points="562 -108 474 -108 474 -72 562 -72 562 -108"/><text x="518" y="-86.4" font-family="Times Roman,serif" font-size="14" text-anchor="middle">ChefClient</text></g><g id="edge30" class="edge"><title>ChefClientWaitHandle-&gt;ChefClient</title><path fill="none" stroke="#000" d="M177.103,-144.858C178.747,-144.568 180.381,-144.282 182,-144 280.868,-126.758 396.808,-107.944 463.508,-97.7037"/><polygon fill="#000" stroke="#000" points="464.423 -101.105 473.78 -96.135 463.367 -94.185 464.423 -101.105"/></g><g id="edge14" class="edge"><title>ChefClientWaitHandle-&gt;ChefClient</title><path fill="none" stroke="#000" d="M177.105,-148.055C184.864,-146.666 192.587,-145.293 200,-144 292.624,-127.847 400.231,-110.314 463.617,-99.744"/><polygon fill="#000" stroke="#000" points="464.496 -103.146 473.782 -98.045 463.342 -96.242 464.496 -103.146"/></g><g id="node2" class="node"><title>EC2SecurityGroup</title><polygon fill="none" stroke="#000" points="207 -252 63 -252 63 -216 207 -216 207 -252"/><text x="135" y="-230.4" font-family="Times Roman,serif" font-size="14" text-anchor="middle">EC2SecurityGroup</text></g><g id="edge34" class="edge"><title>EC2SecurityGroup-&gt;ChefClient</title><path fill="none" stroke="#000" d="M152.309,-215.95C176.934,-190.352 219.605,-146.324 224,-144 264.805,-122.428 390.854,-104.762 463.98,-95.9897"/><polygon fill="#000" stroke="#000" points="464.414 -99.463 473.933 -94.811 463.591 -92.511 464.414 -99.463"/></g><g id="node3" class="node"><title>ChefClientUser</title><polygon fill="none" stroke="#000" points="345 -252 225 -252 225 -216 345 -216 345 -252"/><text x="285" y="-230.4" font-family="Times Roman,serif" font-size="14" text-anchor="middle">ChefClientUser</text></g><g id="node5" class="node"><title>HostKeys</title><polygon fill="none" stroke="#000" points="313 -180 233 -180 233 -144 313 -144 313 -180"/><text x="273" y="-158.4" font-family="Times Roman,serif" font-size="14" text-anchor="middle">HostKeys</text></g><g id="edge6" class="edge"><title>ChefClientUser-&gt;HostKeys</title><path fill="none" stroke="#000" d="M281.972,-215.831C280.688,-208.131 279.162,-198.974 277.736,-190.417"/><polygon fill="#000" stroke="#000" points="281.165 -189.702 276.069 -180.413 274.261 -190.853 281.165 -189.702"/></g><g id="node7" class="node"><title>BucketPolicy</title><polygon fill="none" stroke="#000" points="433 -180 331 -180 331 -144 433 -144 433 -180"/><text x="382" y="-158.4" font-family="Times Roman,serif" font-size="14" text-anchor="middle">BucketPolicy</text></g><g id="edge44" class="edge"><title>ChefClientUser-&gt;BucketPolicy</title><path fill="none" stroke="#000" d="M309.477,-215.831C321.539,-206.878 336.254,-195.956 349.269,-186.295"/><polygon fill="#000" stroke="#000" points="351.587 -188.933 357.531 -180.163 347.415 -183.313 351.587 -188.933"/></g><g id="edge10" class="edge"><title>HostKeys-&gt;ChefClient</title><path fill="none" stroke="#000" d="M294.741,-144.083C294.827,-144.055 294.914,-144.028 295,-144 350.89,-126.07 416.876,-108.647 463.658,-98.6395"/><polygon fill="#000" stroke="#000" points="464.559 -102.027 473.634 -96.559 463.13 -95.174 464.559 -102.027"/></g><g id="edge12" class="edge"><title>HostKeys-&gt;ChefClient</title><path fill="none" stroke="#000" d="M312.741,-144.083C312.827,-144.055 312.914,-144.028 313,-144 363.454,-127.814 422.135,-112.042 463.859,-101.764"/><polygon fill="#000" stroke="#000" points="464.932 -105.105 473.819 -99.337 463.275 -98.304 464.932 -105.105"/></g><g id="edge20" class="edge"><title>HostKeys-&gt;ChefClient</title><path fill="none" stroke="#000" d="M313.072,-150.087C319.106,-147.972 325.218,-145.855 331,-144 375.58,-129.698 426.584,-115.719 464.134,-105.569"/><polygon fill="#000" stroke="#000" points="465.122 -108.927 473.864 -102.942 463.297 -102.169 465.122 -108.927"/></g><g id="edge22" class="edge"><title>HostKeys-&gt;ChefClient</title><path fill="none" stroke="#000" d="M313.142,-155.573C325.896,-151.973 338.04,-147.516 349,-144 387.389,-131.684 430.541,-119.608 464.165,-110.01"/><polygon fill="#000" stroke="#000" points="465.18 -113.36 473.83 -107.242 463.253 -106.63 465.18 -113.36"/></g><g id="node15" class="node"><title>WebsiteURL</title><polygon fill="#d3d3d3" stroke="#d3d3d3" points="500 -36 424 -36 412 -24 412 -12 424 0 500 0 512 -12 512 -24 500 -36"/><path fill="#d3d3d3" stroke="#d3d3d3" d="M424,-36C418,-36 412,-30 412,-24"/><path fill="#d3d3d3" stroke="#d3d3d3" d="M412,-12C412,-6 418,-1.69109e-14 424,-1.60583e-14"/><path fill="#d3d3d3" stroke="#d3d3d3" d="M500,-5.25802e-15C506,-4.40536e-15 512,-6 512,-12"/><path fill="#d3d3d3" stroke="#d3d3d3" d="M512,-24C512,-30 506,-36 500,-36"/><polyline fill="none" stroke="#000" points="500 -36 424 -36"/><path fill="none" stroke="#000" d="M424,-36C418,-36 412,-30 412,-24"/><polyline fill="none" stroke="#000" points="412 -24 412 -12"/><path fill="none" stroke="#000" d="M412,-12C412,-6 418,-1.69109e-14 424,-1.60583e-14"/><polyline fill="none" stroke="#000" points="424 0 500 0"/><path fill="none" stroke="#000" d="M500,-5.25802e-15C506,-4.40536e-15 512,-6 512,-12"/><polyline fill="none" stroke="#000" points="512 -12 512 -24"/><path fill="none" stroke="#000" d="M512,-24C512,-30 506,-36 500,-36"/><text x="462" y="-14.4" font-family="Times Roman,serif" font-size="14" text-anchor="middle">WebsiteURL</text></g><g id="edge50" class="edge"><title>ChefClient-&gt;WebsiteURL</title><path fill="none" stroke="#000" d="M503.869,-71.8314C497.419,-63.5386 489.655,-53.557 482.575,-44.4533"/><polygon fill="#000" stroke="#000" points="485.224 -42.158 476.321 -36.413 479.698 -46.456 485.224 -42.158"/></g><g id="node16" class="node"><title>InstallURL</title><polygon fill="#d3d3d3" stroke="#d3d3d3" points="604 -36 542 -36 530 -24 530 -12 542 0 604 0 616 -12 616 -24 604 -36"/><path fill="#d3d3d3" stroke="#d3d3d3" d="M542,-36C536,-36 530,-30 530,-24"/><path fill="#d3d3d3" stroke="#d3d3d3" d="M530,-12C530,-6 536,-1.67721e-14 542,-1.57807e-14"/><path fill="#d3d3d3" stroke="#d3d3d3" d="M604,-5.53562e-15C610,-4.54417e-15 616,-6 616,-12"/><path fill="#d3d3d3" stroke="#d3d3d3" d="M616,-24C616,-30 610,-36 604,-36"/><polyline fill="none" stroke="#000" points="604 -36 542 -36"/><path fill="none" stroke="#000" d="M542,-36C536,-36 530,-30 530,-24"/><polyline fill="none" stroke="#000" points="530 -24 530 -12"/><path fill="none" stroke="#000" d="M530,-12C530,-6 536,-1.67721e-14 542,-1.57807e-14"/><polyline fill="none" stroke="#000" points="542 0 604 0"/><path fill="none" stroke="#000" d="M604,-5.53562e-15C610,-4.54417e-15 616,-6 616,-12"/><polyline fill="none" stroke="#000" points="616 -12 616 -24"/><path fill="none" stroke="#000" d="M616,-24C616,-30 610,-36 604,-36"/><text x="573" y="-14.4" font-family="Times Roman,serif" font-size="14" text-anchor="middle">InstallURL</text></g><g id="edge52" class="edge"><title>ChefClient-&gt;InstallURL</title><path fill="none" stroke="#000" d="M531.879,-71.8314C538.214,-63.5386 545.838,-53.557 552.793,-44.4533"/><polygon fill="#000" stroke="#000" points="555.645 -46.485 558.934 -36.413 550.083 -42.235 555.645 -46.485"/></g><g id="node9" class="node"><title>ChefServerPrivateKeyBucket</title><polygon fill="#d3d3d3" stroke="#d3d3d3" points="312 -324 122 -324 110 -312 110 -300 122 -288 312 -288 324 -300 324 -312 312 -324"/><path fill="#d3d3d3" stroke="#d3d3d3" d="M122,-324C116,-324 110,-318 110,-312"/><path fill="#d3d3d3" stroke="#d3d3d3" d="M110,-300C110,-294 116,-288 122,-288"/><path fill="#d3d3d3" stroke="#d3d3d3" d="M312,-288C318,-288 324,-294 324,-300"/><path fill="#d3d3d3" stroke="#d3d3d3" d="M324,-312C324,-318 318,-324 312,-324"/><polyline fill="none" stroke="#000" points="312 -324 122 -324"/><path fill="none" stroke="#000" d="M122,-324C116,-324 110,-318 110,-312"/><polyline fill="none" stroke="#000" points="110 -312 110 -300"/><path fill="none" stroke="#000" d="M110,-300C110,-294 116,-288 122,-288"/><polyline fill="none" stroke="#000" points="122 -288 312 -288"/><path fill="none" stroke="#000" d="M312,-288C318,-288 324,-294 324,-300"/><polyline fill="none" stroke="#000" points="324 -300 324 -312"/><path fill="none" stroke="#000" d="M324,-312C324,-318 318,-324 312,-324"/><text x="217" y="-302.4" font-family="Times Roman,serif" font-size="14" text-anchor="middle">ChefServerPrivateKeyBucket</text></g><g id="edge26" class="edge"><title>ChefServerPrivateKeyBucket-&gt;ChefClient</title><path fill="none" stroke="#000" d="M306.068,-287.953C333.243,-279.793 362.201,-268.218 386,-252 438.702,-216.085 481.267,-153.106 502.767,-117.167"/><polygon fill="#000" stroke="#000" points="505.975 -118.615 508.018 -108.219 499.938 -115.072 505.975 -118.615"/></g><g id="edge46" class="edge"><title>ChefServerPrivateKeyBucket-&gt;BucketPolicy</title><path fill="none" stroke="#000" d="M288.5,-287.917C308.955,-279.886 329.777,-268.391 345,-252 360.669,-235.129 367.573,-209.613 372.107,-190.054"/><polygon fill="#000" stroke="#000" points="375.55 -190.697 374.359 -180.17 368.725 -189.142 375.55 -190.697"/></g><g id="edge48" class="edge"><title>ChefServerPrivateKeyBucket-&gt;BucketPolicy</title><path fill="none" stroke="#000" d="M305.781,-287.917C326.955,-279.886 347.777,-268.391 363,-252 378.597,-235.206 385.509,-209.848 387.096,-190.325"/><polygon fill="#000" stroke="#000" points="390.6 -190.286 387.452 -180.17 383.604 -190.041 390.6 -190.286"/></g><g id="node10" class="node"><title>KeyName</title><polygon fill="#d3d3d3" stroke="#d3d3d3" points="410 -324 354 -324 342 -312 342 -300 354 -288 410 -288 422 -300 422 -312 410 -324"/><path fill="#d3d3d3" stroke="#d3d3d3" d="M354,-324C348,-324 342,-318 342,-312"/><path fill="#d3d3d3" stroke="#d3d3d3" d="M342,-300C342,-294 348,-288 354,-288"/><path fill="#d3d3d3" stroke="#d3d3d3" d="M410,-288C416,-288 422,-294 422,-300"/><path fill="#d3d3d3" stroke="#d3d3d3" d="M422,-312C422,-318 416,-324 410,-324"/><polyline fill="none" stroke="#000" points="410 -324 354 -324"/><path fill="none" stroke="#000" d="M354,-324C348,-324 342,-318 342,-312"/><polyline fill="none" stroke="#000" points="342 -312 342 -300"/><path fill="none" stroke="#000" d="M342,-300C342,-294 348,-288 354,-288"/><polyline fill="none" stroke="#000" points="354 -288 410 -288"/><path fill="none" stroke="#000" d="M410,-288C416,-288 422,-294 422,-300"/><polyline fill="none" stroke="#000" points="422 -300 422 -312"/><path fill="none" stroke="#000" d="M422,-312C422,-318 416,-324 410,-324"/><text x="382" y="-302.4" font-family="Times Roman,serif" font-size="14" text-anchor="middle">KeyName</text></g><g id="edge32" class="edge"><title>KeyName-&gt;ChefClient</title><path fill="none" stroke="#000" d="M422.283,-291.107C440.827,-282.352 461.631,-269.511 475,-252 505.195,-212.452 514.237,-153.459 516.913,-118.642"/><polygon fill="#000" stroke="#000" points="520.433 -118.445 517.577 -108.243 513.447 -118 520.433 -118.445"/></g><g id="node11" class="node"><title>ChefServerSecurityGroup</title><polygon fill="#d3d3d3" stroke="#d3d3d3" points="622 -324 452 -324 440 -312 440 -300 452 -288 622 -288 634 -300 634 -312 622 -324"/><path fill="#d3d3d3" stroke="#d3d3d3" d="M452,-324C446,-324 440,-318 440,-312"/><path fill="#d3d3d3" stroke="#d3d3d3" d="M440,-300C440,-294 446,-288 452,-288"/><path fill="#d3d3d3" stroke="#d3d3d3" d="M622,-288C628,-288 634,-294 634,-300"/><path fill="#d3d3d3" stroke="#d3d3d3" d="M634,-312C634,-318 628,-324 622,-324"/><polyline fill="none" stroke="#000" points="622 -324 452 -324"/><path fill="none" stroke="#000" d="M452,-324C446,-324 440,-318 440,-312"/><polyline fill="none" stroke="#000" points="440 -312 440 -300"/><path fill="none" stroke="#000" d="M440,-300C440,-294 446,-288 452,-288"/><polyline fill="none" stroke="#000" points="452 -288 622 -288"/><path fill="none" stroke="#000" d="M622,-288C628,-288 634,-294 634,-300"/><polyline fill="none" stroke="#000" points="634 -300 634 -312"/><path fill="none" stroke="#000" d="M634,-312C634,-318 628,-324 622,-324"/><text x="537" y="-302.4" font-family="Times Roman,serif" font-size="14" text-anchor="middle">ChefServerSecurityGroup</text></g><g id="edge36" class="edge"><title>ChefServerSecurityGroup-&gt;ChefClient</title><path fill="none" stroke="#000" d="M535.413,-287.955C532.102,-250.314 524.438,-163.187 520.474,-118.125"/><polygon fill="#000" stroke="#000" points="523.959 -117.8 519.596 -108.145 516.986 -118.413 523.959 -117.8"/></g><g id="node12" class="node"><title>InstanceType</title><polygon fill="#d3d3d3" stroke="#d3d3d3" points="746 -324 664 -324 652 -312 652 -300 664 -288 746 -288 758 -300 758 -312 746 -324"/><path fill="#d3d3d3" stroke="#d3d3d3" d="M664,-324C658,-324 652,-318 652,-312"/><path fill="#d3d3d3" stroke="#d3d3d3" d="M652,-300C652,-294 658,-288 664,-288"/><path fill="#d3d3d3" stroke="#d3d3d3" d="M746,-288C752,-288 758,-294 758,-300"/><path fill="#d3d3d3" stroke="#d3d3d3" d="M758,-312C758,-318 752,-324 746,-324"/><polyline fill="none" stroke="#000" points="746 -324 664 -324"/><path fill="none" stroke="#000" d="M664,-324C658,-324 652,-318 652,-312"/><polyline fill="none" stroke="#000" points="652 -312 652 -300"/><path fill="none" stroke="#000" d="M652,-300C652,-294 658,-288 664,-288"/><polyline fill="none" stroke="#000" points="664 -288 746 -288"/><path fill="none" stroke="#000" d="M746,-288C752,-288 758,-294 758,-300"/><polyline fill="none" stroke="#000" points="758 -300 758 -312"/><path fill="none" stroke="#000" d="M758,-312C758,-318 752,-324 746,-324"/><text x="705" y="-302.4" font-family="Times Roman,serif" font-size="14" text-anchor="middle">InstanceType</text></g><g id="edge38" class="edge"><title>InstanceType-&gt;ChefClient</title><path fill="none" stroke="#000" d="M658.93,-287.937C641.466,-278.753 622.436,-266.463 608,-252 567.838,-211.765 536.856,-152.211 523.666,-117.633"/><polygon fill="#000" stroke="#000" points="526.945 -116.409 520.288 -108.166 520.352 -118.761 526.945 -116.409"/></g><g id="edge42" class="edge"><title>InstanceType-&gt;ChefClient</title><path fill="none" stroke="#000" d="M675.34,-287.937C659.466,-278.753 640.436,-266.463 626,-252 585.666,-211.592 554.59,-151.7 535.921,-117.189"/><polygon fill="#000" stroke="#000" points="538.856 -115.261 530.987 -108.166 532.714 -118.619 538.856 -115.261"/></g><g id="node13" class="node"><title>ChefServerURL</title><polygon fill="#d3d3d3" stroke="#d3d3d3" points="886 -324 788 -324 776 -312 776 -300 788 -288 886 -288 898 -300 898 -312 886 -324"/><path fill="#d3d3d3" stroke="#d3d3d3" d="M788,-324C782,-324 776,-318 776,-312"/><path fill="#d3d3d3" stroke="#d3d3d3" d="M776,-300C776,-294 782,-288 788,-288"/><path fill="#d3d3d3" stroke="#d3d3d3" d="M886,-288C892,-288 898,-294 898,-300"/><path fill="#d3d3d3" stroke="#d3d3d3" d="M898,-312C898,-318 892,-324 886,-324"/><polyline fill="none" stroke="#000" points="886 -324 788 -324"/><path fill="none" stroke="#000" d="M788,-324C782,-324 776,-318 776,-312"/><polyline fill="none" stroke="#000" points="776 -312 776 -300"/><path fill="none" stroke="#000" d="M776,-300C776,-294 782,-288 788,-288"/><polyline fill="none" stroke="#000" points="788 -288 886 -288"/><path fill="none" stroke="#000" d="M886,-288C892,-288 898,-294 898,-300"/><polyline fill="none" stroke="#000" points="898 -300 898 -312"/><path fill="none" stroke="#000" d="M898,-312C898,-318 892,-324 886,-324"/><text x="837" y="-302.4" font-family="Times Roman,serif" font-size="14" text-anchor="middle">ChefServerURL</text></g><g id="edge28" class="edge"><title>ChefServerURL-&gt;ChefClient</title><path fill="none" stroke="#000" d="M789.925,-287.927C768.804,-278.098 744.082,-265.261 723,-252 653.877,-208.52 579.107,-148.653 541.701,-115.21"/><polygon fill="#000" stroke="#000" points="543.628 -112.231 533.874 -108.094 538.919 -117.411 543.628 -112.231"/></g><g id="edge8" class="edge"><title>ChefServerURL-&gt;ChefClient</title><path fill="none" stroke="#000" d="M805.763,-287.805C786.601,-277.993 761.995,-265.207 741,-252 671.297,-208.154 595.85,-147.646 552.845,-114.373"/><polygon fill="#000" stroke="#000" points="554.747 -111.42 544.688 -108.094 550.478 -116.967 554.747 -111.42"/></g><g id="node23" class="node"><title>AWS::Region</title><polygon fill="none" stroke="#000" points="781 -180 677 -180 677 -144 781 -144 781 -180"/><text x="729" y="-158.4" font-family="Times Roman,serif" font-size="14" text-anchor="middle">AWS::Region</text></g><g id="edge24" class="edge"><title>AWS::Region-&gt;ChefClient</title><path fill="none" stroke="#000" d="M676.854,-147.947C643.744,-137.592 601.413,-123.32 568.617,-111.531"/><polygon fill="#000" stroke="#000" points="569.797 -108.236 559.202 -108.119 567.411 -114.817 569.797 -108.236"/></g><g id="edge40" class="edge"><title>AWS::Region-&gt;ChefClient</title><path fill="none" stroke="#000" d="M687.915,-143.924C654.704,-131.778 608.139,-115.977 571.965,-104.623"/><polygon fill="#000" stroke="#000" points="572.646 -101.17 562.058 -101.546 570.569 -107.855 572.646 -101.17"/></g><g id="edge16" class="edge"><title>AWS::Region-&gt;ChefClient</title><path fill="none" stroke="#000" d="M676.843,-144.202C644.88,-133.296 604.054,-119.364 571.795,-108.357"/><polygon fill="#000" stroke="#000" points="572.672 -104.958 562.078 -105.041 570.412 -111.583 572.672 -104.958"/></g><g id="node25" class="node"><title>AWS::StackName</title><polygon fill="none" stroke="#000" points="877 -252 741 -252 741 -216 877 -216 877 -252"/><text x="809" y="-230.4" font-family="Times Roman,serif" font-size="14" text-anchor="middle">AWS::StackName</text></g><g id="edge18" class="edge"><title>AWS::StackName-&gt;ChefClient</title><path fill="none" stroke="#000" d="M810.586,-215.726C811.276,-195.332 808.971,-162.744 790,-144 759.847,-114.209 642.482,-99.8517 572.149,-93.7916"/><polygon fill="#000" stroke="#000" points="572.385 -90.299 562.129 -92.957 571.804 -97.275 572.385 -90.299"/></g></g></svg>